<svg width="90" height="60" viewBox="0 0 90 60" fill="none" xmlns="http://www.w3.org/2000/svg">
<g clip-path="url(#clip0_59_47)">
<mask id="mask0_59_47" style="mask-type:luminance" maskUnits="userSpaceOnUse" x="0" y="0" width="90" height="60">
<path d="M90 0H0V60H90V0Z" fill="white"/>
</mask>
<g mask="url(#mask0_59_47)">
<path d="M58.338 41.7402C56.291 41.7402 54.625 43.4062 54.625 45.4532C54.625 47.5012 56.291 49.1672 58.338 49.1672C60.386 49.1672 62.052 47.5012 62.052 45.4532C62.052 43.4062 60.386 41.7402 58.338 41.7402Z" fill="white"/>
<path d="M42.9995 42.2598H8.31055C8.03555 42.2598 7.81055 42.4848 7.81055 42.7598V44.4518C7.81055 44.7268 8.03555 44.9518 8.31055 44.9518H42.9995C43.2745 44.9518 43.4995 44.7268 43.4995 44.4518V42.7598C43.4995 42.4848 43.2745 42.2598 42.9995 42.2598Z" fill="white"/>
<path d="M72.5253 49.5771H70.8633C70.5883 49.5771 70.3633 49.8021 70.3633 50.0771V51.7691C70.3633 52.0441 70.5883 52.2691 70.8633 52.2691H72.5253V49.5771Z" fill="white"/>
<path d="M82.8004 49.5771H75.5254V52.2691H82.8004C83.0754 52.2691 83.3004 52.0441 83.3004 51.7691V50.0771C83.3004 49.8011 83.0754 49.5771 82.8004 49.5771Z" fill="white"/>
<path d="M0 34.5869V57.9949C0 59.1399 0.959 60.0509 2.102 59.9919L58.681 57.0999L87.81 59.8899C88.984 60.0019 90 59.0789 90 57.8989V34.5869H0ZM46.5 44.4529C46.5 46.3829 44.93 47.9529 43 47.9529H8.311C6.381 47.9529 4.811 46.3829 4.811 44.4529V42.7599C4.811 40.8299 6.381 39.2599 8.311 39.2599H43C44.93 39.2599 46.5 40.8299 46.5 42.7599V44.4529ZM58.338 52.1669C54.637 52.1669 51.625 49.1549 51.625 45.4529C51.625 41.7519 54.637 38.7399 58.338 38.7399C62.04 38.7399 65.052 41.7519 65.052 45.4529C65.052 49.1549 62.04 52.1669 58.338 52.1669ZM86.301 51.7689C86.301 53.6989 84.731 55.2689 82.801 55.2689H70.863C68.933 55.2689 67.363 53.6989 67.363 51.7689V50.0769C67.363 48.1469 68.933 46.5769 70.863 46.5769H82.801C84.731 46.5769 86.301 48.1469 86.301 50.0769V51.7689Z" fill="white"/>
<path d="M58.3102 31.586H89.0222L79.4152 2.07597C78.9892 0.767965 77.7292 -0.0820359 76.3572 0.0119641L36.7402 2.72996L58.3102 31.586ZM73.2192 8.31797C73.9872 8.00597 74.8622 8.37896 75.1712 9.14696L82.1262 26.36C82.4372 27.128 82.0652 28.002 81.2972 28.312C81.1132 28.386 80.9232 28.421 80.7362 28.421C80.1422 28.421 79.5802 28.067 79.3442 27.483L72.3902 10.27C72.0792 9.50197 72.4502 8.62797 73.2192 8.31797ZM65.2372 9.08096C65.9842 8.71496 66.8812 9.02897 67.2422 9.77297L75.3112 26.367C75.6732 27.112 75.3642 28.01 74.6192 28.372C74.4072 28.476 74.1832 28.523 73.9642 28.523C73.4082 28.523 72.8732 28.212 72.6142 27.679L64.5452 11.085C64.1832 10.34 64.4922 9.44296 65.2372 9.08096ZM57.2612 9.84796C57.9782 9.43796 58.8962 9.68197 59.3092 10.402L68.4932 26.379C68.9052 27.097 68.6582 28.014 67.9392 28.427C67.7042 28.562 67.4472 28.626 67.1932 28.626C66.6742 28.626 66.1692 28.356 65.8912 27.873L56.7072 11.896C56.2952 11.178 56.5422 10.261 57.2612 9.84796ZM49.2872 10.623C49.9732 10.162 50.9052 10.346 51.3682 11.034L61.6662 26.392C62.1272 27.08 61.9432 28.011 61.2552 28.473C60.9992 28.645 60.7082 28.727 60.4212 28.727C59.9382 28.727 59.4642 28.494 59.1742 28.062L48.8762 12.704C48.4152 12.016 48.5992 11.084 49.2872 10.623Z" fill="white"/>
<path d="M32.8896 2.58913L13.7766 0.164124C12.3486 -0.0168766 10.9926 0.842124 10.5466 2.21113L0.976562 31.5862H54.5646L32.8896 2.58913Z" fill="white"/>
</g>
</g>
<defs>
<clipPath id="clip0_59_47">
<rect width="90" height="60" fill="white"/>
</clipPath>
</defs>
</svg>
