<svg width="100" height="124" viewBox="0 0 100 124" fill="none" xmlns="http://www.w3.org/2000/svg">
<path fill-rule="evenodd" clip-rule="evenodd" d="M95.8191 30.7715C95.8191 30.2637 95.3116 29.8575 94.8041 29.9591L84.9583 28.5373H84.6538H70.9508C70.1388 22.1392 67.7027 11.3743 63.0335 5.17937C60.496 1.72646 57.4509 0 54.2028 0C52.1727 0 50.1426 0.710902 48.5186 1.92958C46.8945 0.914014 44.8645 0.507787 42.9359 0.609343C33.5976 1.52335 30.7555 15.2334 30.1465 28.5373C22.0262 28.5373 13.8044 28.6388 5.68418 28.8419C5.07516 28.8419 4.56765 29.2482 4.56765 29.8575C4.36464 33.6151 3.45111 48.2391 2.23307 70.7846C0.913527 94.6503 0.203007 107.649 0 111.102C0 111.61 0.406007 112.016 0.913524 112.118L40.1953 118.11L79.0711 124C79.3756 124 79.6801 124 79.9846 123.797L99.1687 111.509C99.7778 111.204 100.082 110.595 99.9808 109.884L95.8191 30.7715ZM54.2028 3.65603C56.1313 3.75758 57.9584 4.67159 59.0749 6.19493C63.8456 11.3743 66.1802 22.3423 67.1952 28.5373H61.308C59.9885 20.3112 56.6389 9.85095 51.5637 4.36692C52.3757 3.85914 53.3907 3.65603 54.2028 3.65603ZM48.8231 6.80426C53.2892 11.3743 56.3343 20.9205 57.5524 28.5373H43.2404C43.6464 21.5299 45.0675 11.7805 48.8231 6.80426ZM31.9735 80.6356L21.3157 84.4947C19.4886 85.2056 19.1841 86.1196 20.7067 86.6274C22.7367 87.1351 24.8683 87.0336 26.8984 86.3227L31.9735 84.4947V89.8772L30.9585 90.0803C25.6803 90.9943 20.1992 90.4865 15.0225 88.76C10.0488 87.3383 9.13529 84.3931 11.4699 82.6667C13.1954 81.5496 15.124 80.6355 17.1541 79.9247L31.9735 74.6438V80.6356ZM43.4434 4.26535C44.2554 4.1638 45.169 4.26536 45.8795 4.67159C41.2103 11.0696 39.8908 22.2408 39.4848 28.5373H33.9021C34.6126 13.507 37.9622 4.77313 43.4434 4.26535ZM44.3569 57.6839V95.9705L34.0036 92.7207V47.0205C38.7743 48.036 43.5449 49.3563 48.2141 50.8796C56.9434 53.9263 59.887 57.5823 59.887 66.0115C59.887 74.2375 54.8118 77.3857 48.4171 74.2375V59.0041C48.4171 57.1761 48.1126 55.5512 46.387 55.0434C45.169 54.7387 44.3569 55.8559 44.3569 57.6839ZM73.0824 84.4947C71.8643 86.018 68.8192 87.1351 68.8192 87.1351L46.2855 95.2596V89.2678L62.9321 83.3776C64.7591 82.6667 65.0636 81.7527 63.5411 81.2449C61.511 80.7371 59.3794 80.8387 57.3494 81.5496L46.2855 85.4087V79.2138L46.8945 79.0107C49.4321 78.1982 51.9697 77.6904 54.6088 77.3858C59.4809 76.878 64.3531 77.4873 68.9207 79.1122C73.7929 80.6356 74.3004 82.9713 73.0824 84.4947Z" fill="#0072CE"/>
</svg>
