<svg width="30" height="14" fill="none" xmlns="http://www.w3.org/2000/svg"><path d="M23.25.281c-1.8 0-3.5.7-4.719 1.919L15 5.325l-.006-.006L13.1 6.987l.013.013-3.37 2.987A4.222 4.222 0 016.75 11.22c-2.337 0-4.237-1.894-4.237-4.219s1.9-4.219 4.237-4.219c1.131 0 2.194.438 3.05 1.288l1.419 1.256 1.887-1.669-1.581-1.4A6.723 6.723 0 006.75.287C3.025.281 0 3.294 0 7s3.025 6.719 6.75 6.719c1.8 0 3.494-.7 4.719-1.913L15 8.675l.006.006 1.888-1.675L16.888 7l3.368-2.981c.8-.8 1.863-1.238 2.994-1.238 2.337 0 4.238 1.894 4.238 4.219s-1.9 4.219-4.238 4.219c-1.131 0-2.194-.438-3.05-1.282l-1.419-1.256-1.887 1.675 1.581 1.4a6.713 6.713 0 004.769 1.963C26.975 13.719 30 10.706 30 7 30 3.294 26.975.281 23.25.281z" fill="#31456A"/></svg>