<svg width="30" height="30" fill="none" xmlns="http://www.w3.org/2000/svg"><path d="M15 9.375A5.632 5.632 0 009.375 15 5.632 5.632 0 0015 20.625 5.632 5.632 0 0020.625 15 5.632 5.632 0 0015 9.375zm0 9.375A3.754 3.754 0 0111.25 15 3.754 3.754 0 0115 11.25 3.754 3.754 0 0118.75 15 3.754 3.754 0 0115 18.75z" fill="#31456A"/><path d="M29.063 14.063h-2.86c-.454-5.457-4.81-9.812-10.265-10.266V.937a.938.938 0 00-1.876 0v2.86c-5.455.453-9.81 4.811-10.265 10.265H.937a.938.938 0 000 1.876h2.86c.454 5.456 4.81 9.811 10.265 10.265v2.86a.938.938 0 001.876 0v-2.86c5.456-.454 9.811-4.81 10.265-10.265h2.86a.937.937 0 100-1.876zM15 24.374c-5.17 0-9.375-4.206-9.375-9.375 0-5.17 4.206-9.375 9.375-9.375 5.17 0 9.375 4.206 9.375 9.375 0 5.17-4.206 9.375-9.375 9.375z" fill="#31456A"/></svg>