<svg width="30" height="30" fill="none" xmlns="http://www.w3.org/2000/svg"><path d="M19.219 5.156H8.907a3.287 3.287 0 00-3.282 3.285V21.56a3.287 3.287 0 003.282 3.285h10.312A3.287 3.287 0 0022.5 21.56V8.44a3.287 3.287 0 00-3.281-3.285zm2.344 16.403a2.348 2.348 0 01-2.344 2.347H8.907a2.348 2.348 0 01-2.344-2.347V8.44a2.348 2.348 0 012.344-2.347h10.312a2.348 2.348 0 012.344 2.347v13.12z" fill="#31456A"/><path d="M20.149 5.541l-.687-3.774C19.282.776 18.352 0 17.346 0h-6.568C9.772 0 8.843.776 8.662 1.767L7.976 5.54a.468.468 0 00.461.553h11.25a.469.469 0 00.462-.553zm-11.15-.385l.586-3.222c.098-.54.645-.997 1.193-.997h6.568c.549 0 1.096.457 1.194.997l.586 3.222H8.999zm11.048 18.919a.468.468 0 00-.36-.169H8.437a.47.47 0 00-.46.553l.685 3.774c.18.991 1.11 1.767 2.116 1.767h6.568c1.007 0 1.936-.776 2.116-1.767l.687-3.774a.468.468 0 00-.102-.384zm-1.507 3.99c-.098.54-.645.997-1.194.997h-6.568c-.548 0-1.095-.456-1.193-.997l-.586-3.221h10.127l-.586 3.221zm4.498-17.752h-1.007a.469.469 0 00-.468.468V15c0 .26.21.469.468.469h1.007c.737 0 1.337-.6 1.337-1.337V11.65c0-.737-.6-1.336-1.337-1.336zm.4 3.82a.4.4 0 01-.4.398H22.5V11.25h.538a.4.4 0 01.4.4v2.482z" fill="#31456A"/></svg>