<svg width="30" height="30" fill="none" xmlns="http://www.w3.org/2000/svg"><path d="M29.828 10.051L27.82 8.044a.587.587 0 00-.564-.153l-.712.189-.392-.392.253-.464a.586.586 0 00-.1-.695l-4.71-4.71a5.88 5.88 0 00-8.307 0L11.776 3.33a.587.587 0 000 .83l1.268 1.268c.229.229.6.229.829 0a1.804 1.804 0 011.284-.532c.485 0 .941.189 1.284.532l1.313 1.312a1.162 1.162 0 010 1.642l-4.795 4.794a1.703 1.703 0 00-1.785.395l-3.48 3.48a.587.587 0 00.83.83l3.48-3.48a.524.524 0 01.747 0l1.728 1.728-2.245 2.244a.587.587 0 00.83.83l2.244-2.244.19.19a.524.524 0 010 .747L4.823 28.573a.524.524 0 01-.747 0l-.19-.19 3.036-3.037a.587.587 0 00-.83-.83l-3.036 3.037-1.728-1.729a.529.529 0 010-.746l4.338-4.338a.587.587 0 00-.83-.83L.498 24.248a1.703 1.703 0 000 2.406l2.749 2.748c.331.332.767.498 1.202.498.436 0 .872-.166 1.203-.498l10.677-10.677a1.703 1.703 0 00.395-1.785l4.765-4.764 1.064-.792.344.344-.189.712a.587.587 0 00.153.564l2.007 2.008a.587.587 0 00.83 0l4.131-4.131a.587.587 0 000-.83zm-13.822 5.947l-2.104-2.105 4.267-4.267 2.104 2.105-4.267 4.267zm9.276-2.23l-1.354-1.355.188-.712a.587.587 0 00-.152-.564l-.94-.94a.587.587 0 00-.765-.056l-1.1.817-2.213-2.214a2.338 2.338 0 00-.363-2.833l-1.312-1.313a2.994 2.994 0 00-3.772-.374l-.479-.479 1.098-1.097a4.706 4.706 0 016.647 0l4.4 4.4-.253.464a.586.586 0 00.1.695l.94.94a.587.587 0 00.566.153l.712-.188 1.354 1.354-3.302 3.302z" fill="#31456A"/></svg>