<svg width="30" height="30" fill="none" xmlns="http://www.w3.org/2000/svg"><path d="M21.63 10.24a1.17 1.17 0 010 1.658l-7.86 7.862c-.459.457-1.2.457-1.658 0l-3.743-3.743a1.171 1.171 0 111.657-1.657l2.914 2.914 7.033-7.034a1.172 1.172 0 011.658 0zM30 15c0 8.291-6.71 15-15 15-8.291 0-15-6.71-15-15C0 6.709 6.71 0 15 0c8.291 0 15 6.71 15 15zm-2.344 0c0-6.996-5.661-12.656-12.656-12.656C8.004 2.344 2.344 8.005 2.344 15c0 6.996 5.661 12.656 12.656 12.656 6.996 0 12.656-5.661 12.656-12.656z" fill="#31456A"/></svg>