<svg width="30" height="30" fill="none" xmlns="http://www.w3.org/2000/svg"><path d="M26.757 0H22.56a.879.879 0 000 1.758h4.198c.82 0 1.485.666 1.485 1.485V7.44a.879.879 0 001.758 0V3.243A3.246 3.246 0 0026.757 0zM.879 8.32a.879.879 0 00.879-.879V3.243c0-.82.666-1.485 1.485-1.485H7.44A.879.879 0 007.44 0H3.243A3.246 3.246 0 000 3.243V7.44c0 .486.394.88.879.88zm6.562 19.922H3.243a1.487 1.487 0 01-1.485-1.485V22.56a.879.879 0 00-1.758 0v4.198A3.246 3.246 0 003.243 30H7.44a.879.879 0 000-1.758zm21.68-6.562a.879.879 0 00-.879.879v4.198c0 .82-.666 1.485-1.485 1.485H22.56a.879.879 0 000 1.758h4.198A3.246 3.246 0 0030 26.757V22.56a.879.879 0 00-.879-.88zM24.532 5.857c-6.1-4.526-12.675-4.64-18.955-.08A.879.879 0 006.61 7.198c5.675-4.121 11.41-3.985 16.875.07a.879.879 0 001.047-1.412z" fill="#31456A"/><path d="M15 6.152c-3.734 0-8.534 2.486-10.575 5.548a.879.879 0 101.463.975C7.58 10.137 11.838 7.91 15 7.91c3.096 0 7.331 1.652 9.08 4.714a.879.879 0 101.527-.873C23.592 8.226 18.86 6.152 15 6.152zm-4.746 14.473c0-2.875 2.129-5.215 4.746-5.215 2.617 0 4.746 2.34 4.746 5.215v.938a.879.879 0 001.758 0v-.938c0-3.845-2.918-6.973-6.504-6.973-3.586 0-6.504 3.128-6.504 6.973 0 3.737 2.81 5.74 4.05 7.532a.88.88 0 001.445-1c-1.342-1.94-3.737-3.549-3.737-6.532z" fill="#31456A"/><path d="M24.692 23.83C27.41 18.398 22.578 9.902 15 9.902c-5.335 0-10.254 4.522-10.254 10.254 0 2.081.267 3.841 1.57 5.667a.879.879 0 101.43-1.021c-.917-1.286-1.242-2.502-1.242-4.646 0-4.526 3.97-8.496 8.496-8.496 2.279 0 4.529 1.005 6.174 2.757 2.328 2.48 3.165 6.19 1.946 8.627-1.269 2.538-5.366 1.819-5.366-1.482 0-6.518-6.677-4.568-5.482.214a.879.879 0 001.706-.427c-.307-1.228.256-2.189 1.022-2.189.688 0 .996 1.207.996 2.402 0 5.147 6.593 6.476 8.696 2.268z" fill="#31456A"/></svg>