<svg width="30" height="24" fill="none" xmlns="http://www.w3.org/2000/svg"><path d="M26.5 7.915a1.5 1.5 0 11-3 0 1.5 1.5 0 013 0z" fill="#31456A"/><path fill-rule="evenodd" clip-rule="evenodd" d="M15.07 19.5a6 6 0 100-12 6 6 0 000 12zm0 1a7 7 0 100-14 7 7 0 000 14z" fill="#31456A"/><path fill-rule="evenodd" clip-rule="evenodd" d="M9.11 1.222A2.98 2.98 0 0111 .5h8a2.98 2.98 0 011.89.722c.558.483.985 1.221 1.087 2.278H26.5c.497 0 1.23.145 1.855.594.65.468 1.145 1.243 1.145 2.406V21c0 1.276-1.224 3-3.5 3H4C1.724 24 .5 22.276.5 21V6.5c0-1.163.496-1.938 1.145-2.406A3.292 3.292 0 013.5 3.5h4.523c.103-1.057.529-1.795 1.088-2.278zm.654.756C9.366 2.323 9 2.928 9 4v.5H3.5c-.337 0-.853.105-1.27.406-.392.282-.73.757-.73 1.594V21c0 .724.776 2 2.5 2h22c1.724 0 2.5-1.276 2.5-2V6.5c0-.837-.338-1.312-.73-1.594A2.294 2.294 0 0026.5 4.5H21V4c0-1.072-.366-1.677-.764-2.022A1.982 1.982 0 0019 1.5h-8c-.316 0-.82.118-1.236.478z" fill="#31456A"/></svg>