<svg width="30" height="30" fill="none" xmlns="http://www.w3.org/2000/svg"><path d="M15 3.516A1.758 1.758 0 1015 0a1.758 1.758 0 000 3.516zm-.059 12.597a1.172 1.172 0 00.83-2L5.37 3.713 3.712 5.37l10.4 10.4c.213.212.506.343.83.343z" fill="#31456A"/><path d="M26.563 5.445A15.056 15.056 0 0018.91.517a4.084 4.084 0 01.012 2.446C24.059 4.636 27.656 9.487 27.656 15c0 6.979-5.677 12.656-12.656 12.656C8.021 27.656 2.344 21.98 2.344 15c0-2.174.545-4.264 1.57-6.115L2.198 7.171A14.902 14.902 0 000 15c0 4.007 1.56 7.773 4.393 10.607A14.902 14.902 0 0015 30c4.007 0 7.773-1.56 10.607-4.393A14.902 14.902 0 0030 15c0-3.483-1.22-6.876-3.437-9.555z" fill="#31456A"/></svg>