<svg width="26" height="30" fill="none" xmlns="http://www.w3.org/2000/svg"><path d="M25.744 8.14l-.001-.024a30.878 30.878 0 01-.027-.932 3.18 3.18 0 00-2.994-3.115c-3.45-.192-6.118-1.317-8.398-3.54l-.02-.018a1.92 1.92 0 00-2.608 0l-.02.019C9.396 2.752 6.728 3.877 3.28 4.07A3.18 3.18 0 00.285 7.183c-.005.337-.014.642-.027.932l-.001.055C.19 11.688.107 16.065 1.57 20.038c.805 2.185 2.024 4.084 3.624 5.646 1.822 1.778 4.208 3.19 7.093 4.195a2.18 2.18 0 001.134.079c.1-.02.198-.047.292-.08 2.881-1.007 5.265-2.42 7.085-4.197 1.6-1.562 2.819-3.461 3.625-5.647 1.47-3.985 1.386-8.37 1.32-11.894zm-2.972 11.285c-1.545 4.188-4.697 7.064-9.639 8.792a.395.395 0 01-.266 0c-4.946-1.725-8.101-4.6-9.644-8.787-1.35-3.663-1.274-7.68-1.206-11.226v-.02c.014-.304.023-.623.028-.974a1.413 1.413 0 011.332-1.383c1.952-.109 3.667-.486 5.242-1.153 1.574-.666 2.971-1.605 4.272-2.87a.162.162 0 01.218 0c1.301 1.265 2.699 2.204 4.272 2.87 1.576.667 3.29 1.044 5.243 1.153.736.041 1.32.649 1.332 1.383.005.353.014.672.028.975.067 3.549.141 7.57-1.212 11.24z" fill="#31456A"/><path d="M17.963 9.522l-7.02 7.02-1.906-1.906a1.78 1.78 0 00-2.516 2.516l3.164 3.164a1.777 1.777 0 002.516 0l8.278-8.278a1.78 1.78 0 00-2.516-2.516z" fill="#31456A"/></svg>