<svg width="30" height="30" fill="none" xmlns="http://www.w3.org/2000/svg"><path d="M24.27 0h-5.43a2.3 2.3 0 00-2.297 2.296v5.43a2.3 2.3 0 002.297 2.297h5.43a2.3 2.3 0 002.296-2.297v-5.43A2.299 2.299 0 0024.269 0zm.538 7.726a.54.54 0 01-.539.539h-5.43a.54.54 0 01-.538-.539v-5.43a.54.54 0 01.539-.538h5.43a.54.54 0 01.538.538v5.43z" fill="#31456A"/><path d="M20.063 12.217c-.421 0-.82.104-1.168.29a2.506 2.506 0 00-3.321-.793 2.504 2.504 0 00-2.767-.91v-.781h.208a2.3 2.3 0 002.297-2.297v-5.43A2.3 2.3 0 0013.015 0h-5.43A2.3 2.3 0 005.29 2.296v5.43a2.3 2.3 0 002.297 2.297h.209v5.444a2.519 2.519 0 00-2.25-.694c-.668.027-1.267.318-1.656.808-.409.515-.55 1.206-.39 1.896l1.155 4.943c.66 4.124 3.876 7.21 4.013 7.34.164.154.38.24.605.24h9.885a.879.879 0 00.734-.396 16.238 16.238 0 002.677-8.943l.001-5.938a2.509 2.509 0 00-2.506-2.506zM9.641 28.242c-.709-.753-2.796-3.186-3.255-6.127a.88.88 0 00-.013-.064l-1.162-4.974c-.039-.166-.02-.31.055-.403.074-.094.201-.143.371-.159.086-.008.121-.018.2-.023.2-.012.404.001.574.107.17.105.288.27.334.465l1.002 4.29a.879.879 0 00.747.673l.07.008a.879.879 0 00.988-.872V7.195a.75.75 0 011.497 0v8.242a.879.879 0 001.758 0v-2.24a.749.749 0 011.496 0v2.34a.879.879 0 001.758 0v-1.643a.75.75 0 011.496 0v2.256a.879.879 0 001.758 0v-1.428a.75.75 0 011.496 0v5.938a14.48 14.48 0 01-2.137 7.581H9.641zM7.047 7.726v-5.43a.54.54 0 01.539-.538h5.43a.54.54 0 01.538.538v5.43a.54.54 0 01-.539.539h-.208v-1.07A2.509 2.509 0 0010.3 4.689a2.509 2.509 0 00-2.506 2.506v1.07h-.208a.54.54 0 01-.539-.539z" fill="#31456A"/></svg>