<svg height="512" width="512" xmlns="http://www.w3.org/2000/svg"><path d="M262.09 10.82a7.986 7.986 0 00-12.18 0C242.64 19.35 72 220.99 72 320c0 101.46 82.54 184 184 184s184-82.54 184-184c0-99.01-170.64-300.65-177.91-309.18zM256 488c-92.64 0-168-75.36-168-168 0-83.1 137.16-254.11 168-291.5C286.84 65.88 424 236.87 424 320c0 92.64-75.36 168-168 168z"/><path d="M256 456a136.232 136.232 0 01-128.448-91.278A8 8 0 10112.447 370 152.248 152.248 0 00256 472a8 8 0 000-16zm-48-184a8 8 0 008-8v-16h16v16a8 8 0 0016 0v-48a8 8 0 00-16 0v16h-16v-16a8 8 0 00-16 0v48a8 8 0 008 8zm96-64h-32a8 8 0 00-8 8v48a8 8 0 008 8h32a8 8 0 008-8v-48a8 8 0 00-8-8zm-8 48h-16v-32h16zm-32 24h-16a8 8 0 000 16h8v3.056l-11.578 5.789A8 8 0 00240 312v16a8 8 0 008 8h16a8 8 0 000-16h-8v-3.056l11.578-5.789A8 8 0 00272 304v-16a8 8 0 00-8-8z"/></svg>