<svg height="512" width="512" xmlns="http://www.w3.org/2000/svg"><path d="M291.03 90h-70.06A205.208 205.208 0 01141 145.98v91.77c0 77.61 44.93 147.21 115 179.07 70.07-31.86 115-101.46 115-179.07v-91.76A205.055 205.055 0 01291.03 90zm45.58 129.03l-93.34 93.331a14.956 14.956 0 01-10.6 4.399c-3.84 0-7.68-1.47-10.61-4.399l-46.67-46.66c-5.85-5.86-5.85-15.36 0-21.22 5.86-5.85 15.36-5.85 21.22 0l36.06 36.06 82.73-82.72c5.85-5.86 15.35-5.86 21.21 0 5.85 5.859 5.85 15.349 0 21.209zM445.91 70c-43.24 0-82.62-23.76-102.8-62-2.591-4.92-7.7-8-13.261-8h-147.7c-5.56 0-10.67 3.08-13.27 8C148.71 46.24 109.33 70 66 70c-8.28 0-15 6.72-15 15v152.75c0 61.41 19.19 120.05 55.49 169.58s86.43 85.479 144.99 103.97c1.47.47 3 .7 4.52.7s3.05-.23 4.52-.7c58.561-18.49 108.69-54.439 144.99-103.97S461 299.16 461 237.75V85c0-8.28-6.81-15-15.09-15zM401 237.07c0 91.86-54.65 174.01-139.23 209.28-1.85.771-3.81 1.15-5.77 1.15s-3.93-.38-5.77-1.15C165.65 411.08 111 328.929 111 237.07V134.75c0-6.48 4.16-12.23 10.32-14.25a175.278 175.278 0 0081.08-55.67c2.85-3.49 7.12-5.51 11.62-5.51h83.96c4.6 0 10.02 3.56 11.619 5.51a175.278 175.278 0 0081.08 55.67 14.966 14.966 0 019.33 8.92c.021.04.03.09.05.13.381 1.03.65 2.11.801 3.22.01.11.029.23.04.34.06.54.1 1.08.1 1.64z"/></svg>