<svg width="30" height="24" fill="none" xmlns="http://www.w3.org/2000/svg"><path d="M29.002 3.873a3.226 3.226 0 00-2.367-.998h-4.734v-.058c0-.712-.285-1.397-.77-1.853a2.61 2.61 0 00-1.853-.77h-8.556A2.627 2.627 0 008.07 2.817v.058H3.365c-.941 0-1.768.37-2.367.998A3.39 3.39 0 000 6.24v14.2c0 .941.37 1.768.998 2.367a3.39 3.39 0 002.367.998h23.27c.941 0 1.768-.37 2.367-.998A3.39 3.39 0 0030 20.441V6.24a3.22 3.22 0 00-.998-2.367zm-.485 16.568h-.028c0 .513-.2.97-.542 1.312a1.83 1.83 0 01-1.312.542H3.365c-.513 0-.97-.2-1.312-.542a1.83 1.83 0 01-.542-1.312V6.24c0-.514.2-.97.542-1.312a1.83 1.83 0 011.312-.542h5.504c.428 0 .77-.342.77-.77v-.827c0-.314.114-.599.313-.799.2-.2.485-.313.799-.313h8.527c.313 0 .598.114.798.313.2.2.314.485.314.799v.827c0 .428.342.77.77.77h5.503c.514 0 .97.2 1.312.542.342.342.542.798.542 1.312v14.2z" fill="#31456A"/><path d="M15 6.325a7.03 7.03 0 00-4.962 2.053 6.959 6.959 0 00-2.053 4.962c0 1.94.798 3.707 2.053 4.962A6.959 6.959 0 0015 20.355c1.94 0 3.707-.798 4.962-2.053a6.96 6.96 0 002.053-4.962 7.027 7.027 0 00-2.053-4.962A7.028 7.028 0 0015 6.325zm3.878 10.922A5.573 5.573 0 0115 18.844a5.573 5.573 0 01-3.878-1.597 5.452 5.452 0 01-1.597-3.878c0-1.512.627-2.88 1.597-3.879A5.452 5.452 0 0115 7.894c1.512 0 2.88.627 3.878 1.596a5.452 5.452 0 011.597 3.879c.029 1.511-.599 2.88-1.597 3.878zm6.274-8.156a1.397 1.397 0 100-2.795 1.397 1.397 0 000 2.795z" fill="#31456A"/></svg>