<svg width="10" height="19" fill="none" xmlns="http://www.w3.org/2000/svg"><path d="M1.885 6.24c.596.549 1.545 1.013 2.846 1.392 1.038.304 1.755.614 2.15.928.396.31.593.75.593 1.321s-.213 1.022-.64 1.353c-.427.33-1.04.496-1.842.496H2.534V9.881L1 8.776v9.067h1.534v-4.856h2.458c1.217 0 2.19-.283 2.917-.849C8.636 11.568 9 10.81 9 9.865c0-.592-.132-1.107-.395-1.545-.258-.437-.659-.819-1.202-1.144-.537-.331-1.286-.633-2.245-.905-.954-.272-1.631-.57-2.032-.896-.395-.331-.592-.734-.592-1.209 0-.592.208-1.054.624-1.384.422-.337 1.007-.505 1.755-.505.806 0 1.43.203 1.874.609.442.4.664.952.664 1.656h1.525a3.28 3.28 0 00-.514-1.784c-.337-.545-.816-.972-1.438-1.281-.617-.31-1.32-.464-2.111-.464-1.16 0-2.103.301-2.83.904C1.361 2.515 1 3.272 1 4.19c0 .811.295 1.494.885 2.05z" fill="#31456A" stroke="#31456A"/></svg>