<svg width="30" height="18" fill="none" xmlns="http://www.w3.org/2000/svg"><path d="M29.843 15.463c-.039-.077-.072-.143-.104-.197-.52-.936-1.516-2.09-2.982-3.452l-.033-.033-.016-.017-.016-.016h-.017c-.667-.635-1.088-1.061-1.264-1.28-.322-.416-.394-.837-.219-1.264.126-.323.597-1.006 1.407-2.046.426-.552.765-.996 1.017-1.33 1.8-2.395 2.582-3.927 2.341-4.59l-.093-.152c-.06-.093-.224-.18-.48-.257-.264-.077-.597-.093-1.002-.039l-4.497.033c-.071-.027-.175-.022-.312.006-.137.032-.202.049-.202.049l-.077.038-.06.05a.67.67 0 00-.17.163c-.06.077-.114.17-.153.274a25.409 25.409 0 01-1.674 3.512 32.87 32.87 0 01-1.061 1.68c-.323.476-.59.82-.81 1.045a4.9 4.9 0 01-.596.536c-.175.136-.312.191-.405.17-.093-.023-.18-.045-.268-.06a.987.987 0 01-.35-.384 1.767 1.767 0 01-.18-.607 6.176 6.176 0 01-.055-.635c-.006-.175 0-.426.005-.75.011-.322.017-.54.017-.656 0-.394.005-.826.021-1.29.017-.466.028-.832.039-1.1.01-.268.016-.558.016-.86 0-.3-.016-.535-.055-.71a2.648 2.648 0 00-.164-.498.868.868 0 00-.322-.378 1.947 1.947 0 00-.526-.213c-.552-.126-1.252-.192-2.106-.203-1.936-.021-3.178.104-3.73.378a2.003 2.003 0 00-.592.47c-.186.23-.213.356-.076.378.623.093 1.066.317 1.33.673l.092.186c.071.137.148.377.219.716.071.345.12.723.142 1.138.055.76.055 1.412 0 1.953-.054.542-.104.963-.147 1.264-.05.301-.115.547-.214.733a5.02 5.02 0 01-.186.345.244.244 0 01-.077.076c-.136.05-.273.077-.42.077-.148 0-.324-.071-.531-.219a3.573 3.573 0 01-.646-.602 7.895 7.895 0 01-.755-1.072 19.316 19.316 0 01-.875-1.625l-.252-.454c-.158-.29-.372-.716-.64-1.274a22.352 22.352 0 01-.717-1.62 1.005 1.005 0 00-.377-.498L5.908.976a.869.869 0 00-.251-.131A1.61 1.61 0 005.296.74L1.018.774c-.438 0-.734.098-.892.295l-.06.093C.016 1.228 0 1.315 0 1.43c0 .115.033.257.093.422a50.72 50.72 0 002.04 4.25c.734 1.362 1.374 2.462 1.915 3.294a38.717 38.717 0 001.658 2.357c.563.739.935 1.215 1.116 1.423.18.208.328.366.432.47l.389.378c.251.251.618.547 1.1.897.486.35 1.022.695 1.608 1.034.59.34 1.274.613 2.051.826.782.213 1.543.3 2.281.257h1.795c.366-.033.64-.148.826-.345l.06-.076a.877.877 0 00.115-.29c.038-.131.055-.274.055-.432a4.844 4.844 0 01.104-1.21c.076-.36.164-.628.267-.809.1-.18.214-.334.334-.46.126-.125.214-.202.268-.224a.736.736 0 01.126-.054c.252-.082.542 0 .881.24.34.246.657.547.952.908.295.361.65.76 1.072 1.21.416.448.782.782 1.094 1l.312.187c.208.125.482.24.815.344.334.104.624.132.875.077l4-.06c.393 0 .705-.066.919-.197.218-.132.35-.274.388-.433a1.15 1.15 0 00.006-.53 1.996 1.996 0 00-.104-.421z" fill="#45668E"/></svg>