<svg width="30" height="30" fill="none" xmlns="http://www.w3.org/2000/svg"><path d="M29.821 8.814a10.691 10.691 0 00-.828-2.586.441.441 0 00-1.381-2.215l-.012-.01a10.863 10.863 0 00-1.643-1.635l-.01-.011a.44.44 0 00-.089-.069 10.793 10.793 0 00-2.047-1.263.436.436 0 00-.087-.04A10.681 10.681 0 0019.227 0c-.498 0-.987.035-1.467.1h-.005c-4.55.625-8.203 4.101-9.093 8.562a10.73 10.73 0 00-3.324 1.261.44.44 0 00.445.76A9.837 9.837 0 018.52 9.594a10.845 10.845 0 00.109 3.11c.163.899.438 1.759.81 2.565.01.03.024.06.041.088.346.73.77 1.417 1.263 2.047a.44.44 0 00.069.09l.01.009a10.872 10.872 0 001.636 1.643l.01.011a.435.435 0 00.087.067 10.798 10.798 0 002.128 1.315 10.688 10.688 0 004.545 1.007c.398 0 .792-.023 1.179-.065-1.023 4.372-4.954 7.638-9.633 7.638-5.455 0-9.892-4.438-9.892-9.892a9.802 9.802 0 013.102-7.195.44.44 0 00-.604-.64A10.736 10.736 0 000 19.227C0 25.167 4.833 30 10.773 30c5.218 0 9.58-3.73 10.565-8.662 4.487-.895 7.978-4.586 8.572-9.173l.001-.008a10.821 10.821 0 00-.09-3.343zm-2.569-3.818c.294.407.558.837.788 1.287l-7.802 7.802a10.823 10.823 0 00-.81-1.265l7.824-7.824zm-.55-.696l-7.83 7.83c-.324-.368-.67-.714-1.04-1.035l7.83-7.83c.37.32.719.665 1.04 1.035zm-1.739-1.582l-7.824 7.824a10.801 10.801 0 00-1.27-.805l7.8-7.801c.453.228.885.49 1.294.782zm-3.758-1.639a9.809 9.809 0 011.603.473l-7.78 7.779a10.684 10.684 0 00-1.543-.531l7.72-7.72zM18.008.956a9.939 9.939 0 012.11-.035l-7.664 7.664a10.814 10.814 0 00-1.95-.127L18.009.956zm-1.572.326l-6.7 6.7a9.933 9.933 0 016.7-6.7zm-7.06 10.382a9.957 9.957 0 01.034-2.11l.142-.143a9.922 9.922 0 012.112-.036l-2.289 2.289zm.157 1.087l3.218-3.218a9.79 9.79 0 011.603.473l-4.348 4.348a9.81 9.81 0 01-.473-1.603zm1.639 3.758a9.907 9.907 0 01-.782-1.294l4.825-4.825a9.9 9.9 0 011.294.782l-5.337 5.337zm.547.698l5.488-5.488c.372.32.72.665 1.04 1.035l-5.493 5.494a9.988 9.988 0 01-1.035-1.04zm1.73 1.59l5.349-5.347c.294.407.558.837.788 1.287l-4.85 4.85a9.804 9.804 0 01-1.286-.79zm3.741 1.657a9.794 9.794 0 01-1.596-.48l4.38-4.38a9.87 9.87 0 01.48 1.596l-3.264 3.264zm3.41-.088l-.234.233a9.937 9.937 0 01-2.095.02l2.348-2.348a9.978 9.978 0 01-.02 2.095zm.585-3.907a10.684 10.684 0 00-.538-1.537l7.781-7.782a9.87 9.87 0 01.48 1.596l-7.723 7.723zm.732 3.835l6.83-6.83a9.933 9.933 0 01-6.83 6.83zm7.136-8.382l-7.51 7.51.003-.195c0-.593-.049-1.175-.142-1.742l7.669-7.668a9.944 9.944 0 01-.02 2.095z" fill="#31456A"/></svg>