<svg width="25" height="26" fill="none" xmlns="http://www.w3.org/2000/svg"><mask id="a" fill="#fff"><path d="M24.936 7.351c-.058-1.328-.273-2.242-.58-3.033A6.103 6.103 0 0022.908 2.1 6.153 6.153 0 0020.696.66C19.9.351 18.992.136 17.663.077 16.325.015 15.9 0 12.505 0 9.11 0 8.685.015 7.35.073 6.023.132 5.11.347 4.318.654A6.101 6.101 0 002.1 2.1 6.156 6.156 0 00.66 4.313C.351 5.11.136 6.018.077 7.347.015 8.685 0 9.11 0 12.505c0 3.395.015 3.82.073 5.153.059 1.329.274 2.242.582 3.034.317.84.81 1.592 1.445 2.217a6.154 6.154 0 002.213 1.441c.796.308 1.705.523 3.034.581 1.333.06 1.758.074 5.153.074 3.395 0 3.82-.015 5.154-.074 1.328-.058 2.241-.273 3.033-.58a6.396 6.396 0 003.659-3.66c.307-.796.522-1.704.58-3.033.06-1.333.074-1.758.074-5.153 0-3.395-.005-3.82-.064-5.154zm-2.251 10.21c-.054 1.22-.26 1.88-.43 2.32a4.148 4.148 0 01-2.374 2.374c-.44.17-1.104.376-2.32.43-1.32.058-1.715.073-5.051.073-3.336 0-3.737-.015-5.051-.073-1.221-.054-1.88-.26-2.32-.43a3.847 3.847 0 01-1.436-.933 3.887 3.887 0 01-.933-1.436c-.171-.44-.377-1.104-.43-2.32-.059-1.32-.073-1.715-.073-5.051 0-3.337.014-3.737.073-5.051.054-1.221.259-1.88.43-2.32a3.8 3.8 0 01.938-1.437 3.882 3.882 0 011.436-.932c.44-.171 1.104-.377 2.32-.43 1.319-.059 1.714-.074 5.05-.074 3.342 0 3.737.015 5.051.074 1.222.053 1.881.259 2.32.43.543.2 1.036.517 1.437.932.415.406.732.894.933 1.437.17.44.376 1.103.43 2.32.058 1.319.073 1.714.073 5.05 0 3.337-.015 3.728-.073 5.047z"/><path d="M12.505 6.081a6.425 6.425 0 00-6.424 6.424 6.425 6.425 0 006.424 6.423 6.425 6.425 0 006.423-6.423 6.425 6.425 0 00-6.423-6.424zm0 10.59a4.167 4.167 0 11.001-8.334 4.167 4.167 0 01-.001 8.335zm8.177-10.844a1.5 1.5 0 11-3 0 1.5 1.5 0 013 0z"/></mask><path d="M24.936 7.351c-.058-1.328-.273-2.242-.58-3.033A6.103 6.103 0 0022.908 2.1 6.153 6.153 0 0020.696.66C19.9.351 18.992.136 17.663.077 16.325.015 15.9 0 12.505 0 9.11 0 8.685.015 7.35.073 6.023.132 5.11.347 4.318.654A6.101 6.101 0 002.1 2.1 6.156 6.156 0 00.66 4.313C.351 5.11.136 6.018.077 7.347.015 8.685 0 9.11 0 12.505c0 3.395.015 3.82.073 5.153.059 1.329.274 2.242.582 3.034.317.84.81 1.592 1.445 2.217a6.154 6.154 0 002.213 1.441c.796.308 1.705.523 3.034.581 1.333.06 1.758.074 5.153.074 3.395 0 3.82-.015 5.154-.074 1.328-.058 2.241-.273 3.033-.58a6.396 6.396 0 003.659-3.66c.307-.796.522-1.704.58-3.033.06-1.333.074-1.758.074-5.153 0-3.395-.005-3.82-.064-5.154zm-2.251 10.21c-.054 1.22-.26 1.88-.43 2.32a4.148 4.148 0 01-2.374 2.374c-.44.17-1.104.376-2.32.43-1.32.058-1.715.073-5.051.073-3.336 0-3.737-.015-5.051-.073-1.221-.054-1.88-.26-2.32-.43a3.847 3.847 0 01-1.436-.933 3.887 3.887 0 01-.933-1.436c-.171-.44-.377-1.104-.43-2.32-.059-1.32-.073-1.715-.073-5.051 0-3.337.014-3.737.073-5.051.054-1.221.259-1.88.43-2.32a3.8 3.8 0 01.938-1.437 3.882 3.882 0 011.436-.932c.44-.171 1.104-.377 2.32-.43 1.319-.059 1.714-.074 5.05-.074 3.342 0 3.737.015 5.051.074 1.222.053 1.881.259 2.32.43.543.2 1.036.517 1.437.932.415.406.732.894.933 1.437.17.44.376 1.103.43 2.32.058 1.319.073 1.714.073 5.05 0 3.337-.015 3.728-.073 5.047z" fill="#31456A"/><path d="M12.505 6.081a6.425 6.425 0 00-6.424 6.424 6.425 6.425 0 006.424 6.423 6.425 6.425 0 006.423-6.423 6.425 6.425 0 00-6.423-6.424zm0 10.59a4.167 4.167 0 11.001-8.334 4.167 4.167 0 01-.001 8.335zm8.177-10.844a1.5 1.5 0 11-3 0 1.5 1.5 0 013 0z" fill="#31456A"/><path d="M24.936 7.351l9.99-.438v-.002l-9.99.44zm-.58-3.033L15 7.854l.017.044.017.045 9.32-3.625zM22.908 2.1l-7.125 7.016.068.07.069.067L22.909 2.1zM20.696.66L17.09 9.986l.042.016.042.015L20.696.66zM17.663.077l-.474 9.989h.017l.017.002.44-9.99zM7.351.073l-.438-9.99H6.91l.44 9.99zM4.318.654l3.535 9.355.044-.017.044-.017L4.318.655zM2.1 2.1l7.017 7.126.069-.068.067-.07L2.1 2.1zM.66 4.313L9.986 7.92l.015-.04.016-.041L.659 4.313zM.077 7.347l9.989.474v-.017l.002-.017-9.99-.44zM.073 17.658l-9.99.44 9.99-.44zm.582 3.034l9.354-3.536-.017-.044-.017-.044-9.32 3.624zM2.1 22.909l7.126-7.016-.054-.055-.056-.054L2.1 22.909zm2.213 1.441l3.605-9.328-.041-.015-.041-.016-3.523 9.36zm3.034.581l.44-9.99-.44 9.99zm10.306 0l-.44-9.99.44 9.99zm3.034-.58l-3.607-9.328-.008.004-.01.003 3.625 9.32zm3.659-3.66l9.326 3.608.002-.004-9.328-3.603zm.58-3.033l9.991.441v-.002l-9.99-.439zm-2.241-.098l-9.99-.444v.005l9.99.44zm-.43 2.32l-9.32-3.623-.005.012-.005.013 9.33 3.599zm-2.374 2.375l-3.6-9.33-.013.005-.013.005 3.626 9.32zm-2.32.43l-.441-9.99h-.005l.446 9.99zm-10.102 0l.447-9.99h-.008l-.44 9.99zm-2.32-.43l3.625-9.32-.08-.03-.08-.03-3.465 9.38zm-1.436-.933l7.197-6.943-.104-.107-.107-.105-6.986 7.155zm-.933-1.436l9.38-3.467-.03-.08-.03-.078-9.32 3.625zm-.43-2.32l9.99-.44v-.006l-9.99.445zm0-10.102l9.99.447v-.009l-9.99-.438zm.43-2.32l9.32 3.624.03-.08.03-.079-9.38-3.465zm.938-1.437l6.901 7.237.13-.123.125-.128-7.156-6.986zm1.436-.932l3.462 9.38.081-.03.081-.03-3.624-9.32zm2.32-.43l.442 9.99h.002l-.444-9.99zm10.101 0l-.445 9.99h.005l.44-9.99zm2.32.43l-3.623 9.32.08.03.08.03 3.464-9.38zm1.437.932l-7.197 6.944.104.107.106.104 6.987-7.155zm.933 1.437l-9.38 3.466.029.079.03.078 9.32-3.623zm.43 2.32l-9.99.441v.003l9.99-.444zm12.242-.553c-.102-2.302-.508-4.304-1.252-6.218l-18.64 7.25a2.156 2.156 0 01-.098-.333c-.017-.083 0-.043.01.182l19.98-.881zM33.709.782a16.1 16.1 0 00-3.812-5.834L15.921 9.253c-.42-.41-.73-.9-.92-1.4L33.71.784zm-3.674-5.698A16.152 16.152 0 0024.219-8.7l-7.045 18.718a3.847 3.847 0 01-1.39-.902l14.25-14.032zm-5.732-3.752c-1.898-.733-3.886-1.142-6.2-1.244l-.88 19.98c.113.005.179.012.204.015.024.003.012.002-.027-.005a1.906 1.906 0 01-.31-.091l7.213-18.655zM18.137-9.91c-1.576-.075-2.187-.09-5.632-.09v20c3.345 0 3.584.015 4.684.067l.948-19.978zM12.505-10c-3.447 0-4.042.015-5.592.083l.877 19.98C8.907 10.016 9.162 10 12.505 10v-20zm-5.594.083c-2.304.102-4.305.508-6.216 1.25L7.941 9.976a2.184 2.184 0 01-.33.098c-.083.017-.043 0 .181-.01l-.881-19.98zM.784-8.7a16.101 16.101 0 00-5.836 3.812L9.253 9.089a3.9 3.9 0 01-1.4.92L.783-8.701zm-5.7 3.675A16.156 16.156 0 00-8.699.789l18.717 7.049a3.849 3.849 0 01-.901 1.388L-4.916-5.025zM-8.668.708c-.733 1.897-1.142 3.884-1.244 6.198l19.98.881c.005-.114.012-.179.015-.204.003-.024.002-.013-.005.027a1.883 1.883 0 01-.091.309L-8.668.708zm-1.243 6.164C-9.985 8.45-10 9.06-10 12.505h20c0-3.345.015-3.584.067-4.684l-19.978-.949zM-10 12.505c0 3.447.015 4.042.083 5.592l19.98-.878c-.048-1.116-.063-1.372-.063-4.714h-20zm.083 5.594c.102 2.303.508 4.305 1.251 6.217l18.64-7.248a2.178 2.178 0 01.099.33c.017.084 0 .044-.01-.18l-19.98.88zm1.218 6.128a16.166 16.166 0 003.783 5.808L9.116 15.784c.384.377.694.846.893 1.372L-8.7 24.227zm3.674 5.699a16.154 16.154 0 005.816 3.783l7.045-18.718a3.847 3.847 0 011.39.902l-14.25 14.033zM.71 33.678c1.896.733 3.883 1.142 6.198 1.244l.88-19.98a2.983 2.983 0 01-.204-.015c-.024-.003-.013-.003.027.005a1.905 1.905 0 01.308.09L.708 33.678zm6.197 1.244c1.552.068 2.148.083 5.594.083v-20c-3.344 0-3.598-.015-4.713-.064l-.88 19.98zm5.594.083c3.446 0 4.042-.015 5.594-.083l-.88-19.98c-1.116.048-1.37.063-4.714.063v20zm5.593-.083c2.303-.102 4.306-.508 6.218-1.252l-7.248-18.64a2.18 2.18 0 01.332-.098c.083-.017.043 0-.181.01l.88 19.98zm6.2-1.245a16.396 16.396 0 009.38-9.378L15.02 17.085a3.604 3.604 0 012.062-2.062l7.212 18.654zm9.38-9.382c.733-1.895 1.142-3.881 1.244-6.196l-19.98-.882a2.968 2.968 0 01-.015.204c-.003.024-.003.013.005-.026a1.91 1.91 0 01.09-.306l18.657 7.206zm1.244-6.198c.068-1.55.083-2.145.083-5.592H15c0 3.342-.015 3.598-.064 4.715l19.981.877zM35 12.505c0-3.384-.004-4.012-.073-5.592l-19.98.877c.047 1.087.053 1.31.053 4.715h20zM12.694 17.12c-.005.127-.01.041.04-.192a4.451 4.451 0 01.2-.672l18.641 7.247c.554-1.424.997-3.157 1.1-5.504l-19.98-.88zm.23-.84a5.852 5.852 0 013.358-3.356l7.198 18.66a14.148 14.148 0 008.105-8.105l-18.66-7.198zm3.33-3.346a4.596 4.596 0 01.678-.203c.228-.048.312-.043.188-.038l.881 19.98c2.335-.102 4.073-.542 5.506-1.1l-7.252-18.639zm.861-.24c-1.1.048-1.324.063-4.605.063v20c3.391 0 3.958-.015 5.496-.083l-.89-19.98zm-4.605.063c-3.282 0-3.51-.015-4.604-.063l-.894 19.98c1.535.068 2.107.083 5.498.083v-20zm-4.612-.064c-.127-.006-.042-.01.191.04a4.385 4.385 0 01.675.201l-7.251 18.64c1.427.555 3.162.997 5.507 1.1l.878-19.98zm.706.18A6.154 6.154 0 0110.9 14.38L-3.495 28.264a13.846 13.846 0 005.168 3.371l6.931-18.76zm2.085 1.293a6.111 6.111 0 011.46 2.252l-18.76 6.933a13.887 13.887 0 003.327 5.124l13.973-14.309zm1.4 2.094a4.53 4.53 0 01.203.675c.049.229.044.312.038.19l-19.98.88c.103 2.335.543 4.074 1.1 5.504l18.64-7.249zm.241.86c-.049-1.1-.063-1.325-.063-4.606h-20c0 3.391.014 3.958.083 5.496l19.98-.89zm-.063-4.606c0-3.283.014-3.51.063-4.604l-19.98-.894c-.069 1.534-.083 2.107-.083 5.497h20zm.063-4.613c.006-.126.01-.04-.039.192a4.386 4.386 0 01-.201.674L-6.55 1.519c-.555 1.426-.997 3.16-1.1 5.506l19.98.877zm-.18.707a6.2 6.2 0 01-1.54 2.335L-3.195-3.529A13.8 13.8 0 00-6.61 1.678l18.76 6.931zm-1.286 2.084a6.118 6.118 0 01-2.258 1.463L1.681-6.607a13.882 13.882 0 00-5.13 3.33l14.313 13.97zm-2.096 1.402a4.519 4.519 0 01-.674.202c-.229.048-.312.043-.188.038l-.884-19.98c-2.335.103-4.072.543-5.503 1.1l7.249 18.64zm-.86.24c1.101-.05 1.327-.064 4.607-.064v-20c-3.393 0-3.959.015-5.495.084l.888 19.98zm4.607-.064c3.285 0 3.51.015 4.605.064l.89-19.98c-1.532-.069-2.099-.084-5.495-.084v20zm4.61.064c.128.006.042.01-.19-.039a4.366 4.366 0 01-.673-.201l7.247-18.64c-1.424-.555-3.157-.997-5.503-1.1l-.88 19.98zm-.703-.18a6.155 6.155 0 01-2.297-1.504L28.518-3.236a13.845 13.845 0 00-5.169-3.37l-6.927 18.761zm-2.087-1.293a6.113 6.113 0 01-1.46-2.252l18.76-6.933a13.887 13.887 0 00-3.327-5.124l-13.973 14.31zm-1.4-2.095a4.46 4.46 0 01-.202-.673c-.049-.229-.044-.312-.039-.189l19.98-.883c-.102-2.335-.543-4.073-1.099-5.502l-18.64 7.247zm-.24-.859c.048 1.101.063 1.326.063 4.606h20c0-3.392-.015-3.958-.083-5.494l-19.98.888zm.063 4.606c0 3.28-.014 3.501-.063 4.602l19.98.889c.068-1.537.083-2.098.083-5.49h-20zM12.505-3.92C3.436-3.919-3.92 3.435-3.92 12.505h20c0 1.977-1.6 3.576-3.576 3.576v-20zM-3.92 12.505c0 9.07 7.355 16.423 16.424 16.423v-20c1.976 0 3.576 1.6 3.576 3.577h-20zm16.424 16.423c9.07 0 16.423-7.354 16.423-16.423h-20c0-1.977 1.6-3.577 3.577-3.577v20zm16.423-16.423c0-9.07-7.354-16.424-16.423-16.424v20a3.575 3.575 0 01-3.577-3.576h20zM12.505 6.672a5.833 5.833 0 015.833 5.833h-20c0 7.823 6.343 14.167 14.167 14.167v-20zm5.833 5.833a5.833 5.833 0 01-5.833 5.833v-20c-7.823 0-14.167 6.343-14.167 14.167h20zm-5.833 5.833a5.833 5.833 0 01-5.833-5.833h20c0-7.824-6.344-14.167-14.167-14.167v20zm-5.833-5.833a5.833 5.833 0 015.833-5.833v20c7.824 0 14.167-6.344 14.167-14.167h-20zm4.01-6.678a8.5 8.5 0 018.5-8.5v20c6.35 0 11.5-5.147 11.5-11.5h-20zm8.5-8.5a8.5 8.5 0 018.5 8.5h-20c0 6.351 5.149 11.5 11.5 11.5v-20zm8.5 8.5a8.5 8.5 0 01-8.5 8.5v-20c-6.35 0-11.5 5.149-11.5 11.5h20zm-8.5 8.5a8.5 8.5 0 01-8.5-8.5h20c0-6.353-5.15-11.5-11.5-11.5v20z" fill="#E1306C" mask="url(#a)"/></svg>