<svg width="30" height="30" fill="none" xmlns="http://www.w3.org/2000/svg"><path d="M20.625.469H9.375a2.346 2.346 0 00-2.344 2.344v24.375a2.346 2.346 0 002.344 2.343h11.25a2.346 2.346 0 002.344-2.343V2.813A2.346 2.346 0 0020.625.469zm-2.447.937l-.281 1.407h-5.794l-.281-1.407h6.356zm3.853 25.782a1.408 1.408 0 01-1.406 1.406H9.375a1.408 1.408 0 01-1.406-1.407V2.813a1.408 1.408 0 011.406-1.406h1.49l.394 1.967a.468.468 0 00.46.377h6.562a.469.469 0 00.46-.377l.393-1.967h1.491a1.408 1.408 0 011.406 1.407v24.375z" fill="#31456A"/><path d="M16.281 26.719H13.47a.469.469 0 100 .937h2.812a.469.469 0 100-.937z" fill="#31456A"/></svg>