<svg xmlns="http://www.w3.org/2000/svg" xmlns:xlink="http://www.w3.org/1999/xlink"><symbol id="icon-arrow" viewBox="0 0 22 19">
<path d="M1 1L11 11L21 1" stroke="#31456A" stroke-width="2" stroke-linecap="round"/>
<path d="M1 7L11 17L21 7" stroke="#31456A" stroke-width="2" stroke-linecap="round"/>
</symbol><symbol id="icon-camera" viewBox="0 0 30 24">
<path d="M29.0019 3.87262C28.403 3.24524 27.576 2.87452 26.635 2.87452H21.9011V2.81748C21.9011 2.10455 21.616 1.42014 21.1312 0.963871C20.6464 0.47908 19.9905 0.193909 19.2776 0.193909H10.7224C9.98099 0.193909 9.3251 0.47908 8.8403 0.963871C8.35551 1.44866 8.07034 2.10455 8.07034 2.81748V2.87452H3.36502C2.42395 2.87452 1.59696 3.24524 0.998099 3.87262C0.39924 4.47148 0 5.32699 0 6.23954V20.4411C0 21.3821 0.370722 22.2091 0.998099 22.808C1.59696 23.4068 2.45247 23.8061 3.36502 23.8061H26.635C27.576 23.8061 28.403 23.4354 29.0019 22.808C29.6008 22.2091 30 21.3536 30 20.4411V6.23954C30 5.29847 29.6293 4.47148 29.0019 3.87262ZM28.5171 20.4411H28.4886C28.4886 20.9544 28.289 21.4106 27.9468 21.7528C27.6046 22.0951 27.1483 22.2947 26.635 22.2947H3.36502C2.85171 22.2947 2.39544 22.0951 2.05323 21.7528C1.71103 21.4106 1.51141 20.9544 1.51141 20.4411V6.23954C1.51141 5.72623 1.71103 5.26995 2.05323 4.92775C2.39544 4.58554 2.85171 4.38592 3.36502 4.38592H8.86882C9.29658 4.38592 9.63878 4.04372 9.63878 3.61596V2.78897C9.63878 2.47528 9.75285 2.19011 9.95247 1.99049C10.1521 1.79087 10.4373 1.6768 10.751 1.6768H19.2776C19.5913 1.6768 19.8764 1.79087 20.076 1.99049C20.2757 2.19011 20.3897 2.47528 20.3897 2.78897V3.61596C20.3897 4.04372 20.7319 4.38592 21.1597 4.38592H26.6635C27.1768 4.38592 27.6331 4.58554 27.9753 4.92775C28.3175 5.26995 28.5171 5.72623 28.5171 6.23954V20.4411Z" fill="#31456A"/>
<path d="M15.0001 6.32507C13.0609 6.32507 11.2929 7.12355 10.0381 8.3783C8.75483 9.66157 7.98486 11.4011 7.98486 13.3403C7.98486 15.2794 8.78334 17.0475 10.0381 18.3022C11.3214 19.5855 13.0609 20.3555 15.0001 20.3555C16.9392 20.3555 18.7073 19.557 19.9621 18.3022C21.2453 17.019 22.0153 15.2794 22.0153 13.3403C22.0153 11.4011 21.2168 9.63306 19.9621 8.3783C18.7073 7.12355 16.9392 6.32507 15.0001 6.32507ZM18.8784 17.2471C17.8803 18.2167 16.5115 18.8441 15.0001 18.8441C13.4887 18.8441 12.1198 18.2167 11.1217 17.2471C10.1236 16.249 9.52479 14.8802 9.52479 13.3688C9.52479 11.8574 10.1522 10.4886 11.1217 9.49047C12.1198 8.49237 13.4887 7.89351 15.0001 7.89351C16.5115 7.89351 17.8803 8.52089 18.8784 9.49047C19.8765 10.4886 20.4754 11.8574 20.4754 13.3688C20.5039 14.8802 19.8765 16.249 18.8784 17.2471Z" fill="#31456A"/>
<path d="M25.1522 9.09125C25.9239 9.09125 26.5496 8.46564 26.5496 7.69391C26.5496 6.92218 25.9239 6.29657 25.1522 6.29657C24.3805 6.29657 23.7549 6.92218 23.7549 7.69391C23.7549 8.46564 24.3805 9.09125 25.1522 9.09125Z" fill="#31456A"/>
</symbol><symbol id="icon-check" viewBox="0 0 30 30">
<path d="M21.6307 10.2404C22.0885 10.6982 22.0885 11.4402 21.6307 11.8977L13.7691 19.7596C13.3113 20.2171 12.5695 20.2171 12.1117 19.7596L8.36929 16.0169C7.91153 15.5594 7.91153 14.8174 8.36929 14.3598C8.82683 13.9021 9.56886 13.9021 10.0264 14.3598L12.9403 17.2737L19.9734 10.2404C20.4311 9.78287 21.1732 9.78287 21.6307 10.2404V10.2404ZM30 15C30 23.2912 23.2901 30 15 30C6.70876 30 0 23.2901 0 15C0 6.70876 6.7099 0 15 0C23.2912 0 30 6.7099 30 15ZM27.6562 15C27.6562 8.00423 21.9949 2.34375 15 2.34375C8.00423 2.34375 2.34375 8.00514 2.34375 15C2.34375 21.9958 8.00514 27.6562 15 27.6562C21.9958 27.6562 27.6562 21.9949 27.6562 15Z" fill="#31456A"/>
</symbol><symbol id="icon-choice" viewBox="0 0 30 30">
<path d="M24.2691 0H18.8396C17.5733 0 16.5431 1.0302 16.5431 2.29646V7.72605C16.5431 8.99232 17.5733 10.0225 18.8396 10.0225H24.2691C25.5354 10.0225 26.5656 8.99232 26.5656 7.72605V2.29646C26.5657 1.0302 25.5355 0 24.2691 0ZM24.8079 7.72605C24.8079 8.02307 24.5662 8.26471 24.2691 8.26471H18.8396C18.5426 8.26471 18.301 8.02307 18.301 7.72605V2.29646C18.301 1.99945 18.5426 1.75781 18.8396 1.75781H24.2691C24.5662 1.75781 24.8079 1.99945 24.8079 2.29646V7.72605Z" fill="#31456A"/>
<path d="M20.0632 12.2167C19.6415 12.2167 19.2438 12.3214 18.8948 12.5061C18.4451 11.8324 17.678 11.3878 16.809 11.3878C16.3602 11.3878 15.9386 11.5064 15.5738 11.7139C15.1171 11.0938 14.3821 10.6908 13.5547 10.6908C13.2944 10.6908 13.0429 10.7307 12.8066 10.8048V10.0225H13.0153C14.2816 10.0225 15.3118 8.99227 15.3118 7.726V2.29646C15.3118 1.0302 14.2816 0 13.0153 0H7.5858C6.31953 0 5.28934 1.0302 5.28934 2.29646V7.72605C5.28934 8.99232 6.31953 10.0225 7.5858 10.0225H7.79457V15.4672C7.65869 15.3309 7.50605 15.2094 7.33848 15.1054C6.79859 14.77 6.16549 14.6532 5.54469 14.7728C4.87719 14.7996 4.27813 15.0909 3.889 15.5814C3.48025 16.0965 3.33828 16.7874 3.49936 17.4768L4.65436 22.4198C5.31318 26.544 8.53033 29.6297 8.66732 29.7594C8.83057 29.9139 9.04678 29.9999 9.27154 29.9999H19.157C19.4529 29.9999 19.7289 29.8511 19.8914 29.6038C21.6423 26.9406 22.568 23.8484 22.5684 20.6614L22.5693 14.7228C22.5693 14.7227 22.5693 14.7227 22.5693 14.7227C22.5692 13.3409 21.445 12.2167 20.0632 12.2167ZM9.6408 28.2422C8.93246 27.4887 6.845 25.0557 6.38574 22.1154C6.38234 22.0938 6.37818 22.0723 6.3732 22.0511L5.21094 17.0768C5.17215 16.9106 5.19166 16.7675 5.26596 16.6738C5.34025 16.5802 5.46734 16.5312 5.63721 16.5151C5.7227 16.5069 5.75815 16.4968 5.83719 16.492C6.03658 16.4799 6.24102 16.4931 6.41082 16.5986C6.58063 16.704 6.6991 16.8693 6.74457 17.0638L7.74705 21.3545C7.83078 21.7127 8.12873 21.981 8.49377 22.0266L8.5642 22.0354C8.81445 22.0667 9.06594 21.9891 9.25496 21.8222C9.44399 21.6554 9.55221 21.4154 9.55221 21.1633V7.19484C9.55221 6.78229 9.88789 6.4466 10.3005 6.4466C10.713 6.4466 11.0487 6.78229 11.0487 7.19484V13.1968V15.4366C11.0487 15.922 11.4422 16.3155 11.9276 16.3155C12.413 16.3155 12.8065 15.922 12.8065 15.4366V13.1968C12.8065 12.7843 13.1421 12.4487 13.5547 12.4487C13.9672 12.4487 14.3029 12.7843 14.3029 13.1968V13.8939V15.5367C14.3029 16.0221 14.6964 16.4156 15.1818 16.4156C15.6672 16.4156 16.0607 16.0221 16.0607 15.5367V13.8939C16.0607 13.4813 16.3964 13.1456 16.809 13.1456C17.2215 13.1456 17.5572 13.4813 17.5572 13.8939V14.7227V16.1505C17.5572 16.6359 17.9507 17.0294 18.4361 17.0294C18.9215 17.0294 19.315 16.6359 19.315 16.1505V14.7227C19.315 14.3102 19.6507 13.9745 20.0632 13.9745C20.4758 13.9745 20.8115 14.3102 20.8115 14.7226L20.8105 20.6612C20.8102 23.3474 20.0728 25.9584 18.674 28.2422H9.6408V28.2422ZM7.04715 7.72605V2.29646C7.04715 1.99945 7.28879 1.75781 7.5858 1.75781H13.0153C13.3123 1.75781 13.554 1.99945 13.554 2.29646V7.72605C13.554 8.02307 13.3123 8.26471 13.0153 8.26471H12.8066V7.19479C12.8066 5.81297 11.6823 4.68873 10.3005 4.68873C8.91869 4.68873 7.79445 5.81297 7.79445 7.19479V8.26471H7.58568C7.28879 8.26471 7.04715 8.02307 7.04715 7.72605Z" fill="#31456A"/>
</symbol><symbol id="icon-color" viewBox="0 0 30 30">
<path d="M29.821 8.8142C29.8193 8.80289 29.8171 8.79164 29.8146 8.78045C29.6466 7.88613 29.3678 7.03061 28.9931 6.2284C28.9828 6.19781 28.969 6.16828 28.9518 6.14016C28.6032 5.41131 28.175 4.72746 27.6786 4.10004C27.6602 4.06916 27.6383 4.03986 27.6117 4.01326C27.6081 4.00969 27.6042 4.00664 27.6005 4.00318C27.1129 3.40113 26.5617 2.85258 25.9573 2.36766C25.9539 2.36402 25.9508 2.36021 25.9473 2.35664C25.92 2.32939 25.8898 2.30689 25.858 2.28832C25.2281 1.79496 24.5418 1.37045 23.8109 1.02539C23.783 1.00834 23.7537 0.994805 23.7235 0.984551C22.9167 0.61248 22.0565 0.336914 21.1576 0.173672C21.1464 0.171152 21.1352 0.169043 21.1239 0.167402C20.5079 0.0574219 19.8741 0 19.227 0C18.7294 0 18.2398 0.0346875 17.76 0.100254C17.7585 0.100371 17.757 0.100723 17.7554 0.100898C13.2053 0.725273 9.55195 4.20123 8.66215 8.66244C7.49426 8.89512 6.36955 9.31975 5.33836 9.92338C5.12848 10.0462 5.05799 10.316 5.1808 10.5258C5.30367 10.7357 5.57344 10.8062 5.7832 10.6834C6.63639 10.1839 7.55959 9.81809 8.51877 9.59438C8.47646 9.98156 8.45402 10.3747 8.45402 10.773C8.45402 11.4195 8.51139 12.0528 8.62107 12.6681C8.62283 12.6802 8.625 12.6922 8.62775 12.7041C8.791 13.6027 9.0665 14.4626 9.43846 15.2691C9.44871 15.2995 9.46236 15.3288 9.47941 15.3568C9.82453 16.0876 10.2489 16.7739 10.7423 17.4038C10.7609 17.4356 10.7834 17.4658 10.8107 17.4931C10.8141 17.4966 10.8179 17.4996 10.8215 17.5029C11.3065 18.1073 11.855 18.6586 12.4572 19.1464C12.4607 19.1501 12.4637 19.1539 12.4673 19.1575C12.4938 19.1841 12.5231 19.206 12.5539 19.2243C13.1814 19.7208 13.8653 20.149 14.5941 20.4976C14.6222 20.5148 14.6518 20.5286 14.6824 20.5389C15.4847 20.9137 16.3403 21.1925 17.2348 21.3605C17.2458 21.363 17.2568 21.3651 17.2679 21.3668C17.9034 21.484 18.5581 21.5459 19.227 21.5459C19.6254 21.5459 20.0187 21.5234 20.406 21.4811C19.3831 25.8532 15.4523 29.1192 10.7729 29.1192C5.31826 29.1192 0.880547 24.6815 0.880547 19.2268C0.880547 16.4763 1.98246 13.9213 3.98326 12.0323C4.1601 11.8654 4.16807 11.5867 4.00119 11.4098C3.8342 11.233 3.55553 11.225 3.37875 11.3919C2.32307 12.3886 1.49221 13.5649 0.909375 14.8881C0.306035 16.2584 0 17.7182 0 19.227C0 25.1673 4.83281 30 10.773 30C15.9911 30 20.3539 26.2709 21.3379 21.3378C25.8251 20.4427 29.316 16.7519 29.9103 12.1647C29.9106 12.162 29.9112 12.1594 29.9114 12.1567C29.9698 11.7036 30 11.2417 30 10.773C30 10.1042 29.9382 9.44959 29.821 8.8142ZM27.252 4.99559C27.5459 5.40275 27.8101 5.83277 28.0403 6.28289L20.2378 14.0854C19.997 13.6438 19.726 13.2212 19.428 12.8196L27.252 4.99559ZM26.7019 4.30014L18.8714 12.1307C18.5484 11.7625 18.2012 11.4162 17.8314 11.095L25.6612 3.26531C26.0329 3.5843 26.381 3.93012 26.7019 4.30014ZM24.9631 2.71787L17.1391 10.542C16.7358 10.2455 16.3113 9.97623 15.8682 9.73728L23.6694 1.936C24.1215 2.16416 24.5539 2.42566 24.9631 2.71787ZM21.205 1.07941C21.7574 1.19203 22.2932 1.351 22.8082 1.55174L15.0288 9.33105C14.5321 9.1166 14.0163 8.93818 13.4845 8.79978L21.205 1.07941ZM18.0076 0.95584C18.4073 0.906445 18.8142 0.880605 19.2271 0.880605C19.5273 0.880605 19.8243 0.894785 20.1178 0.921094L12.4536 8.58533C11.9058 8.4992 11.3446 8.45402 10.773 8.45402C10.6836 8.45402 10.5942 8.45625 10.5049 8.45848L18.0076 0.95584ZM16.4355 1.28232L9.73635 7.98158C10.6833 4.7676 13.2216 2.2292 16.4355 1.28232ZM9.37523 11.6638C9.34887 11.3702 9.33469 11.0732 9.33469 10.773C9.33469 10.3601 9.36053 9.9532 9.40992 9.55348L9.55236 9.41104C9.95602 9.361 10.3636 9.33463 10.7731 9.33463C11.0733 9.33463 11.3703 9.34881 11.6638 9.37512L9.37523 11.6638ZM9.53344 12.7509L12.7509 9.53344C13.3034 9.646 13.8391 9.80496 14.3541 10.0058L10.0057 14.3542C9.80502 13.8391 9.646 13.3034 9.53344 12.7509ZM11.172 16.5091C10.8797 16.0999 10.6182 15.6674 10.39 15.2154L15.2154 10.39C15.6675 10.6182 16.0999 10.8796 16.5091 11.1719L11.172 16.5091ZM11.7193 17.2072L17.2072 11.7193C17.5789 12.0384 17.927 12.3841 18.2479 12.7542L12.7542 18.2479C12.3841 17.927 12.0384 17.5789 11.7193 17.2072ZM13.4496 18.7979L18.798 13.4496C19.092 13.8568 19.356 14.2867 19.5863 14.7369L14.7368 19.5863C14.2867 19.356 13.8567 19.0918 13.4496 18.7979ZM17.1901 20.454C16.6401 20.3385 16.1067 20.1774 15.5942 19.9743L19.9744 15.5942C20.1774 16.1067 20.3385 16.6401 20.4541 17.1901L17.1901 20.454ZM20.5995 20.3657L20.3658 20.5994C19.992 20.6425 19.6121 20.6654 19.227 20.6654C18.9044 20.6654 18.5855 20.6493 18.2706 20.619L20.619 18.2706C20.6493 18.5854 20.6654 18.9043 20.6654 19.227C20.6654 19.6121 20.6425 19.992 20.5995 20.3657ZM21.185 16.4592C21.044 15.9295 20.8636 15.4159 20.6471 14.9215L28.4284 7.14029C28.6314 7.65275 28.7925 8.18619 28.908 8.73615L21.185 16.4592ZM21.9172 20.2935L28.7476 13.4631C27.815 16.759 25.2131 19.3609 21.9172 20.2935ZM29.0535 11.9117L21.5436 19.4216C21.5447 19.3568 21.546 19.2921 21.546 19.227C21.546 18.634 21.4971 18.0523 21.4045 17.4851L29.073 9.81662C29.1034 10.1314 29.1195 10.4503 29.1195 10.773C29.1194 11.1581 29.0965 11.538 29.0535 11.9117Z" fill="#31456A"/>
</symbol><symbol id="icon-drop" viewBox="0 0 294.465 294.465">
<g>
	<g>
		<path d="M174.432,32.465c-6.8-10-12.8-19.2-18.4-27.6c-0.8-1.2-2-2.4-3.2-3.2c-4.8-3.2-11.2-1.6-14.4,3.2
			c-5.2,8.4-11.2,17.2-18.4,27.6c-31.6,46.4-78.8,116.4-78.8,156.4c0,29.2,12,55.6,31.2,74.8c19.2,18.8,45.6,30.8,74.8,30.8
			s55.6-12,74.8-31.2c19.2-19.2,31.2-45.6,31.2-74.8C253.232,148.465,206.032,78.865,174.432,32.465z M207.632,248.865
			c-15.6,15.6-36.8,24.8-60.4,24.8c-23.6,0-44.8-9.6-60.4-24.8c-15.6-15.6-24.8-36.8-24.8-60.4c0-33.6,45.2-100.4,75.2-144.8
			c3.6-5.2,6.8-10.4,10-14.8c3.2,4.4,6.4,9.6,10,14.8c30,44.8,75.2,111.2,75.2,144.8
			C232.432,212.065,222.832,233.265,207.632,248.865z"/>
	</g>
</g>
<g>
	<g>
		<path d="M209.232,181.265c-5.6-0.4-10.4,4-10.8,9.6c-0.4,8.8-3.2,17.2-7.6,24.4c-4.4,7.2-10.8,13.6-18.4,17.6
			c-4.8,2.8-6.8,9.2-4,14c3.2,5.6,9.6,7.2,14.4,4.4c10.8-6,19.6-14.8,25.6-24.8c6.4-10,10-22,10.4-34.4
			C219.232,186.465,214.832,181.665,209.232,181.265z"/>
	</g>
</g>
<g>
</g>
<g>
</g>
<g>
</g>
<g>
</g>
<g>
</g>
<g>
</g>
<g>
</g>
<g>
</g>
<g>
</g>
<g>
</g>
<g>
</g>
<g>
</g>
<g>
</g>
<g>
</g>
<g>
</g>
</symbol><symbol id="icon-fingerprint" viewBox="0 0 30 30">
<path d="M26.7574 0H22.5586C22.0732 0 21.6797 0.393516 21.6797 0.878906C21.6797 1.3643 22.0732 1.75781 22.5586 1.75781H26.7574C27.5761 1.75781 28.2422 2.42391 28.2422 3.24258V7.44141C28.2422 7.9268 28.6357 8.32031 29.1211 8.32031C29.6065 8.32031 30 7.9268 30 7.44141V3.24258C30 1.45465 28.5454 0 26.7574 0Z" fill="#31456A"/>
<path d="M0.878906 8.32031C1.3643 8.32031 1.75781 7.9268 1.75781 7.44141V3.24258C1.75781 2.42391 2.42391 1.75781 3.24264 1.75781H7.44141C7.9268 1.75781 8.32031 1.3643 8.32031 0.878906C8.32031 0.393516 7.9268 0 7.44141 0H3.24264C1.45465 0 0 1.45465 0 3.24258V7.44141C0 7.9268 0.393516 8.32031 0.878906 8.32031Z" fill="#31456A"/>
<path d="M7.44141 28.2422H3.24264C2.42391 28.2422 1.75781 27.5761 1.75781 26.7574V22.5586C1.75781 22.0732 1.3643 21.6797 0.878906 21.6797C0.393516 21.6797 0 22.0732 0 22.5586V26.7574C0 28.5454 1.45465 30 3.24264 30H7.44141C7.9268 30 8.32031 29.6065 8.32031 29.1211C8.32031 28.6357 7.9268 28.2422 7.44141 28.2422Z" fill="#31456A"/>
<path d="M29.1211 21.6797C28.6357 21.6797 28.2422 22.0732 28.2422 22.5586V26.7574C28.2422 27.5762 27.5761 28.2422 26.7574 28.2422H22.5586C22.0732 28.2422 21.6797 28.6357 21.6797 29.1211C21.6797 29.6065 22.0732 30 22.5586 30H26.7574C28.5454 30 30 28.5454 30 26.7574V22.5586C30 22.0732 29.6065 21.6797 29.1211 21.6797Z" fill="#31456A"/>
<path d="M24.5321 5.85661C18.4315 1.33142 11.8569 1.21628 5.57733 5.7764C5.18458 6.06163 5.09745 6.61124 5.38262 7.004C5.6678 7.39669 6.21735 7.48394 6.61022 7.1987C12.2849 3.07798 18.0197 3.21444 23.4848 7.26837C23.8746 7.55753 24.4251 7.47597 24.7143 7.08608C25.0035 6.69626 24.9219 6.14577 24.5321 5.85661Z" fill="#31456A"/>
<path d="M15 6.15234C11.2661 6.15234 6.46595 8.63842 4.42495 11.7C4.15565 12.1039 4.26481 12.6496 4.6687 12.9188C5.07265 13.1879 5.61833 13.0789 5.88751 12.675C7.57964 10.1367 11.8378 7.91016 15 7.91016C18.0963 7.91016 22.3312 9.56209 24.0806 12.6236C24.2429 12.9075 24.5394 13.0666 24.8445 13.0666C25.5077 13.0666 25.9451 12.3435 25.6068 11.7515C23.5918 8.22516 18.8605 6.15234 15 6.15234Z" fill="#31456A"/>
<path d="M10.2539 20.625C10.2539 17.7495 12.383 15.4102 15 15.4102C17.617 15.4102 19.7461 17.7495 19.7461 20.625V21.5625C19.7461 22.0479 20.1396 22.4414 20.625 22.4414C21.1104 22.4414 21.5039 22.0479 21.5039 21.5625V20.625C21.5039 16.7803 18.5863 13.6523 15 13.6523C11.4137 13.6523 8.49609 16.7803 8.49609 20.625C8.49609 24.3623 11.306 26.3644 12.5466 28.1565C12.7173 28.403 12.9913 28.5352 13.2701 28.5352C13.9699 28.5352 14.3981 27.7426 13.9919 27.1559C12.6492 25.2165 10.2539 23.6083 10.2539 20.625Z" fill="#31456A"/>
<path d="M24.6923 23.8305C27.4087 18.3981 22.5783 9.90234 15 9.90234C9.66451 9.90234 4.74609 14.4244 4.74609 20.1563C4.74609 22.2373 5.01305 23.9973 6.31582 25.823C6.59777 26.2181 7.14662 26.3099 7.54178 26.0279C7.93687 25.746 8.02869 25.1971 7.74668 24.802C6.82916 23.5161 6.50391 22.3004 6.50391 20.1563C6.50391 15.6303 10.474 11.6602 15 11.6602C17.2785 11.6602 19.5287 12.6651 21.1736 14.4173C23.5022 16.8978 24.339 20.6066 23.1202 23.0445C21.8513 25.5819 17.7539 24.8627 17.7539 21.5625C17.7539 15.0442 11.0769 16.9938 12.2723 21.7757C12.39 22.2466 12.8673 22.5328 13.3381 22.4152C13.809 22.2974 14.0954 21.8203 13.9776 21.3493C13.6706 20.1212 14.2338 19.1602 15 19.1602C15.6881 19.1602 15.9961 20.3667 15.9961 21.5625C15.9961 26.7089 22.5887 28.0381 24.6923 23.8305Z" fill="#31456A"/>
</symbol><symbol id="icon-hammer" viewBox="0 0 30 30">
<path d="M29.8282 10.0514L27.8205 8.0437C27.6727 7.89598 27.4579 7.83809 27.2558 7.89135L26.5437 8.07967L26.1523 7.68833L26.4055 7.2242C26.5301 6.99575 26.4894 6.71256 26.3053 6.52852L21.5949 1.81811C19.3045 -0.472144 15.5783 -0.472026 13.288 1.81811L11.7758 3.33036C11.6658 3.44034 11.604 3.58958 11.604 3.74514C11.604 3.90071 11.6658 4.04995 11.7758 4.15993L13.0435 5.4276C13.2726 5.65664 13.6439 5.65659 13.873 5.4276C14.216 5.08459 14.672 4.89569 15.157 4.89569C15.6421 4.89569 16.0982 5.08459 16.4411 5.4276L17.7539 6.74028C18.2064 7.19274 18.2064 7.92903 17.754 8.38161C17.7539 8.38161 17.7539 8.38161 17.7539 8.38161L12.9593 13.1762C12.3574 12.958 11.6561 13.0893 11.1743 13.5711L7.6939 17.0518C7.46486 17.2808 7.46486 17.6523 7.6939 17.8813C7.923 18.1103 8.29431 18.1103 8.52347 17.8813L12.0039 14.4008C12.1036 14.3011 12.2362 14.2462 12.3772 14.2462C12.5182 14.2462 12.6508 14.3011 12.7505 14.4008L14.4786 16.1289L12.2342 18.3734C12.0052 18.6024 12.0052 18.9738 12.2342 19.2029C12.3488 19.3174 12.4989 19.3747 12.649 19.3747C12.7991 19.3747 12.9492 19.3174 13.0638 19.2029L15.3082 16.9585L15.4986 17.149C15.5984 17.2487 15.6533 17.3813 15.6533 17.5223C15.6533 17.6633 15.5984 17.7959 15.4986 17.8956L4.82169 28.5725C4.72203 28.6723 4.58943 28.7272 4.44839 28.7272C4.30742 28.7272 4.17482 28.6723 4.07515 28.5725L3.88466 28.3821L6.92076 25.346C7.1498 25.1169 7.1498 24.7455 6.92076 24.5164C6.69171 24.2874 6.32041 24.2874 6.09119 24.5164L3.05509 27.5525L1.32699 25.8244C1.12115 25.6185 1.12115 25.2836 1.32699 25.0778L5.66521 20.7396C5.89425 20.5105 5.89425 20.1391 5.66521 19.91C5.43617 19.681 5.06474 19.681 4.83564 19.91L0.497417 24.2483C-0.165806 24.9115 -0.165806 25.9907 0.497417 26.654L3.24558 29.4022C3.57722 29.7338 4.01275 29.8996 4.44845 29.8996C4.88398 29.8996 5.31968 29.7338 5.65127 29.4022L16.3282 18.7252C16.81 18.2434 16.9415 17.5422 16.7232 16.9402L21.4876 12.1758L22.5522 11.3842L22.8956 11.7277L22.7073 12.4397C22.6539 12.6416 22.712 12.8567 22.8597 13.0044L24.8674 15.0121C24.9774 15.1221 25.1266 15.1839 25.2822 15.1839C25.4377 15.1839 25.5869 15.1221 25.6969 15.0121L29.8282 10.8809C30.0572 10.6519 30.0572 10.2805 29.8282 10.0514ZM16.0065 15.9978L13.9017 13.8931L18.1686 9.6262L20.2733 11.7309L16.0065 15.9978ZM25.2822 13.7678L23.9278 12.4134L24.1161 11.7014C24.1695 11.4995 24.1115 11.2844 23.9638 11.1367L23.0236 10.1964C22.8177 9.99071 22.4921 9.96686 22.2588 10.1405L21.1596 10.9579L18.9455 8.74377C19.471 7.84946 19.3503 6.67758 18.5835 5.91077L17.2708 4.59809C16.2472 3.57457 14.6601 3.44989 13.4992 4.22415L13.0202 3.74514L14.1177 2.64768C15.9503 0.814927 18.9326 0.81481 20.7655 2.64768L25.1656 7.04772L24.9124 7.51184C24.7878 7.7403 24.8285 8.02348 25.0126 8.20747L25.9528 9.14772C26.1005 9.29543 26.3155 9.35344 26.5176 9.30006L27.2296 9.11174L28.584 10.4661L25.2822 13.7678Z" fill="#31456A"/>
</symbol><symbol id="icon-infinity" viewBox="0 0 30 14">
<path d="M23.25 0.281189C21.45 0.281189 19.75 0.981209 18.5313 2.19996L15 5.32494L14.9937 5.31867L13.1 6.98742L13.1125 6.9999L9.74373 9.98742C8.94375 10.7812 7.88127 11.2187 6.75 11.2187C4.41252 11.2187 2.5125 9.32496 2.5125 6.99996C2.5125 4.67496 4.41252 2.78121 6.75 2.78121C7.88127 2.78121 8.94375 3.21873 9.79998 4.06869L11.2187 5.32494L13.1062 3.65619L11.5249 2.25621C10.2499 0.987478 8.55615 0.287459 6.74994 0.287459C3.02502 0.28119 0 3.29373 0 6.99996C0 10.7062 3.02502 13.7187 6.75 13.7187C8.55 13.7187 10.2438 13.0187 11.4687 11.8062L15 8.67498L15.0063 8.68125L16.8938 7.00623L16.8875 6.99996L20.2562 4.01871C21.0562 3.21873 22.1187 2.78121 23.25 2.78121C25.5875 2.78121 27.4875 4.67496 27.4875 6.99996C27.4875 9.32496 25.5875 11.2187 23.25 11.2187C22.1187 11.2187 21.0562 10.7812 20.2 9.93744L18.7813 8.68119L16.8938 10.3562L18.475 11.7562C19.75 13.0249 21.4438 13.7187 23.2438 13.7187C26.975 13.7187 30 10.7062 30 6.99996C30 3.29373 26.975 0.281189 23.25 0.281189Z" fill="#31456A"/>
</symbol><symbol id="icon-instagram" viewBox="0 0 25 26">
<mask id="path-1-inside-1" fill="white">
<path d="M24.9365 7.35148C24.8779 6.02289 24.6631 5.10949 24.3553 4.31801C24.0377 3.47787 23.5492 2.7257 22.9092 2.10043C22.284 1.46541 21.5268 0.97198 20.6964 0.659436C19.9004 0.35166 18.9918 0.13681 17.6632 0.0782316C16.3247 0.0146923 15.8997 0 12.5048 0C9.10999 0 8.68505 0.0146923 7.35148 0.0732706C6.02288 0.131849 5.10948 0.346891 4.3182 0.654475C3.47788 0.97198 2.72571 1.46046 2.10042 2.10043C1.46541 2.7257 0.972171 3.48283 0.659436 4.31323C0.351661 5.10949 0.13681 6.01792 0.0782317 7.34653C0.0146923 8.68505 0 9.10998 0 12.5049C0 15.8997 0.0146923 16.3246 0.0732708 17.6583C0.131849 18.9868 0.34689 19.9002 0.654666 20.6917C0.972171 21.5318 1.46541 22.284 2.10042 22.9093C2.72571 23.5443 3.48284 24.0378 4.31324 24.3503C5.10948 24.658 6.01793 24.8729 7.34672 24.9314C8.68009 24.9902 9.10521 25.0047 12.5001 25.0047C15.895 25.0047 16.3198 24.9902 17.6535 24.9314C18.9821 24.8729 19.8955 24.658 20.6868 24.3503C22.3672 23.7006 23.6957 22.3719 24.3455 20.6917C24.6531 19.8955 24.8681 18.9868 24.9267 17.6583C24.9852 16.3246 25 15.8997 25 12.5049C25 9.10998 24.995 8.68505 24.9365 7.35148ZM22.6847 17.5605C22.6309 18.7817 22.4258 19.4411 22.2548 19.8807C21.8346 20.97 20.9701 21.8346 19.8808 22.2548C19.4412 22.4258 18.7769 22.6309 17.5606 22.6845C16.2417 22.7433 15.8461 22.7578 12.5098 22.7578C9.17352 22.7578 8.77301 22.7433 7.45891 22.6845C6.23773 22.6309 5.57829 22.4258 5.13867 22.2548C4.59659 22.0545 4.10316 21.7369 3.70264 21.3217C3.28745 20.9163 2.96994 20.4278 2.76959 19.8857C2.59863 19.4461 2.3935 18.7817 2.33989 17.5655C2.28112 16.2466 2.26662 15.8509 2.26662 12.5145C2.26662 9.1783 2.28112 8.77778 2.33989 7.46388C2.3935 6.24269 2.59863 5.58326 2.76959 5.14363C2.96994 4.60136 3.28745 4.10812 3.70761 3.70741C4.11288 3.29222 4.60135 2.97471 5.14363 2.77455C5.58326 2.60359 6.24766 2.39846 7.46387 2.34466C8.78275 2.28608 9.17849 2.27139 12.5146 2.27139C15.8559 2.27139 16.2514 2.28608 17.5654 2.34466C18.7867 2.39846 19.4461 2.60359 19.8858 2.77455C20.4279 2.97471 20.9212 3.29222 21.3218 3.70741C21.737 4.11288 22.0544 4.60136 22.2548 5.14363C22.4258 5.58326 22.6309 6.24747 22.6847 7.46388C22.7433 8.78274 22.7579 9.1783 22.7579 12.5145C22.7579 15.8509 22.7433 16.2416 22.6847 17.5605Z"/>
<path d="M12.5048 6.08147C8.95871 6.08147 6.08149 8.95848 6.08149 12.5048C6.08149 16.0512 8.95871 18.9283 12.5048 18.9283C16.0513 18.9283 18.9283 16.0512 18.9283 12.5048C18.9283 8.95848 16.0513 6.08147 12.5048 6.08147ZM12.5048 16.6716C10.2043 16.6716 8.33819 14.8056 8.33819 12.5048C8.33819 10.2041 10.2043 8.33816 12.5048 8.33816C14.8057 8.33816 16.6715 10.2041 16.6715 12.5048C16.6715 14.8056 14.8057 16.6716 12.5048 16.6716Z"/>
<path d="M20.6819 5.82749C20.6819 6.6556 20.0104 7.32705 19.1821 7.32705C18.354 7.32705 17.6826 6.6556 17.6826 5.82749C17.6826 4.99919 18.354 4.32793 19.1821 4.32793C20.0104 4.32793 20.6819 4.99919 20.6819 5.82749Z"/>
</mask>
<path d="M24.9365 7.35148C24.8779 6.02289 24.6631 5.10949 24.3553 4.31801C24.0377 3.47787 23.5492 2.7257 22.9092 2.10043C22.284 1.46541 21.5268 0.97198 20.6964 0.659436C19.9004 0.35166 18.9918 0.13681 17.6632 0.0782316C16.3247 0.0146923 15.8997 0 12.5048 0C9.10999 0 8.68505 0.0146923 7.35148 0.0732706C6.02288 0.131849 5.10948 0.346891 4.3182 0.654475C3.47788 0.97198 2.72571 1.46046 2.10042 2.10043C1.46541 2.7257 0.972171 3.48283 0.659436 4.31323C0.351661 5.10949 0.13681 6.01792 0.0782317 7.34653C0.0146923 8.68505 0 9.10998 0 12.5049C0 15.8997 0.0146923 16.3246 0.0732708 17.6583C0.131849 18.9868 0.34689 19.9002 0.654666 20.6917C0.972171 21.5318 1.46541 22.284 2.10042 22.9093C2.72571 23.5443 3.48284 24.0378 4.31324 24.3503C5.10948 24.658 6.01793 24.8729 7.34672 24.9314C8.68009 24.9902 9.10521 25.0047 12.5001 25.0047C15.895 25.0047 16.3198 24.9902 17.6535 24.9314C18.9821 24.8729 19.8955 24.658 20.6868 24.3503C22.3672 23.7006 23.6957 22.3719 24.3455 20.6917C24.6531 19.8955 24.8681 18.9868 24.9267 17.6583C24.9852 16.3246 25 15.8997 25 12.5049C25 9.10998 24.995 8.68505 24.9365 7.35148ZM22.6847 17.5605C22.6309 18.7817 22.4258 19.4411 22.2548 19.8807C21.8346 20.97 20.9701 21.8346 19.8808 22.2548C19.4412 22.4258 18.7769 22.6309 17.5606 22.6845C16.2417 22.7433 15.8461 22.7578 12.5098 22.7578C9.17352 22.7578 8.77301 22.7433 7.45891 22.6845C6.23773 22.6309 5.57829 22.4258 5.13867 22.2548C4.59659 22.0545 4.10316 21.7369 3.70264 21.3217C3.28745 20.9163 2.96994 20.4278 2.76959 19.8857C2.59863 19.4461 2.3935 18.7817 2.33989 17.5655C2.28112 16.2466 2.26662 15.8509 2.26662 12.5145C2.26662 9.1783 2.28112 8.77778 2.33989 7.46388C2.3935 6.24269 2.59863 5.58326 2.76959 5.14363C2.96994 4.60136 3.28745 4.10812 3.70761 3.70741C4.11288 3.29222 4.60135 2.97471 5.14363 2.77455C5.58326 2.60359 6.24766 2.39846 7.46387 2.34466C8.78275 2.28608 9.17849 2.27139 12.5146 2.27139C15.8559 2.27139 16.2514 2.28608 17.5654 2.34466C18.7867 2.39846 19.4461 2.60359 19.8858 2.77455C20.4279 2.97471 20.9212 3.29222 21.3218 3.70741C21.737 4.11288 22.0544 4.60136 22.2548 5.14363C22.4258 5.58326 22.6309 6.24747 22.6847 7.46388C22.7433 8.78274 22.7579 9.1783 22.7579 12.5145C22.7579 15.8509 22.7433 16.2416 22.6847 17.5605Z" fill="#31456A"/>
<path d="M12.5048 6.08147C8.95871 6.08147 6.08149 8.95848 6.08149 12.5048C6.08149 16.0512 8.95871 18.9283 12.5048 18.9283C16.0513 18.9283 18.9283 16.0512 18.9283 12.5048C18.9283 8.95848 16.0513 6.08147 12.5048 6.08147ZM12.5048 16.6716C10.2043 16.6716 8.33819 14.8056 8.33819 12.5048C8.33819 10.2041 10.2043 8.33816 12.5048 8.33816C14.8057 8.33816 16.6715 10.2041 16.6715 12.5048C16.6715 14.8056 14.8057 16.6716 12.5048 16.6716Z" fill="#31456A"/>
<path d="M20.6819 5.82749C20.6819 6.6556 20.0104 7.32705 19.1821 7.32705C18.354 7.32705 17.6826 6.6556 17.6826 5.82749C17.6826 4.99919 18.354 4.32793 19.1821 4.32793C20.0104 4.32793 20.6819 4.99919 20.6819 5.82749Z" fill="#31456A"/>
<path d="M24.9365 7.35148L34.9269 6.91315L34.9268 6.91057L24.9365 7.35148ZM24.3553 4.31801L15.0012 7.85373L15.018 7.89824L15.0353 7.9426L24.3553 4.31801ZM22.9092 2.10043L15.7835 9.11643L15.8516 9.18554L15.9209 9.25332L22.9092 2.10043ZM20.6964 0.659436L17.0902 9.98655L17.132 10.0027L17.1739 10.0185L20.6964 0.659436ZM17.6632 0.0782316L17.189 10.067L17.2059 10.0678L17.2227 10.0685L17.6632 0.0782316ZM7.35148 0.0732706L6.91265 -9.9171L6.91101 -9.91702L7.35148 0.0732706ZM4.3182 0.654475L7.85268 10.009L7.89706 9.99225L7.94128 9.97506L4.3182 0.654475ZM2.10042 2.10043L9.11664 9.22593L9.18553 9.15809L9.25311 9.08893L2.10042 2.10043ZM0.659436 4.31323L9.9869 7.91856L10.0025 7.87818L10.0178 7.83766L0.659436 4.31323ZM0.0782317 7.34653L10.067 7.82069L10.0678 7.80385L10.0685 7.787L0.0782317 7.34653ZM0.0732708 17.6583L-9.9171 18.0971L-9.91702 18.0988L0.0732708 17.6583ZM0.654666 20.6917L10.0088 17.1562L9.99205 17.1119L9.97487 17.0677L0.654666 20.6917ZM2.10042 22.9093L9.22578 15.8929L9.17156 15.8379L9.11649 15.7837L2.10042 22.9093ZM4.31324 24.3503L7.9177 15.0225L7.87689 15.0067L7.83594 14.9913L4.31324 24.3503ZM7.34672 24.9314L7.78699 14.9411L7.78663 14.9411L7.34672 24.9314ZM17.6535 24.9314L17.2135 14.9411L17.2133 14.9411L17.6535 24.9314ZM20.6868 24.3503L17.0805 15.0232L17.0716 15.0267L17.0627 15.0301L20.6868 24.3503ZM24.3455 20.6917L33.6724 24.2985L33.6738 24.2948L24.3455 20.6917ZM24.9267 17.6583L34.917 18.0992L34.9171 18.0966L24.9267 17.6583ZM22.6847 17.5605L12.6945 17.1164L12.6944 17.1207L22.6847 17.5605ZM22.2548 19.8807L12.9345 16.257L12.9297 16.2694L12.9249 16.2817L22.2548 19.8807ZM19.8808 22.2548L16.2818 12.9249L16.2683 12.9301L16.2548 12.9353L19.8808 22.2548ZM17.5606 22.6845L17.12 12.6942L17.1155 12.6944L17.5606 22.6845ZM7.45891 22.6845L7.90562 12.6945L7.89769 12.6941L7.45891 22.6845ZM5.13867 22.2548L8.7644 12.9352L8.6847 12.9042L8.60448 12.8746L5.13867 22.2548ZM3.70264 21.3217L10.8999 14.3791L10.7962 14.2716L10.6893 14.1673L3.70264 21.3217ZM2.76959 19.8857L12.1495 16.4191L12.1202 16.3398L12.0896 16.2611L2.76959 19.8857ZM2.33989 17.5655L12.3302 17.1252L12.33 17.1203L2.33989 17.5655ZM2.33989 7.46388L12.3299 7.91075L12.3303 7.90246L2.33989 7.46388ZM2.76959 5.14363L12.0897 8.76789L12.1204 8.68887L12.1498 8.60934L2.76959 5.14363ZM3.70761 3.70741L10.6092 10.944L10.7386 10.8206L10.8636 10.6925L3.70761 3.70741ZM5.14363 2.77455L8.60642 12.1559L8.68746 12.1259L8.76798 12.0946L5.14363 2.77455ZM7.46387 2.34466L7.90578 12.3349L7.90764 12.3348L7.46387 2.34466ZM17.5654 2.34466L17.12 12.3347L17.1253 12.335L17.5654 2.34466ZM19.8858 2.77455L16.262 12.0949L16.3418 12.1259L16.422 12.1555L19.8858 2.77455ZM21.3218 3.70741L14.1252 10.6507L14.2286 10.7579L14.3351 10.8619L21.3218 3.70741ZM22.2548 5.14363L12.875 8.61029L12.904 8.68888L12.9344 8.76697L22.2548 5.14363ZM22.6847 7.46388L12.6944 7.90541L12.6945 7.90803L22.6847 7.46388ZM34.9268 6.91057C34.8252 4.60884 34.4193 2.60659 33.6752 0.693417L15.0353 7.9426C15.0179 7.89808 14.9974 7.83984 14.9777 7.77334C14.9581 7.707 14.9449 7.65083 14.9367 7.61037C14.9199 7.52712 14.9363 7.56738 14.9462 7.79239L34.9268 6.91057ZM33.7093 0.782286C32.8853 -1.39787 31.5984 -3.39075 29.8975 -5.05246L15.9209 9.25332C15.5001 8.84215 15.1901 8.35361 15.0012 7.85373L33.7093 0.782286ZM30.0349 -4.91557C28.3998 -6.57627 26.4156 -7.87287 24.2189 -8.69962L17.1739 10.0185C16.6381 9.81683 16.1681 9.50708 15.7835 9.11643L30.0349 -4.91557ZM24.3026 -8.66768C22.4053 -9.40127 20.4169 -9.81007 18.1037 -9.91206L17.2227 10.0685C17.3364 10.0735 17.4016 10.0802 17.4268 10.0831C17.4508 10.0859 17.4395 10.0855 17.4 10.0775C17.3593 10.0693 17.3045 10.0562 17.2414 10.0376C17.1783 10.019 17.1259 10.0004 17.0902 9.98655L24.3026 -8.66768ZM18.1374 -9.91052C16.5607 -9.98536 15.9494 -10 12.5048 -10V10C15.8501 10 16.0887 10.0147 17.189 10.067L18.1374 -9.91052ZM12.5048 -10C9.0577 -10 8.46317 -9.9852 6.91265 -9.9171L7.79032 10.0636C8.90694 10.0146 9.16227 10 12.5048 10V-10ZM6.91101 -9.91702C4.60731 -9.81545 2.60581 -9.40883 0.695116 -8.66611L7.94128 9.97506C7.89734 9.99214 7.83954 10.0125 7.77339 10.0321C7.70738 10.0516 7.65141 10.0648 7.611 10.073C7.52778 10.0898 7.56776 10.0735 7.79196 10.0636L6.91101 -9.91702ZM0.783716 -8.70007C-1.39745 -7.87594 -3.39058 -6.58879 -5.05226 -4.88807L9.25311 9.08893C8.84199 9.50971 8.3532 9.8199 7.85268 10.009L0.783716 -8.70007ZM-4.91579 -5.02507C-6.57717 -3.38917 -7.87259 -1.40528 -8.6989 0.788798L10.0178 7.83766C9.81693 8.37094 9.508 8.84057 9.11664 9.22593L-4.91579 -5.02507ZM-8.66803 0.707904C-9.40116 2.60461 -9.81006 4.59249 -9.91206 6.90606L10.0685 7.787C10.0735 7.67338 10.0802 7.60818 10.0831 7.58298C10.0859 7.55899 10.0855 7.57036 10.0775 7.60984C10.0693 7.65052 10.0563 7.70514 10.0377 7.76808C10.0191 7.831 10.0006 7.88318 9.9869 7.91856L-8.66803 0.707904ZM-9.91052 6.87236C-9.98536 8.44903 -10 9.0603 -10 12.5049H10C10 9.15966 10.0147 8.92107 10.067 7.82069L-9.91052 6.87236ZM-10 12.5049C-10 15.952 -9.9852 16.5465 -9.9171 18.0971L10.0636 17.2195C10.0146 16.1028 10 15.8474 10 12.5049H-10ZM-9.91702 18.0988C-9.81544 20.4025 -9.40877 22.4044 -8.66554 24.3158L9.97487 17.0677C9.99197 17.1117 10.0124 17.1695 10.032 17.2357C10.0515 17.3018 10.0648 17.3579 10.0729 17.3984C10.0898 17.4817 10.0734 17.4419 10.0636 17.2178L-9.91702 18.0988ZM-8.69947 24.2273C-7.86557 26.4336 -6.56897 28.407 -4.91565 30.0349L9.11649 15.7837C9.4998 16.1611 9.80992 16.63 10.0088 17.1562L-8.69947 24.2273ZM-5.02494 29.9256C-3.39019 31.5858 -1.40624 32.8824 0.790531 33.7093L7.83594 14.9913C8.37192 15.1931 8.8416 15.5028 9.22578 15.8929L-5.02494 29.9256ZM0.708777 33.6781C2.60469 34.4107 4.59236 34.8198 6.90681 34.9217L7.78663 14.9411C7.67308 14.9361 7.60794 14.9295 7.58279 14.9266C7.55885 14.9238 7.57023 14.9242 7.6097 14.9322C7.65037 14.9404 7.70492 14.9534 7.76775 14.9719C7.83055 14.9905 7.88255 15.0089 7.9177 15.0225L0.708777 33.6781ZM6.90645 34.9217C8.45831 34.9901 9.05424 35.0047 12.5001 35.0047V15.0047C9.15618 15.0047 8.90187 14.9903 7.78699 14.9411L6.90645 34.9217ZM12.5001 35.0047C15.946 35.0047 16.5416 34.9901 18.0936 34.9217L17.2133 14.9411C16.0981 14.9903 15.844 15.0047 12.5001 15.0047V35.0047ZM18.0934 34.9217C20.3965 34.8203 22.3987 34.414 24.3109 33.6705L17.0627 15.0301C17.107 15.0129 17.1652 14.9924 17.2316 14.9728C17.2978 14.9532 17.354 14.9399 17.3945 14.9317C17.4779 14.9149 17.438 14.9312 17.2135 14.9411L18.0934 34.9217ZM24.2931 33.6774C28.6014 32.0116 32.0067 28.6058 33.6724 24.2985L15.0186 17.0849C15.3848 16.1381 16.1331 15.3895 17.0805 15.0232L24.2931 33.6774ZM33.6738 24.2948C34.4055 22.4005 34.8149 20.4136 34.917 18.0992L14.9365 17.2173C14.9315 17.3307 14.9248 17.3958 14.9219 17.4211C14.9191 17.4451 14.9195 17.4339 14.9274 17.3947C14.9356 17.3543 14.9485 17.3 14.9669 17.2376C14.9854 17.1752 15.0037 17.1235 15.0171 17.0887L33.6738 24.2948ZM34.9171 18.0966C34.9851 16.5465 35 15.9524 35 12.5049H15C15 15.847 14.9854 16.1028 14.9363 17.22L34.9171 18.0966ZM35 12.5049C35 9.12068 34.9962 8.49296 34.9269 6.91315L14.9461 7.78981C14.9938 8.87714 15 9.09928 15 12.5049H35ZM12.6944 17.1207C12.6888 17.2477 12.6837 17.1623 12.7333 16.9294C12.758 16.8138 12.791 16.6859 12.8324 16.5516C12.8741 16.4169 12.9133 16.3116 12.9345 16.257L31.5752 23.5044C32.129 22.0799 32.5717 20.3468 32.675 18.0003L12.6944 17.1207ZM12.9249 16.2817C13.5206 14.7375 14.7376 13.5205 16.2818 12.9249L23.4797 31.5847C27.2026 30.1486 30.1487 27.2025 31.5848 23.4797L12.9249 16.2817ZM16.2548 12.9353C16.3161 12.9115 16.4234 12.8718 16.5579 12.8303C16.6917 12.7891 16.8182 12.7566 16.9316 12.7324C17.1603 12.6838 17.2437 12.6888 17.12 12.6942L18.0011 32.6748C20.3356 32.5718 22.0745 32.1315 23.5068 31.5742L16.2548 12.9353ZM17.1155 12.6944C16.0155 12.7434 15.791 12.7578 12.5098 12.7578V32.7578C15.9012 32.7578 16.4679 32.7431 18.0057 32.6746L17.1155 12.6944ZM12.5098 12.7578C9.22757 12.7578 8.99934 12.7434 7.90562 12.6945L7.01219 32.6745C8.54668 32.7431 9.11948 32.7578 12.5098 32.7578V12.7578ZM7.89769 12.6941C7.77058 12.6885 7.85604 12.6835 8.08921 12.7331C8.20494 12.7578 8.33314 12.7908 8.46782 12.8325C8.60302 12.8742 8.70885 12.9136 8.7644 12.9352L1.51294 31.5743C2.94029 32.1296 4.67458 32.5718 7.02012 32.6749L7.89769 12.6941ZM8.60448 12.8746C9.42751 13.1787 10.2221 13.6765 10.8999 14.3791L-3.4946 28.2643C-2.0158 29.7974 -0.234327 30.9303 1.67286 31.635L8.60448 12.8746ZM10.6893 14.1673C11.3296 14.7925 11.8327 15.5618 12.1495 16.4191L-6.61031 23.3523C-5.89278 25.2938 -4.75469 27.04 -3.28401 28.4762L10.6893 14.1673ZM12.0896 16.2611C12.1133 16.322 12.1528 16.4289 12.1942 16.5632C12.2354 16.6968 12.2678 16.8231 12.2919 16.9364C12.3405 17.1649 12.3356 17.2484 12.3302 17.1252L-7.65041 18.0059C-7.54747 20.3412 -7.1068 22.0796 -6.5504 23.5103L12.0896 16.2611ZM12.33 17.1203C12.281 16.0204 12.2666 15.7959 12.2666 12.5145H-7.73338C-7.73338 15.906 -7.71872 16.4729 -7.65019 18.0107L12.33 17.1203ZM12.2666 12.5145C12.2666 9.23231 12.281 9.00416 12.3299 7.91075L-7.65012 7.017C-7.71875 8.5514 -7.73338 9.12428 -7.73338 12.5145H12.2666ZM12.3303 7.90246C12.3358 7.77567 12.3409 7.86125 12.2912 8.09441C12.2666 8.21012 12.2335 8.33819 12.192 8.4726C12.1503 8.60753 12.1111 8.71298 12.0897 8.76789L-6.55054 1.51937C-7.10487 2.9449 -7.54747 4.67869 -7.65048 7.0253L12.3303 7.90246ZM12.1498 8.60934C11.8442 9.43651 11.3371 10.2498 10.6092 10.944L-3.19394 -3.5292C-4.7622 -2.03356 -5.90433 -0.233788 -6.61065 1.67792L12.1498 8.60934ZM10.8636 10.6925C10.2372 11.3343 9.46606 11.8386 8.60642 12.1559L1.68085 -6.60677C-0.26335 -5.88914 -2.0114 -4.74984 -3.44838 -3.2777L10.8636 10.6925ZM8.76798 12.0946C8.70716 12.1183 8.60035 12.1578 8.46619 12.1992C8.33281 12.2403 8.20668 12.2727 8.09355 12.2967C7.86542 12.3453 7.78223 12.3404 7.90578 12.3349L7.02196 -7.64557C4.68742 -7.5423 2.94954 -7.10173 1.51929 -6.54554L8.76798 12.0946ZM7.90764 12.3348C9.0091 12.2859 9.23485 12.2714 12.5146 12.2714V-7.72861C9.12212 -7.72861 8.55639 -7.71373 7.02009 -7.64548L7.90764 12.3348ZM12.5146 12.2714C15.8003 12.2714 16.0248 12.2859 17.12 12.3347L18.0109 -7.64541C16.4781 -7.71375 15.9114 -7.72861 12.5146 -7.72861V12.2714ZM17.1253 12.335C17.2525 12.3406 17.1672 12.3457 16.9344 12.296C16.8188 12.2714 16.6909 12.2384 16.5567 12.1969C16.422 12.1553 16.3167 12.1161 16.262 12.0949L23.5095 -6.54579C22.0847 -7.09976 20.3516 -7.5423 18.0055 -7.64565L17.1253 12.335ZM16.422 12.1555C15.5973 11.851 14.8025 11.3527 14.1252 10.6507L28.5184 -3.23585C27.04 -4.76823 25.2584 -5.90159 23.3495 -6.60641L16.422 12.1555ZM14.3351 10.8619C13.6941 10.2359 13.1914 9.46639 12.875 8.61029L31.6347 1.67697C30.9175 -0.263662 29.7799 -2.01014 28.3085 -3.44707L14.3351 10.8619ZM12.9344 8.76697C12.9109 8.70674 12.8715 8.6002 12.8302 8.46617C12.7891 8.3329 12.7567 8.20678 12.7326 8.09356C12.6841 7.86525 12.689 7.78191 12.6944 7.90541L32.6749 7.02235C32.5717 4.68675 32.1309 2.94934 31.5753 1.52029L12.9344 8.76697ZM12.6945 7.90803C12.7435 9.00904 12.7579 9.23427 12.7579 12.5145H32.7579C32.7579 9.12232 32.7431 8.55644 32.6748 7.01972L12.6945 7.90803ZM12.7579 12.5145C12.7579 15.7945 12.7435 16.0151 12.6945 17.1164L32.6748 18.0047C32.7431 16.4682 32.7579 15.9074 32.7579 12.5145H12.7579ZM12.5048 -3.91853C3.43609 -3.91853 -3.91851 3.43541 -3.91851 12.5048H16.0815C16.0815 14.4816 14.4813 16.0815 12.5048 16.0815V-3.91853ZM-3.91851 12.5048C-3.91851 21.5741 3.43589 28.9283 12.5048 28.9283V8.92828C14.4815 8.92828 16.0815 10.5284 16.0815 12.5048H-3.91851ZM12.5048 28.9283C21.5741 28.9283 28.9283 21.5741 28.9283 12.5048H8.92833C8.92833 10.5284 10.5284 8.92828 12.5048 8.92828V28.9283ZM28.9283 12.5048C28.9283 3.43543 21.5739 -3.91853 12.5048 -3.91853V16.0815C10.5286 16.0815 8.92833 14.4815 8.92833 12.5048H28.9283ZM12.5048 6.6716C15.7272 6.6716 18.3382 9.2828 18.3382 12.5048H-1.66181C-1.66181 20.3284 4.68141 26.6716 12.5048 26.6716V6.6716ZM18.3382 12.5048C18.3382 15.7273 15.7268 18.3382 12.5048 18.3382V-1.66184C4.68181 -1.66184 -1.66181 4.68087 -1.66181 12.5048H18.3382ZM12.5048 18.3382C9.28282 18.3382 6.67152 15.7269 6.67152 12.5048H26.6715C26.6715 4.68122 20.3285 -1.66184 12.5048 -1.66184V18.3382ZM6.67152 12.5048C6.67152 9.28316 9.28242 6.6716 12.5048 6.6716V26.6716C20.3289 26.6716 26.6715 20.3281 26.6715 12.5048H6.67152ZM10.6819 5.82749C10.6819 1.13157 14.4888 -2.67295 19.1821 -2.67295V17.3271C25.5321 17.3271 30.6819 12.1796 30.6819 5.82749H10.6819ZM19.1821 -2.67295C23.8773 -2.67295 27.6826 1.13319 27.6826 5.82749H7.6826C7.6826 12.178 12.8307 17.3271 19.1821 17.3271V-2.67295ZM27.6826 5.82749C27.6826 10.5224 23.8764 14.3279 19.1821 14.3279V-5.67207C12.8315 -5.67207 7.6826 -0.524027 7.6826 5.82749H27.6826ZM19.1821 14.3279C14.4896 14.3279 10.6819 10.524 10.6819 5.82749H30.6819C30.6819 -0.525654 25.5313 -5.67207 19.1821 -5.67207V14.3279Z" fill="#E1306C" mask="url(#path-1-inside-1)"/>
</symbol><symbol id="icon-pad" viewBox="0 0 30 30">
<path d="M15.7812 26.7188C15.7812 27.2366 15.3614 27.6562 14.8438 27.6562C14.3259 27.6562 13.9062 27.2366 13.9062 26.7188C13.9062 26.2009 14.3259 25.7812 14.8438 25.7812C15.3614 25.7812 15.7812 26.2009 15.7812 26.7188Z" fill="#31456A"/>
<path d="M25.1562 0.9375H4.53125C3.75452 0.9375 3.125 1.5672 3.125 2.34375V27.6562C3.125 28.4328 3.75452 29.0625 4.53125 29.0625H25.1562C25.9328 29.0625 26.5625 28.4328 26.5625 27.6562V2.34375C26.5625 1.5672 25.9328 0.9375 25.1562 0.9375ZM25.625 27.6562C25.625 27.9152 25.415 28.125 25.1562 28.125H4.53125C4.27234 28.125 4.0625 27.9152 4.0625 27.6562V2.34375C4.0625 2.08484 4.27234 1.875 4.53125 1.875H25.1562C25.415 1.875 25.625 2.08484 25.625 2.34375V27.6562Z" fill="#31456A"/>
</symbol><symbol id="icon-phone" viewBox="0 0 30 30">
<path d="M20.625 0.46875H9.375C8.75361 0.469448 8.15788 0.716602 7.71849 1.15599C7.2791 1.59538 7.03195 2.19111 7.03125 2.8125V27.1875C7.03195 27.8089 7.2791 28.4046 7.71849 28.844C8.15788 29.2834 8.75361 29.5306 9.375 29.5312H20.625C21.2464 29.5306 21.8421 29.2834 22.2815 28.844C22.7209 28.4046 22.9681 27.8089 22.9688 27.1875V2.8125C22.9681 2.19111 22.7209 1.59538 22.2815 1.15599C21.8421 0.716602 21.2464 0.469448 20.625 0.46875V0.46875ZM18.1782 1.40625L17.897 2.8125H12.1031L11.8218 1.40625H18.1782ZM22.0312 27.1875C22.0308 27.5603 21.8825 27.9178 21.6189 28.1814C21.3553 28.445 20.9978 28.5933 20.625 28.5938H9.375C9.00217 28.5933 8.64473 28.445 8.38109 28.1814C8.11746 27.9178 7.96917 27.5603 7.96875 27.1875V2.8125C7.96917 2.43967 8.11746 2.08223 8.38109 1.81859C8.64473 1.55496 9.00217 1.40667 9.375 1.40625H10.8657L11.2591 3.37318C11.2803 3.47945 11.3377 3.57506 11.4216 3.64376C11.5054 3.71246 11.6104 3.75 11.7188 3.75H18.2812C18.3896 3.75 18.4946 3.71246 18.5784 3.64376C18.6623 3.57506 18.7197 3.47945 18.7409 3.37318L19.1343 1.40625H20.625C20.9978 1.40667 21.3553 1.55496 21.6189 1.81859C21.8825 2.08223 22.0308 2.43967 22.0312 2.8125V27.1875Z" fill="#31456A"/>
<path d="M16.2812 26.7188H13.4688C13.3444 26.7188 13.2252 26.7681 13.1373 26.856C13.0494 26.944 13 27.0632 13 27.1875C13 27.3118 13.0494 27.431 13.1373 27.519C13.2252 27.6069 13.3444 27.6562 13.4688 27.6562H16.2812C16.4056 27.6562 16.5248 27.6069 16.6127 27.519C16.7006 27.431 16.75 27.3118 16.75 27.1875C16.75 27.0632 16.7006 26.944 16.6127 26.856C16.5248 26.7681 16.4056 26.7188 16.2812 26.7188Z" fill="#31456A"/>
</symbol><symbol id="icon-precision" viewBox="0 0 30 30">
<path d="M15 9.375C11.8987 9.375 9.375 11.8987 9.375 15C9.375 18.1013 11.8987 20.625 15 20.625C18.1013 20.625 20.625 18.1013 20.625 15C20.625 11.8987 18.1013 9.375 15 9.375ZM15 18.75C12.9319 18.75 11.25 17.0681 11.25 15C11.25 12.9319 12.9319 11.25 15 11.25C17.0681 11.25 18.75 12.9319 18.75 15C18.75 17.0681 17.0681 18.75 15 18.75Z" fill="#31456A"/>
<path d="M29.0625 14.0625H26.2031C25.7494 8.60625 21.3938 4.25063 15.9375 3.79688V0.9375C15.9375 0.42 15.5175 0 15 0C14.4825 0 14.0625 0.42 14.0625 0.9375V3.79688C8.60625 4.25063 4.25063 8.60813 3.79688 14.0625H0.9375C0.42 14.0625 0 14.4825 0 15C0 15.5175 0.42 15.9375 0.9375 15.9375H3.79688C4.25063 21.3938 8.60625 25.7494 14.0625 26.2031V29.0625C14.0625 29.58 14.4825 30 15 30C15.5175 30 15.9375 29.58 15.9375 29.0625V26.2031C21.3938 25.7494 25.7494 21.3938 26.2031 15.9375H29.0625C29.58 15.9375 30 15.5194 30 15C30 14.4844 29.58 14.0625 29.0625 14.0625ZM15 24.375C9.83063 24.375 5.625 20.1694 5.625 15C5.625 9.83063 9.83063 5.625 15 5.625C20.1694 5.625 24.375 9.83063 24.375 15C24.375 20.1694 20.1694 24.375 15 24.375Z" fill="#31456A"/>
</symbol><symbol id="icon-protect" viewBox="0 0 512 512"><g><path d="m291.03 90h-70.06c-21.81 24.86-49.19 44.01-79.97 55.98v91.77c0 77.61 44.93 147.21 115 179.07 70.07-31.86 115-101.46 115-179.07v-91.76c-30.79-11.97-58.16-31.12-79.97-55.99zm45.58 129.03-93.34 93.331c-2.93 2.93-6.77 4.399-10.6 4.399-3.84 0-7.68-1.47-10.61-4.399l-46.67-46.66c-5.85-5.86-5.85-15.36 0-21.22 5.86-5.85 15.36-5.85 21.22 0l36.06 36.06 82.73-82.72c5.85-5.86 15.35-5.86 21.21 0 5.85 5.859 5.85 15.349 0 21.209zm109.3-149.03c-43.24 0-82.62-23.76-102.8-62-2.591-4.92-7.7-8-13.261-8h-147.7c-5.56 0-10.67 3.08-13.27 8-20.169 38.24-59.549 62-102.879 62-8.28 0-15 6.72-15 15v152.75c0 61.41 19.19 120.05 55.49 169.58s86.43 85.479 144.99 103.97c1.47.47 3 .7 4.52.7s3.05-.23 4.52-.7c58.561-18.49 108.69-54.439 144.99-103.97s55.49-108.17 55.49-169.58v-152.75c0-8.28-6.81-15-15.09-15zm-44.91 167.07c0 91.86-54.65 174.01-139.23 209.28-1.85.771-3.81 1.15-5.77 1.15s-3.93-.38-5.77-1.15c-84.58-35.27-139.23-117.421-139.23-209.28v-102.32c0-6.48 4.16-12.23 10.32-14.25 31.83-10.47 59.87-29.72 81.08-55.67 2.85-3.49 7.12-5.51 11.62-5.51h83.96c4.6 0 10.02 3.56 11.619 5.51 21.21 25.95 49.25 45.2 81.08 55.67 4.391 1.44 7.75 4.77 9.33 8.92.021.04.03.09.05.13.381 1.03.65 2.11.801 3.22.01.11.029.23.04.34.06.54.1 1.08.1 1.64z"/></g></symbol><symbol id="icon-ps" viewBox="0 0 10 19">
<path d="M1.88538 6.23927C2.4809 6.78888 3.42951 7.25311 4.73122 7.63196C5.76943 7.93611 6.48617 8.2456 6.88142 8.56042C7.27668 8.86991 7.47431 9.31012 7.47431 9.88107C7.47431 10.452 7.26087 10.9029 6.83399 11.2338C6.40711 11.5646 5.79315 11.73 4.99209 11.73H2.5336V9.88107L1 8.77563V17.8426H2.5336V12.9866H4.99209C6.20949 12.9866 7.18182 12.7038 7.90909 12.1381C8.63637 11.5672 9 10.8095 9 9.86506C9 9.27277 8.86825 8.75785 8.60474 8.3203C8.34651 7.88275 7.94598 7.50122 7.40316 7.17573C6.86561 6.8449 6.11726 6.54343 5.1581 6.2713C4.20422 5.99916 3.52701 5.70035 3.12648 5.37485C2.73123 5.04401 2.5336 4.64115 2.5336 4.16625C2.5336 3.57396 2.74177 3.1124 3.1581 2.78157C3.57971 2.4454 4.16469 2.27732 4.91304 2.27732C5.71937 2.27732 6.34387 2.48009 6.78656 2.88562C7.22925 3.28582 7.45059 3.83809 7.45059 4.54244H8.97628C8.97628 3.89678 8.80501 3.30183 8.46245 2.75756C8.12517 2.21329 7.64559 1.78641 7.02371 1.47693C6.40711 1.16744 5.70356 1.0127 4.91304 1.0127C3.75362 1.0127 2.81028 1.31418 2.083 1.91714C1.361 2.51477 1 3.27247 1 4.19026C1 5.00133 1.29513 5.68434 1.88538 6.23927Z" fill="#31456A" stroke="#31456A"/>
</symbol><symbol id="icon-safety" viewBox="0 0 26 30">
<path d="M25.7435 8.1397L25.7426 8.11635C25.7295 7.82819 25.7208 7.52332 25.7156 7.18412C25.6911 5.52999 24.3762 4.16174 22.7218 4.06927C19.2726 3.87679 16.6043 2.75206 14.3244 0.529856L14.3049 0.511317C13.5613 -0.17052 12.4395 -0.17052 11.6957 0.511317L11.6762 0.529856C9.39634 2.75206 6.72804 3.87679 3.2788 4.0695C1.62468 4.16174 0.309529 5.52999 0.285039 7.18435C0.280003 7.52126 0.271077 7.82613 0.258031 8.11635L0.256657 8.1706C0.189595 11.6878 0.106282 16.0652 1.57066 20.0383C2.37587 22.2232 3.59535 24.1225 5.195 25.6837C7.01689 27.4616 9.40321 28.8731 12.2876 29.8788C12.3814 29.9116 12.4789 29.9381 12.5782 29.958C12.7183 29.986 12.8593 29.9999 13.0003 29.9999C13.1413 29.9999 13.2825 29.986 13.4224 29.958C13.5217 29.9381 13.6199 29.9113 13.7142 29.8784C16.5951 28.8708 18.9789 27.4586 20.7992 25.6809C22.3982 24.1193 23.6176 22.2196 24.4235 20.0342C25.8934 16.0491 25.8103 11.6636 25.7435 8.1397ZM22.7719 19.4251C21.2274 23.6128 18.0746 26.4886 13.1333 28.2167C13.1157 28.2227 13.0969 28.2279 13.0774 28.2318C13.0264 28.2419 12.9744 28.2419 12.9227 28.2316C12.9035 28.2277 12.8847 28.2227 12.8673 28.2167C7.92074 26.4918 4.76585 23.6176 3.2225 19.4297C1.87279 15.7674 1.94923 11.7492 2.01675 8.20424L2.01721 8.18456C2.03094 7.87992 2.0401 7.56086 2.04514 7.21021C2.05612 6.47573 2.64114 5.86805 3.37699 5.82708C5.32889 5.71813 7.04367 5.34094 8.61929 4.67398C10.1928 4.00794 11.5904 3.06906 12.8914 1.80381C12.9575 1.74796 13.0433 1.74773 13.1093 1.80381C14.4104 3.06906 15.808 4.00794 17.3813 4.67398C18.9569 5.34094 20.6717 5.71813 22.6238 5.82708C23.3597 5.86805 23.9447 6.47573 23.9555 7.21044C23.9607 7.56292 23.9699 7.88198 23.9836 8.18456C24.0509 11.7336 24.1255 15.755 22.7719 19.4251Z" fill="#31456A"/>
<path d="M17.9626 9.52156L10.9427 16.5414L9.03741 14.6361C8.34246 13.9411 7.21582 13.9411 6.52087 14.6361C5.82638 15.331 5.82638 16.4577 6.52087 17.1522L9.6847 20.316C10.0322 20.6635 10.4875 20.837 10.9427 20.837C11.398 20.837 11.8533 20.6635 12.2008 20.316L20.4791 12.0376C21.1736 11.3427 21.1736 10.2161 20.4791 9.52156C19.7842 8.82615 18.6575 8.82615 17.9626 9.52156Z" fill="#31456A"/>
</symbol><symbol id="icon-telegram" viewBox="0 0 24 24"><g><path d="m9.417 15.181-.397 5.584c.568 0 .814-.244 1.109-.537l2.663-2.545 5.518 4.041c1.012.564 1.725.267 1.998-.931l3.622-16.972.001-.001c.321-1.496-.541-2.081-1.527-1.714l-21.29 8.151c-1.453.564-1.431 1.374-.247 1.741l5.443 1.693 12.643-7.911c.595-.394 1.136-.176.691.218z" data-original="#000000" class="active-path" data-old_color="#000000" fill="#FFFFFF"/></g> </symbol><symbol id="icon-vk" viewBox="0 0 30 18">
<path d="M29.8426 15.4626C29.8043 15.3861 29.7715 15.3204 29.7386 15.2656C29.219 14.3302 28.2233 13.1759 26.7571 11.8137L26.7244 11.7808L26.7079 11.7645L26.6916 11.748H26.6751C26.0077 11.1134 25.5865 10.6867 25.4114 10.4678C25.0886 10.0521 25.0175 9.63093 25.1925 9.20416C25.3184 8.88134 25.7888 8.19754 26.5986 7.15811C27.0252 6.60557 27.3645 6.16245 27.616 5.82873C29.416 3.43257 30.1983 1.90076 29.9575 1.23881L29.8645 1.08563C29.8043 0.992637 29.6402 0.905093 29.3831 0.828515C29.1205 0.751922 28.7868 0.735511 28.382 0.790218L23.8851 0.82304C23.814 0.795693 23.71 0.801154 23.5732 0.828515C23.4364 0.861337 23.3709 0.877747 23.3709 0.877747L23.2942 0.916043L23.2341 0.965276C23.1793 0.998097 23.1247 1.0528 23.0644 1.1294C23.0042 1.20599 22.9495 1.299 22.9112 1.40293C22.4189 2.66119 21.8663 3.83193 21.2372 4.91513C20.8544 5.56066 20.4987 6.11867 20.1759 6.59463C19.8532 7.07057 19.5851 7.41523 19.3663 7.63953C19.1474 7.86382 18.9505 8.04437 18.77 8.17565C18.595 8.31243 18.4581 8.36714 18.3651 8.34525C18.2721 8.32337 18.1845 8.30148 18.0971 8.28507C17.9493 8.19206 17.8344 8.06624 17.747 7.90212C17.6594 7.74347 17.5992 7.53559 17.5664 7.29488C17.5335 7.0487 17.5172 6.84081 17.5118 6.66027C17.5062 6.48522 17.5118 6.23356 17.5172 5.9108C17.5281 5.58801 17.5335 5.36918 17.5335 5.25431C17.5335 4.86042 17.5391 4.42824 17.5554 3.96322C17.5719 3.49821 17.5829 3.13167 17.5938 2.86361C17.6048 2.59555 17.6102 2.3056 17.6102 2.00472C17.6102 1.70382 17.5938 1.46858 17.5554 1.29352C17.5172 1.12392 17.4624 0.95434 17.3913 0.795693C17.3202 0.637032 17.2108 0.511206 17.0686 0.418202C16.9263 0.330673 16.7512 0.259555 16.5433 0.204848C15.9908 0.0790225 15.2906 0.0133795 14.4372 0.00242899C12.5005 -0.019442 11.2587 0.106383 10.7062 0.37992C10.4873 0.494795 10.2904 0.647982 10.1153 0.850386C9.9293 1.08017 9.90196 1.20599 10.0387 1.22788C10.6624 1.32087 11.1055 1.54517 11.3681 1.90076L11.4611 2.08677C11.5322 2.22355 11.6088 2.46425 11.6799 2.80343C11.7511 3.14808 11.8003 3.52556 11.8222 3.94133C11.8769 4.70176 11.8769 5.35277 11.8222 5.89437C11.7675 6.43597 11.7182 6.85722 11.6745 7.15811C11.6252 7.459 11.5596 7.70517 11.4611 7.89118C11.3681 8.07719 11.3025 8.19206 11.2751 8.23584C11.2423 8.27961 11.2204 8.30148 11.1985 8.31243C11.0617 8.36166 10.925 8.38901 10.7773 8.38901C10.6296 8.38901 10.4545 8.31789 10.2466 8.17019C10.0387 8.02248 9.81991 7.82554 9.60108 7.56841C9.37677 7.31129 9.12512 6.9557 8.84611 6.49615C8.56711 6.03662 8.27169 5.49502 7.97081 4.87136L7.71915 4.41729C7.56051 4.12734 7.34714 3.70063 7.07908 3.14262C6.80554 2.58461 6.5703 2.04847 6.36242 1.52329C6.28035 1.30446 6.15453 1.14033 5.98494 1.02546L5.90835 0.976226C5.85912 0.932454 5.77159 0.888682 5.6567 0.844925C5.54181 0.795693 5.42146 0.762857 5.29563 0.740986L1.01755 0.773807C0.579894 0.773807 0.284477 0.872272 0.125826 1.06922L0.0656484 1.16222C0.0164121 1.22788 0 1.31541 0 1.43028C0 1.54517 0.0328241 1.68741 0.0930018 1.85153C0.716661 3.31768 1.39503 4.73459 2.13357 6.10226C2.86664 7.46447 3.50672 8.56408 4.04832 9.39557C4.58991 10.2272 5.14245 11.0149 5.70593 11.7535C6.26942 12.492 6.64142 12.968 6.82195 13.1759C7.00248 13.3838 7.15019 13.5423 7.25415 13.6463L7.64256 14.0239C7.89421 14.2754 8.26075 14.5709 8.74217 14.9211C9.22906 15.2712 9.7652 15.6157 10.3506 15.955C10.9414 16.2942 11.6252 16.5677 12.4021 16.7811C13.1844 16.9944 13.9448 17.0819 14.6833 17.0382H16.4778C16.8442 17.0054 17.1178 16.8905 17.3039 16.6935L17.364 16.6169C17.4078 16.5567 17.4461 16.4583 17.4789 16.3271C17.5172 16.1957 17.5335 16.0535 17.5335 15.8947C17.5227 15.4462 17.5554 15.0414 17.6375 14.6858C17.7141 14.3248 17.8016 14.0567 17.9055 13.8761C18.0041 13.6957 18.119 13.5423 18.2393 13.4166C18.3651 13.2908 18.4526 13.2141 18.5074 13.1922C18.5566 13.1649 18.6004 13.1486 18.6332 13.1376C18.8848 13.0556 19.1747 13.1376 19.514 13.3782C19.8532 13.6244 20.1705 13.9253 20.4658 14.2864C20.7613 14.6474 21.1169 15.0469 21.5381 15.4954C21.9539 15.9441 22.3204 16.2777 22.6322 16.4966L22.9441 16.6826C23.152 16.8084 23.4255 16.9233 23.7592 17.0273C24.093 17.1313 24.383 17.1586 24.6345 17.1038L28.6337 17.0436C29.0275 17.0436 29.3393 16.9779 29.5526 16.8467C29.7715 16.7154 29.9029 16.5732 29.9411 16.4145C29.9849 16.2558 29.9849 16.0808 29.9465 15.8838C29.9137 15.6814 29.8754 15.5392 29.8426 15.4626Z" fill="#45668E"/>
</symbol><symbol id="icon-wait" viewBox="0 0 30 30">
<path d="M15 3.51562C15.9708 3.51562 16.7578 2.72863 16.7578 1.75781C16.7578 0.786999 15.9708 0 15 0C14.0292 0 13.2422 0.786999 13.2422 1.75781C13.2422 2.72863 14.0292 3.51562 15 3.51562Z" fill="#31456A"/>
<path d="M14.9414 16.1132C15.5886 16.1132 16.1132 15.5886 16.1132 14.9414C16.1132 14.6178 15.9821 14.3248 15.7701 14.1127L5.36966 3.71234L3.71228 5.36961L14.1127 15.77C14.3248 15.982 14.6177 16.1132 14.9414 16.1132Z" fill="#31456A"/>
<path d="M26.5631 5.44458C24.5795 3.04675 21.8883 1.32128 18.9091 0.516785C19.0338 0.908484 19.1016 1.32532 19.1016 1.7578C19.1016 2.1771 19.038 2.5818 18.9206 2.96307C24.0588 4.63569 27.6562 9.48661 27.6562 15C27.6562 21.9787 21.9787 27.6562 15 27.6562C8.02131 27.6562 2.34375 21.9787 2.34375 15C2.34375 12.8257 2.88896 10.736 3.9133 8.88514L2.19943 7.17128C0.766699 9.50407 0 12.1927 0 15C0 19.0066 1.56029 22.7734 4.39336 25.6066C7.22654 28.4397 10.9934 30 15 30C19.0066 30 22.7735 28.4397 25.6066 25.6066C28.4397 22.7734 30 19.0066 30 15C30 11.5173 28.7794 8.12378 26.5631 5.44458Z" fill="#31456A"/>
</symbol><symbol id="icon-watch" viewBox="0 0 30 30">
<path d="M19.2186 5.15619H8.9066C7.09722 5.15619 5.62512 6.62973 5.62512 8.4411V21.5588C5.62512 23.3702 7.09722 24.8437 8.9066 24.8437H19.2186C21.028 24.8437 22.5001 23.3702 22.5001 21.5588V8.4411C22.5001 6.62973 21.028 5.15619 19.2186 5.15619ZM21.5626 21.5588C21.5626 22.8534 20.5111 23.9062 19.2186 23.9062H8.9066C7.61413 23.9062 6.5626 22.8534 6.5626 21.5588V8.4411C6.5626 7.1465 7.61413 6.09373 8.9066 6.09373H19.2186C20.5111 6.09373 21.5626 7.14657 21.5626 8.4411V21.5588Z" fill="#31456A"/>
<path d="M20.1486 5.54122L19.4625 1.76694C19.2821 0.775909 18.3529 0 17.3465 0H10.7784C9.77228 0 8.8427 0.775909 8.66239 1.76694L7.97622 5.54122C7.95123 5.67807 7.98865 5.81849 8.07757 5.92527C8.16649 6.03204 8.29833 6.09377 8.43737 6.09377H19.6874C19.8263 6.09377 19.9582 6.0319 20.0472 5.92527C20.1363 5.81856 20.1736 5.67807 20.1486 5.54122ZM8.99905 5.15622L9.58462 1.93448C9.68309 1.39389 10.2296 0.937476 10.7783 0.937476H17.3463C17.895 0.937476 18.4416 1.39437 18.54 1.93448L19.1257 5.15622H8.99905Z" fill="#31456A"/>
<path d="M20.0472 24.0747C19.9583 23.9679 19.8265 23.9062 19.6874 23.9062H8.43746C8.29848 23.9062 8.16664 23.9681 8.07759 24.0747C7.98853 24.1813 7.95124 24.3218 7.97624 24.4587L8.6624 28.233C8.84278 29.224 9.77229 29.9999 10.7784 29.9999H17.3465C18.3529 29.9999 19.2822 29.224 19.4625 28.233L20.1486 24.4587C20.1735 24.3219 20.1362 24.1815 20.0472 24.0747ZM18.5402 28.0654C18.4417 28.6056 17.8952 29.0624 17.3465 29.0624H10.7785C10.2298 29.0624 9.68324 28.606 9.58484 28.0654L8.99913 24.8437H19.1258L18.5402 28.0654Z" fill="#31456A"/>
<path d="M23.0384 10.3125H22.0313C21.7724 10.3125 21.5625 10.5221 21.5625 10.7813V15C21.5625 15.2591 21.7724 15.4688 22.0313 15.4688H23.0384C23.7754 15.4688 24.375 14.8692 24.375 14.1322V11.6492C24.3751 10.9121 23.7754 10.3125 23.0384 10.3125ZM23.4375 14.1321C23.4375 14.3523 23.2586 14.5313 23.0384 14.5313H22.5V11.25H23.0384C23.2586 11.25 23.4375 11.4289 23.4375 11.6491V14.1321Z" fill="#31456A"/>
</symbol><symbol id="icon-water" viewBox="0 0 512 512"><g><path d="m262.09 10.82a7.986 7.986 0 0 0 -12.18 0c-7.27 8.53-177.91 210.17-177.91 309.18 0 101.46 82.54 184 184 184s184-82.54 184-184c0-99.01-170.64-300.65-177.91-309.18zm-6.09 477.18c-92.64 0-168-75.36-168-168 0-83.1 137.16-254.11 168-291.5 30.84 37.38 168 208.37 168 291.5 0 92.64-75.36 168-168 168z"/><path d="m256 456a136.232 136.232 0 0 1 -128.448-91.278 8 8 0 1 0 -15.105 5.278 152.248 152.248 0 0 0 143.553 102 8 8 0 0 0 0-16z"/><path d="m208 272a8 8 0 0 0 8-8v-16h16v16a8 8 0 0 0 16 0v-48a8 8 0 0 0 -16 0v16h-16v-16a8 8 0 0 0 -16 0v48a8 8 0 0 0 8 8z"/><path d="m304 208h-32a8 8 0 0 0 -8 8v48a8 8 0 0 0 8 8h32a8 8 0 0 0 8-8v-48a8 8 0 0 0 -8-8zm-8 48h-16v-32h16z"/><path d="m264 280h-16a8 8 0 0 0 0 16h8v3.056l-11.578 5.789a8 8 0 0 0 -4.422 7.155v16a8 8 0 0 0 8 8h16a8 8 0 0 0 0-16h-8v-3.056l11.578-5.789a8 8 0 0 0 4.422-7.155v-16a8 8 0 0 0 -8-8z"/></g></symbol><symbol id="icon-yb" viewBox="0 0 30 30">
<path d="M28.4683 7.9703C28.1442 6.76541 27.1942 5.81561 25.9895 5.49117C23.7887 4.88898 14.985 4.88898 14.985 4.88898C14.985 4.88898 6.1817 4.88898 3.98083 5.46833C2.79928 5.79243 1.82613 6.76558 1.50204 7.9703C0.922852 10.171 0.922852 14.735 0.922852 14.735C0.922852 14.735 0.922852 19.3219 1.50204 21.4996C1.82648 22.7043 2.77611 23.6541 3.981 23.9786C6.20487 24.5809 14.9853 24.5809 14.9853 24.5809C14.9853 24.5809 23.7887 24.5809 25.9895 24.0016C27.1944 23.6773 28.1442 22.7275 28.4687 21.5228C29.0477 19.3219 29.0477 14.7581 29.0477 14.7581C29.0477 14.7581 29.0708 10.171 28.4683 7.9703ZM12.1821 18.9513V10.5186L19.5028 14.735L12.1821 18.9513Z" fill="#FF0000"/>
</symbol></svg>