<svg width="10" height="20" viewBox="0 0 10 20" fill="none" xmlns="http://www.w3.org/2000/svg">
<path d="M1.88538 6.23927C2.4809 6.78888 3.42951 7.25311 4.73122 7.63196C5.76943 7.93611 6.48617 8.2456 6.88142 8.56042C7.27668 8.86991 7.47431 9.31012 7.47431 9.88107C7.47431 10.452 7.26087 10.9029 6.83399 11.2338C6.40711 11.5646 5.79315 11.73 4.99209 11.73H2.5336V9.88107L1 8.77563V17.8426H2.5336V12.9866H4.99209C6.20949 12.9866 7.18182 12.7038 7.90909 12.1381C8.63637 11.5672 9 10.8095 9 9.86506C9 9.27277 8.86825 8.75785 8.60474 8.3203C8.34651 7.88275 7.94598 7.50123 7.40316 7.17574C6.86561 6.84491 6.11726 6.54343 5.1581 6.2713C4.20422 5.99916 3.52701 5.70035 3.12648 5.37485C2.73123 5.04401 2.5336 4.64115 2.5336 4.16625C2.5336 3.57396 2.74177 3.1124 3.1581 2.78157C3.57971 2.4454 4.16469 2.27732 4.91304 2.27732C5.71937 2.27732 6.34387 2.48009 6.78656 2.88562C7.22925 3.28582 7.45059 3.83809 7.45059 4.54244H8.97628C8.97628 3.89678 8.80501 3.30183 8.46245 2.75756C8.12517 2.21329 7.64559 1.78641 7.02371 1.47693C6.40711 1.16744 5.70356 1.0127 4.91304 1.0127C3.75362 1.0127 2.81028 1.31418 2.083 1.91714C1.361 2.51477 1 3.27247 1 4.19026C1 5.00133 1.29513 5.68434 1.88538 6.23927Z" fill="white" stroke="white"/>
</svg>
