<svg width="90" height="60" viewBox="0 0 90 60" fill="none" xmlns="http://www.w3.org/2000/svg">
<g clip-path="url(#clip0_199_20)">
<path d="M56.6265 26.7158C53.9278 26.7158 51.6289 28.9081 51.6289 31.6983C51.6289 34.4885 53.8279 36.6808 56.6265 36.6808C59.3251 36.6808 61.624 34.4885 61.624 31.6983C61.624 28.9081 59.4251 26.7158 56.6265 26.7158ZM56.6265 34.8871C54.8274 34.8871 53.4281 33.3923 53.4281 31.6983C53.4281 30.0042 54.9273 28.5095 56.6265 28.5095C58.3256 28.5095 59.8249 30.0042 59.8249 31.6983C59.8249 33.3923 58.4256 34.8871 56.6265 34.8871Z" fill="white"/>
<path d="M22.2436 13.0635C19.5449 13.0635 17.2461 15.2558 17.2461 18.046C17.2461 20.8362 19.445 23.0285 22.2436 23.0285C25.0422 23.0285 27.2411 20.8362 27.2411 18.046C27.2411 15.2558 24.9422 13.0635 22.2436 13.0635ZM22.2436 21.2348C20.4445 21.2348 19.0452 19.74 19.0452 18.046C19.0452 16.3519 20.5444 14.8572 22.2436 14.8572C23.9427 14.8572 25.442 16.3519 25.442 18.046C25.442 19.74 24.0427 21.2348 22.2436 21.2348Z" fill="white"/>
<path d="M35.4364 30.8014C35.3365 30.8014 35.1366 30.7018 35.1366 30.5025V27.214C35.1366 27.0147 34.9367 26.8154 34.7368 26.8154H32.138C31.9381 26.8154 31.7382 27.0147 31.7382 27.214V30.5025C31.7382 30.6021 31.6383 30.8014 31.4384 30.8014H28.14C27.9401 30.8014 27.7402 31.0007 27.7402 31.2V33.7909C27.7402 33.9902 27.9401 34.1895 28.14 34.1895H31.4384C31.5383 34.1895 31.7382 34.2892 31.7382 34.4885V37.7769C31.7382 37.9762 31.9381 38.1755 32.138 38.1755H34.7368C34.9367 38.1755 35.1366 37.9762 35.1366 37.7769V34.4885C35.1366 34.3888 35.2365 34.1895 35.4364 34.1895H38.7348C38.9347 34.1895 39.1346 33.9902 39.1346 33.7909V31.2C39.1346 31.0007 38.9347 30.8014 38.7348 30.8014H35.4364Z" fill="white"/>
<path d="M88.3102 35.086C88.3102 35.086 80.8139 12.7644 79.8144 10.3728C78.8149 7.98123 76.9159 7.38333 76.9159 7.38333C75.9164 5.78894 75.5166 4.49349 75.5166 4.49349C70.719 1.30469 61.9233 -1.0869 59.8244 0.507496C57.7254 2.10189 56.2262 2.20154 56.2262 2.20154H33.7373C33.7373 2.20154 32.2381 2.10189 30.1391 0.507496C28.0402 -1.0869 19.2446 1.40434 14.4469 4.49349C14.4469 4.49349 14.0471 5.78894 13.0476 7.38333C13.0476 7.38333 11.1486 7.98123 10.1491 10.3728C9.14958 12.7644 1.65331 35.086 1.65331 35.086C1.65331 35.086 -5.34321 58.404 9.44943 59.9984C9.44943 59.9984 9.84923 60.0981 11.4484 58.703C11.4484 58.703 23.1426 47.3429 24.2421 46.6454C25.3415 46.0475 26.5409 44.6524 29.3395 44.6524C32.1381 44.6524 44.8318 44.6524 44.8318 44.6524H60.3241C63.2227 44.6524 64.3221 46.0475 65.4216 46.6454C66.8209 47.2433 78.5151 58.6033 78.5151 58.6033C80.2142 60.0981 80.5141 59.8988 80.5141 59.8988C95.4067 58.404 88.3102 35.086 88.3102 35.086ZM22.2431 25.0214C18.445 25.0214 15.3465 21.9322 15.3465 18.1455C15.3465 14.3588 18.445 11.2697 22.2431 11.2697C26.0412 11.2697 29.1396 14.3588 29.1396 18.1455C29.1396 21.9322 26.0412 25.0214 22.2431 25.0214ZM33.5374 39.9688C29.4395 39.9688 26.1411 36.6804 26.1411 32.5947C26.1411 28.5091 29.4395 25.2207 33.5374 25.2207C37.6354 25.2207 40.9338 28.5091 40.9338 32.5947C40.9338 36.6804 37.5355 39.9688 33.5374 39.9688ZM37.7354 12.9637C37.7354 12.9637 36.3361 12.7644 35.6364 11.8676C34.9367 10.9707 29.0397 4.59314 29.0397 4.59314C29.0397 4.59314 28.44 3.49699 26.0412 3.89559C23.5424 4.29419 17.5454 5.68929 13.7473 7.68228C13.7473 7.68228 15.5464 6.78543 15.8462 4.89209C15.8462 4.89209 21.5434 1.80294 27.9402 1.40434C27.9402 1.40434 29.3395 1.00574 30.439 2.10189C31.5384 3.19804 33.9372 3.49699 35.4365 3.49699H54.7269C56.2262 3.49699 58.625 3.09839 59.7244 2.10189C60.8239 1.00574 62.2232 1.40434 62.2232 1.40434C68.62 1.80294 74.3172 4.89209 74.3172 4.89209C74.717 6.78543 76.4161 7.68228 76.4161 7.68228C72.718 5.68929 66.621 4.29419 64.1222 3.89559C61.6235 3.49699 61.1237 4.59314 61.1237 4.59314C61.1237 4.59314 55.2267 10.8711 54.527 11.7679C53.8274 12.6648 52.4281 12.8641 52.4281 12.8641L45.0317 13.0634L37.7354 12.9637ZM71.2187 12.1665C71.2187 13.8606 69.9194 15.156 68.2202 15.156C66.521 15.156 65.2217 13.8606 65.2217 12.1665C65.2217 10.4725 66.521 9.17703 68.2202 9.17703C69.9194 9.17703 71.2187 10.5721 71.2187 12.1665ZM61.6235 36.6804C58.9248 39.3709 54.527 39.3709 51.9283 36.6804C49.2296 33.9898 49.2296 29.6052 51.9283 27.0143C54.627 24.3238 59.0248 24.3238 61.6235 27.0143C64.3221 29.6052 64.3221 33.9898 61.6235 36.6804ZM62.0233 21.135C60.3241 21.135 59.0248 19.8396 59.0248 18.1455C59.0248 16.4515 60.3241 15.156 62.0233 15.156C63.7224 15.156 65.0218 16.4515 65.0218 18.1455C65.0218 19.8396 63.7224 21.135 62.0233 21.135ZM68.0203 27.114C66.3211 27.114 65.0218 25.8186 65.0218 24.1245C65.0218 22.4305 66.3211 21.135 68.0203 21.135C69.7195 21.135 71.0188 22.4305 71.0188 24.1245C71.0188 25.8186 69.7195 27.114 68.0203 27.114ZM74.2172 21.135C72.5181 21.135 71.2187 19.8396 71.2187 18.1455C71.2187 16.4515 72.5181 15.156 74.2172 15.156C75.9164 15.156 77.2157 16.4515 77.2157 18.1455C77.2157 19.8396 75.9164 21.135 74.2172 21.135Z" fill="white"/>
</g>
<defs>
<clipPath id="clip0_199_20">
<rect width="90" height="60" fill="white"/>
</clipPath>
</defs>
</svg>
