<svg width="90" height="60" viewBox="0 0 90 60" fill="none" xmlns="http://www.w3.org/2000/svg">
<path d="M56.626 26.7154C53.9273 26.7154 51.6284 28.9077 51.6284 31.6979C51.6284 34.4881 53.8274 36.6804 56.626 36.6804C59.3246 36.6804 61.6235 34.4881 61.6235 31.6979C61.6235 28.9077 59.4246 26.7154 56.626 26.7154ZM56.626 34.8867C54.8269 34.8867 53.4276 33.3919 53.4276 31.6979C53.4276 30.0038 54.9268 28.5091 56.626 28.5091C58.3251 28.5091 59.8244 30.0038 59.8244 31.6979C59.8244 33.3919 58.4251 34.8867 56.626 34.8867Z" fill="white"/>
<path d="M22.2431 13.0634C19.5444 13.0634 17.2456 15.2557 17.2456 18.0459C17.2456 20.8361 19.4445 23.0284 22.2431 23.0284C25.0417 23.0284 27.2406 20.8361 27.2406 18.0459C27.2406 15.2557 24.9417 13.0634 22.2431 13.0634ZM22.2431 21.2347C20.444 21.2347 19.0447 19.7399 19.0447 18.0459C19.0447 16.3518 20.5439 14.8571 22.2431 14.8571C23.9422 14.8571 25.4415 16.3518 25.4415 18.0459C25.4415 19.7399 24.0422 21.2347 22.2431 21.2347Z" fill="white"/>
<path d="M35.4365 30.801C35.3366 30.801 35.1367 30.7014 35.1367 30.5021V27.2136C35.1367 27.0143 34.9368 26.815 34.7369 26.815H32.1381C31.9382 26.815 31.7383 27.0143 31.7383 27.2136V30.5021C31.7383 30.6017 31.6384 30.801 31.4385 30.801H28.1401C27.9402 30.801 27.7403 31.0003 27.7403 31.1996V33.7905C27.7403 33.9898 27.9402 34.1891 28.1401 34.1891H31.4385C31.5384 34.1891 31.7383 34.2888 31.7383 34.4881V37.7765C31.7383 37.9758 31.9382 38.1751 32.1381 38.1751H34.7369C34.9368 38.1751 35.1367 37.9758 35.1367 37.7765V34.4881C35.1367 34.3884 35.2366 34.1891 35.4365 34.1891H38.7349C38.9348 34.1891 39.1347 33.9898 39.1347 33.7905V31.1996C39.1347 31.0003 38.9348 30.801 38.7349 30.801H35.4365Z" fill="white"/>
<path d="M88.3102 35.086C88.3102 35.086 80.8139 12.7644 79.8144 10.3728C78.8149 7.98123 76.9159 7.38333 76.9159 7.38333C75.9164 5.78894 75.5166 4.49349 75.5166 4.49349C70.719 1.30469 61.9233 -1.0869 59.8244 0.507496C57.7254 2.10189 56.2262 2.20154 56.2262 2.20154H33.7373C33.7373 2.20154 32.2381 2.10189 30.1391 0.507496C28.0402 -1.0869 19.2446 1.40434 14.4469 4.49349C14.4469 4.49349 14.0471 5.78894 13.0476 7.38333C13.0476 7.38333 11.1486 7.98123 10.1491 10.3728C9.14958 12.7644 1.65331 35.086 1.65331 35.086C1.65331 35.086 -5.34321 58.404 9.44943 59.9984C9.44943 59.9984 9.84923 60.0981 11.4484 58.703C11.4484 58.703 23.1426 47.3429 24.2421 46.6454C25.3415 46.0475 26.5409 44.6524 29.3395 44.6524C32.1381 44.6524 44.8318 44.6524 44.8318 44.6524H60.3241C63.2227 44.6524 64.3221 46.0475 65.4216 46.6454C66.8209 47.2433 78.5151 58.6033 78.5151 58.6033C80.2142 60.0981 80.5141 59.8988 80.5141 59.8988C95.4067 58.404 88.3102 35.086 88.3102 35.086ZM22.2431 25.0214C18.445 25.0214 15.3465 21.9322 15.3465 18.1455C15.3465 14.3588 18.445 11.2697 22.2431 11.2697C26.0412 11.2697 29.1396 14.3588 29.1396 18.1455C29.1396 21.9322 26.0412 25.0214 22.2431 25.0214ZM33.5374 39.9688C29.4395 39.9688 26.1411 36.6804 26.1411 32.5947C26.1411 28.5091 29.4395 25.2207 33.5374 25.2207C37.6354 25.2207 40.9338 28.5091 40.9338 32.5947C40.9338 36.6804 37.5355 39.9688 33.5374 39.9688ZM36.6359 18.1455C36.6359 17.0494 37.5355 16.1525 38.6349 16.1525C39.7344 16.1525 40.6339 17.0494 40.6339 18.1455C40.6339 19.2417 39.7344 20.1385 38.6349 20.1385C37.5355 20.1385 36.6359 19.2417 36.6359 18.1455ZM37.7354 12.9637C37.7354 12.9637 36.3361 12.7644 35.6364 11.8676C34.9367 10.9707 29.0397 4.59314 29.0397 4.59314C29.0397 4.59314 28.44 3.49699 26.0412 3.89559C23.5424 4.29419 17.5454 5.68929 13.7473 7.68228C13.7473 7.68228 15.5464 6.78543 15.8462 4.89209C15.8462 4.89209 21.5434 1.80294 27.9402 1.40434C27.9402 1.40434 29.3395 1.00574 30.439 2.10189C31.5384 3.19804 33.9372 3.49699 35.4365 3.49699H54.7269C56.2262 3.49699 58.625 3.09839 59.7244 2.10189C60.8239 1.00574 62.2232 1.40434 62.2232 1.40434C68.62 1.80294 74.3172 4.89209 74.3172 4.89209C74.717 6.78543 76.4161 7.68228 76.4161 7.68228C72.718 5.68929 66.621 4.29419 64.1222 3.89559C61.6235 3.49699 61.1237 4.59314 61.1237 4.59314C61.1237 4.59314 55.2267 10.8711 54.527 11.7679C53.8274 12.6648 52.4281 12.8641 52.4281 12.8641L45.0317 13.0634L37.7354 12.9637ZM71.2187 12.1665C71.2187 13.8606 69.9194 15.156 68.2202 15.156C66.521 15.156 65.2217 13.8606 65.2217 12.1665C65.2217 10.4725 66.521 9.17703 68.2202 9.17703C69.9194 9.17703 71.2187 10.5721 71.2187 12.1665ZM51.5285 16.1525C52.628 16.1525 53.5275 17.0494 53.5275 18.1455C53.5275 19.2417 52.628 20.1385 51.5285 20.1385C50.429 20.1385 49.5295 19.2417 49.5295 18.1455C49.5295 17.0494 50.429 16.1525 51.5285 16.1525ZM61.6235 36.6804C58.9248 39.3709 54.527 39.3709 51.9283 36.6804C49.2296 33.9898 49.2296 29.6052 51.9283 27.0143C54.627 24.3238 59.0248 24.3238 61.6235 27.0143C64.3221 29.6052 64.3221 33.9898 61.6235 36.6804ZM62.0233 21.135C60.3241 21.135 59.0248 19.8396 59.0248 18.1455C59.0248 16.4515 60.3241 15.156 62.0233 15.156C63.7224 15.156 65.0218 16.4515 65.0218 18.1455C65.0218 19.8396 63.7224 21.135 62.0233 21.135ZM68.0203 27.114C66.3211 27.114 65.0218 25.8186 65.0218 24.1245C65.0218 22.4305 66.3211 21.135 68.0203 21.135C69.7195 21.135 71.0188 22.4305 71.0188 24.1245C71.0188 25.8186 69.7195 27.114 68.0203 27.114ZM74.2172 21.135C72.5181 21.135 71.2187 19.8396 71.2187 18.1455C71.2187 16.4515 72.5181 15.156 74.2172 15.156C75.9164 15.156 77.2157 16.4515 77.2157 18.1455C77.2157 19.8396 75.9164 21.135 74.2172 21.135Z" fill="white"/>
<path d="M45.0317 11.8676C47.1294 11.8676 48.8298 10.1722 48.8298 8.08088C48.8298 5.98955 47.1294 4.29419 45.0317 4.29419C42.9341 4.29419 41.2336 5.98955 41.2336 8.08088C41.2336 10.1722 42.9341 11.8676 45.0317 11.8676Z" fill="white"/>
</svg>
