<svg width="24" height="24" viewBox="0 0 24 24" fill="none" xmlns="http://www.w3.org/2000/svg">
  <path
    d="M5 8V19H19V8H5ZM5 21C4.45 21 3.97933 20.8043 3.588 20.413C3.19667 20.0217 3.00067 19.5507 3 19V6.525C3 6.29167 3.03767 6.06667 3.113 5.85C3.18833 5.63333 3.30067 5.43333 3.45 5.25L4.7 3.725C4.88333 3.49167 5.11233 3.31233 5.387 3.187C5.66167 3.06167 5.94933 2.99933 6.25 3H17.75C18.05 3 18.3377 3.06267 18.613 3.188C18.8883 3.31333 19.1173 3.49233 19.3 3.725L20.55 5.25C20.7 5.43333 20.8127 5.63333 20.888 5.85C20.9633 6.06667 21.0007 6.29167 21 6.525V19C21 19.55 20.8043 20.021 20.413 20.413C20.0217 20.805 19.5507 21.0007 19 21H5ZM5.4 6H18.6L17.75 5H6.25L5.4 6Z"
    fill="#b0b0b0" />
  <path d="M8 14L12 10L16 14L14.6 15.4L13 13.8V18H11V13.8L9.4 15.4L8 14Z" fill="#b0b0b0" />
</svg>