<svg width="16" height="16" viewBox="0 0 16 16" fill="none" xmlns="http://www.w3.org/2000/svg">
<path d="M10.707 1.636C10.8945 1.82353 10.9998 2.07784 10.9998 2.343C10.9998 2.60817 10.8945 2.86247 10.707 3.05L5.757 8L10.707 12.95C10.8892 13.1386 10.99 13.3912 10.9877 13.6534C10.9854 13.9156 10.8802 14.1664 10.6948 14.3518C10.5094 14.5372 10.2586 14.6424 9.9964 14.6447C9.7342 14.647 9.4816 14.5462 9.293 14.364L3.636 8.707C3.44853 8.51947 3.34321 8.26517 3.34321 8C3.34321 7.73484 3.44853 7.48053 3.636 7.293L9.293 1.636C9.48053 1.44853 9.73484 1.34322 10 1.34322C10.2652 1.34322 10.5195 1.44853 10.707 1.636Z" fill="white"/>
</svg>
