<svg width="95" height="63" viewBox="0 0 95 63" fill="none" xmlns="http://www.w3.org/2000/svg">
  <g clip-path="url(#clip0_229_2)">
    <path
      d="M94.5737 32.151L80.5627 2.90461C79.662 1.10175 77.8606 0 75.9592 0H19.1149C17.1133 0 15.3119 1.10175 14.5113 2.90461L0.50039 32.151C0.200156 32.8521 0 33.6534 0 34.3545V57.8919C0 60.6963 2.30179 63 5.10397 63H89.87C92.6722 63 94.974 60.6963 94.974 57.8919V34.3545C95.074 33.6534 94.8739 32.8521 94.5737 32.151ZM60.6472 28.7456C58.7457 28.7456 56.9443 29.9475 56.3439 31.7504C55.1429 35.4563 51.6402 38.1606 47.4369 38.1606C43.2337 38.1606 39.831 35.4563 38.53 31.7504C37.9295 29.9475 36.1281 28.7456 34.2267 28.7456C27.3213 28.7456 13.4104 28.7456 13.4104 28.7456L22.2173 10.3164H72.5565L81.3634 28.7456C81.4634 28.6455 67.5526 28.6455 60.6472 28.7456Z"
      fill="#b0b0b0" />
  </g>
  <defs>
    <clipPath id="clip0_229_2">
      <rect width="95" height="63" fill="white" />
    </clipPath>
  </defs>
</svg>