<svg width="24" height="24" viewBox="0 0 24 24" fill="none" xmlns="http://www.w3.org/2000/svg">
<path d="M13.26 3C8.17 2.86 4 6.95 4 12H2.21C1.76 12 1.54 12.54 1.86 12.85L4.65 15.65C4.85 15.85 5.16 15.85 5.36 15.65L8.15 12.85C8.2191 12.7795 8.26579 12.6901 8.28418 12.5931C8.30257 12.4962 8.29184 12.3959 8.25335 12.305C8.21485 12.2141 8.1503 12.1366 8.06785 12.0823C7.98539 12.0281 7.88871 11.9994 7.79 12H6C6 8.1 9.18 4.95 13.1 5C16.82 5.05 19.95 8.18 20 11.9C20.05 15.81 16.9 19 13 19C11.39 19 9.9 18.45 8.72 17.52C8.52846 17.3691 8.28815 17.2939 8.04477 17.3086C7.80138 17.3234 7.57191 17.4271 7.4 17.6C6.98 18.02 7.01 18.73 7.48 19.09C9.0512 20.3323 10.997 21.0056 13 21C18.05 21 22.14 16.83 22 11.74C21.87 7.05 17.95 3.13 13.26 3Z" fill="#424242"/>
</svg>
