<svg width="40" height="35" viewBox="0 0 40 35" fill="none" xmlns="http://www.w3.org/2000/svg">
<path d="M11.3224 24.4957C11.1928 23.6347 13.4418 22.3001 17.0751 21.7835C21.6167 21.1377 23.044 21.8696 23.044 20.1906V17.3062H20.7949C19.7424 17.2775 17.6461 16.3161 17.6807 12.6998C17.6808 12.3985 17.9834 12.3124 18.8485 12.3124H25.769C26.4178 12.3124 26.6168 12.5362 27.0666 13.6039L29.4455 20.4489C29.5464 20.779 29.6877 21.6888 29.4455 22.6876C29.1427 23.936 27.9749 27.1218 25.1635 29.016C22.9269 30.5228 21.4175 30.5228 19.5719 30.5227C17.3227 30.5227 12.4297 29.0418 11.3224 24.4957Z" fill="white"/>
<path fill-rule="evenodd" clip-rule="evenodd" d="M21.487 18.77V19.7171C21.1843 19.7458 20.4143 19.8807 19.7569 20.1906C18.4881 19.9897 15.2326 19.9668 12.3606 21.4821C10.5267 22.4465 9.63565 24.18 9.41938 24.9262C8.95802 26.0455 7.36053 28.1894 4.66153 27.8106C1.96254 27.4317 1.11477 25.4428 1.02827 24.4957C0.336216 21.9987 -0.701861 15.7995 0.682241 10.9778C2.41237 4.95074 7.42975 3.65923 10.371 3.70228C10.27 6.09875 11.2101 10.3837 15.7776 8.35172C16.3832 8.82527 18.0268 9.48825 19.7569 8.35172C20.4634 8.82527 22.3002 9.48825 23.9957 8.35172C25.9421 9.24143 29.8349 9.6174 29.8349 4.00361C31.3632 3.55875 35.1291 3.63337 37.9665 7.49071C40.8039 11.348 39.9129 18.0381 39.6966 20.4489C39.4804 22.8598 39.0392 27.0098 35.8903 27.5953C34.3765 27.911 31.1585 27.7331 30.3972 24.4957C30.7 23.6203 31.2363 21.5855 30.9595 20.4489C30.6827 19.3124 29.0275 14.551 28.2345 12.3124C28.0615 11.9249 27.4214 11.15 26.2449 11.15H18.1998C17.5366 11.1069 16.2188 11.4169 16.2534 13.0012C16.2967 14.9815 17.205 19.4157 21.487 18.77ZM31.911 10.8486C32.771 10.8486 33.4682 10.1548 33.4682 9.29883C33.4682 8.44289 32.771 7.74901 31.911 7.74901C31.0511 7.74901 30.3539 8.44289 30.3539 9.29883C30.3539 10.1548 31.0511 10.8486 31.911 10.8486ZM35.0253 13.8622C35.8853 13.8622 36.5824 13.1683 36.5824 12.3124C36.5824 11.4564 35.8853 10.7626 35.0253 10.7626C34.1653 10.7626 33.4682 11.4564 33.4682 12.3124C33.4682 13.1683 34.1653 13.8622 35.0253 13.8622ZM31.911 17.0479C32.771 17.0479 33.4682 16.354 33.4682 15.4981C33.4682 14.6422 32.771 13.9483 31.911 13.9483C31.0511 13.9483 30.3539 14.6422 30.3539 15.4981C30.3539 16.354 31.0511 17.0479 31.911 17.0479ZM12.2741 13.0873V11.5375C12.2741 11.0619 11.8868 10.6764 11.409 10.6764H11.2291C10.4207 10.6764 9.76542 10.0211 9.76542 9.21273V9.21273C9.76542 8.7372 9.37812 8.35172 8.90036 8.35172H7.34324C6.86548 8.35172 6.47818 8.7372 6.47818 9.21273V9.21273C6.47818 10.0211 5.81596 10.6764 5.00757 10.6764V10.6764C4.52981 10.6764 4.14251 11.0619 4.14251 11.5375V13.0873C4.14251 13.5628 4.52981 13.9483 5.00757 13.9483V13.9483C5.81976 13.9483 6.47818 14.6067 6.47818 15.4189V15.5842C6.47818 16.0597 6.86548 16.4452 7.34324 16.4452H8.90036C9.37812 16.4452 9.76542 16.0597 9.76542 15.5842V15.5842C9.76542 14.6807 10.5055 13.9483 11.409 13.9483V13.9483C11.8868 13.9483 12.2741 13.5628 12.2741 13.0873Z" fill="white"/>
<path d="M13.4852 2.15244H14.6963C15.4607 2.15244 16.0804 2.76922 16.0804 3.53006V3.08544C16.0804 2.23729 16.6495 1.54973 17.3515 1.54973H18.7021C19.4041 1.54973 19.9732 2.23729 19.9732 3.08544V1.91963C19.9732 0.859447 20.5802 0 21.329 0H22.7696C23.5184 0 24.1255 0.859447 24.1255 1.91963V2.99942C24.1255 2.15128 24.7072 1.46372 25.4248 1.46372H26.8054C27.523 1.46372 28.1048 2.15128 28.1048 2.99942V5.49494C28.1048 6.50211 27.4139 7.31859 26.5618 7.31859H25.8309C24.889 7.31859 24.1255 6.41617 24.1255 5.30298V5.03903C24.1255 6.29799 23.4046 7.31859 22.5154 7.31859H21.7527C20.7699 7.31859 19.9732 6.19056 19.9732 4.79907V5.27369V5.58096C19.9732 6.58813 19.2974 7.40461 18.4637 7.40461H17.7487C16.8273 7.40461 16.0804 6.50219 16.0804 5.38899V5.76869C16.0804 6.67218 15.3445 7.40461 14.4368 7.40461H13.9177C12.9144 7.40461 12.1011 6.59508 12.1011 5.59648V3.53006C12.1011 2.76922 12.7208 2.15244 13.4852 2.15244Z" fill="white"/>
<path d="M27.5857 29.3821V34.3112C27.5857 34.6125 27.4473 35 26.8937 35H20.1894H19.7569H13.0527C12.499 35 12.3606 34.6125 12.3606 34.3112V29.3821C12.3606 29.2364 12.5319 29.156 12.6468 29.2463C15.7583 31.6915 18.6323 31.9434 19.7569 31.9434H20.1894C21.314 31.9434 24.188 31.6915 27.2995 29.2463C27.4144 29.156 27.5857 29.2364 27.5857 29.3821Z" fill="white"/>
</svg>
