<svg width="24" height="24" viewBox="0 0 24 24" fill="none" xmlns="http://www.w3.org/2000/svg">
<path d="M6.66667 3.96875H11.3333V7.57812C11.3333 9.21055 12.675 10.5312 14.3333 10.5312H18V20.375C18 20.7359 17.7 21.0312 17.3333 21.0312H6.66667C6.3 21.0312 6 20.7359 6 20.375V4.625C6 4.26406 6.3 3.96875 6.66667 3.96875ZM13.3333 4.78496L17.1708 8.5625H14.3333C13.7792 8.5625 13.3333 8.12363 13.3333 7.57812V4.78496ZM6.66667 2C5.19583 2 4 3.17715 4 4.625V20.375C4 21.8229 5.19583 23 6.66667 23H17.3333C18.8042 23 20 21.8229 20 20.375V9.64941C20 8.95215 19.7208 8.28359 19.2208 7.79141L14.1125 2.76699C13.6125 2.2748 12.9375 2 12.2292 2H6.66667ZM10.8 12.8938C10.4667 12.459 9.84167 12.3687 9.4 12.6969C8.95833 13.025 8.86667 13.6402 9.2 14.075L10.75 16.1094L9.2 18.1438C8.86667 18.5785 8.95833 19.1938 9.4 19.5219C9.84167 19.85 10.4667 19.7598 10.8 19.325L12 17.75L13.2 19.325C13.5333 19.7598 14.1583 19.85 14.6 19.5219C15.0417 19.1938 15.1333 18.5785 14.8 18.1438L13.25 16.1094L14.8 14.075C15.1333 13.6402 15.0417 13.025 14.6 12.6969C14.1583 12.3687 13.5333 12.459 13.2 12.8938L12 14.4688L10.8 12.8938Z" fill="#424242"/>
</svg>
