<svg width="16" height="16" viewBox="0 0 16 16" fill="none" xmlns="http://www.w3.org/2000/svg">
<path d="M3.636 14.3519C3.44853 14.1644 3.34321 13.9101 3.34321 13.6449C3.34321 13.3798 3.44853 13.1255 3.636 12.9379L8.586 7.98793L3.636 3.03793C3.45384 2.84932 3.35305 2.59672 3.35533 2.33453C3.35761 2.07233 3.46277 1.82152 3.64818 1.63611C3.83359 1.4507 4.0844 1.34553 4.3466 1.34325C4.6088 1.34098 4.8614 1.44177 5.05 1.62393L10.707 7.28093C10.8945 7.46846 10.9998 7.72276 10.9998 7.98793C10.9998 8.25309 10.8945 8.5074 10.707 8.69493L5.05 14.3519C4.86247 14.5394 4.60816 14.6447 4.343 14.6447C4.07784 14.6447 3.82353 14.5394 3.636 14.3519Z" fill="white"/>
</svg>
