<svg width="140" height="88" viewBox="0 0 140 88" fill="none" xmlns="http://www.w3.org/2000/svg">
<path d="M19.9336 5.00395C19.1524 5.00395 18.4063 5.3178 17.8555 5.87489C17.3047 6.42805 16.9961 7.18523 17 7.96589C17.0039 9.59401 18.3165 10.9122 19.9337 10.9161H28.3166C30.7228 10.9161 32.7932 12.4971 33.4416 14.8157L34.2581 17.7305V17.7345V17.7423L46.6212 61.9406C47.5666 65.3224 50.0197 67.9744 53.1174 69.2691C52.426 70.5716 52.0315 72.0584 52.0315 73.6237C52.0315 78.767 56.2543 83 61.3832 83C66.5122 83 70.7349 78.7709 70.7349 73.6237C70.7349 72.3957 70.4927 71.2189 70.0552 70.1399H81.0944C80.6569 71.2188 80.4108 72.3957 80.4108 73.6237C80.4108 78.767 84.6491 83 89.782 83C94.911 83 99.1337 78.7709 99.1337 73.6237C99.1337 72.3957 98.8915 71.2189 98.454 70.1399H103.415C105.032 70.1321 106.337 68.8178 106.345 67.1976C106.341 65.5694 105.032 64.2552 103.415 64.2474H57.4304C55.0242 64.2474 52.9303 62.6664 52.2819 60.3478L51.985 59.2807H96.0556C101.712 59.2807 106.689 55.4478 108.169 49.9672L116.895 17.7384V17.7423C117.138 16.8518 116.954 15.8985 116.395 15.1687C115.837 14.4351 114.974 14.0075 114.052 14.0075H39.3207L39.1019 13.2229C37.7464 8.37784 33.3285 5 28.3128 5L19.9336 5.00395ZM40.9769 19.9232H110.212L102.501 48.4169C101.708 51.3475 99.0906 53.3679 96.0554 53.3679H50.3278L40.9769 19.9232ZM61.3832 70.1394C63.3324 70.1394 64.8402 71.6694 64.8402 73.6232C64.8402 75.5769 63.3324 77.0913 61.3832 77.0913C59.434 77.0913 57.9065 75.5769 57.9065 73.6232C57.9065 71.6695 59.4339 70.1394 61.3832 70.1394ZM89.7855 70.1394C91.7348 70.1394 93.2426 71.6694 93.2426 73.6232C93.2426 75.5769 91.7348 77.0913 89.7855 77.0913C87.8363 77.0913 86.3089 75.5769 86.3089 73.6232C86.3089 71.6695 87.8362 70.1394 89.7855 70.1394Z" fill="black"/>
</svg>
