<svg width="110" height="110" viewBox="0 0 110 110" fill="none" xmlns="http://www.w3.org/2000/svg">
<path fill-rule="evenodd" clip-rule="evenodd" d="M102.891 94.2415L94.2415 102.891C91.4213 105.703 86.8616 105.703 84.0414 102.891L56.6952 75.5488C56.2453 75.0989 55.6347 74.8458 54.9999 74.8458C54.3612 74.8458 53.7506 75.0989 53.3007 75.5488L25.9586 102.891C23.1384 105.703 18.5787 105.703 15.7585 102.891L7.10912 94.2415C4.29696 91.4213 4.29696 86.8576 7.10912 84.0414L34.4512 56.6953C34.9012 56.2453 35.1542 55.6347 35.1542 55C35.1542 54.3652 34.9012 53.7547 34.4512 53.3047L7.10501 25.9585C4.30488 23.1343 4.30488 18.5827 7.10501 15.7585L15.7584 7.1051V7.10912C18.5746 4.29696 23.1383 4.29696 25.9585 7.10912L53.3047 34.4512C53.7546 34.9011 54.3652 35.1542 54.9999 35.1542C55.6347 35.1542 56.2453 34.9011 56.6952 34.4512L84.0414 7.10912C86.8616 4.29696 91.4213 4.29696 94.2415 7.10912L102.891 15.7585C105.703 18.5787 105.703 23.1384 102.891 25.9585L75.5488 53.3047C75.0988 53.7547 74.8457 54.3653 74.8457 55C74.8457 55.6388 75.0988 56.2493 75.5488 56.6993L102.891 84.0414C105.703 86.8575 105.703 91.4213 102.891 94.2415Z" fill="#FF0000" fill-opacity="0.219608"/>
</svg>
