<svg width="60" height="56" viewBox="0 0 60 56" fill="none" xmlns="http://www.w3.org/2000/svg">
<g clip-path="url(#clip0_239_2)">
<path fill-rule="evenodd" clip-rule="evenodd" d="M59 14V2C59 0.89543 58.1046 0 57 0H3C1.89543 0 1 0.895431 1 2V14V14C0.447715 14 0 14.4477 0 15V51.26C0 53.87 2.13 56 4.74 56H55.26C57.87 56 60 53.87 60 51.26V15C60 14.4477 59.5523 14 59 14V14ZM51.32 7.09L56.5 14H57V2H56.41L51.32 7.09ZM11 7V14H49V7C49 6.98 49.01 6.95 49 6.93C49.01 6.86 49.02 6.8 49.04 6.74C49.05 6.69 49.05 6.65 49.07 6.61C49.08 6.59 49.1 6.57 49.11 6.55C49.13 6.5 49.17 6.45 49.21 6.4C49.24 6.37 49.26 6.32 49.29 6.29L53.58 2H6.41L10.7 6.29C10.74 6.32 10.75 6.36 10.78 6.4C10.82 6.45 10.85 6.49 10.88 6.55C10.89 6.57 10.91 6.59 10.92 6.61C10.94 6.65 10.94 6.7 10.95 6.74C10.97 6.81 10.99 6.87 10.99 6.93C10.99 6.95 11 6.98 11 7ZM9 10L6 14H9V10ZM54 14L51 10V14H54ZM3.59 2H3V14H3.5L8.68 7.09L3.59 2Z" fill="black" fill-opacity="0.219608"/>
<path d="M56.5 14L51.32 7.09L56.41 2H57V14H56.5Z" fill="black" fill-opacity="0.219608"/>
<path d="M3 2H3.59L8.68 7.09L3.5 14H3V2Z" fill="black" fill-opacity="0.219608"/>
<path d="M42 22C41.45 22 41 22.45 41 23V29C41 35.07 36.07 40 30 40C23.93 40 19 35.07 19 29V23C19 22.45 18.55 22 18 22C17.45 22 17 22.45 17 23V29C17 36.17 22.83 42 30 42C37.17 42 43 36.17 43 29V23C43 22.45 42.55 22 42 22Z" fill="white"/>
</g>
<defs>
<clipPath id="clip0_239_2">
<rect width="60" height="56" fill="white"/>
</clipPath>
</defs>
</svg>
