<svg width="612" height="576" viewBox="0 0 612 576" fill="none" xmlns="http://www.w3.org/2000/svg">
<path d="M611.251 296.596C611.251 292.115 610.506 288.378 609.01 284.642C610.506 240.565 603.031 165.106 535.781 127.754C520.086 100.113 453.581 3.73675 305.629 0H302.647C156.173 3.74169 89.6679 100.863 73.2285 127.754C3.73704 166.604 -2.2423 247.29 0.745362 289.871C-5.18964e-06 292.112 0 294.353 0 296.594V477.388C0 490.833 5.23327 503.539 12.7025 512.501C19.4266 524.456 29.8879 540.142 47.8232 556.578C47.8232 556.578 48.5686 557.323 49.3192 557.323C50.8152 558.068 82.9441 576 221.934 576H390.812C529.8 576 562.679 558.069 563.426 557.323C564.172 557.323 564.172 556.578 564.922 556.578C583.603 539.396 594.065 523.705 600.043 511.006C607.517 501.292 612 490.087 612 477.388V296.594L611.251 296.596ZM305.627 226.369C394.551 226.369 452.835 228.61 490.197 230.851C487.956 236.083 488.701 240.564 489.452 244.296C493.189 254.009 505.147 260.731 513.366 262.973L102.38 262.978C111.345 259.992 122.557 254.014 126.294 244.301C127.79 240.564 127.79 236.083 125.549 230.856C163.657 227.865 220.446 226.369 305.636 226.369L305.627 226.369ZM498.417 231.601C538.021 234.587 552.219 237.578 555.206 239.074C562.681 245.797 569.406 253.27 573.888 259.992C555.207 259.247 527.56 257.752 521.582 257.752C515.603 257.006 499.914 251.029 496.922 242.06C495.426 238.324 496.177 235.332 498.418 231.601L498.417 231.601ZM564.176 226.369C563.431 225.624 562.68 225.624 561.935 224.873C561.189 224.128 538.02 215.91 413.98 212.174C416.221 209.188 419.958 206.196 425.186 202.46C447.605 186.768 475.252 180.797 502.897 185.278C552.217 192.751 573.885 221.137 582.856 246.542C578.368 239.814 571.644 233.092 564.174 226.369L564.176 226.369ZM118.069 230.851C120.31 234.587 121.056 238.324 119.565 241.31C116.578 250.273 100.884 256.25 94.9056 257.001C88.1815 257.746 55.3014 259.242 36.6202 259.987C41.8535 253.265 47.8268 245.791 56.0473 239.069C59.7846 237.573 74.7284 233.842 118.069 230.851ZM49.3219 224.873C48.5766 224.873 47.826 225.619 47.0806 226.369C37.3648 234.587 29.8952 242.805 23.9172 251.769C32.1372 226.369 51.5641 196.483 99.388 187.519C131.517 181.542 163.651 188.265 186.816 206.942C189.803 209.183 192.049 210.679 193.54 212.919C73.2331 215.911 50.0692 224.873 49.3219 224.873ZM56.046 511.007C37.3648 511.007 21.6699 496.066 21.6699 477.389V296.595C21.6699 289.872 26.9031 285.391 33.627 285.391H576.877C583.601 285.391 588.834 290.623 588.834 296.595V477.389C588.834 496.066 573.89 511.007 554.458 511.007H56.046ZM304.88 8.21899C434.898 10.4598 500.659 87.4086 523.823 121.777C521.582 121.032 519.341 119.536 517.099 118.791C407.999 77.7001 320.573 74.7144 305.628 73.9633H304.137C289.938 73.9633 201.766 77.6998 92.6661 118.791C90.4248 119.536 88.1834 120.287 85.9421 121.777C109.1 87.4086 174.861 10.4602 304.886 8.21899H304.88ZM97.8919 132.982C207.737 91.8911 294.418 89.6512 304.88 89.6512C315.341 89.6512 402.023 91.892 511.868 132.982C559.686 151.659 581.359 188.268 589.579 224.872C576.131 200.218 551.47 177.804 505.888 171.082C473.759 166.6 442.369 173.323 416.964 191.255C406.503 198.728 399.779 205.45 396.041 212.917C369.885 211.427 339.998 211.427 305.622 211.427C269.755 211.427 239.117 211.427 212.962 212.172C209.975 206.195 203.996 200.218 196.522 194.991C169.621 174.072 133.003 165.854 97.138 172.577C56.038 180.05 33.6192 200.967 20.1714 224.127C29.142 188.268 50.8099 150.914 97.8879 132.983L97.8919 132.982ZM44.09 532.672C47.8273 533.417 52.31 534.168 56.0472 534.168H82.9481C88.9268 534.913 93.4093 534.913 94.9053 535.663C99.388 536.408 116.573 543.881 118.82 552.099C118.82 552.844 119.565 555.085 117.324 558.076C75.4794 553.595 59.7845 547.618 57.5427 546.122C52.3095 540.89 47.8273 536.403 44.09 532.672ZM221.939 561.808C180.839 561.808 148.71 560.313 124.795 558.072C126.291 554.335 126.291 551.349 125.541 549.108C124.045 542.386 117.321 537.154 110.597 533.417H501.408C493.934 537.153 485.713 543.131 484.223 550.599C483.477 552.839 483.477 555.08 484.223 558.072C460.308 560.312 429.675 561.808 390.071 561.808L221.939 561.808ZM555.955 545.372C552.968 546.868 536.528 552.845 493.188 557.327C491.692 555.086 492.442 552.845 492.442 552.095C494.684 543.877 511.123 536.403 516.357 535.659C518.598 534.914 530.556 534.163 543.258 533.418H555.215C559.698 533.418 564.931 532.673 569.414 531.923C564.921 536.404 561.183 540.891 555.955 545.372Z" fill="white"/>
<path d="M346.725 374.293H265.277C254.07 374.293 245.85 383.256 245.85 394.466C245.85 405.67 254.815 413.888 265.277 413.888H346.725C357.932 413.888 366.153 404.925 366.153 393.716C366.153 383.262 357.187 374.293 346.725 374.293ZM346.725 406.42H265.277C258.553 406.42 253.32 401.188 253.32 393.721C253.32 386.998 258.553 381.766 265.277 381.766H346.725C353.45 381.766 358.683 386.998 358.683 394.466C358.683 401.188 353.449 406.42 346.725 406.42Z" fill="white"/>
</svg>
