<svg width="90" height="52" viewBox="0 0 90 52" fill="none" xmlns="http://www.w3.org/2000/svg">
<path d="M16.603 8H7C3.134 8 0 11.134 0 15V44.724C0 48.59 3.134 51.724 7 51.724H16.603V8ZM8.364 16.613C10.584 16.613 12.386 18.415 12.386 20.635C12.386 22.855 10.584 24.658 8.364 24.658C6.144 24.658 4.341 22.856 4.341 20.635C4.341 18.414 6.144 16.613 8.364 16.613ZM4.417 37.043C3.589 37.043 2.917 36.371 2.917 35.543C2.917 34.715 3.589 34.043 4.417 34.043C5.245 34.043 5.917 34.715 5.917 35.543C5.917 36.371 5.246 37.043 4.417 37.043ZM8.364 40.989C7.536 40.989 6.864 40.317 6.864 39.489C6.864 38.661 7.536 37.989 8.364 37.989C9.192 37.989 9.864 38.661 9.864 39.489C9.864 40.317 9.192 40.989 8.364 40.989ZM8.364 33.096C7.536 33.096 6.864 32.424 6.864 31.596C6.864 30.768 7.536 30.096 8.364 30.096C9.192 30.096 9.864 30.768 9.864 31.596C9.864 32.424 9.192 33.096 8.364 33.096ZM12.31 37.043C11.482 37.043 10.81 36.371 10.81 35.543C10.81 34.715 11.482 34.043 12.31 34.043C13.138 34.043 13.81 34.715 13.81 35.543C13.81 36.371 13.139 37.043 12.31 37.043Z" fill="white"/>
<path d="M65.3985 14.5H24.6035V45.224H65.3985V14.5Z" fill="white"/>
<path d="M82.9995 0H73.3965V43.724H82.9995C86.8655 43.724 89.9995 40.59 89.9995 36.724V7C89.9995 3.134 86.8655 0 82.9995 0ZM81.7045 8.613C82.5325 8.613 83.2045 9.285 83.2045 10.113C83.2045 10.941 82.5325 11.613 81.7045 11.613C80.8765 11.613 80.2045 10.941 80.2045 10.113C80.2045 9.284 80.8765 8.613 81.7045 8.613ZM81.7045 16.506C82.5325 16.506 83.2045 17.178 83.2045 18.006C83.2045 18.834 82.5325 19.506 81.7045 19.506C80.8765 19.506 80.2045 18.834 80.2045 18.006C80.2045 17.178 80.8765 16.506 81.7045 16.506ZM76.2585 14.059C76.2585 13.231 76.9305 12.559 77.7585 12.559C78.5865 12.559 79.2585 13.231 79.2585 14.059C79.2585 14.887 78.5865 15.559 77.7585 15.559C76.9305 15.559 76.2585 14.887 76.2585 14.059ZM81.7045 32.989C79.4845 32.989 77.6825 31.187 77.6825 28.967C77.6825 26.747 79.4845 24.944 81.7045 24.944C83.9245 24.944 85.7275 26.746 85.7275 28.967C85.7275 31.188 83.9245 32.989 81.7045 32.989ZM85.6515 15.559C84.8235 15.559 84.1515 14.887 84.1515 14.059C84.1515 13.231 84.8235 12.559 85.6515 12.559C86.4795 12.559 87.1515 13.231 87.1515 14.059C87.1515 14.887 86.4795 15.559 85.6515 15.559Z" fill="white"/>
<path d="M19.6035 8V51.724H70.3985V8H19.6035ZM66.8975 48.224H23.1035C22.2755 48.224 21.6035 47.552 21.6035 46.724V13C21.6035 12.172 22.2755 11.5 23.1035 11.5H66.8985C67.7265 11.5 68.3985 12.172 68.3985 13V46.724C68.3975 47.552 67.7265 48.224 66.8975 48.224Z" fill="white"/>
</svg>
