<svg width="55" height="93" viewBox="0 0 55 93" fill="none" xmlns="http://www.w3.org/2000/svg">
<path d="M44.79 46.0476L44.778 46.1176C44.777 46.1196 44.775 46.1196 44.773 46.1216C44.769 46.1236 44.766 46.1196 44.763 46.1216L44.73 46.1316H44.591L44.571 46.1136C44.567 46.1096 44.559 46.1096 44.554 46.1056C44.549 46.1036 44.548 46.0956 44.543 46.0936L44.51 46.0756C44.508 46.0756 44.506 46.0776 44.503 46.0756L44.517 46.0096C44.518 46.0056 44.514 46.0016 44.514 45.9996C44.514 45.9956 44.518 45.9916 44.518 45.9876V45.9836L44.547 45.7416L44.598 45.7666C44.6 45.7666 44.604 45.7666 44.608 45.7686C44.61 45.7686 44.61 45.7726 44.612 45.7726L44.661 45.7886C44.673 45.7926 44.684 45.7946 44.696 45.7946H44.808L44.79 45.9956C44.79 45.9976 44.791 45.9976 44.791 45.9996C44.791 46.0016 44.789 46.0036 44.789 46.0056V46.0386L44.79 46.0476Z" fill="white"/>
<path d="M45.166 44.4836L45.057 44.4996H44.839L44.745 44.4856L44.662 44.4446C44.659 44.4426 44.655 44.4446 44.651 44.4446C44.648 44.4426 44.647 44.4366 44.643 44.4366L44.539 44.4076L44.48 44.3726L44.372 44.2646L44.347 44.1886C44.347 44.1866 44.343 44.1846 44.341 44.1806C44.341 44.1786 44.343 44.1766 44.341 44.1746L44.325 44.1436L44.333 44.1146C44.334 44.1106 44.33 44.1066 44.331 44.1026C44.331 44.0966 44.335 44.0946 44.335 44.0886V44.0296L44.347 43.9636L44.368 43.9306C44.368 43.9286 44.368 43.9266 44.368 43.9246C44.37 43.9246 44.374 43.9226 44.374 43.9186L44.407 43.8546L44.433 43.8016L44.449 43.7856L44.51 43.7406C44.513 43.7386 44.512 43.7346 44.515 43.7326C44.517 43.7306 44.519 43.7326 44.521 43.7286L44.572 43.6796L44.599 43.6526L44.65 43.6426C44.662 43.6406 44.668 43.6286 44.676 43.6246C44.684 43.6206 44.697 43.6206 44.704 43.6126L44.716 43.6026L44.767 43.5906L44.84 43.5766H44.896C44.9 43.5766 44.902 43.5726 44.906 43.5726C44.908 43.5726 44.91 43.5766 44.914 43.5766H44.984L45.038 43.5906C45.047 43.5926 45.055 43.5946 45.064 43.5946H45.066L45.105 43.6026L45.171 43.6436L45.233 43.6886C45.236 43.6906 45.24 43.6906 45.244 43.6926C45.246 43.6946 45.246 43.6986 45.25 43.6986L45.273 43.7106L45.32 43.7476L45.359 43.7986L45.388 43.8416L45.418 43.9026C45.419 43.9046 45.421 43.9066 45.423 43.9086C45.425 43.9106 45.423 43.9126 45.425 43.9146L45.447 43.9496L45.46 43.9966L45.473 44.0516V44.1926L45.46 44.2476C45.458 44.2516 45.462 44.2556 45.462 44.2596C45.461 44.2656 45.456 44.2676 45.456 44.2736V44.3046L45.433 44.3356L45.376 44.3926L45.321 44.4316L45.247 44.4706L45.166 44.4836Z" fill="white"/>
<path d="M45.028 45.3426C45.022 45.3506 45.012 45.3566 45.01 45.3656L44.985 45.4766C44.985 45.4766 44.983 45.4786 44.983 45.4806H44.981C44.978 45.4846 44.973 45.4866 44.97 45.4886C44.967 45.4926 44.961 45.4926 44.959 45.4966L44.939 45.5236L44.932 45.5276L44.91 45.5396C44.9 45.5396 44.894 45.5436 44.886 45.5476C44.881 45.5496 44.875 45.5476 44.871 45.5516L44.848 45.5656H44.728L44.705 45.5516C44.697 45.5436 44.685 45.5476 44.676 45.5436C44.665 45.5416 44.658 45.5316 44.647 45.5316H44.598L44.588 45.5296L44.556 45.4966C44.548 45.4886 44.537 45.4906 44.528 45.4846L44.522 45.4806C44.521 45.4786 44.519 45.4786 44.517 45.4766L44.515 45.4726C44.514 45.4666 44.508 45.4646 44.506 45.4606C44.503 45.4546 44.506 45.4486 44.502 45.4466L44.482 45.4156C44.482 45.4136 44.484 45.4136 44.483 45.4116L44.453 45.2926V45.2746C44.453 45.2746 44.456 45.2726 44.456 45.2686C44.456 45.2626 44.45 45.2586 44.449 45.2526C44.449 45.2486 44.453 45.2446 44.453 45.2406L44.369 44.5516L44.441 44.5946C44.447 44.5986 44.453 44.5986 44.459 44.6006C44.463 44.6006 44.464 44.6066 44.467 44.6066L44.575 44.6376L44.666 44.6826C44.674 44.6866 44.684 44.6866 44.691 44.6886C44.693 44.6886 44.695 44.6926 44.698 44.6926L44.814 44.7106C44.82 44.7106 44.824 44.7106 44.83 44.7106H45.065C45.07 44.7106 45.075 44.7106 45.079 44.7106L45.196 44.6926C45.198 44.6926 45.198 44.6926 45.198 44.6926L45.299 44.6746C45.302 44.6746 45.304 44.6726 45.306 44.6706C45.308 44.6706 45.308 44.6706 45.31 44.6706L45.04 45.3116C45.032 45.3216 45.032 45.3326 45.028 45.3426Z" fill="white"/>
<path d="M40.731 44.4306L40.661 44.4776L40.536 44.5346L40.389 44.5496H40.233L40.07 44.5346L39.922 44.4756L39.811 44.4206L39.731 44.3256L39.676 44.2446L39.655 44.1576L39.674 44.0886L39.723 44.0286L39.803 43.9486L39.92 43.9096L40.072 43.8796H40.221L40.385 43.9096L40.53 43.9516L40.648 44.0416L40.728 44.1086L40.776 44.1906L40.788 44.2726L40.776 44.3526L40.731 44.4306Z" fill="white"/>
<path d="M40.381 44.7626L40.367 44.7666H40.202L40.147 44.7546L40.219 44.7626H40.381Z" fill="white"/>
<path d="M31.362 49.8306L31.274 49.8796L31.141 49.9386L31.006 49.9696L30.851 49.9836L30.704 49.9386L30.699 49.9406L30.694 49.9366L30.551 49.9096L30.438 49.8236H30.436V49.8216L30.338 49.7526L30.288 49.6646L30.268 49.5906L30.288 49.5186L30.334 49.4366L30.426 49.3836L30.537 49.3286L30.684 49.3136H30.694L30.836 49.2846L30.996 49.3266L31.13 49.3716L31.262 49.4466L31.356 49.5266L31.405 49.6126L31.416 49.6766L31.403 49.7586L31.362 49.8306Z" fill="white"/>
<path d="M35.711 49.9366C35.707 49.9366 35.707 49.9386 35.703 49.9406C35.701 49.9406 35.699 49.9386 35.696 49.9386L35.593 49.9676H35.406L35.303 49.9386L35.196 49.9096L35.105 49.8626L35.021 49.8216L34.971 49.7726L34.932 49.7176L34.891 49.6376L34.88 49.5966V49.4776L34.905 49.4136C34.905 49.4136 34.904 49.4116 34.905 49.4076C34.906 49.4056 34.909 49.4056 34.91 49.4016L34.92 49.3626L34.932 49.3506C34.936 49.3466 34.934 49.3426 34.938 49.3386C34.942 49.3326 34.949 49.3306 34.953 49.3226L34.978 49.2716L35.016 49.2326C35.018 49.2306 35.017 49.2266 35.02 49.2246C35.021 49.2226 35.024 49.2226 35.026 49.2206L35.065 49.1676L35.099 49.1466C35.1 49.1446 35.1 49.1446 35.101 49.1426H35.105L35.165 49.0976L35.199 49.0796H35.208C35.221 49.0796 35.233 49.0776 35.247 49.0716L35.321 49.0426L35.384 49.0306H35.457C35.46 49.0306 35.463 49.0266 35.465 49.0266C35.469 49.0266 35.471 49.0306 35.474 49.0306H35.528L35.582 49.0446C35.589 49.0446 35.597 49.0446 35.603 49.0466L35.669 49.0716L35.741 49.1006L35.763 49.1146L35.785 49.1496C35.789 49.1556 35.798 49.1536 35.803 49.1596C35.812 49.1676 35.815 49.1796 35.826 49.1846L35.865 49.2046L35.898 49.2616C35.9 49.2656 35.906 49.2636 35.908 49.2676C35.912 49.2716 35.911 49.2796 35.914 49.2836L35.936 49.3046L35.961 49.3556C35.962 49.3576 35.966 49.3596 35.966 49.3596C35.968 49.3636 35.966 49.3656 35.968 49.3676L35.99 49.4026L36.003 49.4496L36.017 49.5046V49.6976L36.007 49.7466L35.971 49.7936C35.97 49.7956 35.971 49.7976 35.97 49.7996C35.968 49.8016 35.966 49.8016 35.965 49.8036L35.933 49.8566L35.884 49.8766C35.88 49.8766 35.88 49.8826 35.877 49.8846C35.874 49.8846 35.871 49.8826 35.868 49.8846L35.805 49.9226L35.711 49.9366Z" fill="white"/>
<path d="M35.59 50.7896C35.586 50.7956 35.577 50.7996 35.574 50.8076L35.535 50.9246C35.535 50.9246 35.534 50.9246 35.533 50.9266C35.521 50.9346 35.514 50.9446 35.508 50.9556C35.504 50.9596 35.5 50.9616 35.498 50.9656L35.477 50.9736C35.457 50.9796 35.444 50.9966 35.43 51.0146C35.43 51.0146 35.429 51.0126 35.428 51.0146L35.418 51.0186H35.259L35.239 51.0126L35.201 50.9876C35.195 50.9836 35.189 50.9856 35.183 50.9836C35.177 50.9796 35.173 50.9736 35.167 50.9716L35.101 50.9556L35.083 50.9496L35.074 50.9396L35.05 50.9046L35.04 50.8846L35.028 50.8496L35.014 50.7426L35.015 50.7406C35.015 50.7386 35.014 50.7386 35.014 50.7386V50.7096C35.014 50.7056 35.011 50.7036 35.011 50.7016C35.01 50.6996 35.014 50.6976 35.014 50.6956L34.93 50.0136L35.009 50.0526L35.11 50.1036C35.114 50.1056 35.118 50.1056 35.123 50.1056C35.126 50.1076 35.126 50.1096 35.128 50.1096L35.245 50.1446L35.362 50.1776C35.372 50.1796 35.382 50.1816 35.391 50.1816H35.608C35.618 50.1816 35.628 50.1796 35.637 50.1776L35.746 50.1466L35.855 50.1306L35.599 50.7656C35.595 50.7726 35.596 50.7826 35.59 50.7896Z" fill="white"/>
<path d="M45.625 46.4126L45.545 46.5086L45.432 46.5766L45.275 46.6406L45.12 46.7026L44.934 46.7336L44.746 46.7476L44.549 46.7336L44.358 46.6846L44.168 46.6206L44.017 46.5616L43.863 46.4546L43.74 46.3456L43.654 46.2476L43.599 46.1346L43.572 46.0256V45.9256L43.613 45.8296L43.671 45.7006L43.723 45.6476C43.731 45.6436 43.74 45.6436 43.746 45.6396L43.874 45.5436L43.969 45.4906L44.018 45.4706L44.167 45.4256L44.268 45.4176L44.276 45.4506V45.4856C44.276 45.4916 44.282 45.4976 44.282 45.5016C44.285 45.5176 44.29 45.5266 44.298 45.5386C44.304 45.5486 44.308 45.5586 44.316 45.5636C44.318 45.5756 44.326 45.5796 44.332 45.5886C44.34 45.5986 44.344 45.6086 44.353 45.6156L44.317 45.9106C44.314 45.9166 44.308 45.9166 44.305 45.9206L44.288 45.9556C44.284 45.9616 44.288 45.9696 44.286 45.9786C44.284 45.9876 44.276 45.9926 44.276 46.0016V46.1016C44.276 46.1306 44.288 46.1546 44.305 46.1736C44.307 46.1756 44.305 46.1776 44.307 46.1776L44.311 46.1816L44.321 46.1996C44.325 46.2076 44.331 46.2116 44.337 46.2176C44.339 46.2196 44.339 46.2256 44.342 46.2296C44.345 46.2316 44.349 46.2316 44.351 46.2336C44.359 46.2396 44.367 46.2456 44.376 46.2476C44.378 46.2496 44.38 46.2536 44.382 46.2536L44.425 46.2696L44.437 46.2736L44.455 46.2996C44.459 46.3036 44.467 46.3016 44.471 46.3056C44.477 46.3096 44.477 46.3156 44.483 46.3196L44.516 46.3356C44.532 46.3436 44.547 46.3476 44.564 46.3476H44.748C44.759 46.3476 44.77 46.3456 44.782 46.3416L44.815 46.3296H44.831C44.856 46.3296 44.878 46.3196 44.897 46.3026C44.903 46.2986 44.907 46.2946 44.911 46.2886C44.913 46.2866 44.913 46.2866 44.915 46.2846L44.946 46.2686C44.951 46.2666 44.952 46.2586 44.957 46.2546C44.969 46.2466 44.976 46.2366 44.983 46.2256C44.99 46.2136 44.995 46.2026 44.998 46.1886C44.999 46.1846 45.003 46.1826 45.003 46.1766C45.009 46.1666 45.009 46.1566 45.013 46.1456C45.013 46.1436 45.016 46.1396 45.017 46.1356C45.018 46.1296 45.023 46.1256 45.023 46.1196C45.023 46.1176 45.022 46.1176 45.022 46.1176V46.0726C45.022 46.0646 45.015 46.0566 45.013 46.0496C45.01 46.0416 45.015 46.0316 45.01 46.0246L45.005 46.0146V46.0106L45.031 45.7236L45.073 45.6946C45.077 45.6926 45.077 45.6886 45.079 45.6866C45.083 45.6846 45.087 45.6846 45.091 45.6826L45.124 45.6476C45.128 45.6456 45.126 45.6376 45.13 45.6336C45.132 45.6316 45.133 45.6296 45.136 45.6256C45.151 45.6176 45.159 45.6046 45.169 45.5906C45.173 45.5806 45.18 45.5766 45.183 45.5676C45.183 45.5656 45.185 45.5656 45.186 45.5636L45.193 45.5346L45.281 45.5836L45.424 45.6616L45.553 45.7636L45.625 45.8806L45.699 46.0136L45.725 46.1186V46.2046L45.685 46.3116L45.625 46.4126Z" fill="white"/>
<path d="M30.68 50.1556L30.66 50.1536L30.608 50.1376L30.649 50.1456L30.68 50.1556Z" fill="white"/>
<path d="M53.928 48.9126L33.348 60.7956V60.3666L53.928 48.4936V48.9126Z" fill="white"/>
<path d="M30.633 54.3116C30.633 54.3176 30.639 54.3216 30.64 54.3276C30.641 54.3336 30.637 54.3396 30.639 54.3456L30.655 54.3936L30.673 54.4446C30.677 54.4566 30.685 54.4626 30.693 54.4696C30.697 54.4756 30.695 54.4816 30.699 54.4876L30.765 54.5536C30.767 54.5556 30.769 54.5536 30.771 54.5556C30.771 54.5556 30.771 54.5596 30.773 54.5596L30.873 54.6416C30.878 54.6476 30.885 54.6456 30.891 54.6476C30.895 54.6516 30.896 54.6576 30.901 54.6596L31.017 54.7086C31.024 54.7126 31.032 54.7126 31.038 54.7146C31.042 54.7146 31.042 54.7166 31.044 54.7186L31.159 54.7326L31.304 54.7656C31.312 54.7676 31.32 54.7696 31.326 54.7696C31.337 54.7696 31.347 54.7676 31.356 54.7656L31.465 54.7326L31.574 54.7186C31.578 54.7166 31.58 54.7126 31.584 54.7126C31.594 54.7086 31.605 54.7086 31.613 54.7026L31.697 54.6536L31.706 54.6476C31.715 54.6436 31.727 54.6436 31.734 54.6376L31.8 54.5696C31.812 54.5576 31.814 54.5426 31.818 54.5266V54.5946C31.818 54.6176 31.831 54.6396 31.844 54.6566L31.8 54.7016C31.793 54.7056 31.784 54.7036 31.779 54.7056L31.688 54.7716C31.686 54.7716 31.684 54.7736 31.681 54.7736C31.666 54.7756 31.657 54.7836 31.643 54.7916C31.63 54.7976 31.62 54.8016 31.611 54.8116C31.609 54.8156 31.604 54.8156 31.602 54.8176L31.551 54.8956L31.543 54.8996C31.526 54.8406 31.467 54.8116 31.41 54.8256L31.317 54.8506L31.168 54.8236L30.993 54.7766L30.844 54.7026L30.727 54.6286L30.649 54.5366L30.614 54.4566V54.3306L30.634 54.2856L30.633 54.3116Z" fill="white"/>
<path d="M36.188 51.8666L36.104 51.9626L35.975 52.0506L35.834 52.1126L35.67 52.1716L35.505 52.1876H35.105L34.902 52.1406L34.728 52.0766L34.561 52.0176L34.424 51.9106L34.294 51.7976L34.194 51.7136L34.141 51.5946L34.114 51.4816V51.3816L34.155 51.2876L34.214 51.1726L34.298 51.0886L34.433 50.9836L34.567 50.9226L34.59 50.9146L34.735 50.8796L34.817 50.8636L34.82 50.8866C34.821 50.8926 34.825 50.8946 34.825 50.8986C34.826 50.9006 34.823 50.9046 34.825 50.9086L34.842 50.9596C34.843 50.9616 34.845 50.9616 34.845 50.9636C34.846 50.9656 34.847 50.9676 34.847 50.9696C34.848 50.9716 34.847 50.9716 34.848 50.9736L34.853 50.9836V50.9916C34.853 50.9916 34.853 50.9916 34.853 50.9936C34.853 50.9996 34.859 51.0036 34.86 51.0096C34.863 51.0256 34.868 51.0326 34.875 51.0446C34.883 51.0586 34.89 51.0676 34.901 51.0756C34.906 51.0796 34.907 51.0856 34.913 51.0876L34.876 51.3586L34.868 51.3666C34.861 51.3726 34.863 51.3826 34.859 51.3896C34.853 51.3976 34.845 51.3996 34.842 51.4096L34.825 51.4586C34.823 51.4646 34.827 51.4726 34.826 51.4766C34.825 51.4826 34.819 51.4886 34.819 51.4946V51.5106C34.819 51.5166 34.825 51.5226 34.826 51.5286C34.827 51.5326 34.823 51.5386 34.825 51.5466L34.842 51.5956C34.844 51.6016 34.85 51.6056 34.853 51.6116C34.853 51.6586 34.886 51.6916 34.927 51.7056C34.927 51.7056 34.927 51.7076 34.929 51.7076L34.947 51.7176L34.968 51.7386C34.972 51.7426 34.98 51.7406 34.985 51.7446C34.99 51.7486 34.99 51.7566 34.996 51.7586L35.029 51.7766C35.033 51.7766 35.037 51.7766 35.039 51.7786C35.041 51.7786 35.041 51.7806 35.043 51.7806L35.094 51.7986C35.105 51.8026 35.116 51.8046 35.127 51.8046H35.311C35.323 51.8046 35.333 51.8026 35.345 51.7986L35.375 51.7826H35.393C35.414 51.7826 35.43 51.7706 35.448 51.7616C35.464 51.7576 35.479 51.7516 35.493 51.7406C35.499 51.7346 35.502 51.7306 35.507 51.7246C35.511 51.7186 35.519 51.7146 35.523 51.7086L35.539 51.6756C35.541 51.6716 35.539 51.6716 35.54 51.6676C35.541 51.6656 35.545 51.6636 35.545 51.6596L35.548 51.6536C35.555 51.6476 35.557 51.6376 35.563 51.6286C35.571 51.6166 35.576 51.6076 35.579 51.5936C35.579 51.5876 35.585 51.5836 35.585 51.5756V51.5416C35.585 51.5356 35.579 51.5316 35.579 51.5256C35.577 51.5196 35.581 51.5136 35.579 51.5076L35.563 51.4566C35.561 51.4526 35.557 51.4526 35.556 51.4486L35.592 51.1776L35.608 51.1616L35.626 51.1536C35.628 51.1516 35.628 51.1476 35.631 51.1476C35.642 51.1416 35.649 51.1316 35.657 51.1226C35.659 51.1186 35.665 51.1206 35.667 51.1166L35.7 51.0656C35.7 51.0656 35.7 51.0636 35.701 51.0616C35.713 51.0516 35.723 51.0406 35.729 51.0246L35.743 50.9836L35.823 51.0326L35.986 51.1306L36.1 51.2146L36.186 51.3456L36.247 51.4666L36.288 51.5776V51.6556L36.249 51.7606L36.188 51.8666Z" fill="white"/>
<path d="M29.296 90.3626V64.0166L29.666 64.2276V90.1496L29.296 90.3626Z" fill="white"/>
<path d="M33.28 60.1596L33.276 60.1456L33.26 60.0966C33.25 60.0676 33.231 60.0456 33.204 60.0346L33.197 60.0326L33.179 60.0056C33.177 60.0016 33.173 60.0016 33.17 59.9976C33.167 59.9956 33.169 59.9916 33.165 59.9876C33.163 59.9856 33.157 59.9856 33.153 59.9816C33.151 59.9796 33.151 59.9736 33.149 59.9716L33.115 59.9386C33.11 59.9326 33.104 59.9346 33.098 59.9306C33.094 59.9286 33.092 59.9206 33.087 59.9166L33.063 59.9046L22.881 52.3226C22.877 52.3226 22.875 52.3226 22.871 52.3206C22.869 52.3186 22.867 52.3146 22.865 52.3146L22.847 52.3046L22.833 52.2906L23.335 52.0196C23.339 52.0156 23.339 52.0096 23.343 52.0076C23.357 51.9976 23.363 51.9876 23.368 51.9746C23.376 51.9626 23.382 51.9536 23.384 51.9396C23.386 51.9336 23.39 51.9316 23.39 51.9256V51.7436L42.391 40.7956L42.502 40.8736C42.502 40.8756 42.504 40.8736 42.506 40.8756C42.523 40.8876 42.542 40.8936 42.563 40.8936C42.581 40.8936 42.598 40.8896 42.614 40.8816L43.198 40.5636C43.198 40.5636 43.198 40.5636 43.2 40.5616C43.2 40.5616 43.202 40.5616 43.204 40.5596L43.326 40.4836L53.842 48.2956L33.28 60.1596ZM42.221 49.8896H42.223L42.225 49.8916L42.359 49.9426C42.365 49.9446 42.372 49.9446 42.378 49.9446C42.38 49.9466 42.38 49.9486 42.382 49.9486L42.499 49.9646C42.503 49.9666 42.509 49.9666 42.513 49.9666C42.518 49.9666 42.522 49.9666 42.525 49.9666L42.675 49.9486C42.677 49.9486 42.677 49.9486 42.677 49.9486C42.677 49.9486 42.679 49.9486 42.681 49.9486L42.781 49.9306C42.785 49.9286 42.787 49.9246 42.791 49.9246C42.801 49.9226 42.811 49.9226 42.819 49.9166L42.902 49.8656C42.906 49.8636 42.906 49.8576 42.91 49.8556C42.918 49.8496 42.923 49.8456 42.928 49.8376C42.93 49.8356 42.935 49.8356 42.937 49.8316L42.971 49.7826C42.971 49.7806 42.971 49.7786 42.971 49.7766C42.973 49.7746 42.975 49.7746 42.977 49.7706L42.987 49.7526L43.024 49.7156C43.036 49.7016 43.038 49.6866 43.043 49.6706C43.046 49.6746 43.052 49.6746 43.056 49.6766C43.06 49.6786 43.064 49.6786 43.068 49.6826C43.084 49.6906 43.097 49.7036 43.117 49.7036C43.164 49.7036 43.197 49.6746 43.211 49.6336C43.213 49.6296 43.215 49.6276 43.216 49.6236C43.217 49.6176 43.223 49.6116 43.223 49.6056V49.5876C43.223 49.5796 43.217 49.5756 43.215 49.5676C43.213 49.5596 43.217 49.5536 43.215 49.5466L43.164 49.4296C43.162 49.4236 43.154 49.4216 43.152 49.4176C43.146 49.4096 43.148 49.3996 43.142 49.3946C43.14 49.3926 43.138 49.3946 43.138 49.3926L43.05 49.3046L43.017 49.2046C43.014 49.1966 43.006 49.1926 43.001 49.1846C42.998 49.1806 42.999 49.1746 42.995 49.1706C42.993 49.1686 42.993 49.1646 42.991 49.1606L42.925 49.0946H42.922C42.921 49.0926 42.919 49.0946 42.919 49.0926C42.917 49.0926 42.917 49.0886 42.915 49.0866L42.833 49.0206C42.828 49.0166 42.822 49.0186 42.817 49.0166C42.813 49.0146 42.811 49.0066 42.807 49.0066L42.69 48.9556L42.573 48.9066C42.567 48.9026 42.559 48.9066 42.552 48.9046C42.544 48.9026 42.539 48.8966 42.531 48.8966H42.297C42.292 48.8966 42.289 48.9006 42.283 48.9026C42.277 48.9026 42.273 48.8986 42.267 48.9006L42.152 48.9336C42.144 48.9356 42.14 48.9436 42.134 48.9476C42.127 48.9516 42.118 48.9496 42.113 48.9536L42.105 48.9596V48.9616L42.031 49.0206C42.029 49.0226 42.029 49.0266 42.027 49.0266C42.026 49.0286 42.023 49.0266 42.021 49.0286C42.021 49.0306 42.019 49.0286 42.019 49.0306L41.981 49.0696C41.955 49.0796 41.931 49.0966 41.919 49.1226L41.914 49.1326L41.865 49.1656H41.863C41.837 49.1656 41.809 49.1756 41.789 49.1966L41.705 49.2786C41.693 49.2906 41.693 49.3056 41.687 49.3216C41.687 49.3216 41.685 49.3216 41.685 49.3236L41.669 49.3546L41.622 49.4326C41.616 49.4426 41.62 49.4506 41.617 49.4596C41.614 49.4716 41.606 49.4776 41.606 49.4866V49.5196C41.606 49.5806 41.653 49.6266 41.712 49.6266C41.771 49.6266 41.818 49.5796 41.818 49.5196V49.5156L41.822 49.5116V49.5196C41.822 49.5316 41.831 49.5396 41.834 49.5506C41.837 49.5586 41.834 49.5706 41.84 49.5796L41.87 49.6246L41.883 49.6496C41.887 49.6576 41.895 49.6616 41.899 49.6676C41.901 49.6716 41.901 49.6756 41.904 49.6796L41.971 49.7456C41.973 49.7496 41.978 49.7476 41.981 49.7496C41.984 49.7516 41.983 49.7556 41.987 49.7596L42.087 49.8256C42.091 49.8276 42.095 49.8256 42.099 49.8276C42.102 49.8296 42.103 49.8336 42.105 49.8336L42.221 49.8896ZM40.516 50.3056C40.52 50.3156 40.521 50.3256 40.528 50.3326C40.531 50.3386 40.531 50.3466 40.535 50.3526C40.543 50.3586 40.554 50.3586 40.562 50.3626C40.569 50.3666 40.573 50.3766 40.583 50.3786C40.593 50.3826 40.603 50.3826 40.612 50.3826C40.637 50.3826 40.661 50.3726 40.68 50.3576C40.682 50.3556 40.687 50.3556 40.69 50.3536C40.694 50.3456 40.695 50.3336 40.7 50.3286C40.704 50.3206 40.712 50.3146 40.715 50.3056L40.724 50.2786C40.724 50.2906 40.732 50.2966 40.734 50.3056C40.738 50.3176 40.734 50.3266 40.741 50.3366L40.755 50.3586V50.3766C40.755 50.3786 40.758 50.3806 40.758 50.3826C40.758 50.3966 40.766 50.4056 40.772 50.4176C40.78 50.4316 40.782 50.4446 40.792 50.4546C40.794 50.4546 40.794 50.4566 40.796 50.4586L40.879 50.5266L40.963 50.5926C40.966 50.5946 40.971 50.5946 40.976 50.5966C40.978 50.5986 40.978 50.6026 40.982 50.6046L41.115 50.6706C41.124 50.6746 41.133 50.6746 41.141 50.6766C41.144 50.6766 41.145 50.6806 41.148 50.6806L41.259 50.6986L41.388 50.7296C41.396 50.7316 41.404 50.7316 41.413 50.7316C41.421 50.7316 41.431 50.7316 41.438 50.7296L41.567 50.6986L41.678 50.6806C41.682 50.6806 41.684 50.6766 41.688 50.6746C41.698 50.6726 41.708 50.6726 41.717 50.6666L41.801 50.6176C41.805 50.6136 41.805 50.6096 41.809 50.6056C41.812 50.6036 41.817 50.6036 41.821 50.6016V50.5996L41.889 50.5336C41.893 50.5296 41.892 50.5196 41.895 50.5156C41.903 50.5036 41.913 50.4956 41.916 50.4846L41.924 50.4496C41.944 50.4696 41.967 50.4806 41.996 50.4806C42.003 50.4806 42.011 50.4806 42.019 50.4786C42.027 50.4766 42.031 50.4666 42.04 50.4626C42.051 50.4586 42.062 50.4586 42.071 50.4526C42.074 50.4486 42.074 50.4406 42.077 50.4366C42.084 50.4266 42.086 50.4156 42.091 50.4036C42.094 50.3936 42.104 50.3836 42.104 50.3726C42.104 50.3666 42.098 50.3646 42.098 50.3606C42.098 50.3566 42.101 50.3546 42.1 50.3506L42.067 50.2006C42.063 50.1826 42.049 50.1716 42.038 50.1576C42.035 50.1536 42.034 50.1496 42.03 50.1476C42.022 50.1396 42.016 50.1336 42.007 50.1296L41.945 50.0576C41.944 50.0556 41.946 50.0536 41.945 50.0516L41.911 49.9656C41.909 49.9596 41.901 49.9576 41.896 49.9496C41.893 49.9456 41.895 49.9376 41.889 49.9336C41.883 49.9256 41.877 49.9276 41.87 49.9236C41.866 49.9216 41.865 49.9156 41.86 49.9136L41.831 49.8746C41.83 49.8726 41.827 49.8726 41.827 49.8726C41.826 49.8706 41.826 49.8686 41.826 49.8686C41.822 49.8666 41.82 49.8666 41.818 49.8646C41.816 49.8626 41.816 49.8586 41.813 49.8566L41.712 49.7726C41.706 49.7686 41.698 49.7686 41.692 49.7666C41.684 49.7626 41.681 49.7546 41.672 49.7506L41.561 49.7196L41.453 49.6726C41.446 49.6706 41.438 49.6746 41.432 49.6726C41.424 49.6706 41.419 49.6626 41.411 49.6626H41.178C41.169 49.6626 41.163 49.6726 41.156 49.6726C41.146 49.6766 41.138 49.6726 41.131 49.6766L41.035 49.7236L40.963 49.7526C40.951 49.7546 40.944 49.7606 40.935 49.7646C40.924 49.7686 40.912 49.7686 40.903 49.7766C40.898 49.7806 40.899 49.7886 40.896 49.7946C40.893 49.7966 40.889 49.7966 40.887 49.8006L40.854 49.8556C40.848 49.8596 40.842 49.8576 40.836 49.8636C40.835 49.8656 40.834 49.8676 40.834 49.8676L40.75 49.9166H40.745C40.742 49.9166 40.74 49.9186 40.74 49.9186C40.724 49.9186 40.714 49.9286 40.701 49.9346C40.688 49.9406 40.676 49.9446 40.667 49.9546C40.667 49.9546 40.663 49.9546 40.661 49.9566L40.595 50.0406C40.592 50.0426 40.594 50.0486 40.592 50.0526C40.589 50.0566 40.585 50.0566 40.582 50.0586L40.566 50.0936C40.564 50.0956 40.566 50.0976 40.566 50.0996C40.557 50.1096 40.545 50.1156 40.543 50.1286L40.51 50.2436C40.508 50.2476 40.51 50.2516 40.51 50.2536C40.51 50.2596 40.502 50.2656 40.502 50.2696C40.502 50.2846 40.511 50.2936 40.516 50.3056ZM34.002 53.8116C34.002 53.8136 34.004 53.8136 34.004 53.8156C34.004 53.8316 34.013 53.8386 34.019 53.8526C34.026 53.8666 34.028 53.8796 34.039 53.8896C34.041 53.8896 34.04 53.8916 34.042 53.8936L34.126 53.9596C34.127 53.9616 34.13 53.9616 34.131 53.9636C34.131 53.9636 34.132 53.9636 34.134 53.9656L34.234 54.0316C34.236 54.0336 34.238 54.0336 34.238 54.0336C34.24 54.0336 34.238 54.0356 34.24 54.0356L34.357 54.1016C34.362 54.1056 34.368 54.1036 34.373 54.1076C34.377 54.1076 34.377 54.1116 34.381 54.1136L34.498 54.1466C34.502 54.1466 34.507 54.1466 34.512 54.1466L34.514 54.1486L34.647 54.1666C34.651 54.1666 34.657 54.1666 34.661 54.1666C34.665 54.1666 34.671 54.1666 34.675 54.1666L34.808 54.1486L34.81 54.1466C34.816 54.1466 34.82 54.1466 34.824 54.1466L34.941 54.1136C34.943 54.1136 34.943 54.1116 34.945 54.1116C34.947 54.1096 34.949 54.1096 34.952 54.1096L35.035 54.0746C35.042 54.0726 35.045 54.0646 35.051 54.0606C35.056 54.0586 35.065 54.0586 35.069 54.0546L35.07 54.0526C35.07 54.0526 35.071 54.0526 35.073 54.0506L35.155 53.9686C35.176 53.9476 35.186 53.9196 35.186 53.8926V53.8846C35.19 53.8866 35.192 53.8846 35.195 53.8866C35.215 53.9046 35.237 53.9156 35.263 53.9156C35.277 53.9156 35.291 53.9136 35.305 53.9076C35.311 53.9036 35.311 53.8976 35.317 53.8936C35.323 53.8916 35.331 53.8916 35.336 53.8876C35.342 53.8796 35.341 53.8736 35.345 53.8666C35.355 53.8526 35.361 53.8396 35.363 53.8236C35.363 53.8176 35.369 53.8116 35.369 53.8076C35.369 53.8016 35.363 53.7956 35.362 53.7916C35.361 53.7816 35.365 53.7736 35.362 53.7666L35.312 53.6496C35.309 53.6416 35.3 53.6416 35.296 53.6336C35.292 53.6276 35.294 53.6216 35.289 53.6156L35.277 53.6036L35.2 53.4966C35.199 53.4946 35.196 53.4946 35.196 53.4946C35.194 53.4906 35.196 53.4886 35.196 53.4846L35.163 53.4026C35.159 53.3926 35.151 53.3926 35.147 53.3866C35.143 53.3786 35.145 53.3686 35.138 53.3636L35.075 53.3016C35.075 53.3016 35.075 53.3016 35.075 53.2996H35.073C35.069 53.2956 35.065 53.2976 35.061 53.2936C35.059 53.2936 35.059 53.2876 35.055 53.2856L34.955 53.2196C34.953 53.2176 34.95 53.2196 34.948 53.2176C34.946 53.2176 34.946 53.2136 34.943 53.2136L34.843 53.1626C34.841 53.1626 34.841 53.1626 34.839 53.1626L34.837 53.1606L34.72 53.1096C34.713 53.1056 34.706 53.1116 34.699 53.1096C34.692 53.1076 34.687 53.0996 34.678 53.0996H34.445C34.436 53.0996 34.431 53.1076 34.423 53.1096C34.414 53.1136 34.406 53.1076 34.399 53.1136L34.298 53.1626L34.198 53.2136C34.192 53.2156 34.191 53.2216 34.186 53.2256C34.181 53.2296 34.175 53.2276 34.171 53.2316C34.169 53.2336 34.171 53.2376 34.169 53.2396C34.166 53.2416 34.161 53.2416 34.159 53.2456L34.125 53.2906C34.119 53.2946 34.113 53.2946 34.108 53.2986C34.102 53.2986 34.096 53.2966 34.091 53.2986L33.975 53.3666C33.975 53.3666 33.975 53.3666 33.973 53.3666C33.957 53.3726 33.94 53.3766 33.928 53.3896L33.845 53.4896C33.841 53.4956 33.843 53.5016 33.84 53.5056C33.832 53.5136 33.82 53.5176 33.815 53.5266L33.798 53.5596C33.797 53.5636 33.799 53.5656 33.797 53.5696C33.797 53.5716 33.793 53.5716 33.792 53.5756L33.758 53.6756C33.757 53.6816 33.761 53.6876 33.76 53.6936C33.759 53.6996 33.754 53.7036 33.754 53.7096V53.7426C33.754 53.7736 33.766 53.7996 33.785 53.8186C33.806 53.8396 33.834 53.8516 33.861 53.8516C33.887 53.8516 33.914 53.8396 33.935 53.8186C33.941 53.8126 33.943 53.7976 33.949 53.7876C33.955 53.7716 33.967 53.7606 33.967 53.7426V53.7406C33.967 53.7386 33.967 53.7386 33.967 53.7366V53.7266L33.972 53.7126C33.972 53.7226 33.979 53.7286 33.983 53.7376C33.986 53.7476 33.982 53.7586 33.989 53.7686L34.005 53.7916V53.8116H34.002ZM33.121 54.7606C33.134 54.7646 33.145 54.7686 33.159 54.7686H33.409C33.423 54.7686 33.436 54.7646 33.45 54.7586L33.567 54.7076C33.569 54.7076 33.569 54.7056 33.571 54.7056C33.573 54.7036 33.577 54.7036 33.58 54.7016L33.664 54.6526L33.69 54.6386C33.692 54.6366 33.692 54.6346 33.694 54.6326C33.698 54.6306 33.704 54.6286 33.707 54.6246H33.711L33.761 54.5586C33.763 54.5566 33.761 54.5546 33.763 54.5546C33.763 54.5526 33.764 54.5546 33.765 54.5526L33.798 54.5016C33.802 54.4956 33.798 54.4916 33.802 54.4856C33.803 54.4876 33.807 54.4856 33.81 54.4876C33.811 54.4896 33.812 54.4936 33.814 54.4936C33.816 54.4956 33.816 54.4996 33.818 54.5016C33.844 54.5226 33.865 54.5346 33.892 54.5346C33.919 54.5346 33.946 54.5226 33.967 54.5076C33.988 54.4806 33.999 54.4546 33.999 54.4276C33.999 54.4136 33.989 54.4076 33.985 54.3966C33.981 54.3826 33.981 54.3636 33.967 54.3516L33.965 54.3496L33.932 54.2716V54.2596C33.932 54.2576 33.93 54.2576 33.93 54.2536C33.93 54.2416 33.92 54.2326 33.914 54.2186C33.908 54.2066 33.906 54.1916 33.895 54.1816C33.893 54.1796 33.894 54.1796 33.892 54.1776L33.81 54.1096L33.804 54.0976C33.802 54.0916 33.806 54.0856 33.802 54.0776L33.769 54.0116C33.769 54.0096 33.767 54.0096 33.767 54.0096C33.762 53.9936 33.761 53.9786 33.749 53.9686L33.683 53.9006L33.599 53.8186C33.592 53.8106 33.583 53.8126 33.574 53.8066C33.566 53.8026 33.563 53.7926 33.553 53.7906L33.437 53.7576L33.32 53.7226C33.318 53.7226 33.316 53.7246 33.312 53.7246C33.31 53.7246 33.308 53.7206 33.306 53.7206L33.189 53.7026C33.183 53.7026 33.179 53.7066 33.174 53.7066C33.169 53.7066 33.165 53.7026 33.16 53.7026L33.026 53.7206C33.022 53.7206 33.02 53.7246 33.016 53.7266C33.012 53.7266 33.009 53.7246 33.006 53.7246L32.905 53.7576C32.902 53.7596 32.901 53.7616 32.899 53.7636C32.896 53.7656 32.894 53.7616 32.89 53.7636L32.824 53.7966C32.818 53.7986 32.818 53.8066 32.813 53.8106C32.808 53.8146 32.8 53.8126 32.796 53.8186L32.712 53.9006C32.712 53.9026 32.712 53.9026 32.711 53.9046L32.591 53.9656C32.585 53.9676 32.584 53.9736 32.578 53.9776C32.567 53.9876 32.56 53.9956 32.553 54.0086C32.548 54.0146 32.539 54.0186 32.536 54.0266L32.462 54.1026H32.458C32.454 54.1086 32.454 54.1186 32.45 54.1256C32.44 54.1356 32.429 54.1396 32.423 54.1506L32.374 54.2676C32.37 54.2756 32.374 54.2816 32.373 54.2886C32.37 54.2966 32.364 54.3006 32.364 54.3096V54.3366C32.364 54.3366 32.362 54.3386 32.362 54.3406C32.362 54.3676 32.378 54.3996 32.393 54.4146H32.395C32.413 54.4346 32.437 54.4436 32.464 54.4456L32.467 54.4476C32.469 54.4476 32.469 54.4476 32.471 54.4476C32.483 54.4476 32.492 54.4396 32.504 54.4336C32.517 54.4296 32.531 54.4276 32.543 54.4196V54.4176C32.564 54.3976 32.576 54.3706 32.576 54.3416V54.3276L32.597 54.2826V54.3076C32.597 54.3116 32.602 54.3156 32.602 54.3196C32.603 54.3256 32.599 54.3276 32.6 54.3336L32.618 54.3996C32.618 54.4056 32.624 54.4076 32.625 54.4116C32.626 54.4136 32.624 54.4176 32.626 54.4216L32.643 54.4546C32.645 54.4606 32.65 54.4626 32.653 54.4666C32.654 54.4686 32.653 54.4726 32.655 54.4746L32.722 54.5586C32.726 54.5626 32.732 54.5606 32.736 54.5646C32.74 54.5706 32.74 54.5766 32.746 54.5806L32.847 54.6466C32.85 54.6486 32.854 54.6486 32.858 54.6506C32.862 54.6506 32.862 54.6546 32.864 54.6566L32.981 54.7056C32.981 54.7076 32.983 54.7056 32.984 54.7076L32.986 54.7096L33.121 54.7606ZM30.4 54.3446C30.4 54.3466 30.403 54.3506 30.403 54.3526C30.403 54.3566 30.4 54.3586 30.4 54.3606V54.4776C30.4 54.4856 30.407 54.4916 30.409 54.4976C30.41 54.5076 30.406 54.5136 30.409 54.5206L30.46 54.6376C30.462 54.6436 30.468 54.6476 30.473 54.6516C30.476 54.6556 30.474 54.6616 30.476 54.6636L30.577 54.7806C30.582 54.7846 30.588 54.7826 30.592 54.7866C30.596 54.7926 30.596 54.7986 30.602 54.8026L30.736 54.8866C30.738 54.8866 30.74 54.8866 30.743 54.8886C30.743 54.8886 30.743 54.8906 30.745 54.8906L30.911 54.9746C30.917 54.9766 30.921 54.9766 30.926 54.9766C30.928 54.9786 30.929 54.9806 30.931 54.9826L31.115 55.0336C31.119 55.0336 31.121 55.0336 31.124 55.0336L31.309 55.0666C31.315 55.0686 31.322 55.0686 31.328 55.0686C31.339 55.0686 31.349 55.0686 31.358 55.0646L31.467 55.0336L31.453 55.0586C31.447 55.0666 31.451 55.0746 31.449 55.0856C31.445 55.0936 31.437 55.1016 31.437 55.1106V55.1456C31.437 55.1686 31.449 55.1926 31.463 55.2136C31.454 55.2236 31.451 55.2366 31.447 55.2506C31.446 55.2546 31.444 55.2566 31.444 55.2586C31.442 55.2666 31.436 55.2706 31.436 55.2786C31.436 55.2866 31.442 55.2926 31.444 55.2996C31.444 55.3116 31.439 55.3226 31.444 55.3366L31.495 55.4536C31.498 55.4596 31.505 55.4636 31.509 55.4676C31.511 55.4736 31.509 55.4776 31.513 55.4796L31.613 55.5966C31.619 55.6046 31.629 55.6026 31.635 55.6086C31.644 55.6146 31.649 55.6246 31.659 55.6296L31.71 55.6456C31.72 55.6496 31.731 55.6516 31.743 55.6516C31.788 55.6516 31.829 55.6246 31.845 55.5796C31.863 55.5226 31.833 55.4626 31.777 55.4426L31.756 55.4366L31.686 55.3546L31.643 55.2526C31.642 55.2506 31.641 55.2506 31.639 55.2506C31.636 55.2366 31.633 55.2276 31.626 55.2176C31.639 55.2016 31.65 55.1846 31.65 55.1606V55.1386L31.671 55.1056V55.1446C31.671 55.1526 31.679 55.1586 31.68 55.1656C31.682 55.1756 31.679 55.1836 31.682 55.1906L31.696 55.2156L31.705 55.2626C31.709 55.2726 31.719 55.2786 31.725 55.2876C31.729 55.2916 31.727 55.2996 31.732 55.3036L31.799 55.3696C31.801 55.3736 31.807 55.3716 31.809 55.3736C31.813 55.3756 31.812 55.3816 31.815 55.3836L31.915 55.4496C31.919 55.4516 31.923 55.4516 31.927 55.4536C31.93 55.4536 31.931 55.4576 31.933 55.4596L32.05 55.5086H32.052C32.054 55.5106 32.054 55.5106 32.054 55.5106L32.188 55.5616C32.201 55.5656 32.212 55.5676 32.225 55.5676H32.475C32.479 55.5676 32.485 55.5676 32.49 55.5676L32.606 55.5496C32.61 55.5496 32.612 55.5456 32.616 55.5436C32.627 55.5416 32.637 55.5416 32.647 55.5356L32.729 55.4866C32.733 55.4826 32.734 55.4786 32.738 55.4746C32.745 55.4686 32.75 55.4646 32.755 55.4566C32.758 55.4546 32.763 55.4566 32.765 55.4526L32.798 55.4016C32.798 55.3996 32.798 55.3996 32.798 55.3976L32.825 55.3766C32.829 55.3746 32.827 55.3686 32.831 55.3646C32.843 55.3546 32.854 55.3436 32.86 55.3276L32.868 55.3026C32.89 55.3256 32.923 55.3376 32.955 55.3376C32.981 55.3376 33.007 55.3296 33.026 55.3106C33.063 55.2736 33.067 55.2226 33.04 55.1836C33.038 55.1776 33.042 55.1736 33.04 55.1676L32.989 55.0506C32.985 55.0406 32.974 55.0366 32.968 55.0306C32.962 55.0206 32.956 55.0166 32.948 55.0106C32.948 55.0086 32.946 55.0086 32.946 55.0066L32.882 54.9166C32.876 54.9046 32.872 54.8896 32.862 54.8816L32.842 54.8246C32.84 54.8186 32.833 54.8146 32.83 54.8086C32.824 54.8006 32.824 54.7906 32.818 54.7836C32.817 54.7816 32.816 54.7816 32.816 54.7816L32.75 54.7156C32.749 54.7136 32.744 54.7136 32.742 54.7116C32.742 54.7116 32.742 54.7096 32.74 54.7096L32.657 54.6416C32.653 54.6376 32.646 54.6396 32.642 54.6376C32.638 54.6356 32.636 54.6296 32.632 54.6276L32.515 54.5766L32.399 54.5276C32.392 54.5236 32.384 54.5276 32.377 54.5256C32.371 54.5256 32.365 54.5176 32.357 54.5176H32.124C32.117 54.5176 32.113 54.5236 32.107 54.5256C32.101 54.5256 32.095 54.5216 32.089 54.5236L32.029 54.5436V54.4416C32.029 54.4166 32.017 54.3986 32.005 54.3806C32.003 54.3746 32.006 54.3706 32.004 54.3646L31.955 54.2526C31.955 54.2506 31.953 54.2506 31.953 54.2486C31.952 54.2466 31.953 54.2466 31.952 54.2446L31.935 54.2136C31.933 54.2096 31.931 54.2096 31.928 54.2076C31.927 54.2036 31.928 54.1996 31.927 54.1976L31.843 54.0826C31.841 54.0786 31.837 54.0786 31.834 54.0746L31.806 54.0046C31.802 53.9966 31.794 53.9946 31.79 53.9886C31.788 53.9846 31.788 53.9806 31.786 53.9766C31.782 53.9746 31.784 53.9706 31.782 53.9686L31.715 53.9006C31.714 53.8986 31.711 53.9006 31.71 53.8986C31.708 53.8986 31.708 53.8946 31.708 53.8946L31.608 53.8106C31.602 53.8066 31.594 53.8086 31.588 53.8066C31.582 53.8006 31.579 53.7926 31.572 53.7926L31.472 53.7576C31.47 53.7576 31.47 53.7596 31.47 53.7576C31.468 53.7576 31.467 53.7576 31.467 53.7576L31.351 53.7226C31.347 53.7226 31.345 53.7246 31.343 53.7246C31.34 53.7246 31.339 53.7206 31.335 53.7206L31.22 53.7026C31.214 53.7026 31.21 53.7066 31.204 53.7066C31.198 53.7066 31.194 53.7026 31.188 53.7026L31.071 53.7206C31.069 53.7206 31.066 53.7246 31.062 53.7266C31.059 53.7266 31.055 53.7246 31.053 53.7246L30.952 53.7576C30.955 53.7606 30.954 53.7606 30.954 53.7606C30.948 53.7626 30.94 53.7586 30.934 53.7606L30.85 53.7936C30.844 53.7976 30.842 53.8036 30.836 53.8076C30.83 53.8116 30.822 53.8116 30.816 53.8156C30.812 53.8196 30.814 53.8256 30.811 53.8296C30.808 53.8336 30.8 53.8356 30.798 53.8396L30.765 53.8946C30.759 53.9006 30.751 53.9006 30.745 53.9066L30.624 53.9676C30.622 53.9696 30.62 53.9736 30.618 53.9736C30.61 53.9776 30.604 53.9776 30.598 53.9836C30.596 53.9836 30.596 53.9856 30.594 53.9876L30.503 54.0636C30.497 54.0696 30.498 54.0776 30.492 54.0836C30.488 54.0896 30.478 54.0916 30.476 54.0976L30.458 54.1306C30.454 54.1386 30.458 54.1466 30.456 54.1536L30.405 54.2706C30.402 54.2786 30.406 54.2846 30.405 54.2916C30.403 54.2996 30.396 54.3036 30.396 54.3126V54.3446H30.4ZM31.629 49.6576L31.612 49.5576C31.611 49.5496 31.603 49.5456 31.601 49.5396C31.599 49.5336 31.603 49.5276 31.599 49.5216L31.533 49.4046C31.529 49.3986 31.521 49.3986 31.517 49.3926C31.513 49.3866 31.514 49.3806 31.509 49.3766L31.392 49.2766C31.39 49.2726 31.385 49.2746 31.382 49.2706C31.378 49.2706 31.378 49.2646 31.374 49.2626L31.224 49.1786C31.222 49.1786 31.218 49.1786 31.214 49.1786C31.21 49.1766 31.21 49.1726 31.206 49.1726L31.056 49.1216H31.055C31.053 49.1216 31.053 49.1196 31.051 49.1196L30.867 49.0686C30.859 49.0666 30.851 49.0726 30.844 49.0726C30.834 49.0706 30.828 49.0646 30.819 49.0666L30.659 49.0996L30.497 49.1156C30.489 49.1156 30.485 49.1236 30.479 49.1256C30.471 49.1276 30.465 49.1236 30.459 49.1276L30.325 49.1936L30.323 49.1956H30.32L30.203 49.2636C30.194 49.2676 30.193 49.2776 30.185 49.2846C30.179 49.2906 30.168 49.2926 30.164 49.3026L30.098 49.4196C30.094 49.4236 30.098 49.4276 30.095 49.4336C30.094 49.4376 30.088 49.4376 30.087 49.4436L30.053 49.5586C30.053 49.5626 30.055 49.5666 30.055 49.5686C30.055 49.5726 30.051 49.5766 30.05 49.5806L30.033 49.7796C30.033 49.7856 30.037 49.7896 30.037 49.7916C30.037 49.7956 30.033 49.7996 30.033 49.8056L30.051 49.9226C30.052 49.9306 30.059 49.9366 30.061 49.9426C30.063 49.9486 30.061 49.9566 30.064 49.9626L30.131 50.0796C30.133 50.0836 30.141 50.0836 30.145 50.0876C30.153 50.0956 30.153 50.1076 30.161 50.1126L30.278 50.1966L30.409 50.2946C30.417 50.2986 30.425 50.2986 30.431 50.3026C30.436 50.3046 30.438 50.3106 30.442 50.3106L30.61 50.3616C30.616 50.3636 30.622 50.3636 30.627 50.3636L30.63 50.3656L30.796 50.3836C30.8 50.3836 30.804 50.3836 30.808 50.3836H30.992C30.995 50.3836 30.999 50.3836 31.002 50.3836L31.17 50.3656C31.172 50.3656 31.174 50.3636 31.176 50.3616C31.186 50.3596 31.197 50.3596 31.206 50.3556L31.34 50.2896C31.342 50.2876 31.342 50.2836 31.344 50.2836C31.348 50.2816 31.352 50.2816 31.354 50.2796L31.471 50.1976C31.478 50.1916 31.478 50.1816 31.484 50.1766C31.487 50.1746 31.495 50.1746 31.499 50.1686L31.565 50.0686C31.569 50.0606 31.567 50.0546 31.569 50.0476C31.573 50.0396 31.581 50.0336 31.582 50.0266L31.599 49.9116L31.614 49.8116C31.615 49.8096 31.616 49.8096 31.616 49.8096L31.631 49.7056L31.633 49.6916C31.633 49.6856 31.629 49.6816 31.629 49.6756C31.625 49.6666 31.629 49.6626 31.629 49.6576ZM32.469 52.9446C32.463 52.9446 32.461 52.9386 32.455 52.9386L32.339 52.9206L32.223 52.9046C32.217 52.9026 32.213 52.9066 32.207 52.9066C32.201 52.9066 32.197 52.9026 32.192 52.9046L32.076 52.9206H32.072L31.972 52.9386C31.965 52.9406 31.962 52.9466 31.955 52.9486C31.948 52.9506 31.94 52.9486 31.934 52.9526L31.86 52.9976C31.857 52.9976 31.854 52.9996 31.85 53.0016C31.84 53.0076 31.829 53.0076 31.819 53.0156C31.817 53.0176 31.819 53.0216 31.815 53.0236C31.811 53.0276 31.807 53.0256 31.803 53.0296L31.752 53.0976C31.752 53.0996 31.752 53.0996 31.752 53.1016L31.635 53.1676L31.608 53.1816C31.601 53.1856 31.599 53.1956 31.593 53.1996C31.587 53.2056 31.578 53.2036 31.572 53.2096L31.5 53.2976C31.5 53.2996 31.498 53.2976 31.498 53.2996C31.498 53.2996 31.498 53.2996 31.498 53.3016L31.49 53.3096C31.486 53.3156 31.487 53.3216 31.484 53.3276C31.475 53.3376 31.463 53.3416 31.457 53.3546L31.407 53.4696C31.404 53.4776 31.408 53.4856 31.406 53.4906C31.404 53.4986 31.398 53.5026 31.398 53.5116C31.398 53.5196 31.404 53.5236 31.406 53.5316C31.408 53.5456 31.412 53.5526 31.419 53.5646C31.429 53.5826 31.441 53.5936 31.458 53.6056C31.461 53.6056 31.461 53.6076 31.463 53.6096C31.467 53.6116 31.469 53.6116 31.473 53.6116C31.485 53.6156 31.493 53.6276 31.505 53.6276C31.551 53.6276 31.582 53.5986 31.598 53.5596C31.6 53.5576 31.602 53.5576 31.604 53.5536L31.624 53.5066L31.638 53.5456C31.64 53.5496 31.642 53.5516 31.644 53.5536C31.645 53.5556 31.643 53.5576 31.644 53.5596L31.666 53.6046V53.6126C31.666 53.6266 31.675 53.6336 31.68 53.6456C31.683 53.6576 31.681 53.6686 31.69 53.6786L31.757 53.7626C31.76 53.7666 31.767 53.7646 31.771 53.7706C31.775 53.7746 31.775 53.7806 31.781 53.7846L31.881 53.8506C31.885 53.8526 31.889 53.8526 31.893 53.8546C31.895 53.8546 31.896 53.8606 31.899 53.8606L32.016 53.9116H32.018C32.02 53.9116 32.02 53.9136 32.02 53.9136L32.154 53.9626C32.167 53.9686 32.178 53.9706 32.191 53.9706H32.458C32.472 53.9706 32.487 53.9666 32.5 53.9606L32.617 53.9116C32.62 53.9096 32.622 53.9056 32.624 53.9036C32.629 53.8996 32.634 53.9016 32.64 53.8976L32.7 53.8526L32.707 53.8506C32.715 53.8446 32.727 53.8466 32.734 53.8386L32.801 53.7706C32.806 53.7666 32.804 53.7606 32.808 53.7566C32.814 53.7466 32.824 53.7406 32.828 53.7296L32.84 53.6906H32.841C32.86 53.7086 32.884 53.7196 32.91 53.7196L32.911 53.7176C32.915 53.7196 32.918 53.7236 32.922 53.7236C32.949 53.7236 32.975 53.7156 32.993 53.6966C33.029 53.6596 33.033 53.6146 33.01 53.5736L32.979 53.4686C32.978 53.4626 32.974 53.4626 32.973 53.4586C32.971 53.4546 32.973 53.4506 32.971 53.4486L32.955 53.4156C32.953 53.4096 32.947 53.4096 32.943 53.4056C32.942 53.4016 32.943 53.3956 32.94 53.3936L32.855 53.2936C32.854 53.2896 32.857 53.2836 32.855 53.2796L32.821 53.2136C32.816 53.2056 32.806 53.2036 32.8 53.1956C32.798 53.1916 32.797 53.1876 32.794 53.1856C32.792 53.1816 32.793 53.1796 32.792 53.1776L32.726 53.0936C32.724 53.0936 32.722 53.0936 32.721 53.0916C32.72 53.0896 32.72 53.0876 32.718 53.0856C32.716 53.0836 32.712 53.0836 32.711 53.0816C32.71 53.0796 32.71 53.0776 32.708 53.0776L32.625 53.0116C32.62 53.0076 32.614 53.0096 32.61 53.0076C32.606 53.0036 32.604 52.9976 32.6 52.9956L32.483 52.9446C32.479 52.9446 32.474 52.9466 32.469 52.9446ZM33.725 52.2096C33.722 52.2056 33.717 52.2076 33.713 52.2056C33.71 52.2036 33.709 52.1996 33.705 52.1976L33.605 52.1466C33.601 52.1446 33.597 52.1466 33.593 52.1466C33.589 52.1446 33.587 52.1386 33.583 52.1386L33.449 52.1056C33.444 52.1036 33.44 52.1076 33.436 52.1076C33.431 52.1076 33.428 52.1016 33.422 52.1016H33.19C33.183 52.1016 33.179 52.1076 33.172 52.1076C33.166 52.1096 33.161 52.1056 33.155 52.1076L33.054 52.1406C33.05 52.1426 33.05 52.1466 33.046 52.1486C33.042 52.1506 33.038 52.1486 33.033 52.1506L32.95 52.1996C32.932 52.2076 32.915 52.2116 32.903 52.2286L32.852 52.2946C32.851 52.2966 32.852 52.2986 32.85 52.2986L32.735 52.3666C32.724 52.3706 32.712 52.3686 32.702 52.3766L32.602 52.4606C32.602 52.4606 32.602 52.4626 32.6 52.4646C32.59 52.4746 32.586 52.4876 32.58 52.4996C32.574 52.5136 32.566 52.5226 32.565 52.5366C32.565 52.5386 32.564 52.5386 32.564 52.5426C32.561 52.5466 32.556 52.5466 32.555 52.5506L32.505 52.6676C32.501 52.6736 32.505 52.6816 32.504 52.6876C32.503 52.6956 32.496 52.7016 32.496 52.7086C32.496 52.7156 32.503 52.7226 32.504 52.7296C32.507 52.7416 32.511 52.7496 32.517 52.7606C32.527 52.7806 32.538 52.7896 32.556 52.8016C32.558 52.8016 32.559 52.8056 32.561 52.8056C32.564 52.8076 32.568 52.8076 32.57 52.8076C32.583 52.8136 32.591 52.8236 32.603 52.8236C32.649 52.8236 32.681 52.7946 32.696 52.7556C32.696 52.7556 32.701 52.7536 32.701 52.7496L32.73 52.6836V52.7086C32.73 52.7206 32.738 52.7286 32.742 52.7376C32.745 52.7476 32.742 52.7586 32.748 52.7686L32.764 52.7896V52.7916C32.764 52.8036 32.774 52.8126 32.778 52.8246C32.782 52.8346 32.78 52.8476 32.788 52.8576L32.854 52.9416C32.858 52.9456 32.864 52.9436 32.868 52.9476C32.874 52.9516 32.874 52.9596 32.879 52.9636L32.979 53.0296C32.979 53.0296 32.982 53.0296 32.984 53.0296C32.985 53.0316 32.986 53.0336 32.986 53.0336L33.103 53.0996C33.113 53.1056 33.123 53.1056 33.134 53.1096C33.136 53.1096 33.138 53.1136 33.142 53.1136L33.275 53.1296L33.409 53.1476C33.413 53.1476 33.418 53.1496 33.422 53.1496H33.425C33.43 53.1496 33.434 53.1476 33.438 53.1476L33.569 53.1296C33.571 53.1296 33.573 53.1296 33.573 53.1296L33.69 53.1136C33.696 53.1136 33.7 53.1056 33.706 53.1036C33.718 53.0996 33.729 53.0996 33.739 53.0916L33.801 53.0466C33.811 53.0406 33.824 53.0426 33.834 53.0326L33.9 52.9666C33.906 52.9606 33.904 52.9526 33.908 52.9466C33.915 52.9366 33.926 52.9286 33.928 52.9156L33.94 52.8686C33.96 52.8866 33.983 52.8956 34.008 52.8956C34.018 52.8956 34.028 52.8936 34.037 52.8916C34.045 52.8896 34.049 52.8816 34.057 52.8776C34.075 52.8676 34.086 52.8596 34.098 52.8446C34.1 52.8406 34.1 52.8386 34.103 52.8346C34.111 52.8186 34.124 52.8076 34.124 52.7896C34.124 52.7666 34.114 52.7506 34.104 52.7326L34.078 52.6426C34.075 52.6326 34.065 52.6266 34.06 52.6216C34.055 52.6116 34.058 52.6036 34.051 52.5966L34.034 52.5806L33.959 52.4926C33.959 52.4906 33.959 52.4906 33.959 52.4886L33.926 52.3886C33.924 52.3786 33.916 52.3766 33.911 52.3706C33.907 52.3646 33.906 52.3506 33.901 52.3476C33.9 52.3456 33.896 52.3476 33.895 52.3456C33.892 52.3436 33.893 52.3396 33.891 52.3376L33.808 52.2716L33.725 52.2096ZM36.534 51.5416C36.534 51.5376 36.528 51.5336 36.528 51.5296C36.528 51.5236 36.532 51.5216 36.53 51.5156L36.497 51.3806C36.495 51.3766 36.491 51.3746 36.489 51.3706C36.487 51.3646 36.489 51.3606 36.487 51.3546L36.403 51.2066C36.402 51.2026 36.399 51.2026 36.397 51.2006C36.395 51.1986 36.397 51.1966 36.395 51.1946L36.295 51.0596C36.291 51.0556 36.285 51.0556 36.281 51.0516C36.277 51.0476 36.279 51.0416 36.275 51.0396L36.125 50.9226C36.122 50.9206 36.119 50.9226 36.116 50.9206C36.113 50.9186 36.113 50.9146 36.111 50.9126L35.961 50.8286L35.833 50.7606L36.209 49.8286C36.209 49.8266 36.207 49.8226 36.209 49.8186C36.209 49.8146 36.213 49.8146 36.214 49.8086L36.231 49.7266C36.232 49.7226 36.229 49.7186 36.229 49.7166C36.229 49.7106 36.233 49.7086 36.233 49.7046V49.4876C36.233 49.4816 36.229 49.4796 36.228 49.4756C36.227 49.4696 36.231 49.4656 36.23 49.4616L36.213 49.3956L36.195 49.3296C36.194 49.3216 36.187 49.3196 36.185 49.3136C36.182 49.3076 36.185 49.3016 36.181 49.2956L36.151 49.2486L36.121 49.1896C36.118 49.1836 36.111 49.1816 36.107 49.1756C36.104 49.1716 36.105 49.1656 36.101 49.1596L36.076 49.1366L36.033 49.0646C36.029 49.0566 36.018 49.0546 36.012 49.0486C36.004 49.0406 36.001 49.0286 35.991 49.0256L35.95 49.0046L35.932 48.9776C35.928 48.9716 35.918 48.9716 35.913 48.9656C35.908 48.9596 35.908 48.9516 35.901 48.9476L35.851 48.9146C35.847 48.9126 35.843 48.9146 35.839 48.9126C35.836 48.9106 35.835 48.9066 35.831 48.9046L35.747 48.8716L35.664 48.8386C35.657 48.8346 35.651 48.8406 35.643 48.8386C35.64 48.8366 35.638 48.8346 35.635 48.8346L35.633 48.8326H35.629C35.627 48.8326 35.626 48.8306 35.623 48.8306L35.566 48.8166C35.56 48.8166 35.556 48.8186 35.552 48.8186C35.547 48.8186 35.544 48.8126 35.539 48.8126H35.372C35.368 48.8126 35.366 48.8166 35.362 48.8166C35.358 48.8186 35.356 48.8146 35.351 48.8166L35.268 48.8326C35.264 48.8326 35.262 48.8366 35.258 48.8386C35.255 48.8386 35.252 48.8366 35.248 48.8386L35.186 48.8636H35.172C35.162 48.8636 35.156 48.8716 35.149 48.8736C35.14 48.8756 35.132 48.8716 35.125 48.8756L35.058 48.9086C35.056 48.9106 35.054 48.9146 35.052 48.9146C35.048 48.9186 35.044 48.9166 35.042 48.9186L34.976 48.9676L34.931 48.9986C34.925 49.0026 34.925 49.0086 34.921 49.0126C34.915 49.0186 34.907 49.0166 34.903 49.0246L34.858 49.0836L34.813 49.1286C34.809 49.1346 34.809 49.1406 34.806 49.1466C34.802 49.1506 34.795 49.1526 34.793 49.1586L34.768 49.2096L34.747 49.2306C34.739 49.2386 34.74 49.2486 34.735 49.2576C34.73 49.2656 34.721 49.2696 34.718 49.2786L34.703 49.3396L34.672 49.4156C34.67 49.4216 34.674 49.4296 34.672 49.4356C34.671 49.4436 34.664 49.4476 34.664 49.4556V49.6056C34.664 49.6076 34.667 49.6096 34.667 49.6116C34.667 49.6136 34.665 49.6156 34.665 49.6196L34.785 50.6136L34.669 50.6346C34.666 50.6346 34.664 50.6386 34.661 50.6386C34.657 50.6406 34.654 50.6386 34.651 50.6386L34.467 50.7066H34.464L34.297 50.7726C34.294 50.7746 34.294 50.7786 34.29 50.7786C34.288 50.7806 34.283 50.7786 34.28 50.7806L34.147 50.8646C34.143 50.8666 34.143 50.8726 34.139 50.8766C34.135 50.8786 34.131 50.8766 34.127 50.8806L34.01 50.9976C34.006 51.0016 34.007 51.0076 34.004 51.0136C34 51.0196 33.993 51.0196 33.99 51.0256L33.924 51.1586C33.922 51.1606 33.924 51.1646 33.924 51.1666C33.922 51.1706 33.919 51.1706 33.918 51.1726L33.867 51.3226C33.865 51.3286 33.869 51.3346 33.869 51.3406C33.867 51.3466 33.861 51.3506 33.861 51.3566V51.5406C33.861 51.5466 33.867 51.5506 33.867 51.5546C33.867 51.5586 33.863 51.5626 33.865 51.5686L33.898 51.7016C33.9 51.7076 33.904 51.7076 33.906 51.7136C33.907 51.7156 33.905 51.7196 33.906 51.7236L33.972 51.8566C33.976 51.8626 33.982 51.8666 33.986 51.8706C33.988 51.8726 33.986 51.8786 33.988 51.8806L34.105 52.0136C34.107 52.0156 34.109 52.0156 34.111 52.0176C34.113 52.0196 34.113 52.0216 34.115 52.0236L34.255 52.1396C34.256 52.1416 34.258 52.1396 34.258 52.1416C34.258 52.1416 34.258 52.1436 34.26 52.1436L34.41 52.2606C34.415 52.2646 34.422 52.2646 34.429 52.2666C34.433 52.2706 34.434 52.2746 34.439 52.2766L34.623 52.3426C34.624 52.3446 34.626 52.3426 34.626 52.3446H34.628L34.845 52.4106C34.846 52.4126 34.848 52.4106 34.849 52.4126H34.851L35.05 52.4636C35.054 52.4636 35.057 52.4636 35.06 52.4636V52.4656L35.277 52.4986C35.283 52.4986 35.288 52.4986 35.294 52.4986C35.299 52.4986 35.305 52.4986 35.311 52.4986L35.52 52.4656H35.521L35.705 52.4476C35.705 52.4476 35.706 52.4476 35.708 52.4476C35.715 52.4456 35.722 52.4456 35.729 52.4436L35.929 52.3776L35.93 52.3756C35.932 52.3756 35.934 52.3756 35.934 52.3756L36.101 52.3096C36.105 52.3076 36.106 52.3016 36.11 52.2996C36.115 52.2976 36.121 52.2976 36.126 52.2956L36.26 52.1956C36.264 52.1916 36.263 52.1856 36.267 52.1836C36.269 52.1796 36.275 52.1816 36.277 52.1776L36.377 52.0606C36.38 52.0586 36.379 52.0546 36.381 52.0526C36.382 52.0506 36.386 52.0506 36.387 52.0486L36.471 51.9156C36.473 51.9096 36.471 51.9056 36.473 51.9016C36.475 51.8956 36.481 51.8936 36.483 51.8876L36.516 51.7706V51.7686L36.517 51.7666L36.534 51.7006C36.536 51.6966 36.532 51.6926 36.532 51.6866C36.532 51.6826 36.538 51.6786 36.538 51.6726V51.5416H36.534ZM39.352 48.8256C39.347 48.8296 39.34 48.8276 39.336 48.8336C39.331 48.8376 39.332 48.8436 39.328 48.8496C39.322 48.8536 39.315 48.8536 39.31 48.8596L39.248 48.9376L39.236 48.9496C39.208 48.9616 39.183 48.9806 39.175 49.0116L39.141 49.1286C39.139 49.1346 39.144 49.1386 39.143 49.1446C39.142 49.1506 39.137 49.1526 39.137 49.1586C39.137 49.1706 39.144 49.1786 39.148 49.1856C39.151 49.1996 39.153 49.2086 39.16 49.2186C39.174 49.2386 39.189 49.2496 39.211 49.2576C39.213 49.2596 39.213 49.2616 39.215 49.2616C39.217 49.2616 39.217 49.2616 39.219 49.2616C39.229 49.2656 39.235 49.2736 39.244 49.2736C39.296 49.2736 39.333 49.2406 39.343 49.1936C39.344 49.1916 39.347 49.1896 39.347 49.1896L39.35 49.1796C39.35 49.1776 39.352 49.1776 39.352 49.1756V49.1726L39.368 49.1176C39.368 49.1156 39.37 49.1176 39.37 49.1156H39.372V49.1746C39.372 49.1806 39.378 49.1846 39.379 49.1906C39.38 49.1966 39.375 49.2026 39.377 49.2086L39.394 49.2596C39.398 49.2696 39.408 49.2776 39.414 49.2846C39.418 49.2906 39.416 49.2966 39.421 49.3006C39.422 49.3026 39.424 49.3006 39.425 49.3026L39.49 49.4026C39.494 49.4066 39.502 49.4066 39.506 49.4106C39.512 49.4166 39.514 49.4266 39.521 49.4316L39.621 49.4976C39.625 49.4996 39.63 49.4996 39.633 49.5016C39.636 49.5036 39.636 49.5056 39.639 49.5056L39.755 49.5566C39.759 49.5586 39.763 49.5586 39.767 49.5586C39.769 49.5606 39.771 49.5626 39.771 49.5626L39.906 49.5956C39.914 49.5976 39.923 49.5996 39.931 49.5996H40.181C40.187 49.5996 40.191 49.5976 40.197 49.5976L40.314 49.5816C40.32 49.5796 40.324 49.5736 40.331 49.5716C40.343 49.5656 40.355 49.5656 40.365 49.5576L40.449 49.4916L40.532 49.4256C40.535 49.4236 40.535 49.4176 40.538 49.4136C40.549 49.4036 40.56 49.3926 40.566 49.3766L40.574 49.3516C40.594 49.3716 40.619 49.3826 40.648 49.3826C40.707 49.3826 40.755 49.3336 40.755 49.2756V49.2426C40.755 49.2346 40.748 49.2306 40.745 49.2216C40.745 49.2156 40.749 49.2076 40.745 49.2016L40.696 49.0846C40.692 49.0766 40.684 49.0746 40.68 49.0686C40.676 49.0626 40.678 49.0566 40.672 49.0506L40.658 49.0346L40.578 48.9406C40.578 48.9386 40.576 48.9386 40.576 48.9386C40.574 48.9346 40.577 48.9306 40.575 48.9266L40.542 48.8606C40.541 48.8586 40.537 48.8586 40.537 48.8546C40.535 48.8526 40.537 48.8506 40.535 48.8486L40.469 48.7486C40.468 48.7466 40.466 48.7466 40.466 48.7466C40.463 48.7426 40.464 48.7366 40.461 48.7346C40.455 48.7286 40.449 48.7306 40.443 48.7266C40.439 48.7226 40.439 48.7166 40.435 48.7146L40.351 48.6636H40.349L40.232 48.5976C40.226 48.5936 40.219 48.5976 40.212 48.5956C40.205 48.5916 40.202 48.5856 40.194 48.5836L40.077 48.5676C40.075 48.5656 40.072 48.5696 40.069 48.5696C40.066 48.5696 40.065 48.5656 40.061 48.5656H39.829C39.825 48.5656 39.823 48.5696 39.82 48.5696C39.817 48.5696 39.814 48.5676 39.811 48.5676L39.71 48.5856C39.705 48.5856 39.702 48.5916 39.695 48.5936C39.691 48.5956 39.685 48.5916 39.679 48.5956L39.579 48.6446C39.573 48.6486 39.573 48.6546 39.567 48.6566C39.563 48.6626 39.556 48.6606 39.551 48.6646C39.549 48.6686 39.549 48.6726 39.545 48.6766C39.543 48.6806 39.543 48.6846 39.541 48.6886C39.536 48.6966 39.527 48.7006 39.523 48.7086L39.5 48.7316C39.496 48.7356 39.498 48.7416 39.494 48.7456L39.361 48.8116C39.358 48.8156 39.357 48.8216 39.352 48.8256ZM41 44.2566L40.984 44.1396C40.982 44.1336 40.976 44.1296 40.973 44.1216C40.971 44.1156 40.974 44.1076 40.97 44.1016L40.904 43.9846C40.9 43.9786 40.892 43.9766 40.888 43.9726C40.884 43.9666 40.884 43.9606 40.879 43.9546L40.778 43.8726H40.776C40.775 43.8706 40.774 43.8686 40.774 43.8686L40.641 43.7666C40.635 43.7646 40.627 43.7666 40.621 43.7626C40.615 43.7586 40.613 43.7526 40.607 43.7506L40.439 43.6996C40.437 43.6996 40.435 43.7016 40.433 43.6996C40.431 43.6996 40.429 43.6996 40.428 43.6976L40.244 43.6646C40.241 43.6646 40.237 43.6666 40.235 43.6666C40.231 43.6666 40.228 43.6626 40.225 43.6626H40.057C40.053 43.6626 40.051 43.6666 40.047 43.6666C40.043 43.6666 40.041 43.6626 40.037 43.6646L39.869 43.6976C39.867 43.6996 39.865 43.7016 39.863 43.7016C39.861 43.7016 39.859 43.6996 39.857 43.7016L39.707 43.7526C39.698 43.7546 39.695 43.7646 39.687 43.7666C39.68 43.7726 39.671 43.7726 39.665 43.7786L39.564 43.8786C39.563 43.8806 39.564 43.8826 39.562 43.8846C39.56 43.8866 39.558 43.8846 39.556 43.8866L39.49 43.9706C39.486 43.9766 39.488 43.9846 39.484 43.9916C39.48 43.9976 39.472 44.0016 39.47 44.0076L39.437 44.1246C39.437 44.1266 39.439 44.1286 39.438 44.1306C39.437 44.1346 39.435 44.1346 39.435 44.1366L39.402 44.3376C39.4 44.3456 39.406 44.3516 39.406 44.3586C39.407 44.3686 39.402 44.3746 39.404 44.3816L39.437 44.5006C39.439 44.5046 39.443 44.5066 39.445 44.5126C39.447 44.5146 39.445 44.5206 39.447 44.5246L39.514 44.6396C39.515 44.6456 39.521 44.6436 39.525 44.6456C39.527 44.6516 39.527 44.6576 39.531 44.6636L39.648 44.7786C39.652 44.7846 39.66 44.7826 39.665 44.7866C39.67 44.7906 39.671 44.7966 39.676 44.8006L39.81 44.8666H39.813C39.814 44.8686 39.815 44.8686 39.815 44.8686L39.964 44.9346C39.971 44.9366 39.977 44.9366 39.984 44.9386C39.986 44.9406 39.987 44.9406 39.989 44.9426L40.173 44.9736C40.179 44.9756 40.185 44.9776 40.192 44.9776H40.377C40.383 44.9776 40.391 44.9756 40.399 44.9736L40.548 44.9406C40.55 44.9406 40.552 44.9386 40.554 44.9386C40.559 44.9366 40.564 44.9366 40.569 44.9346L40.718 44.8686C40.722 44.8666 40.722 44.8626 40.724 44.8626C40.73 44.8606 40.734 44.8606 40.738 44.8566L40.855 44.7746C40.861 44.7706 40.861 44.7606 40.867 44.7546C40.871 44.7506 40.879 44.7506 40.882 44.7466L40.948 44.6446C40.955 44.6416 40.953 44.6336 40.955 44.6276C40.958 44.6196 40.965 44.6136 40.967 44.6046L40.985 44.4876C40.985 44.4876 40.983 44.4856 40.983 44.4836C40.983 44.4836 40.985 44.4836 40.985 44.4816L41.003 44.2806C41.003 44.2766 40.999 44.2746 40.998 44.2686C40.997 44.2646 41.001 44.2606 41 44.2566ZM43.209 48.0326C43.206 48.0326 43.203 48.0346 43.2 48.0346C43.193 48.0386 43.185 48.0366 43.179 48.0406L43.173 48.0466C43.173 48.0466 43.171 48.0466 43.169 48.0466C43.169 48.0486 43.168 48.0486 43.168 48.0486L43.098 48.1056L43.033 48.1546C43.041 48.1406 43.053 48.1276 43.053 48.1096V48.0766C43.053 48.0666 43.047 48.0626 43.044 48.0556C43.043 48.0476 43.047 48.0416 43.043 48.0346L42.994 47.9176C42.99 47.9116 42.982 47.9096 42.978 47.9036C42.974 47.8956 42.976 47.8896 42.97 47.8836L42.959 47.8716L42.882 47.7646C42.88 47.7606 42.876 47.7606 42.874 47.7586L42.847 47.6746C42.844 47.6666 42.835 47.6646 42.831 47.6566C42.827 47.6486 42.827 47.6386 42.822 47.6316C42.822 47.6316 42.819 47.6316 42.817 47.6296L42.76 47.5726C42.758 47.5706 42.758 47.5686 42.758 47.5686C42.752 47.5626 42.747 47.5646 42.742 47.5626C42.738 47.5606 42.74 47.5546 42.736 47.5526L42.636 47.4866C42.634 47.4846 42.63 47.4866 42.628 47.4846C42.626 47.4846 42.626 47.4806 42.624 47.4806L42.524 47.4296C42.518 47.4276 42.512 47.4296 42.506 47.4276C42.5 47.4256 42.496 47.4196 42.49 47.4196L42.381 47.4036L42.272 47.3706C42.261 47.3686 42.252 47.3766 42.242 47.3766C42.232 47.3766 42.223 47.3686 42.214 47.3706L42.103 47.4036L42.009 47.4196C42.003 47.4196 42.001 47.4256 41.997 47.4276C41.981 47.4296 41.968 47.4256 41.954 47.4336L41.871 47.4826C41.867 47.4846 41.867 47.4906 41.864 47.4926C41.858 47.4966 41.852 47.4946 41.848 47.4986C41.846 47.5026 41.846 47.5046 41.844 47.5106C41.844 47.5106 41.841 47.5106 41.84 47.5126L41.799 47.5656C41.794 47.5696 41.789 47.5656 41.785 47.5696L41.651 47.6516C41.648 47.6556 41.648 47.6596 41.644 47.6636C41.64 47.6656 41.634 47.6636 41.632 47.6676L41.63 47.6696H41.628C41.628 47.6696 41.628 47.6696 41.628 47.6716L41.543 47.7556C41.51 47.7736 41.483 47.8026 41.483 47.8436V47.8556L41.442 47.9516C41.439 47.9596 41.442 47.9656 41.442 47.9726C41.44 47.9806 41.432 47.9866 41.432 47.9936C41.432 47.9996 41.44 48.0076 41.442 48.0136C41.444 48.0256 41.448 48.0346 41.454 48.0466C41.464 48.0646 41.475 48.0746 41.493 48.0866L41.47 48.0796L41.383 48.0206C41.378 48.0166 41.37 48.0206 41.364 48.0166C41.358 48.0146 41.356 48.0086 41.349 48.0066L41.215 47.9716C41.211 47.9716 41.207 47.9756 41.201 47.9736C41.197 47.9736 41.193 47.9696 41.189 47.9696H40.956C40.949 47.9696 40.945 47.9756 40.939 47.9756C40.933 47.9776 40.927 47.9716 40.921 47.9756L40.821 48.0086C40.819 48.0086 40.819 48.0106 40.817 48.0106H40.815L40.739 48.0416H40.737L40.731 48.0436C40.719 48.0476 40.715 48.0616 40.707 48.0666C40.696 48.0766 40.683 48.0806 40.677 48.0936L40.672 48.1016L40.646 48.1196C40.642 48.1216 40.643 48.1276 40.64 48.1296C40.637 48.1316 40.632 48.1316 40.629 48.1336C40.626 48.1396 40.626 48.1456 40.622 48.1496C40.62 48.1496 40.62 48.1496 40.618 48.1496L40.502 48.2176C40.497 48.2196 40.497 48.2256 40.493 48.2276C40.489 48.2316 40.483 48.2316 40.479 48.2336C40.475 48.2396 40.475 48.2456 40.471 48.2496C40.467 48.2536 40.459 48.2536 40.455 48.2596L40.383 48.3436C40.358 48.3556 40.334 48.3746 40.322 48.4026L40.271 48.5176C40.269 48.5256 40.273 48.5336 40.271 48.5386C40.269 48.5466 40.263 48.5526 40.263 48.5596C40.263 48.5666 40.269 48.5736 40.271 48.5796C40.273 48.5936 40.277 48.6006 40.284 48.6126C40.294 48.6326 40.305 48.6416 40.324 48.6536C40.324 48.6536 40.326 48.6576 40.328 48.6576C40.332 48.6596 40.334 48.6596 40.338 48.6596C40.35 48.6656 40.358 48.6756 40.371 48.6756C40.416 48.6756 40.448 48.6466 40.463 48.6096C40.465 48.6076 40.467 48.6056 40.469 48.6016L40.496 48.5376V48.5766C40.496 48.5906 40.506 48.5966 40.508 48.6076C40.512 48.6156 40.508 48.6276 40.515 48.6366L40.543 48.6796C40.547 48.6876 40.543 48.6956 40.549 48.7026L40.615 48.8026C40.619 48.8106 40.627 48.8086 40.633 48.8126C40.64 48.8206 40.641 48.8326 40.651 48.8356L40.768 48.9036C40.77 48.9036 40.774 48.9036 40.776 48.9056C40.778 48.9056 40.779 48.9076 40.779 48.9076L40.896 48.9586L41.012 49.0096C41.026 49.0136 41.039 49.0176 41.054 49.0176H41.321C41.331 49.0176 41.341 49.0156 41.35 49.0136L41.467 48.9806C41.473 48.9786 41.475 48.9706 41.481 48.9686C41.489 48.9646 41.498 48.9666 41.504 48.9606L41.578 48.9016L41.601 48.8876C41.603 48.8876 41.605 48.8836 41.607 48.8816C41.623 48.8716 41.634 48.8586 41.644 48.8406C41.646 48.8346 41.653 48.8326 41.656 48.8266L41.664 48.8186C41.668 48.8126 41.666 48.8066 41.67 48.8006C41.676 48.7926 41.686 48.7866 41.69 48.7756L41.702 48.7406C41.703 48.7386 41.703 48.7366 41.704 48.7346C41.724 48.7636 41.755 48.7836 41.788 48.7836C41.805 48.7836 41.821 48.7796 41.836 48.7716C41.89 48.7446 41.911 48.6796 41.884 48.6266L41.872 48.6016L41.84 48.5076C41.835 48.4936 41.823 48.4876 41.815 48.4786C41.81 48.4726 41.806 48.4666 41.8 48.4626C41.793 48.4566 41.788 48.4486 41.78 48.4446L41.729 48.3856V48.3736C41.729 48.3636 41.721 48.3596 41.718 48.3506C41.717 48.3426 41.721 48.3346 41.717 48.3276L41.684 48.2596C41.682 48.2576 41.678 48.2576 41.676 48.2536C41.672 48.2476 41.672 48.2396 41.668 48.2336C41.66 48.2256 41.649 48.2276 41.641 48.2216L41.625 48.2016C41.625 48.1956 41.619 48.1896 41.617 48.1836C41.615 48.1696 41.611 48.1586 41.603 48.1466C41.594 48.1366 41.585 48.1286 41.573 48.1216C41.566 48.1176 41.562 48.1096 41.554 48.1056L41.544 48.1016C41.587 48.0996 41.616 48.0746 41.63 48.0376C41.63 48.0356 41.634 48.0336 41.635 48.0316L41.663 47.9656V47.9906C41.663 48.0006 41.671 48.0066 41.673 48.0136C41.675 48.0206 41.671 48.0316 41.675 48.0366L41.688 48.0616L41.703 48.1066C41.705 48.1126 41.711 48.1146 41.713 48.1206C41.715 48.1246 41.713 48.1286 41.716 48.1326L41.781 48.2326C41.785 48.2386 41.793 48.2366 41.797 48.2426C41.804 48.2486 41.805 48.2586 41.812 48.2626L41.913 48.3286C41.919 48.3346 41.927 48.3326 41.933 48.3346C41.937 48.3366 41.939 48.3406 41.943 48.3426L42.06 48.3756L42.177 48.4106C42.181 48.4126 42.187 48.4126 42.191 48.4126C42.193 48.4126 42.193 48.4126 42.195 48.4126L42.344 48.4306C42.348 48.4306 42.352 48.4306 42.356 48.4306H42.472C42.487 48.4306 42.501 48.4286 42.515 48.4226L42.628 48.3736L42.712 48.3386C42.714 48.3386 42.714 48.3366 42.714 48.3366C42.733 48.3326 42.751 48.3286 42.765 48.3156L42.831 48.2496C42.835 48.2456 42.835 48.2396 42.838 48.2336C42.845 48.2256 42.853 48.2196 42.858 48.2086L42.867 48.1856C42.885 48.2036 42.912 48.2146 42.939 48.2146C42.943 48.2146 42.945 48.2126 42.947 48.2126L42.879 48.2696C42.869 48.2756 42.857 48.2736 42.848 48.2836L42.764 48.3656C42.76 48.3716 42.762 48.3776 42.758 48.3836C42.754 48.3896 42.748 48.3896 42.744 48.3956L42.728 48.4286C42.727 48.4306 42.728 48.4306 42.728 48.4326C42.722 48.4406 42.71 48.4446 42.707 48.4536L42.673 48.5356C42.671 48.5436 42.675 48.5496 42.674 48.5566C42.672 48.5626 42.665 48.5686 42.665 48.5746V48.6096C42.665 48.6686 42.714 48.7166 42.772 48.7166C42.83 48.7166 42.879 48.6676 42.879 48.6096V48.5956L42.881 48.5876V48.6086C42.881 48.6356 42.892 48.6636 42.912 48.6826L42.914 48.6846V48.6906C42.914 48.7176 42.925 48.7456 42.945 48.7666L43.012 48.8326C43.015 48.8346 43.018 48.8346 43.021 48.8366C43.023 48.8386 43.023 48.8426 43.026 48.8446L43.142 48.9286C43.148 48.9326 43.156 48.9326 43.162 48.9346C43.166 48.9366 43.166 48.9406 43.172 48.9426L43.268 48.9756L43.401 49.0246C43.409 49.0286 43.416 49.0286 43.422 49.0286C43.424 49.0306 43.424 49.0306 43.426 49.0306L43.559 49.0466C43.563 49.0486 43.567 49.0486 43.572 49.0486C43.576 49.0486 43.581 49.0486 43.587 49.0466L43.718 49.0306C43.718 49.0306 43.72 49.0306 43.722 49.0306L43.845 49.0126C43.85 49.0126 43.852 49.0086 43.856 49.0066C43.866 49.0046 43.876 49.0046 43.885 48.9986L43.969 48.9496C43.973 48.9456 43.973 48.9396 43.977 48.9376C43.984 48.9316 43.989 48.9276 43.995 48.9216C43.997 48.9176 44.001 48.9196 44.003 48.9156L44.036 48.8646C44.038 48.8626 44.036 48.8586 44.038 48.8546L44.063 48.8236C44.066 48.8196 44.065 48.8176 44.067 48.8136C44.069 48.8096 44.074 48.8076 44.076 48.8036L44.093 48.7706L44.104 48.7496C44.109 48.7556 44.115 48.7556 44.121 48.7596C44.125 48.7636 44.129 48.7636 44.135 48.7676C44.149 48.7756 44.163 48.7886 44.182 48.7886C44.23 48.7886 44.264 48.7576 44.278 48.7166C44.279 48.7146 44.28 48.7106 44.282 48.7066C44.283 48.7006 44.29 48.6966 44.29 48.6886V48.6726C44.29 48.6626 44.282 48.6586 44.28 48.6516C44.28 48.6436 44.284 48.6376 44.28 48.6306L44.23 48.5136C44.225 48.5036 44.215 48.4996 44.208 48.4926C44.203 48.4846 44.196 48.4806 44.19 48.4766C44.182 48.4706 44.179 48.4606 44.17 48.4566L44.116 48.3946C44.115 48.3926 44.117 48.3906 44.117 48.3886L44.083 48.2886C44.08 48.2806 44.072 48.2786 44.068 48.2706C44.062 48.2626 44.064 48.2546 44.058 48.2476H44.056L43.99 48.1816C43.99 48.1796 43.99 48.1816 43.988 48.1796C43.988 48.1796 43.988 48.1796 43.988 48.1776C43.986 48.1756 43.981 48.1776 43.978 48.1756C43.976 48.1736 43.976 48.1696 43.974 48.1676L43.874 48.1016C43.87 48.0996 43.868 48.1016 43.866 48.0996C43.864 48.0996 43.864 48.0956 43.862 48.0936L43.761 48.0446C43.758 48.0426 43.754 48.0446 43.751 48.0446C43.747 48.0426 43.746 48.0386 43.742 48.0366L43.626 48.0036C43.62 48.0016 43.616 48.0056 43.611 48.0056C43.605 48.0056 43.601 47.9996 43.595 47.9996H43.362C43.358 47.9996 43.356 48.0016 43.354 48.0036C43.351 48.0036 43.35 47.9996 43.346 47.9996L43.229 48.0176C43.222 48.0206 43.217 48.0286 43.209 48.0326ZM45.968 46.0476L45.934 45.9126C45.933 45.9066 45.926 45.9046 45.924 45.8986C45.922 45.8926 45.924 45.8866 45.921 45.8806L45.838 45.7476C45.838 45.7476 45.834 45.7476 45.834 45.7456C45.834 45.7436 45.834 45.7416 45.832 45.7416L45.732 45.6066C45.73 45.6026 45.725 45.6046 45.722 45.6006C45.72 45.5966 45.72 45.5926 45.717 45.5906L45.583 45.4736C45.581 45.4716 45.577 45.4736 45.573 45.4716C45.571 45.4696 45.571 45.4656 45.567 45.4616L45.401 45.3616C45.399 45.3596 45.397 45.3616 45.393 45.3596C45.393 45.3596 45.391 45.3576 45.39 45.3556L45.273 45.3026L45.661 44.3766C45.665 44.3686 45.66 44.3626 45.661 44.3556C45.663 44.3496 45.669 44.3436 45.669 44.3356V44.2806L45.683 44.2276C45.685 44.2236 45.681 44.2196 45.681 44.2136C45.682 44.2096 45.687 44.2056 45.687 44.2016V44.0336C45.687 44.0276 45.682 44.0256 45.681 44.0216C45.681 44.0156 45.685 44.0116 45.683 44.0076L45.667 43.9416L45.649 43.8756C45.647 43.8696 45.641 43.8656 45.639 43.8596C45.635 43.8536 45.639 43.8476 45.635 43.8416L45.604 43.7966L45.575 43.7356C45.573 43.7336 45.571 43.7316 45.569 43.7296C45.569 43.7276 45.569 43.7256 45.568 43.7236L45.535 43.6726C45.534 43.6706 45.532 43.6706 45.532 43.6706V43.6686L45.481 43.6026C45.478 43.5966 45.471 43.5986 45.467 43.5946C45.463 43.5906 45.464 43.5826 45.459 43.5786L45.393 43.5296C45.39 43.5276 45.386 43.5296 45.383 43.5256C45.379 43.5256 45.379 43.5216 45.377 43.5196L45.353 43.5076L45.293 43.4626C45.291 43.4606 45.289 43.4626 45.287 43.4606C45.285 43.4586 45.285 43.4586 45.283 43.4566L45.2 43.4056C45.195 43.4036 45.189 43.4056 45.183 43.4036C45.179 43.4016 45.175 43.3956 45.17 43.3936L45.103 43.3776C45.099 43.3756 45.095 43.3796 45.091 43.3776C45.089 43.3776 45.089 43.3776 45.089 43.3776H45.087L45.083 43.3756C45.081 43.3756 45.079 43.3736 45.077 43.3736H45.076L45.02 43.3596C45.014 43.3596 45.01 43.3616 45.006 43.3616C45.001 43.3616 44.998 43.3556 44.993 43.3556H44.826C44.822 43.3556 44.82 43.3596 44.816 43.3596C44.812 43.3616 44.81 43.3576 44.804 43.3596L44.722 43.3756L44.638 43.3936C44.626 43.3936 44.621 43.4056 44.613 43.4096C44.603 43.4156 44.592 43.4136 44.584 43.4216L44.574 43.4336L44.521 43.4436C44.511 43.4456 44.505 43.4556 44.496 43.4616C44.487 43.4676 44.475 43.4656 44.467 43.4736L44.418 43.5246L44.373 43.5696L44.312 43.6146C44.309 43.6166 44.31 43.6186 44.308 43.6206C44.306 43.6226 44.302 43.6226 44.3 43.6246L44.267 43.6576C44.262 43.6616 44.263 43.6696 44.259 43.6736C44.256 43.6796 44.249 43.6796 44.247 43.6856L44.214 43.7516L44.183 43.8126L44.154 43.8576C44.148 43.8656 44.152 43.8736 44.149 43.8806C44.146 43.8876 44.138 43.8926 44.136 43.9006L44.12 44.0006C44.12 44.0026 44.122 44.0066 44.122 44.0086C44.122 44.0126 44.118 44.0146 44.118 44.0186V44.0736L44.104 44.1266C44.102 44.1326 44.108 44.1386 44.108 44.1466C44.107 44.1526 44.1 44.1586 44.102 44.1666L44.223 45.1686L44.098 45.1996L43.922 45.2326C43.916 45.2326 43.912 45.2386 43.907 45.2426C43.9 45.2426 43.894 45.2406 43.888 45.2426L43.738 45.3266C43.736 45.3286 43.736 45.3326 43.734 45.3346C43.73 45.3346 43.727 45.3346 43.724 45.3366L43.575 45.4516C43.573 45.4536 43.574 45.4576 43.572 45.4596C43.57 45.4596 43.566 45.4596 43.564 45.4616L43.464 45.5636C43.462 45.5656 43.462 45.5676 43.46 45.5716C43.458 45.5736 43.454 45.5736 43.452 45.5756L43.37 45.6926C43.364 45.6986 43.367 45.7066 43.364 45.7136C43.36 45.7196 43.354 45.7236 43.352 45.7316L43.319 45.8816C43.317 45.8856 43.321 45.8896 43.321 45.8936C43.319 45.8976 43.315 45.8996 43.315 45.9056V46.0716C43.315 46.0756 43.319 46.0776 43.321 46.0836C43.321 46.0876 43.317 46.0916 43.319 46.0956L43.352 46.2456C43.352 46.2496 43.358 46.2536 43.36 46.2576C43.36 46.2616 43.358 46.2656 43.36 46.2696L43.426 46.4046C43.428 46.4066 43.432 46.4086 43.435 46.4126C43.436 46.4146 43.436 46.4186 43.436 46.4206L43.538 46.5536C43.54 46.5576 43.544 46.5556 43.547 46.5596C43.55 46.5636 43.549 46.5676 43.553 46.5696L43.687 46.6866C43.688 46.6886 43.691 46.6886 43.693 46.6886C43.694 46.6906 43.693 46.6946 43.695 46.6946L43.863 46.8116C43.868 46.8136 43.874 46.8136 43.879 46.8156C43.883 46.8176 43.884 46.8236 43.887 46.8236L44.071 46.8916H44.075L44.274 46.9576C44.277 46.9576 44.279 46.9576 44.282 46.9576C44.283 46.9596 44.284 46.9616 44.284 46.9616L44.501 47.0106C44.507 47.0126 44.511 47.0126 44.517 47.0126L44.734 47.0306C44.738 47.0306 44.74 47.0306 44.743 47.0306C44.746 47.0306 44.748 47.0306 44.752 47.0306L44.955 47.0126L45.156 46.9966C45.161 46.9946 45.168 46.9946 45.173 46.9926L45.373 46.9436C45.379 46.9436 45.379 46.9356 45.385 46.9356C45.392 46.9316 45.401 46.9316 45.406 46.9276L45.552 46.8296L45.687 46.7456C45.691 46.7436 45.691 46.7396 45.695 46.7356C45.697 46.7336 45.703 46.7336 45.707 46.7316L45.822 46.6146C45.828 46.6086 45.826 46.6026 45.83 46.5966C45.832 46.5946 45.838 46.5946 45.84 46.5906L45.906 46.4736C45.909 46.4696 45.906 46.4656 45.908 46.4616C45.91 46.4556 45.916 46.4536 45.918 46.4456L45.951 46.3126L45.968 46.2466C45.969 46.2426 45.965 46.2386 45.965 46.2346C45.967 46.2286 45.971 46.2246 45.971 46.2206V46.0706C45.971 46.0646 45.967 46.0626 45.965 46.0566C45.965 46.0566 45.969 46.0516 45.968 46.0476Z" fill="white"/>
<path d="M33.135 92.0286L29.879 90.1496V64.3506L32.42 65.8256C32.438 65.8356 32.455 65.8416 32.475 65.8416H32.484C32.499 65.8476 32.51 65.8576 32.524 65.8576H32.591C32.596 65.8576 32.599 65.8536 32.603 65.8536C32.625 65.8536 32.649 65.8456 32.667 65.8266L32.672 65.8226C32.681 65.8186 32.693 65.8186 32.7 65.8086L32.71 65.8006L33.136 65.5706L33.135 92.0286Z" fill="white"/>
<path d="M35.336 51.5736C35.335 51.5756 35.334 51.5756 35.332 51.5756C35.33 51.5756 35.328 51.5736 35.324 51.5756L35.292 51.5856H35.143L35.117 51.5776L35.106 51.5716L35.085 51.5506C35.081 51.5466 35.073 51.5486 35.069 51.5446C35.067 51.5426 35.067 51.5426 35.066 51.5406V51.4686L35.071 51.4586C35.074 51.4526 35.071 51.4466 35.073 51.4406C35.075 51.4346 35.081 51.4306 35.082 51.4226L35.11 51.2096L35.159 51.2276C35.171 51.2296 35.181 51.2336 35.192 51.2336H35.229L35.284 51.2476C35.293 51.2496 35.302 51.2496 35.309 51.2496H35.36C35.362 51.2496 35.364 51.2496 35.366 51.2496L35.337 51.4626C35.337 51.4646 35.339 51.4666 35.339 51.4706C35.339 51.4726 35.337 51.4746 35.337 51.4766V51.5096L35.336 51.5736Z" fill="white"/>
<path d="M29.242 63.7396L22.043 59.5696V52.7666H22.045L22.055 52.7726C22.071 52.7806 22.086 52.7846 22.102 52.7846H22.108L22.11 52.7866L22.128 52.8026L22.161 52.8356C22.163 52.8376 22.167 52.8376 22.169 52.8396C22.171 52.8416 22.171 52.8456 22.173 52.8476L32.355 60.3966L32.382 60.4226L32.415 60.4556L32.449 60.4886L32.457 60.4986L32.477 60.5276L32.49 60.5646C32.494 60.5746 32.503 60.5826 32.511 60.5896L32.524 60.6286L32.536 60.6636V60.6796C32.536 60.6896 32.543 60.6956 32.545 60.7026C32.547 60.7096 32.543 60.7186 32.547 60.7276L32.553 60.7376V65.6066L32.547 65.6166C32.543 65.6246 32.547 65.6326 32.546 65.6396C32.533 65.6356 32.524 65.6236 32.51 65.6236H32.504L29.828 64.0706L29.242 63.7396Z" fill="white"/>
<path d="M18.81 18.9466C18.812 18.9466 18.812 18.9466 18.812 18.9466L18.873 18.9606L18.92 18.9956L18.986 19.0466L19.062 19.1056L19.119 19.1646L19.166 19.2256C19.168 19.2296 19.174 19.2276 19.176 19.2316C19.18 19.2356 19.18 19.2416 19.184 19.2456L19.25 19.2966L19.289 19.3766C19.289 19.3786 19.291 19.3786 19.293 19.3806V19.3826L19.336 19.4566L19.365 19.5466C19.367 19.5506 19.373 19.5526 19.375 19.5586C19.377 19.5606 19.375 19.5646 19.377 19.5666L19.416 19.6326L19.428 19.7086L19.844 26.0506V26.2066L19.84 26.2186C19.836 26.2226 19.84 26.2266 19.838 26.2326C19.836 26.2386 19.83 26.2406 19.83 26.2466L19.82 26.2896C19.82 26.2896 19.82 26.2896 19.818 26.2916C19.812 26.2976 19.8 26.2996 19.795 26.3076L19.762 26.3586L19.746 26.3816L19.738 26.3856L19.717 26.3936H19.65C19.65 26.3936 19.65 26.3936 19.648 26.3936C19.648 26.3936 19.648 26.3936 19.646 26.3936L18.763 26.4266L13.411 26.5616H13.247C13.239 26.5616 13.233 26.5676 13.226 26.5696C13.22 26.5696 13.212 26.5656 13.205 26.5696L13.094 26.6166L12.996 26.6496C12.986 26.6536 12.982 26.6636 12.975 26.6696C12.968 26.6756 12.955 26.6736 12.95 26.6836L12.87 26.7796L12.79 26.8596C12.786 26.8636 12.786 26.8696 12.784 26.8736C12.78 26.8776 12.774 26.8776 12.772 26.8816L12.706 26.9986C12.702 27.0046 12.706 27.0106 12.704 27.0166C12.702 27.0226 12.696 27.0226 12.694 27.0306L12.661 27.1806L12.628 27.3116C12.628 27.3136 12.63 27.3196 12.63 27.3236C12.63 27.3276 12.626 27.3316 12.626 27.3376V27.6536C12.626 27.6556 12.628 27.6556 12.628 27.6596C12.628 27.6596 12.626 27.6616 12.626 27.6636L12.642 27.8476C12.642 27.8496 12.646 27.8516 12.646 27.8516C12.646 27.8536 12.644 27.8556 12.644 27.8576L12.677 28.0256C12.677 28.0276 12.679 28.0276 12.679 28.0276C12.681 28.0296 12.679 28.0316 12.679 28.0336L12.73 28.2176C12.73 28.2196 12.734 28.2196 12.734 28.2216C12.734 28.2256 12.734 28.2276 12.734 28.2296L22.597 52.0886V52.1936L22.501 52.2576L22.472 52.2716C22.472 52.2716 22.472 52.2716 22.47 52.2716C22.47 52.2736 22.47 52.2716 22.468 52.2736L21.902 52.5896C21.892 52.5956 21.89 52.6076 21.882 52.6126C21.874 52.6226 21.862 52.6246 21.857 52.6336L21.841 52.6666C21.837 52.6746 21.841 52.6846 21.839 52.6916C21.837 52.7016 21.829 52.7056 21.829 52.7146V59.6346C21.829 59.6406 21.835 59.6446 21.835 59.6486C21.837 59.6626 21.843 59.6716 21.851 59.6836C21.857 59.6976 21.865 59.7066 21.874 59.7166C21.878 59.7186 21.878 59.7246 21.884 59.7266L29.084 63.8986V90.3656L0 73.5646V12.7706L18.803 18.9446C18.805 18.9446 18.807 18.9446 18.81 18.9466Z" fill="white"/>
<path d="M32.811 59.9816L32.434 60.1886L22.428 52.7706L22.812 52.5376L32.811 59.9816Z" fill="white"/>
<path d="M33.135 65.2356L32.764 65.4366V60.8116L33.135 60.6106V65.2356Z" fill="white"/>
<path d="M32.726 60.5636L32.709 60.5126C32.705 60.5046 32.697 60.5006 32.692 60.4926C32.689 60.4906 32.69 60.4846 32.686 60.4806L32.675 60.4456C32.673 60.4396 32.667 60.4396 32.665 60.4356C32.663 60.4296 32.665 60.4236 32.661 60.4196L32.628 60.3706C32.626 60.3666 32.622 60.3666 32.62 60.3626C32.617 60.3606 32.618 60.3566 32.615 60.3526C32.612 60.3486 32.606 60.3506 32.602 60.3466C32.6 60.3446 32.601 60.3406 32.598 60.3386L32.998 60.1216L33.006 60.1296L33.033 60.1706C33.037 60.1766 33.047 60.1766 33.052 60.1806C33.057 60.1866 33.061 60.1926 33.067 60.1966L33.072 60.2126L33.089 60.2636L33.105 60.3146C33.11 60.3246 33.119 60.3326 33.126 60.3416C33.126 60.3416 33.126 60.3416 33.127 60.3436C33.128 60.3476 33.125 60.3556 33.128 60.3616L33.132 60.3676L32.732 60.5846L32.726 60.5636Z" fill="white"/>
<path d="M42.321 40.3156C42.318 40.3116 42.313 40.3156 42.309 40.3116C42.303 40.3096 42.301 40.3036 42.295 40.3016L33.109 18.0726L33.137 18.0586L42.329 40.3206L42.321 40.3156Z" fill="white"/>
<path d="M13.42 26.9966L13.451 26.8736L13.476 26.7686L18.349 26.6476L15.179 28.4716C15.167 28.4776 15.165 28.4896 15.158 28.5006C15.148 28.5106 15.137 28.5166 15.135 28.5296C15.129 28.5436 15.133 28.5566 15.135 28.5706C15.135 28.5826 15.129 28.5916 15.135 28.6036L22.07 45.4126C22.07 45.4126 22.07 45.4126 22.07 45.4146L22.97 47.5646C22.97 47.5666 22.974 47.5666 22.976 47.5706C22.976 47.5726 22.976 47.5746 22.976 47.5766C22.978 47.5806 22.982 47.5786 22.984 47.5806C23.004 47.6116 23.035 47.6296 23.07 47.6296C23.084 47.6296 23.097 47.6276 23.109 47.6216C23.113 47.6216 23.113 47.6196 23.115 47.6176C23.117 47.6156 23.121 47.6176 23.123 47.6156L39.264 38.2936H39.265C39.283 38.2816 39.298 38.2686 39.307 38.2486C39.308 38.2466 39.308 38.2446 39.308 38.2446C39.309 38.2406 39.309 38.2386 39.309 38.2366C39.315 38.2226 39.311 38.2116 39.31 38.1976C39.309 38.1856 39.315 38.1746 39.309 38.1646C39.309 38.1626 39.31 38.1626 39.309 38.1606L31.489 19.2196C31.489 19.2156 31.485 19.2156 31.485 19.2136C31.483 19.2096 31.485 19.2076 31.483 19.2056C31.479 19.1976 31.469 19.1956 31.463 19.1896C31.457 19.1836 31.457 19.1756 31.449 19.1696C31.445 19.1676 31.441 19.1696 31.439 19.1676C31.432 19.1636 31.429 19.1616 31.423 19.1596C31.413 19.1556 31.404 19.1576 31.394 19.1576C31.381 19.1576 31.371 19.1556 31.359 19.1596C31.355 19.1616 31.353 19.1576 31.349 19.1596C31.347 19.1616 31.347 19.1636 31.343 19.1656C31.341 19.1656 31.339 19.1636 31.336 19.1656L20.622 25.3376L20.614 25.2696L32.888 18.1956L42.06 40.3906L23.205 51.2726L13.516 27.8116L13.467 27.6356L13.422 27.4656V27.2956C13.422 27.2936 13.418 27.2936 13.418 27.2896C13.418 27.2876 13.422 27.2856 13.42 27.2836L13.406 27.1466L13.42 26.9966ZM27.973 48.1476C27.975 48.1516 27.978 48.1516 27.979 48.1556C27.981 48.1576 27.979 48.1596 27.981 48.1616C27.981 48.1656 27.987 48.1636 27.989 48.1656C28.009 48.1946 28.038 48.2146 28.073 48.2146C28.086 48.2146 28.099 48.2126 28.112 48.2066C28.114 48.2066 28.115 48.2046 28.117 48.2026C28.12 48.2006 28.124 48.2026 28.126 48.2006L36.847 43.1476C36.859 43.1396 36.861 43.1276 36.868 43.1206C36.877 43.1106 36.888 43.1026 36.892 43.0876C36.897 43.0756 36.893 43.0626 36.891 43.0486C36.891 43.0366 36.897 43.0276 36.891 43.0156L35.841 40.4956C35.84 40.4936 35.837 40.4936 35.836 40.4916C35.834 40.4876 35.836 40.4856 35.834 40.4836C35.828 40.4716 35.816 40.4696 35.807 40.4626C35.798 40.4556 35.789 40.4426 35.776 40.4396C35.763 40.4356 35.751 40.4376 35.735 40.4396C35.724 40.4396 35.714 40.4356 35.702 40.4396C35.699 40.4416 35.699 40.4436 35.696 40.4456C35.694 40.4456 35.692 40.4436 35.69 40.4456L26.985 45.4656C26.975 45.4716 26.971 45.4836 26.964 45.4926C26.955 45.5026 26.945 45.5106 26.939 45.5236C26.935 45.5376 26.937 45.5486 26.939 45.5646C26.939 45.5746 26.935 45.5856 26.939 45.5976L27.973 48.1476Z" fill="white"/>
<path d="M38.981 38.2116L23.121 47.3696L22.303 45.4186L36.682 37.1216L38.981 38.2116Z" fill="white"/>
<path d="M23.055 51.4656V51.4696L23.121 51.6186L23.154 51.6946L22.756 51.9096L12.965 28.2256L13.361 28.0006L23.055 51.4656Z" fill="white"/>
<path d="M13.289 27.7956L12.896 28.0206L12.884 27.9756L12.853 27.8156L12.837 27.6436V27.3426L12.866 27.2236C12.866 27.2216 12.866 27.2216 12.866 27.2216C12.866 27.2216 12.866 27.2196 12.868 27.2196L12.897 27.0866L12.948 26.9946L13.023 26.9226C13.025 26.9206 13.023 26.9186 13.025 26.9166C13.027 26.9146 13.027 26.9166 13.029 26.9146L13.093 26.8386L13.163 26.8136C13.165 26.8136 13.165 26.8136 13.165 26.8116C13.169 26.8116 13.171 26.8116 13.171 26.8116L13.255 26.7766L13.243 26.8216L13.21 26.9546C13.21 26.9566 13.212 26.9586 13.21 26.9626C13.21 26.9666 13.208 26.9666 13.208 26.9706L13.19 27.1366C13.19 27.1406 13.194 27.1446 13.194 27.1506C13.194 27.1526 13.19 27.1566 13.19 27.1606L13.206 27.3036V27.4816C13.206 27.4876 13.212 27.4916 13.212 27.4956C13.212 27.5016 13.21 27.5056 13.21 27.5116L13.261 27.6956L13.289 27.7956Z" fill="white"/>
<path d="M18.82 18.7256L0.160004 12.5986L0.484001 12.4206L0.924004 12.5736V12.5756L19.127 18.5416L18.82 18.7256Z" fill="white"/>
<path d="M19.566 19.4656L19.535 19.3756C19.533 19.3716 19.529 19.3696 19.527 19.3656C19.525 19.3616 19.527 19.3576 19.525 19.3536L19.478 19.2756L19.429 19.1776C19.425 19.1696 19.415 19.1676 19.411 19.1616C19.405 19.1556 19.407 19.1456 19.399 19.1406L19.327 19.0836L19.286 19.0266C19.282 19.0246 19.28 19.0246 19.278 19.0226C19.276 19.0206 19.276 19.0166 19.276 19.0146L19.208 18.9486C19.208 18.9466 19.204 18.9466 19.202 18.9446C19.202 18.9446 19.202 18.9426 19.2 18.9406L19.116 18.8746C19.116 18.8746 19.116 18.8746 19.114 18.8746C19.114 18.8726 19.114 18.8726 19.114 18.8726L19.057 18.8316L19.409 18.6186L19.419 18.6266C19.427 18.6306 19.437 18.6306 19.444 18.6346C19.45 18.6386 19.452 18.6426 19.458 18.6446L19.509 18.6586L19.568 18.6936L19.621 18.7466L19.683 18.8266C19.685 18.8266 19.687 18.8266 19.689 18.8286C19.691 18.8286 19.689 18.8326 19.691 18.8346L19.755 18.8966L19.81 18.9666L19.855 19.0566C19.857 19.0586 19.857 19.0586 19.859 19.0606V19.0626L19.906 19.1406L19.953 19.2366L19.982 19.3086L19.988 19.3246L19.605 19.5316L19.566 19.4656Z" fill="white"/>
<path d="M19.654 26.6046H19.734C19.746 26.6046 19.755 26.6006 19.767 26.5966L19.818 26.5806C19.82 26.5806 19.82 26.5766 19.822 26.5766C19.826 26.5766 19.828 26.5766 19.832 26.5746L19.865 26.5566C19.869 26.5566 19.869 26.5506 19.871 26.5506L20.33 26.2676H20.334C20.371 26.2676 20.404 26.2476 20.424 26.2166L20.436 26.2126C20.438 26.2126 20.438 26.2106 20.44 26.2086C20.442 26.2086 20.446 26.2086 20.45 26.2066L20.483 26.1886C20.495 26.1846 20.499 26.1726 20.506 26.1636C20.512 26.1596 20.52 26.1616 20.524 26.1536L20.557 26.1026L20.59 26.0536C20.596 26.0436 20.594 26.0326 20.596 26.0246C20.6 26.0126 20.61 26.0046 20.61 25.9936V25.9706L20.631 25.9276C20.635 25.9176 20.631 25.9096 20.633 25.9006C20.635 25.8926 20.643 25.8886 20.643 25.8796V25.5736L31.05 19.5796L30.048 21.0816L15.684 29.3786L15.368 28.6106L18.798 26.6356L19.654 26.6046Z" fill="white"/>
<path d="M39.007 37.9876L36.76 36.9226L30.244 21.1726L31.368 19.4856L39.007 37.9876Z" fill="white"/>
<path d="M20.021 19.5496L20.361 24.8016L20.363 24.8076V24.8136L20.379 24.9076L20.394 25.2196H20.396L20.394 25.2236L20.428 25.5186V25.6356L20.047 25.8646L19.644 19.7546L20.021 19.5496Z" fill="white"/>
<path d="M38.733 8.26258L38.705 8.27858L20.096 19.0436L20.094 19.0416L20.092 19.0376L20.045 18.9596L19.996 18.8626L19.992 18.8586L38.717 8.03058L38.733 8.26258Z" fill="white"/>
<path d="M20.379 25.9876L20.361 26.0126H20.359L20.318 26.0286C20.312 26.0306 20.312 26.0346 20.308 26.0366C20.304 26.0406 20.298 26.0366 20.294 26.0406L20.058 26.1856V26.1066L20.406 25.8976C20.402 25.9056 20.406 25.9156 20.404 25.9226C20.402 25.9296 20.394 25.9366 20.394 25.9456V25.9636L20.379 25.9876Z" fill="white"/>
<path d="M19.848 18.6866L19.786 18.6086C19.784 18.6066 19.782 18.6086 19.78 18.6066C19.778 18.6046 19.778 18.6026 19.776 18.6006L19.712 18.5346C19.708 18.5306 19.702 18.5326 19.698 18.5286C19.694 18.5246 19.694 18.5206 19.69 18.5166L19.606 18.4676C19.602 18.4636 19.596 18.4676 19.59 18.4656C19.584 18.4616 19.582 18.4576 19.576 18.4556L19.531 18.4436L19.498 18.4186L38.024 7.71958L38.547 7.88158L19.851 18.6926L19.848 18.6866Z" fill="white"/>
<path d="M33.348 92.0346V65.3626L33.718 65.1626V91.8326L33.348 92.0346Z" fill="white"/>
<path d="M43.686 40.2956L44.058 40.0656L54.206 47.6276L53.842 47.8306L43.686 40.2956Z" fill="white"/>
<path d="M54.132 48.2176C54.131 48.2096 54.135 48.1996 54.131 48.1926L54.113 48.1596L54.096 48.1266C54.095 48.1246 54.092 48.1246 54.091 48.1226C54.09 48.1186 54.091 48.1166 54.09 48.1146L54.056 48.0656C54.054 48.0616 54.05 48.0616 54.046 48.0596C54.044 48.0556 54.046 48.0516 54.043 48.0476L54.034 48.0396L54.006 47.9966C54.004 47.9946 53.999 47.9946 53.997 47.9906C53.997 47.9906 53.997 47.9906 53.996 47.9886L54.391 47.7676L54.412 47.7986C54.414 47.8026 54.419 47.8006 54.421 47.8026C54.423 47.8066 54.423 47.8126 54.425 47.8146C54.427 47.8166 54.43 47.8166 54.43 47.8166L54.462 47.8656C54.464 47.8696 54.468 47.8676 54.471 47.8716C54.471 47.8716 54.472 47.8716 54.472 47.8736L54.484 47.9086C54.484 47.9106 54.488 47.9126 54.489 47.9146C54.49 47.9166 54.488 47.9186 54.49 47.9206L54.503 47.9476L54.512 47.9746V47.9906C54.512 48.0006 54.52 48.0066 54.522 48.0136L54.137 48.2286C54.137 48.2256 54.133 48.2216 54.132 48.2176Z" fill="white"/>
<path d="M33.932 91.7116V65.0436L51.844 54.6786V81.3466L33.932 91.7116ZM37.753 85.3606C37.753 85.3706 37.762 85.3766 37.764 85.3856C37.767 85.3956 37.763 85.4056 37.768 85.4126C37.77 85.4166 37.776 85.4166 37.778 85.4186C37.798 85.4456 37.825 85.4656 37.86 85.4656C37.88 85.4656 37.897 85.4616 37.915 85.4516L48.02 79.5976C48.024 79.5956 48.024 79.5916 48.028 79.5876C48.04 79.5776 48.046 79.5676 48.053 79.5546C48.059 79.5426 48.065 79.5336 48.067 79.5196C48.067 79.5136 48.073 79.5116 48.073 79.5056V70.6166C48.073 70.6066 48.065 70.6006 48.061 70.5916C48.059 70.5836 48.063 70.5716 48.059 70.5646C48.055 70.5586 48.049 70.5586 48.046 70.5566C48.038 70.5446 48.027 70.5386 48.014 70.5316C48.002 70.5236 47.993 70.5176 47.979 70.5176C47.973 70.5156 47.971 70.5116 47.965 70.5116C47.955 70.5116 47.948 70.5196 47.94 70.5216C47.93 70.5236 47.92 70.5196 47.913 70.5256L37.808 76.3456C37.804 76.3476 37.804 76.3536 37.8 76.3576C37.788 76.3656 37.782 76.3756 37.775 76.3886C37.768 76.4006 37.761 76.4096 37.761 76.4236C37.759 76.4296 37.754 76.4316 37.754 76.4376L37.753 85.3606ZM48.306 58.9966C48.306 58.9846 48.297 58.9786 48.295 58.9696C48.293 58.9606 48.296 58.9516 48.291 58.9446C48.289 58.9386 48.283 58.9386 48.279 58.9346C48.271 58.9226 48.261 58.9186 48.248 58.9116C48.236 58.9036 48.227 58.8976 48.212 58.8956C48.207 58.8936 48.203 58.8896 48.199 58.8896C48.188 58.8896 48.181 58.8976 48.173 58.9016C48.164 58.9036 48.154 58.8996 48.146 58.9056L37.491 65.0406C37.486 65.0446 37.485 65.0486 37.483 65.0526C37.471 65.0606 37.464 65.0726 37.458 65.0856C37.451 65.0976 37.445 65.1056 37.443 65.1186C37.442 65.1266 37.437 65.1286 37.437 65.1326V74.7226C37.437 74.7326 37.445 74.7386 37.448 74.7476C37.45 74.7576 37.446 74.7656 37.452 74.7746C37.454 74.7786 37.46 74.7766 37.462 74.7806C37.482 74.8076 37.509 74.8276 37.544 74.8276C37.563 74.8276 37.581 74.8236 37.597 74.8136L48.253 68.6436C48.257 68.6416 48.258 68.6356 48.262 68.6316C48.273 68.6236 48.279 68.6136 48.286 68.6006C48.293 68.5886 48.3 68.5776 48.301 68.5656C48.302 68.5596 48.307 68.5576 48.307 68.5516L48.306 58.9966Z" fill="white"/>
<path d="M39.184 14.3156L38.025 14.9966L33.705 17.4656L33.704 17.4676L33.138 17.8156L32.927 17.9306L32.893 17.9466L32.891 17.9506H32.888L20.6 25.0346L20.596 24.9556L39.18 14.2356L39.184 14.3156Z" fill="white"/>
<path d="M51.899 54.4016H51.897L33.775 64.8896L33.348 65.1196V61.0416L53.928 49.1596V53.2196L53.831 53.2846L52.465 54.0846L51.899 54.4016Z" fill="white"/>
<path d="M54.176 48.4536L54.529 48.2566V52.8796L54.176 53.0766V48.4536Z" fill="white"/>
<path d="M33.325 17.9506L33.707 17.7156L43.011 40.2396L42.616 40.4536L33.325 17.9506Z" fill="white"/>
<path d="M52.057 81.2256V54.5576L52.411 54.3606V81.0286L52.057 81.2256Z" fill="white"/>
<path d="M39.506 8.26258L39.883 8.03558L40.284 14.1806L39.907 14.3956L39.506 8.26258Z" fill="white"/>
<path d="M39.918 14.6356L40.265 14.4386L40.26 14.4526L40.25 14.4756C40.248 14.4796 40.25 14.4816 40.248 14.4836C40.248 14.4856 40.244 14.4876 40.243 14.4896L40.23 14.5266L40.22 14.5426L40.213 14.5466C40.206 14.5486 40.206 14.5546 40.201 14.5586C40.196 14.5626 40.189 14.5606 40.184 14.5646L40.161 14.5896L39.909 14.7326L39.913 14.7166C39.915 14.7126 39.911 14.7086 39.911 14.7046C39.912 14.6986 39.917 14.6966 39.917 14.6906V14.6396L39.918 14.6356Z" fill="white"/>
<path d="M20.004 1.14158L20.328 0.965576L39.163 7.12758L38.85 7.30358L20.004 1.14158Z" fill="white"/>
<path d="M39.466 8.01658L39.449 7.93258C39.447 7.92858 39.442 7.92458 39.439 7.91858C39.439 7.91458 39.441 7.91058 39.439 7.90458L39.406 7.83858L39.355 7.73858C39.354 7.73458 39.35 7.73458 39.347 7.73058C39.346 7.72858 39.347 7.72458 39.345 7.72058L39.296 7.65458L39.245 7.58858L39.195 7.52258C39.192 7.51858 39.185 7.51858 39.181 7.51458C39.177 7.51058 39.178 7.50458 39.174 7.50058L39.112 7.45558L39.077 7.42058L39.441 7.21758L39.456 7.22158L39.506 7.24658L39.54 7.26758L39.611 7.33958L39.656 7.40058L39.707 7.46658L39.752 7.52558L39.777 7.57658L39.807 7.67058C39.808 7.67458 39.812 7.67458 39.812 7.67858C39.814 7.68058 39.812 7.68258 39.813 7.68458L39.839 7.73958L39.853 7.80158L39.466 8.03358V8.01658Z" fill="white"/>
<path d="M38.852 7.54158C38.856 7.54358 38.861 7.54358 38.865 7.54558C38.868 7.54758 38.869 7.55158 38.872 7.55158L38.934 7.57658L38.969 7.61158C38.971 7.61358 38.974 7.61358 38.976 7.61558C38.979 7.61558 38.979 7.61958 38.981 7.62158L39.035 7.66258L39.076 7.71758L39.126 7.78358L39.171 7.84458L39.217 7.93458L39.243 7.98958L39.257 8.05758L39.275 8.14158L39.291 8.21758L39.706 14.5766V14.6776L39.693 14.7306C39.691 14.7346 39.695 14.7386 39.695 14.7426C39.694 14.7486 39.689 14.7526 39.689 14.7566V14.7816L39.675 14.8086L39.67 14.8146C39.667 14.8166 39.668 14.8206 39.665 14.8246C39.663 14.8266 39.658 14.8266 39.657 14.8306L39.623 14.8816L39.606 14.9066L39.592 14.9146C39.59 14.9146 39.589 14.9166 39.589 14.9166C39.588 14.9186 39.586 14.9166 39.585 14.9186L39.563 14.9326H39.512C39.51 14.9326 39.51 14.9346 39.51 14.9346L39.507 14.9326L38.493 14.9696L39.347 14.4656C39.353 14.4616 39.353 14.4556 39.357 14.4516C39.369 14.4416 39.375 14.4316 39.38 14.4206C39.388 14.4066 39.393 14.3976 39.394 14.3836C39.395 14.3776 39.4 14.3736 39.4 14.3676L39.384 14.0516C39.383 14.0456 39.378 14.0416 39.377 14.0376C39.375 14.0296 39.374 14.0216 39.37 14.0146C39.368 14.0106 39.37 14.0066 39.368 14.0046C39.366 13.9986 39.359 13.9966 39.355 13.9926C39.35 13.9866 39.344 13.9806 39.336 13.9746C39.33 13.9706 39.33 13.9626 39.323 13.9586L39.277 13.9376L38.869 8.42758L38.896 8.41158C38.902 8.40758 38.902 8.39958 38.907 8.39558C38.918 8.38558 38.924 8.37758 38.93 8.36458C38.937 8.35258 38.941 8.34358 38.943 8.32758C38.943 8.32158 38.949 8.31758 38.949 8.30958L38.915 7.84258C38.914 7.83458 38.906 7.83058 38.905 7.82258C38.902 7.81458 38.905 7.80658 38.901 7.79958L38.9 7.79758C38.898 7.79158 38.892 7.79158 38.888 7.78758C38.879 7.77758 38.868 7.76958 38.857 7.76458C38.85 7.76058 38.847 7.75258 38.84 7.75058L38.836 7.74858L38.042 7.50058H38.04L19.838 1.53758V1.31358L38.815 7.51658L38.852 7.54158Z" fill="white"/>
<path d="M19.205 18.3426L1.219 12.4466L19.746 1.73358L37.75 7.62958L19.205 18.3426Z" fill="white"/>
</svg>
