<svg width="75" height="88" viewBox="0 0 75 88" fill="none" xmlns="http://www.w3.org/2000/svg">
<path d="M74.3138 4.53208C74.2366 4.395 74.132 4.27537 74.0063 4.18072C73.8807 4.08606 73.7368 4.01843 73.5838 3.98208C72.9456 3.93592 72.3135 4.13234 71.8138 4.53208L71.6938 4.60208C70.6938 5.20208 69.6938 5.76208 68.6938 6.27208C67.5638 6.87208 66.4238 7.44208 65.2738 8.01208L64.4638 8.42208C62.8338 8.06208 61.1638 7.77208 59.5438 7.49208H59.3938C59.1738 5.49208 58.9638 3.49208 58.7438 1.49208C58.7518 1.26587 58.6899 1.04269 58.5664 0.852992C58.4429 0.663291 58.2639 0.516303 58.0538 0.432078C57.9045 0.397163 57.7498 0.392447 57.5986 0.418206C57.4475 0.443966 57.3031 0.499682 57.1738 0.582078C50.3253 4.10021 44.1076 8.72967 38.7738 14.2821C38.4375 14.6062 38.2252 15.0378 38.1738 15.5021C38.1738 16.2521 38.1738 17.0021 38.1738 17.7221C38.1738 18.1621 38.1738 18.5921 38.1738 19.0221C38.1738 19.4521 38.1738 20.0221 38.1138 20.5821C38.1138 21.2621 38.0438 21.9421 38.0438 22.5821C37.9438 25.5821 37.8038 28.8321 37.6038 33.0621C37.4371 36.5887 37.2471 40.1187 37.0338 43.6521C36.8138 47.2221 36.5838 50.7821 36.3338 54.2421C36.2038 56.0221 36.0638 57.8021 35.9238 59.5921C35.638 59.4817 35.3437 59.3947 35.0438 59.3321C34.1072 59.1726 33.1504 59.1726 32.2138 59.3321C32.1621 59.3405 32.1146 59.3655 32.0785 59.4035C32.0424 59.4414 32.0197 59.49 32.0138 59.5421V59.7421C31.3438 59.6721 31.1638 59.7421 31.0138 59.8121C30.2471 59.6521 29.3071 59.5121 28.1938 59.3921H27.9738C24.9038 59.0821 21.6338 59.0421 21.5538 59.0421C21.4738 59.0421 18.2538 59.0421 15.1838 59.3921H14.9638C13.8538 59.5121 12.9038 59.6521 12.1338 59.8121C12.0438 59.8121 11.8538 59.6721 11.1938 59.7421V59.5421C11.1879 59.49 11.1652 59.4414 11.1291 59.4035C11.093 59.3655 11.0455 59.3405 10.9938 59.3321C10.0606 59.1726 9.10703 59.1726 8.1738 59.3321C7.31719 59.5188 6.50096 59.8575 5.7638 60.3321C5.7303 60.3537 5.7027 60.3832 5.6835 60.4182C5.66429 60.4531 5.65409 60.4922 5.6538 60.5321V60.6621H5.5638C5.2938 60.7321 5.1038 60.7921 4.9638 60.8421C4.82241 60.885 4.69154 60.9569 4.57961 61.0534C4.46767 61.1498 4.37713 61.2686 4.3138 61.4021C3.54004 62.969 2.87189 64.586 2.3138 66.2421C1.53669 68.5929 0.941597 71 0.533796 73.4421C-0.131169 76.708 -0.175271 80.0699 0.403796 83.3521C0.487782 84.0831 0.732094 84.7866 1.1193 85.4124C1.5065 86.0381 2.02705 86.5707 2.6438 86.9721C2.90541 87.1216 3.19451 87.2169 3.4938 87.2521L5.4138 87.5521H5.6338C5.90577 87.5502 6.17251 87.4772 6.40756 87.3403C6.64262 87.2035 6.83781 87.0076 6.9738 86.7721C7.78687 85.3309 8.4889 83.8299 9.0738 82.2821C9.3938 81.5021 9.7038 80.7321 10.0738 79.9121C10.2942 79.2853 10.665 78.7221 11.1538 78.2721C11.7858 77.8357 12.5477 77.6276 13.3138 77.6821C13.793 77.8657 14.3007 77.9638 14.8138 77.9721H28.4138C28.9292 77.9727 29.4405 77.8812 29.9238 77.7021C30.6764 77.6693 31.4186 77.8874 32.0338 78.3221C32.5285 78.7771 32.9088 79.3424 33.1438 79.9721C33.4938 80.7421 33.8138 81.5221 34.1438 82.3021C34.7295 83.8415 35.4281 85.3355 36.2338 86.7721C36.3698 87.0076 36.565 87.2035 36.8 87.3403C37.0351 87.4772 37.3018 87.5502 37.5738 87.5521C37.6468 87.5625 37.7208 87.5625 37.7938 87.5521L39.7238 87.2621C40.0201 87.2214 40.3055 87.1229 40.5638 86.9721C41.1923 86.6107 41.7108 86.0853 42.0638 85.4521H42.7638C45.2438 85.5421 48.3138 85.5621 51.3038 85.5621C57.2438 85.5621 62.8738 85.4521 62.9438 85.4521C63.3938 85.4521 67.1838 85.5421 68.6438 83.8421H68.8338C69.1086 83.848 69.3758 83.7518 69.5838 83.5721C69.7373 83.4133 69.8572 83.2252 69.9362 83.019C70.0153 82.8128 70.0519 82.5928 70.0438 82.3721V80.6921C70.2105 75.4654 70.3938 70.2287 70.5938 64.9821C71.4138 42.7521 72.5938 24.4521 74.4138 7.38208C74.4138 7.23208 74.4138 7.07208 74.4838 6.90208C74.6962 6.11553 74.6363 5.28026 74.3138 4.53208ZM65.1538 42.9721C65.1538 42.8395 65.2065 42.7123 65.3002 42.6185C65.394 42.5248 65.5212 42.4721 65.6538 42.4721C65.7864 42.4721 65.9136 42.5248 66.0073 42.6185C66.1011 42.7123 66.1538 42.8395 66.1538 42.9721V45.8721C66.1538 46.0047 66.1011 46.1319 66.0073 46.2256C65.9136 46.3194 65.7864 46.3721 65.6538 46.3721C65.5212 46.3721 65.394 46.3194 65.3002 46.2256C65.2065 46.1319 65.1538 46.0047 65.1538 45.8721V42.9721ZM65.1538 48.7121C65.1538 48.5795 65.2065 48.4523 65.3002 48.3585C65.394 48.2648 65.5212 48.2121 65.6538 48.2121C65.7856 48.2146 65.9113 48.2681 66.0045 48.3614C66.0977 48.4546 66.1512 48.5803 66.1538 48.7121V50.7621C66.1512 50.8939 66.0977 51.0196 66.0045 51.1128C65.9113 51.206 65.7856 51.2595 65.6538 51.2621C65.5212 51.2621 65.394 51.2094 65.3002 51.1156C65.2065 51.0219 65.1538 50.8947 65.1538 50.7621V48.7121ZM65.1538 72.6521C65.1538 72.5195 65.2065 72.3923 65.3002 72.2985C65.394 72.2048 65.5212 72.1521 65.6538 72.1521C65.7864 72.1521 65.9136 72.2048 66.0073 72.2985C66.1011 72.3923 66.1538 72.5195 66.1538 72.6521V76.1921C66.1538 76.3247 66.1011 76.4519 66.0073 76.5456C65.9136 76.6394 65.7864 76.6921 65.6538 76.6921C65.5212 76.6921 65.394 76.6394 65.3002 76.5456C65.2065 76.4519 65.1538 76.3247 65.1538 76.1921V72.6521ZM37.3138 54.3121C37.5638 50.8421 37.7938 47.3121 38.0038 43.7121C38.2138 40.1121 38.4138 36.6421 38.5738 33.1121C38.7838 28.8821 38.9238 25.6421 39.0238 22.5921C39.0238 21.9321 39.0238 21.2721 39.0938 20.5921C39.1638 19.9121 39.0938 19.5321 39.1538 19.0021C39.2138 18.4721 39.1538 18.1121 39.1538 17.6721C39.1538 16.9721 39.1538 16.2421 39.1538 15.5321C39.1938 15.2951 39.3096 15.0776 39.4838 14.9121C44.7666 9.44697 50.9161 4.89229 57.6838 1.43208H57.7638C57.7682 1.48866 57.7682 1.5455 57.7638 1.60208C58.5438 8.60208 59.2405 15.5387 59.8538 22.4121L62.8538 70.5821C62.9738 74.2821 63.0638 78.1821 63.0738 82.0421V82.2321C63.1111 82.5445 63.0555 82.8611 62.9138 83.1421C62.7338 83.3821 62.3338 83.4521 61.6138 83.3921H61.5538C55.4338 82.7521 49.3138 81.9721 43.1638 80.9721C43.3289 78.4598 43.1777 75.9367 42.7138 73.4621C42.2969 71.0209 41.6986 68.6143 40.9238 66.2621C40.3678 64.6052 39.6996 62.9881 38.9238 61.4221C38.7863 61.1535 38.5496 60.949 38.2638 60.8521L37.6638 60.6821H37.5838V60.5521C37.5835 60.5122 37.5733 60.4731 37.5541 60.4382C37.5349 60.4032 37.5073 60.3737 37.4738 60.3521C37.3638 60.2821 37.1738 60.1621 36.9238 60.0221C37.0538 58.1221 37.2038 56.2221 37.3138 54.3121ZM14.3138 60.6521C14.3738 60.5621 14.5638 60.4421 15.0838 60.3821H15.2438C18.2438 60.0721 21.5038 60.0321 21.5638 60.0321C21.6238 60.0321 24.8238 60.0321 27.8638 60.3821H28.0138C28.5338 60.4421 28.7138 60.5621 28.7838 60.6521C28.8431 60.8443 28.8431 61.0499 28.7838 61.2421L28.6238 62.0221L28.3838 63.2221L28.1338 64.3521C28.0138 64.9121 27.8838 65.4721 27.7738 66.0321C27.6038 66.8721 27.4538 67.5921 26.7738 67.9221C26.3907 68.0911 25.9708 68.1599 25.5538 68.1221H17.5538C17.1344 68.1761 16.7082 68.1245 16.3138 67.9721C15.6938 67.6621 15.5238 66.9721 15.3138 66.0821C15.2038 65.5321 15.0838 64.9921 14.9638 64.4521L14.7138 63.2721C14.5738 62.6121 14.4438 61.9521 14.3138 61.2721C14.2535 61.0663 14.2713 60.8455 14.3638 60.6521H14.3138ZM10.8938 71.0321L10.6738 71.3421C8.876 74.0087 7.3928 76.8745 6.2538 79.8821C5.5238 81.6621 4.9338 83.5221 4.3738 85.3221L4.3138 85.5221C4.2138 85.8321 4.0438 86.2021 3.7938 86.2621C3.72801 86.2774 3.65958 86.2774 3.5938 86.2621C3.43158 86.2389 3.27537 86.1846 3.1338 86.1021C2.65059 85.7689 2.24315 85.3375 1.93814 84.836C1.63313 84.3346 1.43742 83.7744 1.3638 83.1921C0.809883 80.032 0.85398 76.7959 1.4938 73.6521C1.89862 71.2777 2.48364 68.9376 3.2438 66.6521C3.77828 65.0098 4.44721 63.4144 5.2438 61.8821C5.42357 61.8145 5.60723 61.7577 5.7938 61.7121C7.47527 61.3013 9.18245 61.004 10.9038 60.8221H11.2338C11.3703 60.8127 11.5073 60.8127 11.6438 60.8221H11.6938C11.991 61.0848 12.1976 61.4348 12.2838 61.8221C12.4138 62.2821 12.5038 62.7421 12.6038 63.2021L12.6638 63.5421L13.1438 65.8421C13.3795 66.6807 13.3158 67.5752 12.9638 68.3721C12.6938 68.7121 12.4138 69.0421 12.1338 69.3721L11.7938 69.7721C11.5338 70.2121 11.2038 70.6121 10.8938 71.0321ZM14.8138 76.9721C14.3737 76.9713 13.9371 76.8935 13.5238 76.7421C12.8424 76.4784 12.2568 76.0148 11.8438 75.4121C11.4904 74.9032 11.2752 74.3113 11.2191 73.6943C11.163 73.0773 11.268 72.4563 11.5238 71.8921L11.6938 71.6521C11.9838 71.2621 12.2938 70.8921 12.6038 70.5221C13.2336 70.0266 14.0125 69.7587 14.8138 69.7621C15.3032 69.7363 15.7927 69.8104 16.2525 69.9799C16.7123 70.1495 17.1328 70.4108 17.4883 70.7481C17.8439 71.0854 18.127 71.4916 18.3205 71.9418C18.5139 72.3921 18.6137 72.877 18.6137 73.3671C18.6137 73.8571 18.5139 74.3421 18.3205 74.7923C18.127 75.2426 17.8439 75.6487 17.4883 75.986C17.1328 76.3233 16.7123 76.5847 16.2525 76.7542C15.7927 76.9237 15.3032 76.9979 14.8138 76.9721ZM22.3938 75.8321H20.8438C20.7112 75.8321 20.584 75.7794 20.4902 75.6856C20.3965 75.5919 20.3438 75.4647 20.3438 75.3321C20.3438 75.1995 20.3965 75.0723 20.4902 74.9785C20.584 74.8848 20.7112 74.8321 20.8438 74.8321H22.3938C22.5264 74.8321 22.6536 74.8848 22.7473 74.9785C22.8411 75.0723 22.8938 75.1995 22.8938 75.3321C22.8938 75.4647 22.8411 75.5919 22.7473 75.6856C22.6536 75.7794 22.5264 75.8321 22.3938 75.8321ZM29.6938 76.7421C29.284 76.8935 28.8507 76.9714 28.4138 76.9721C27.4569 76.9707 26.5397 76.5894 25.8638 75.9121C25.5262 75.5791 25.2585 75.1819 25.0765 74.744C24.8944 74.3061 24.8017 73.8363 24.8038 73.3621C24.8064 72.4064 25.1879 71.4907 25.8647 70.8159C26.5414 70.141 27.4581 69.7621 28.4138 69.7621C29.2138 69.7567 29.9923 70.0209 30.6238 70.5121C30.9338 70.8821 31.2438 71.2621 31.5438 71.6621L31.6938 71.8721C31.9127 72.3382 32.0254 72.8471 32.0238 73.3621C32.0179 74.0914 31.7925 74.802 31.3769 75.4013C30.9613 76.0007 30.3748 76.4609 29.6938 76.7221V76.7421ZM40.0838 86.1321C39.9321 86.2179 39.7661 86.2755 39.5938 86.3021H39.4338C39.1638 86.2321 38.9938 85.8521 38.9038 85.5521V85.4421L38.7938 85.0921C38.6838 84.7221 38.5638 84.3521 38.4438 83.9821C38.2038 83.2021 37.9438 82.4121 37.6538 81.6321C37.4738 81.0921 37.2738 80.5621 37.0538 80.0321L37.0038 79.9121C36.5338 78.7821 36.0038 77.6221 35.4938 76.4821L35.3138 76.1321L35.0238 75.5021C34.8938 75.2421 34.7538 75.0021 34.6138 74.7521L34.4338 74.4221C34.2438 74.0721 34.0738 73.7121 33.8738 73.4221C33.6738 73.1321 33.4638 72.7921 33.2538 72.4221C33.0438 72.0521 32.8138 71.7121 32.5738 71.4221V71.3621L32.3138 71.0421C32.0038 70.6121 31.6638 70.2021 31.3138 69.8121L30.9438 69.3621C30.6738 69.0521 30.4038 68.7321 30.1438 68.3621C29.7886 67.5586 29.7284 66.6556 29.9738 65.8121C30.1271 65.0321 30.2871 64.2521 30.4538 63.4721L30.5338 63.0821C30.6238 62.6421 30.7138 62.1921 30.8338 61.7521C30.92 61.3648 31.1265 61.0148 31.4238 60.7521H32.2938C33.7538 60.9321 34.8838 61.1121 35.7238 61.2721L36.7238 61.4821C36.9838 61.5421 37.2038 61.5921 37.3638 61.6421L37.8838 61.8021C37.8994 61.8057 37.9139 61.8131 37.9261 61.8235C37.9383 61.834 37.9478 61.8472 37.9538 61.8621C38.7277 63.3843 39.396 64.9581 39.9538 66.5721C40.7116 68.8583 41.2966 71.1982 41.7038 73.5721C42.0319 75.374 42.2059 77.2006 42.2238 79.0321C42.2238 79.6221 42.2238 80.1921 42.1538 80.7521C42.1538 81.0921 42.1538 81.4221 42.0538 81.7521C41.9538 82.0821 41.9238 82.6721 41.8338 83.1121C41.7547 83.5297 41.6341 83.9384 41.4738 84.3321C41.3306 84.69 41.1388 85.0265 40.9038 85.3321C40.6879 85.6465 40.4086 85.9122 40.0838 86.1121V86.1321ZM62.9738 84.5121C62.8438 84.5121 50.1838 84.7621 42.8138 84.5121H42.5338C42.6574 84.1591 42.7576 83.7983 42.8338 83.4321C42.9238 82.9721 43.0038 82.5121 43.0638 82.0321C49.1738 83.0321 55.3538 83.7821 61.5038 84.3921C61.6803 84.4023 61.8573 84.4023 62.0338 84.3921C62.3435 84.417 62.6548 84.3695 62.9429 84.2532C63.2311 84.1369 63.4882 83.955 63.6938 83.7221C63.9198 83.3921 64.0417 83.002 64.0438 82.6021L64.2038 82.6521L65.3538 83.0021C66.0338 83.2221 66.7238 83.4221 67.4138 83.6021C66.0296 84.2596 64.5045 84.5653 62.9738 84.4921V84.5121ZM73.5538 6.82208C73.5538 6.99208 73.5538 7.17208 73.4838 7.34208C71.6838 24.4321 70.4838 42.7521 69.6538 65.0021C69.4538 70.2421 69.2705 75.4821 69.1038 80.7221V82.4421C69.1098 82.5976 69.0679 82.7512 68.9838 82.8821C68.9838 82.8821 68.8238 82.8821 68.7838 82.8821C68.2438 82.7721 67.7038 82.6321 67.1638 82.4821C67.5938 82.3921 68.1638 82.0821 68.1638 81.0221C68.1638 79.0221 68.1638 77.0821 68.2338 75.1121C68.2338 71.6721 68.3038 68.1121 68.4138 64.6221C68.5238 61.1321 68.6438 57.5521 68.7838 54.0221C68.8738 51.5921 68.9838 49.1521 69.0838 46.7221L69.3138 42.2421C69.4538 39.1021 69.5838 35.9587 69.7038 32.8121L69.8238 30.2221C69.9338 27.6021 70.0638 24.8921 70.0638 22.2221C70.0638 20.5721 70.1438 18.8021 70.0638 17.0721C70.029 15.9612 69.8884 14.8562 69.6438 13.7721C69.4035 12.5436 68.9097 11.3788 68.1938 10.3521C67.6205 9.63253 66.8486 9.09706 65.9738 8.81208C67.0738 8.26208 68.1738 7.71208 69.2538 7.13208C70.3338 6.55208 71.2538 6.05208 72.2538 5.44208L72.3738 5.36208C72.6338 5.20208 73.1738 4.88208 73.3738 4.93208C73.3738 4.93208 73.4338 4.93208 73.4838 5.03208C73.7011 5.60528 73.7256 6.23366 73.5538 6.82208Z" fill="white"/>
<path d="M14.8138 74.8321C15.7913 74.8321 16.5838 74.0396 16.5838 73.0621C16.5838 72.0845 15.7913 71.2921 14.8138 71.2921C13.8363 71.2921 13.0438 72.0845 13.0438 73.0621C13.0438 74.0396 13.8363 74.8321 14.8138 74.8321Z" fill="white"/>
<path d="M8.7938 64.0321C8.57817 64.0021 8.35943 64.0021 8.1438 64.0321H8.0538C7.92739 64.0489 7.81129 64.1108 7.7268 64.2063C7.64231 64.3018 7.59509 64.4246 7.5938 64.5521V65.2321C7.60346 65.3563 7.65656 65.4731 7.7438 65.5621L8.2538 66.1021C8.29837 66.1443 8.35742 66.1678 8.4188 66.1678C8.48018 66.1678 8.53922 66.1443 8.5838 66.1021L9.1038 65.5621C9.20263 65.49 9.27613 65.3885 9.3138 65.2721L9.3638 64.5921C9.37021 64.4583 9.32669 64.3269 9.24169 64.2234C9.15668 64.12 9.03626 64.0518 8.9038 64.0321H8.7938Z" fill="white"/>
<path d="M9.1538 68.9721L8.6338 68.4421C8.61315 68.4187 8.58776 68.3999 8.55931 68.3871C8.53086 68.3742 8.50001 68.3676 8.4688 68.3676C8.43758 68.3676 8.40673 68.3742 8.37828 68.3871C8.34983 68.3999 8.32444 68.4187 8.3038 68.4421L7.7938 68.9721C7.70656 69.061 7.65346 69.1779 7.6438 69.3021V69.9821C7.63919 70.0509 7.64831 70.1199 7.67063 70.1851C7.69295 70.2504 7.72802 70.3105 7.7738 70.3621C7.81386 70.4127 7.86374 70.4548 7.92044 70.4857C7.97715 70.5167 8.03951 70.5358 8.1038 70.5421H8.1938C8.40942 70.5721 8.62817 70.5721 8.8438 70.5421H8.9338C8.99808 70.5358 9.06044 70.5167 9.11715 70.4857C9.17385 70.4548 9.22373 70.4127 9.2638 70.3621C9.29752 70.3036 9.31931 70.239 9.32789 70.1721C9.33647 70.1051 9.33168 70.0372 9.3138 69.9721V69.2821C9.29354 69.1648 9.23768 69.0565 9.1538 68.9721Z" fill="white"/>
<path d="M11.5338 66.5321C11.4403 66.4484 11.3193 66.4021 11.1938 66.4021H10.5138C10.3896 66.4117 10.2727 66.4648 10.1838 66.5521L9.6538 67.0621C9.63039 67.0827 9.61164 67.1081 9.5988 67.1366C9.58595 67.165 9.57931 67.1959 9.57931 67.2271C9.57931 67.2583 9.58595 67.2891 9.5988 67.3176C9.61164 67.346 9.63039 67.3714 9.6538 67.3921L10.1838 67.9121C10.2763 67.9924 10.3918 68.0414 10.5138 68.0521L11.1938 68.1021C11.2626 68.1067 11.3316 68.0976 11.3969 68.0752C11.4621 68.0529 11.5222 68.0179 11.5738 67.9721C11.6245 67.932 11.6665 67.8821 11.6974 67.8254C11.7284 67.7687 11.7475 67.7064 11.7538 67.6421V67.5521C11.7838 67.3364 11.7838 67.1177 11.7538 66.9021V66.8121C11.7191 66.694 11.6403 66.5938 11.5338 66.5321Z" fill="white"/>
<path d="M6.7938 66.6021C6.70484 66.5148 6.58801 66.4617 6.4638 66.4521H5.78379C5.64895 66.4408 5.51503 66.4826 5.41046 66.5685C5.3059 66.6544 5.23894 66.7776 5.2238 66.9121V67.0021C5.19382 67.2177 5.19382 67.4364 5.2238 67.6521V67.7421C5.23858 67.8693 5.29982 67.9867 5.39578 68.0716C5.49175 68.1565 5.61568 68.2029 5.7438 68.2021L6.4238 68.1521C6.54582 68.1414 6.66134 68.0924 6.7538 68.0121L7.2938 67.4921C7.33599 67.4475 7.35951 67.3885 7.35951 67.3271C7.35951 67.2657 7.33599 67.2066 7.2938 67.1621L6.7938 66.6021Z" fill="white"/>
<path d="M28.3938 71.2921C28.0437 71.2921 27.7015 71.3959 27.4104 71.5904C27.1194 71.7849 26.8925 72.0613 26.7585 72.3847C26.6246 72.7082 26.5895 73.064 26.6578 73.4074C26.7261 73.7507 26.8947 74.0661 27.1422 74.3137C27.3898 74.5612 27.7051 74.7298 28.0485 74.7981C28.3918 74.8664 28.7477 74.8313 29.0711 74.6973C29.3946 74.5634 29.671 74.3365 29.8655 74.0454C30.06 73.7544 30.1638 73.4121 30.1638 73.0621C30.1651 72.8293 30.1202 72.5985 30.0318 72.3832C29.9433 72.1678 29.813 71.9722 29.6483 71.8075C29.4837 71.6429 29.2881 71.5126 29.0727 71.4241C28.8574 71.3356 28.6266 71.2907 28.3938 71.2921Z" fill="white"/>
<path d="M34.7538 63.4621C34.4609 63.4891 34.1886 63.6246 33.9904 63.842C33.7922 64.0593 33.6823 64.3429 33.6823 64.6371C33.6823 64.9312 33.7922 65.2148 33.9904 65.4322C34.1886 65.6495 34.4609 65.785 34.7538 65.8121C35.0032 65.8159 35.2465 65.7348 35.4438 65.5821C35.5924 65.4745 35.7135 65.3332 35.7969 65.1698C35.8803 65.0064 35.9238 64.8256 35.9238 64.6421C35.9247 64.3333 35.8065 64.036 35.5938 63.8121C35.485 63.6997 35.3543 63.6106 35.2099 63.5505C35.0655 63.4903 34.9103 63.4602 34.7538 63.4621Z" fill="white"/>
<path d="M35.1638 68.8321C35.0313 68.7886 34.8932 68.765 34.7538 68.7621C34.4435 68.7621 34.1459 68.8853 33.9265 69.1048C33.7071 69.3242 33.5838 69.6218 33.5838 69.9321C33.5838 70.2424 33.7071 70.54 33.9265 70.7594C34.1459 70.9788 34.4435 71.1021 34.7538 71.1021H34.9538C35.2075 71.0586 35.4398 70.9328 35.6147 70.7439C35.7896 70.5551 35.8974 70.3139 35.9213 70.0576C35.9452 69.8013 35.884 69.5443 35.747 69.3263C35.6101 69.1084 35.4051 68.9417 35.1638 68.8521V68.8321Z" fill="white"/>
<path d="M37.3938 66.1121C37.2398 66.1107 37.087 66.1401 36.9445 66.1984C36.8019 66.2567 36.6724 66.3429 36.5635 66.4518C36.4546 66.5607 36.3685 66.6902 36.3101 66.8328C36.2518 66.9753 36.2225 67.1281 36.2238 67.2821C36.2086 67.3848 36.2086 67.4893 36.2238 67.5921C36.3044 67.8611 36.4783 68.0925 36.7143 68.2448C36.9502 68.3971 37.2328 68.4603 37.5111 68.4229C37.7894 68.3856 38.0453 68.2502 38.2328 68.041C38.4202 67.8319 38.527 67.5628 38.5338 67.2821C38.5339 66.9769 38.4148 66.6838 38.2018 66.4652C37.9888 66.2466 37.6989 66.1199 37.3938 66.1121Z" fill="white"/>
<path d="M32.1038 66.1121C31.8109 66.1391 31.5386 66.2746 31.3404 66.492C31.1422 66.7093 31.0323 66.9929 31.0323 67.2871C31.0323 67.5812 31.1422 67.8648 31.3404 68.0822C31.5386 68.2995 31.8109 68.435 32.1038 68.4621C32.2672 68.4772 32.432 68.458 32.5876 68.4058C32.7432 68.3536 32.8861 68.2696 33.0074 68.159C33.1287 68.0484 33.2255 67.9137 33.2918 67.7636C33.3581 67.6135 33.3923 67.4512 33.3923 67.2871C33.3923 67.123 33.3581 66.9607 33.2918 66.8105C33.2255 66.6604 33.1287 66.5257 33.0074 66.4152C32.8861 66.3046 32.7432 66.2205 32.5876 66.1683C32.432 66.1161 32.2672 66.097 32.1038 66.1121Z" fill="white"/>
</svg>
