<svg width="44" height="89" viewBox="0 0 44 89" fill="none" xmlns="http://www.w3.org/2000/svg">
<path d="M15.477 88.792L22.232 84.904V71.094L22.16 71.136C22.082 71.18 21.997 71.201 21.912 71.201C21.826 71.201 21.741 71.18 21.666 71.137C21.637 71.12 21.62 71.088 21.595 71.067C21.554 71.032 21.508 71.003 21.48 70.953L20.362 69.02L19.417 69.559L19.052 69.77L20.17 71.71C20.308 71.949 20.226 72.255 19.986 72.393L18.05 73.508L15.478 75L15.477 88.792Z" fill="white"/>
<path d="M7.744 84.905L14.477 88.791V74.652L11.897 70.164C11.896 70.164 11.896 70.164 11.896 70.164C11.758 69.925 11.84 69.619 12.08 69.481L13.014 68.943L11.109 65.652L7.745 67.599L7.744 84.905Z" fill="white"/>
<path d="M13.978 36.009L13.359 35.651L12.374 36.223C12.373 36.223 12.372 36.223 12.372 36.223C12.364 36.227 12.354 36.227 12.347 36.231C12.28 36.266 12.205 36.29 12.123 36.29C12.041 36.29 11.968 36.266 11.899 36.231C11.891 36.227 11.882 36.228 11.875 36.223C11.875 36.223 11.874 36.223 11.873 36.223L5.999 32.834L5.023 33.4L0.500999 36.008L7.244 39.904L13.978 36.009Z" fill="white"/>
<path d="M18.483 68.943L17.616 67.44L17.113 67.733L17.981 69.233L18.118 69.153L18.483 68.943Z" fill="white"/>
<path d="M26.947 74.123L25.829 72.184L24.898 72.719L24.896 72.721C24.817 72.766 24.731 72.787 24.646 72.787C24.473 72.787 24.305 72.697 24.212 72.537L23.232 70.836V84.328L29.975 80.432V75.912C29.939 75.9 29.9 75.9 29.866 75.882C29.842 75.867 29.828 75.84 29.805 75.822C29.76 75.785 29.712 75.752 29.681 75.698L28.565 73.76L27.632 74.304L27.63 74.306C27.551 74.351 27.465 74.372 27.38 74.372C27.294 74.372 27.209 74.351 27.134 74.308C27.092 74.285 27.064 74.24 27.029 74.204C27.003 74.177 26.968 74.159 26.949 74.124L26.947 74.123Z" fill="white"/>
<path d="M28.997 67.186C28.918 67.233 28.832 67.254 28.747 67.254C28.661 67.254 28.576 67.231 28.501 67.189C28.427 67.147 28.363 67.085 28.316 67.006C28.316 67.006 28.315 67.005 28.314 67.004C28.314 67.004 28.313 67.004 28.313 67.003C28.313 67.002 28.313 67.002 28.312 67.001L27.197 65.072L26.264 65.609C26.263 65.61 26.263 65.611 26.262 65.611C26.183 65.656 26.097 65.677 26.012 65.677C25.839 65.677 25.671 65.587 25.578 65.427L24.46 63.488L23.529 64.023C23.528 64.024 23.528 64.025 23.527 64.025C23.448 64.07 23.362 64.091 23.277 64.091C23.104 64.091 22.936 64.001 22.843 63.841L21.727 61.903L20.794 62.448C20.715 62.494 20.628 62.516 20.542 62.516C20.373 62.516 20.21 62.428 20.116 62.273C20.114 62.27 20.111 62.27 20.11 62.268C20.11 62.267 20.109 62.267 20.109 62.266L18.982 60.327L18.047 60.874C18.046 60.874 18.046 60.874 18.045 60.875C17.966 60.921 17.88 60.942 17.795 60.942C17.709 60.942 17.624 60.919 17.549 60.877C17.521 60.861 17.504 60.829 17.48 60.809C17.438 60.773 17.393 60.744 17.364 60.695C17.364 60.695 17.364 60.694 17.364 60.693C17.363 60.693 17.362 60.693 17.362 60.692L15.995 58.318C15.969 58.272 15.957 58.222 15.946 58.173C15.943 58.158 15.934 58.146 15.932 58.132C15.925 58.077 15.932 58.024 15.943 57.971C15.945 57.961 15.942 57.95 15.945 57.941C15.961 57.882 15.988 57.828 16.024 57.778C16.026 57.775 16.026 57.771 16.028 57.769C16.061 57.725 16.105 57.69 16.152 57.658C16.162 57.652 16.167 57.642 16.176 57.637L16.178 57.636C16.178 57.636 16.179 57.636 16.179 57.635L17.114 57.09L15.995 55.147C15.961 55.087 15.94 55.023 15.932 54.959C15.909 54.766 15.999 54.568 16.179 54.465C16.18 54.464 16.181 54.464 16.181 54.464L17.114 53.928L14.877 50.053L13.011 51.132L14.129 53.073C14.267 53.312 14.185 53.618 13.945 53.756L11.643 55.081L12.761 57.022C12.787 57.068 12.799 57.118 12.81 57.167C12.813 57.182 12.822 57.194 12.824 57.208C12.831 57.263 12.824 57.316 12.813 57.369C12.811 57.379 12.814 57.39 12.811 57.399C12.795 57.458 12.768 57.512 12.732 57.562C12.73 57.565 12.73 57.569 12.728 57.571C12.695 57.615 12.651 57.65 12.604 57.682C12.594 57.688 12.589 57.698 12.58 57.703L12.578 57.704C12.578 57.704 12.577 57.704 12.577 57.705L11.461 58.355V61.084L12.762 63.342C12.786 63.384 12.795 63.43 12.807 63.476C12.811 63.494 12.822 63.51 12.825 63.529C12.832 63.583 12.825 63.636 12.814 63.69C12.812 63.699 12.815 63.71 12.812 63.719C12.796 63.778 12.769 63.832 12.733 63.882C12.731 63.885 12.731 63.888 12.729 63.892C12.696 63.935 12.652 63.97 12.605 64.001C12.595 64.008 12.59 64.017 12.581 64.022L12.579 64.024L11.64 64.573L11.722 64.718C11.722 64.718 11.723 64.718 11.723 64.719L14.129 68.874C14.129 68.875 14.13 68.876 14.13 68.876C14.163 68.934 14.182 68.995 14.191 69.057C14.191 69.06 14.193 69.062 14.193 69.064C14.21 69.191 14.174 69.321 14.097 69.424C14.097 69.425 14.097 69.426 14.096 69.427C14.074 69.456 14.041 69.477 14.012 69.501C13.991 69.52 13.974 69.543 13.948 69.558C13.948 69.559 13.947 69.559 13.947 69.559L13.012 70.098L15.243 73.979L17.115 72.892L15.997 70.951C15.963 70.891 15.942 70.827 15.934 70.763C15.911 70.57 16.001 70.372 16.181 70.269C16.182 70.268 16.183 70.268 16.183 70.268L17.115 69.732L16 67.805L15.999 67.803C15.985 67.78 15.983 67.754 15.975 67.73C15.96 67.692 15.941 67.655 15.936 67.616C15.932 67.583 15.94 67.55 15.943 67.516C15.945 67.485 15.941 67.454 15.949 67.424C15.958 67.393 15.977 67.364 15.993 67.334C16.007 67.307 16.014 67.277 16.033 67.252C16.049 67.231 16.073 67.217 16.093 67.199C16.121 67.172 16.146 67.14 16.181 67.121L17.548 66.322C17.549 66.321 17.549 66.32 17.55 66.32C17.586 66.299 17.625 66.293 17.663 66.282C17.687 66.275 17.711 66.26 17.736 66.258C17.776 66.252 17.815 66.26 17.855 66.265C17.878 66.268 17.903 66.264 17.926 66.27C17.962 66.28 17.993 66.301 18.027 66.319C18.05 66.331 18.078 66.339 18.099 66.354C18.127 66.375 18.148 66.408 18.172 66.436C18.192 66.458 18.215 66.475 18.231 66.501C18.232 66.502 18.233 66.503 18.233 66.504L19.351 68.445L20.297 67.905C20.325 67.888 20.358 67.884 20.387 67.875C20.419 67.864 20.449 67.848 20.483 67.843C20.515 67.839 20.546 67.848 20.579 67.85C20.61 67.852 20.642 67.848 20.674 67.857C20.719 67.869 20.759 67.893 20.8 67.919C20.815 67.927 20.832 67.931 20.847 67.94C20.891 67.973 20.926 68.018 20.958 68.067C20.964 68.075 20.974 68.081 20.979 68.089C20.98 68.089 20.981 68.091 20.981 68.092C20.981 68.092 20.981 68.093 20.982 68.094L22.097 70.021L22.482 69.8C22.483 69.8 22.483 69.799 22.483 69.799L23.03 69.483C23.03 69.483 23.03 69.483 23.031 69.482C23.05 69.471 23.069 69.471 23.089 69.463C23.131 69.444 23.174 69.424 23.218 69.418C23.271 69.412 23.322 69.42 23.373 69.429C23.385 69.432 23.397 69.428 23.408 69.432C23.462 69.446 23.511 69.473 23.557 69.503C23.564 69.508 23.574 69.51 23.581 69.516C23.619 69.544 23.649 69.585 23.679 69.625C23.69 69.64 23.704 69.648 23.713 69.664C23.713 69.664 23.714 69.664 23.714 69.665L24.832 71.605L25.763 71.068C25.764 71.068 25.764 71.068 25.765 71.067C25.798 71.048 25.834 71.043 25.869 71.032C25.897 71.023 25.925 71.008 25.954 71.004C26.147 70.98 26.346 71.07 26.449 71.251L27.565 73.189L28.498 72.645C28.499 72.644 28.499 72.643 28.5 72.643C28.529 72.626 28.561 72.622 28.592 72.612C28.623 72.602 28.654 72.585 28.687 72.581C28.717 72.577 28.746 72.585 28.775 72.586C28.809 72.588 28.844 72.585 28.879 72.593C28.918 72.604 28.952 72.626 28.988 72.646C29.009 72.658 29.032 72.664 29.05 72.677C29.095 72.71 29.131 72.755 29.163 72.804C29.168 72.812 29.177 72.817 29.182 72.825C29.183 72.826 29.184 72.826 29.184 72.827L30.306 74.774L31.244 74.229C31.275 74.211 31.31 74.207 31.344 74.196C31.373 74.186 31.402 74.17 31.432 74.166C31.624 74.142 31.824 74.231 31.928 74.411C31.928 74.412 31.928 74.413 31.928 74.413L33.045 76.343L33.98 75.804C34.219 75.665 34.525 75.747 34.664 75.988L35.781 77.928L36.715 77.39C36.954 77.251 37.26 77.333 37.399 77.574L38.516 79.513L41.762 77.63L38.169 71.386L37.215 71.935C37.137 71.98 37.05 72.001 36.965 72.001C36.792 72.001 36.624 71.911 36.531 71.751L35.414 69.811L34.48 70.349C34.401 70.394 34.315 70.415 34.23 70.415C34.144 70.415 34.059 70.394 33.984 70.351C33.91 70.31 33.846 70.247 33.799 70.169C33.799 70.167 33.798 70.167 33.797 70.166C33.797 70.165 33.796 70.165 33.796 70.165C33.796 70.165 33.796 70.164 33.795 70.163L32.68 68.235L31.748 68.77C31.747 68.771 31.747 68.772 31.746 68.772C31.667 68.818 31.581 68.84 31.495 68.84C31.409 68.84 31.324 68.817 31.249 68.775C31.209 68.754 31.186 68.714 31.155 68.684C31.123 68.653 31.084 68.631 31.06 68.59C31.06 68.589 31.059 68.589 31.059 68.589L29.932 66.649L28.997 67.186Z" fill="white"/>
<path d="M17.982 72.393L19.052 71.775L18.184 70.27L18.048 70.348H18.046L17.114 70.885L17.982 72.393Z" fill="white"/>
<path d="M6.744 40.771L0 36.875V62.549L6.744 66.445V40.771Z" fill="white"/>
<path d="M36.414 69.231H36.413L36.277 69.31L37.146 70.818L38.101 70.268H38.103L38.22 70.2L37.339 68.693L36.414 69.231Z" fill="white"/>
<path d="M35.344 68.693L35.478 68.616L34.604 67.119L33.681 67.655L33.679 67.656L33.678 67.657L33.543 67.735L34.41 69.233L35.344 68.693Z" fill="white"/>
<path d="M43.705 76.512L40.104 70.27L39.163 70.815L39.161 70.816H39.159L39.157 70.817L39.155 70.818L39.035 70.888L42.625 77.129L43.705 76.512Z" fill="white"/>
<path d="M32.608 67.121L32.61 67.119L32.744 67.041L31.869 65.533L30.947 66.068L30.945 66.07H30.943L30.94 66.073L30.801 66.152L31.675 67.658L32.608 67.121Z" fill="white"/>
<path d="M26.086 20.793L27.579 19.934C27.588 19.929 27.598 19.929 27.606 19.925C27.636 19.91 27.668 19.902 27.701 19.894C27.733 19.885 27.765 19.876 27.799 19.874C27.809 19.874 27.818 19.868 27.828 19.868C27.849 19.868 27.868 19.878 27.89 19.88C27.924 19.884 27.956 19.889 27.99 19.9C28.02 19.911 28.048 19.926 28.076 19.942C28.103 19.958 28.129 19.973 28.153 19.994C28.179 20.017 28.2 20.043 28.221 20.071C28.234 20.088 28.251 20.099 28.262 20.118C28.267 20.127 28.267 20.138 28.272 20.147C28.287 20.176 28.294 20.208 28.303 20.24C28.312 20.273 28.321 20.305 28.323 20.339C28.324 20.349 28.329 20.358 28.329 20.368V22.96C28.329 22.981 28.319 22.999 28.317 23.019C28.312 23.054 28.308 23.088 28.296 23.122C28.285 23.153 28.27 23.18 28.254 23.207C28.238 23.234 28.223 23.26 28.202 23.284C28.178 23.311 28.15 23.333 28.121 23.355C28.105 23.367 28.095 23.383 28.077 23.394L26.086 24.54V29.447C26.086 29.468 26.076 29.487 26.073 29.508C26.069 29.543 26.064 29.575 26.053 29.608C26.042 29.639 26.027 29.666 26.01 29.694C25.994 29.721 25.98 29.747 25.958 29.771C25.936 29.798 25.908 29.818 25.88 29.84C25.863 29.853 25.853 29.87 25.834 29.881L23.843 31.027V32.465L27.577 30.306C27.586 30.301 27.596 30.301 27.604 30.297C27.633 30.282 27.664 30.274 27.696 30.265C27.73 30.255 27.763 30.246 27.799 30.244C27.809 30.244 27.818 30.239 27.827 30.239C27.847 30.239 27.864 30.248 27.884 30.25C27.92 30.254 27.954 30.259 27.988 30.271C28.018 30.281 28.045 30.296 28.073 30.312C28.1 30.328 28.126 30.343 28.15 30.364C28.177 30.387 28.198 30.414 28.219 30.443C28.232 30.459 28.248 30.47 28.259 30.488C28.264 30.497 28.264 30.507 28.269 30.516C28.284 30.546 28.292 30.578 28.301 30.612C28.31 30.644 28.319 30.675 28.321 30.709C28.322 30.719 28.327 30.728 28.327 30.739V32.469L29.831 31.607C29.84 31.602 29.85 31.602 29.858 31.598C29.888 31.583 29.92 31.575 29.955 31.566C29.987 31.557 30.017 31.548 30.051 31.546C30.061 31.546 30.07 31.54 30.08 31.54C30.102 31.54 30.121 31.55 30.142 31.553C30.176 31.557 30.208 31.562 30.241 31.573C30.272 31.584 30.3 31.598 30.327 31.615C30.354 31.631 30.38 31.646 30.404 31.667C30.431 31.69 30.452 31.718 30.473 31.747C30.486 31.764 30.502 31.774 30.513 31.792C30.518 31.801 30.518 31.81 30.522 31.819C30.538 31.849 30.545 31.882 30.554 31.915C30.563 31.948 30.572 31.979 30.574 32.012C30.575 32.022 30.58 32.031 30.58 32.041V33.775L36.317 30.45V10.864L26.085 16.763L26.086 20.793Z" fill="white"/>
<path d="M30.975 53.025L37.708 49.139V23.469L37.318 23.696V30.737C37.318 30.758 37.308 30.777 37.306 30.797C37.301 30.832 37.296 30.864 37.285 30.898C37.274 30.929 37.26 30.956 37.243 30.984C37.227 31.011 37.212 31.037 37.191 31.061C37.168 31.087 37.142 31.108 37.114 31.129C37.097 31.141 37.087 31.159 37.068 31.17L30.973 34.702V53.025H30.975Z" fill="white"/>
<path d="M29.062 62.834C29.062 62.833 29.063 62.834 29.062 62.834C29.064 62.832 29.064 62.832 29.065 62.832C29.099 62.812 29.136 62.807 29.172 62.795C29.198 62.787 29.224 62.772 29.25 62.769C29.284 62.764 29.317 62.772 29.352 62.775C29.382 62.778 29.413 62.774 29.442 62.782C29.468 62.788 29.492 62.805 29.517 62.817C29.55 62.832 29.585 62.842 29.615 62.864C29.634 62.878 29.644 62.899 29.661 62.915C29.691 62.945 29.724 62.973 29.747 63.011C29.747 63.012 29.747 63.013 29.748 63.013C29.748 63.014 29.749 63.015 29.749 63.015L29.976 63.406V54.76L23.233 58.656V59.887L23.588 59.684C23.764 59.581 23.978 59.6 24.134 59.715C24.135 59.716 24.136 59.717 24.137 59.717C24.177 59.746 24.207 59.788 24.238 59.83C24.248 59.844 24.261 59.851 24.27 59.866L24.271 59.867L25.388 61.798L26.33 61.259C26.331 61.259 26.331 61.258 26.331 61.258L26.334 61.257C26.361 61.241 26.391 61.238 26.419 61.229C26.453 61.217 26.484 61.2 26.52 61.195C26.576 61.188 26.631 61.194 26.686 61.206C26.694 61.208 26.702 61.206 26.709 61.208C26.761 61.222 26.809 61.248 26.854 61.278C26.863 61.284 26.875 61.286 26.883 61.292C26.906 61.31 26.922 61.337 26.943 61.359C26.967 61.385 26.997 61.408 27.015 61.44L28.14 63.379L29.062 62.834Z" fill="white"/>
<path d="M5.747 31.824C5.765 31.814 5.785 31.813 5.803 31.805C5.836 31.791 5.868 31.778 5.904 31.771C5.934 31.765 5.965 31.765 5.996 31.765C6.028 31.765 6.059 31.765 6.093 31.771C6.126 31.778 6.156 31.79 6.188 31.803C6.209 31.811 6.23 31.812 6.25 31.824L11.625 34.925V34.92L9.621 33.763C9.602 33.752 9.592 33.735 9.575 33.722C9.547 33.701 9.52 33.68 9.498 33.654C9.477 33.63 9.461 33.604 9.445 33.576C9.428 33.548 9.414 33.522 9.403 33.491C9.392 33.458 9.387 33.425 9.382 33.39C9.38 33.369 9.37 33.351 9.37 33.329V31.026L7.379 29.88C7.36 29.869 7.35 29.852 7.333 29.839C7.305 29.818 7.277 29.797 7.255 29.77C7.234 29.746 7.219 29.721 7.203 29.693C7.186 29.665 7.171 29.638 7.16 29.607C7.149 29.574 7.144 29.542 7.14 29.507C7.137 29.486 7.127 29.467 7.127 29.445V27.131L5.136 25.985C5.117 25.974 5.107 25.957 5.09 25.944C5.062 25.923 5.034 25.902 5.012 25.875C4.991 25.851 4.976 25.826 4.96 25.798C4.943 25.77 4.928 25.743 4.917 25.712C4.906 25.679 4.901 25.647 4.897 25.612C4.894 25.591 4.884 25.572 4.884 25.55V17.773C4.884 17.763 4.889 17.754 4.89 17.745C4.892 17.711 4.901 17.678 4.911 17.644C4.919 17.612 4.927 17.582 4.941 17.552C4.946 17.543 4.946 17.532 4.951 17.523C4.962 17.504 4.98 17.492 4.993 17.475C5.014 17.448 5.034 17.422 5.059 17.4C5.084 17.378 5.111 17.361 5.14 17.345C5.166 17.329 5.192 17.315 5.221 17.305C5.256 17.293 5.29 17.288 5.326 17.284C5.346 17.282 5.363 17.272 5.384 17.272C5.394 17.272 5.403 17.277 5.412 17.277C5.446 17.279 5.478 17.288 5.512 17.298C5.545 17.307 5.576 17.315 5.607 17.33C5.615 17.334 5.625 17.334 5.633 17.339L7.126 18.199V14.168L1.378 10.861V30.444L4.77 32.388L5.747 31.824Z" fill="white"/>
<path d="M12.372 14.315H12.37C12.294 14.358 12.209 14.381 12.122 14.381C12.035 14.381 11.95 14.358 11.875 14.315H11.872L9.869 13.158L8.624 13.881L18.849 19.791L24.586 16.475L16.607 11.868L12.372 14.315Z" fill="white"/>
<path d="M28.054 33.769C27.986 33.804 27.911 33.829 27.828 33.829C27.746 33.829 27.672 33.805 27.603 33.77C27.6 33.769 27.597 33.769 27.595 33.768L24.107 35.786L25.586 36.645L29.58 34.342V32.901L28.076 33.763C28.07 33.767 28.062 33.765 28.054 33.769Z" fill="white"/>
<path d="M19.349 20.656V37.384L27.328 32.767V31.602L23.594 33.761C23.587 33.765 23.578 33.763 23.572 33.767C23.503 33.803 23.427 33.828 23.344 33.828C23.262 33.828 23.189 33.804 23.12 33.769C23.101 33.76 23.087 33.747 23.069 33.735C23.017 33.7 22.974 33.658 22.939 33.607C22.931 33.595 22.918 33.591 22.911 33.579C22.906 33.57 22.906 33.56 22.901 33.551C22.886 33.521 22.878 33.489 22.869 33.455C22.86 33.423 22.851 33.392 22.849 33.358C22.848 33.348 22.843 33.339 22.843 33.328V30.735C22.843 30.713 22.853 30.694 22.856 30.673C22.86 30.639 22.865 30.606 22.876 30.573C22.887 30.542 22.902 30.514 22.919 30.487C22.935 30.46 22.949 30.434 22.97 30.41C22.993 30.383 23.021 30.363 23.049 30.341C23.066 30.328 23.076 30.311 23.095 30.3L25.086 29.154V24.248C25.086 24.227 25.096 24.209 25.098 24.189C25.103 24.154 25.107 24.12 25.119 24.086C25.13 24.055 25.145 24.028 25.161 24.001C25.177 23.974 25.192 23.948 25.213 23.924C25.237 23.897 25.265 23.875 25.294 23.853C25.31 23.841 25.32 23.825 25.338 23.814L27.329 22.668V21.23L25.836 22.089C25.829 22.093 25.82 22.091 25.813 22.095C25.745 22.13 25.67 22.155 25.587 22.155C25.505 22.155 25.431 22.131 25.363 22.096C25.343 22.086 25.329 22.073 25.31 22.061C25.259 22.026 25.217 21.985 25.182 21.934C25.174 21.922 25.16 21.917 25.153 21.905C25.148 21.896 25.148 21.885 25.143 21.876C25.128 21.847 25.121 21.815 25.112 21.783C25.103 21.75 25.094 21.718 25.092 21.684C25.091 21.674 25.086 21.665 25.086 21.655V17.338L19.349 20.656Z" fill="white"/>
<path d="M28.213 64.494L28.21 64.496H28.207L28.205 64.498L28.066 64.577L28.93 66.072L29.862 65.535L29.864 65.533H29.867L29.869 65.531L30.006 65.453L29.135 63.951L28.213 64.494Z" fill="white"/>
<path d="M9.618 12.147C9.638 12.136 9.658 12.135 9.679 12.126C9.71 12.113 9.741 12.101 9.774 12.094C9.806 12.088 9.837 12.087 9.87 12.088C9.901 12.088 9.932 12.088 9.963 12.094C9.997 12.101 10.027 12.113 10.06 12.126C10.08 12.134 10.101 12.135 10.121 12.147L12.125 13.304L16.359 10.857C16.379 10.845 16.402 10.844 16.422 10.836C16.451 10.824 16.48 10.812 16.511 10.806C16.545 10.799 16.578 10.798 16.614 10.799C16.643 10.799 16.672 10.799 16.702 10.805C16.735 10.811 16.766 10.824 16.798 10.837C16.819 10.845 16.84 10.846 16.86 10.858L25.589 15.899L35.82 10.001L18.849 0.208008L1.88 9.99901L7.625 13.305L9.618 12.147Z" fill="white"/>
<path d="M22.975 61.184L22.97 61.188L22.724 61.322L22.592 61.399L23.463 62.91L24.389 62.377L24.392 62.374L24.522 62.297L23.654 60.797L22.981 61.182L22.975 61.184Z" fill="white"/>
<path d="M15.227 35.575C15.228 35.575 15.228 35.576 15.229 35.576L16.471 36.295L17.084 36.645C17.085 36.645 17.085 36.646 17.086 36.646L18.349 37.38V20.656L8.126 14.748V19.066C8.126 19.076 8.121 19.085 8.12 19.094C8.118 19.128 8.109 19.161 8.099 19.195C8.091 19.227 8.083 19.257 8.069 19.287C8.064 19.296 8.064 19.307 8.059 19.316C8.051 19.329 8.038 19.334 8.03 19.345C7.995 19.396 7.953 19.437 7.902 19.472C7.883 19.484 7.869 19.497 7.849 19.507C7.782 19.542 7.707 19.566 7.625 19.566C7.542 19.566 7.467 19.541 7.398 19.505C7.39 19.502 7.382 19.503 7.376 19.499L5.883 18.639V25.263L7.874 26.409C7.893 26.42 7.903 26.437 7.92 26.45C7.948 26.471 7.976 26.492 7.998 26.519C8.019 26.543 8.034 26.569 8.05 26.596C8.067 26.624 8.082 26.651 8.093 26.682C8.104 26.715 8.109 26.747 8.113 26.782C8.116 26.803 8.126 26.822 8.126 26.843V29.157L10.117 30.303C10.136 30.314 10.146 30.331 10.163 30.344C10.191 30.365 10.219 30.386 10.241 30.413C10.262 30.437 10.277 30.463 10.293 30.49C10.31 30.518 10.325 30.545 10.336 30.576C10.347 30.609 10.352 30.641 10.356 30.676C10.359 30.697 10.369 30.716 10.369 30.737V32.768L15.227 35.575Z" fill="white"/>
<path d="M25.458 62.907L25.457 62.908L25.327 62.984L26.198 64.496L27.13 63.959L27.132 63.957L27.134 63.956L27.273 63.877L26.398 62.369L25.458 62.907Z" fill="white"/>
<path d="M22.124 59.291L22.232 59.478V59.229L22.124 59.291Z" fill="white"/>
<path d="M25.834 37.656C25.758 37.699 25.673 37.722 25.586 37.722C25.499 37.722 25.413 37.699 25.337 37.655H25.335L23.344 36.499L21.353 37.655C21.351 37.656 21.349 37.655 21.346 37.656C21.272 37.698 21.188 37.722 21.102 37.722C21.02 37.722 20.939 37.699 20.867 37.66L19.099 38.683H19.097C19.089 38.687 19.08 38.687 19.073 38.691C19.005 38.726 18.931 38.75 18.849 38.75C18.767 38.75 18.694 38.726 18.625 38.691C18.617 38.687 18.608 38.687 18.601 38.683H18.598L16.842 37.662C16.769 37.701 16.689 37.723 16.607 37.723C16.52 37.723 16.436 37.699 16.361 37.656C16.358 37.655 16.355 37.656 16.353 37.654L15.74 37.293C15.722 37.283 15.712 37.266 15.696 37.253C15.668 37.232 15.642 37.211 15.619 37.184C15.598 37.16 15.582 37.133 15.566 37.105C15.55 37.078 15.537 37.051 15.526 37.021C15.514 36.987 15.509 36.954 15.505 36.919C15.504 36.908 15.499 36.899 15.499 36.888L15.477 36.875V48.559L16.75 47.826C16.81 47.792 16.874 47.77 16.938 47.763C16.942 47.763 16.947 47.765 16.951 47.764C17.085 47.751 17.218 47.794 17.321 47.882C17.363 47.919 17.404 47.958 17.433 48.01L17.434 48.013L20.165 52.743L20.167 52.745C20.305 52.984 20.223 53.29 19.983 53.428L19.048 53.966L20.166 55.906C20.304 56.145 20.222 56.451 19.982 56.589L19.047 57.128L19.914 58.632L20.847 58.087L20.848 58.086L20.85 58.085C20.883 58.065 20.919 58.061 20.954 58.05C20.981 58.041 21.008 58.027 21.036 58.023C21.075 58.018 21.113 58.026 21.152 58.031C21.176 58.033 21.202 58.029 21.226 58.036C21.263 58.047 21.296 58.068 21.331 58.087C21.352 58.099 21.378 58.105 21.398 58.12C21.42 58.137 21.436 58.164 21.456 58.185C21.481 58.21 21.51 58.234 21.529 58.266L21.53 58.269L21.531 58.27L21.621 58.427L22.475 57.935L22.477 57.933L29.97 53.604V35.269L25.831 37.655C25.835 37.656 25.834 37.656 25.834 37.656Z" fill="white"/>
<path d="M21.656 60.79L21.658 60.788L21.788 60.711L21.007 59.358L21.006 59.355L20.919 59.203L19.987 59.748L19.985 59.749L19.85 59.826L20.725 61.333L21.656 60.79Z" fill="white"/>
<path d="M7.744 66.444L10.612 64.785L10.532 64.644L10.531 64.643L10.528 64.637C10.515 64.615 10.514 64.591 10.506 64.569C10.49 64.53 10.472 64.492 10.467 64.451C10.464 64.424 10.472 64.396 10.473 64.369C10.475 64.332 10.472 64.296 10.481 64.261C10.489 64.233 10.506 64.209 10.519 64.184C10.534 64.152 10.544 64.118 10.566 64.089C10.585 64.065 10.614 64.047 10.638 64.026C10.662 64.004 10.682 63.977 10.711 63.96L11.649 63.413L10.53 61.47C10.525 61.46 10.525 61.45 10.52 61.441C10.505 61.412 10.498 61.381 10.49 61.349C10.48 61.316 10.471 61.283 10.469 61.249C10.468 61.238 10.463 61.23 10.463 61.22V58.07C10.463 58.049 10.473 58.031 10.475 58.01C10.48 57.976 10.485 57.943 10.496 57.91C10.507 57.879 10.521 57.851 10.538 57.823C10.554 57.797 10.568 57.771 10.589 57.747C10.612 57.72 10.64 57.698 10.668 57.677C10.684 57.665 10.694 57.649 10.712 57.638L11.65 57.091L10.531 55.148C10.393 54.909 10.475 54.603 10.715 54.465L13.016 53.14L11.899 51.2C11.761 50.961 11.843 50.655 12.083 50.517H12.085L14.481 49.13V36.875L7.748 40.77V66.444H7.744Z" fill="white"/>
<path d="M18.047 57.705L17.113 58.25L17.981 59.758L18.914 59.213L18.915 59.211L19.052 59.133L18.184 57.626L18.048 57.704L18.047 57.705Z" fill="white"/>
<path d="M18.184 54.465L18.048 54.543H18.046L17.114 55.08L17.982 56.588L18.118 56.51L19.052 55.971L18.184 54.465Z" fill="white"/>
<path d="M16.818 48.942L15.747 49.557L17.981 53.428L19.052 52.811L16.818 48.942Z" fill="white"/>
</svg>
