<svg width="109" height="89" viewBox="0 0 109 89" fill="none" xmlns="http://www.w3.org/2000/svg">
<path d="M66.1128 69.3756C66.0871 69.4213 66.0486 69.4553 66.0066 69.4811L66.0054 69.4823C66.0031 69.4835 66.0008 69.4846 66.0008 69.4846L65.5853 69.7274V70.2562L66.5656 69.691L66.4641 69.6336C66.4512 69.6265 66.4501 69.6101 66.4396 69.6019C66.4081 69.5773 66.3917 69.5503 66.3719 69.5163C66.352 69.4835 66.3369 69.4553 66.331 69.4178C66.3287 69.4026 66.3147 69.3932 66.3147 69.3791V69.025L66.1128 69.3756Z" fill="white"/>
<path d="M68.6207 69.0121V65.0169L67.3988 67.1476V69.5421L67.4012 69.5444C67.4117 69.5632 67.4023 69.5843 67.4093 69.6042C67.4175 69.6289 67.4315 69.6476 67.4338 69.6746C67.4338 69.6816 67.4408 69.6852 67.4408 69.6922V69.7016L68.6207 69.0121Z" fill="white"/>
<path d="M59.35 52.5856L65.8934 67.4454L70.6629 59.1466L59.35 52.5856Z" fill="white"/>
<path d="M65.5853 75.9952V78.8541L74.3098 73.7941L71.8428 72.3705L65.5853 75.9952Z" fill="white"/>
<path d="M69.2042 63.9978V69.0109L70.5416 69.7825C70.5544 69.7895 70.5556 69.8059 70.5661 69.8142C70.5882 69.8306 70.6022 69.8435 70.6186 69.8657C70.6279 69.8763 70.6431 69.8775 70.6501 69.8904C70.6571 69.9033 70.6501 69.9162 70.6548 69.9302C70.6653 69.9549 70.6711 69.9736 70.6734 69.9994C70.6758 70.0147 70.6898 70.0229 70.6898 70.037V70.2363C70.6898 70.2586 70.6711 70.2715 70.6664 70.2926C70.6606 70.3196 70.6618 70.3454 70.6478 70.37V70.4286L72.0271 71.219C72.04 71.226 72.0411 71.2424 72.0517 71.2506C72.0727 71.2671 72.0867 71.28 72.103 71.3022C72.1123 71.3128 72.1275 71.314 72.1345 71.3269C72.1415 71.3398 72.1345 71.3527 72.1404 71.3656C72.1497 71.3902 72.1544 71.4101 72.159 71.4359C72.1602 71.4512 72.1742 71.4594 72.1742 71.4734V71.6704C72.1742 71.7033 72.1497 71.7267 72.1392 71.7561C72.1357 71.7713 72.1392 71.7842 72.1333 71.7983V71.8628L74.5525 73.257V62.5543L71.1682 60.5925L69.2042 63.9978Z" fill="white"/>
<path d="M52.5639 77.2816V80.6283L57.421 77.7999V74.4707L52.5639 77.2816Z" fill="white"/>
<path d="M65.0018 79.322V70.0674L58.497 73.8516V78.2678C58.497 78.2818 58.4841 78.2912 58.4818 78.3041C58.4783 78.3311 58.4713 78.3522 58.4608 78.3768C58.4538 78.3909 58.462 78.405 58.4538 78.4178C58.4445 78.4331 58.4293 78.439 58.4199 78.4507C58.4083 78.4636 58.3989 78.473 58.3861 78.4835C58.3756 78.4929 58.3674 78.5058 58.3569 78.5117C58.3546 78.514 58.3546 78.5175 58.3511 78.5199L52.4181 81.9663C52.3726 81.9921 52.3224 82.005 52.2722 82.005C52.2045 82.005 52.1438 81.9733 52.0913 81.9299C52.0773 81.9182 52.0668 81.9088 52.0575 81.8959C52.0446 81.8819 52.0295 81.8748 52.0201 81.8596C52.0061 81.8349 52.0166 81.808 52.0096 81.7833C52.0026 81.7587 51.9816 81.7411 51.9816 81.713V77.6216L49.7678 78.9139V88.5601L65.0765 79.6808C65.0368 79.6304 65.0042 79.5729 65.0042 79.5049V79.322H65.0018Z" fill="white"/>
<path d="M66.0603 68.2909C66.0439 68.3085 66.0311 68.3284 66.0101 68.3413C66.0078 68.3425 66.0078 68.346 66.0054 68.3472L49.7655 77.76V78.2349L52.124 76.8582L52.1252 76.8571L57.5657 73.7073H57.5669L58.057 73.4271L58.0582 73.4259L65.1465 69.3029H65.1489L65.6437 69.0144L66.0603 68.2909Z" fill="white"/>
<path d="M87.0838 60.5995V58.2659L86.2178 57.7617L83.8383 59.1384L86.7115 60.8106L87.0838 60.5995Z" fill="white"/>
<path d="M77.6883 42.6275L76.911 43.0778L77.6883 43.5363V42.6275Z" fill="white"/>
<path d="M75.3659 42.8527L75.3624 42.8503L74.4055 42.3109L63.5921 39.1553L62.6153 39.717V41.8079C62.6153 41.8466 62.5885 41.8747 62.5745 41.9075C62.5593 41.9427 62.557 41.9826 62.5324 42.0107C62.5068 42.0365 62.4648 42.0412 62.4309 42.0565C62.3982 42.0717 62.3714 42.0999 62.3329 42.101L58.3593 42.2265L90.4109 51.5842L84.2596 48.0135L78.1632 44.4838L77.6754 44.2071L77.6731 44.2059C77.6719 44.2059 77.6719 44.2048 77.6719 44.2048C77.6708 44.2036 77.6696 44.2036 77.6696 44.2036L76.184 43.3288L75.3659 42.8527Z" fill="white"/>
<path d="M82.6352 40.8135V39.7593L79.7562 41.4314V42.2453L79.9557 42.3602L82.6352 40.8135Z" fill="white"/>
<path d="M75.506 42.2605L107.169 23.8922L109 22.838V22.3619L75.1069 42.0354L75.506 42.2605Z" fill="white"/>
<path d="M76.3299 42.7366L77.8341 41.8665L78.3278 41.5851C78.3523 41.571 78.378 41.5815 78.4036 41.5745C78.4281 41.5675 78.4456 41.5464 78.4725 41.5464C78.4865 41.5464 78.4947 41.5593 78.5075 41.5616C78.5472 41.5663 78.5763 41.5839 78.6102 41.6038C78.6429 41.6238 78.6709 41.639 78.693 41.6695C78.7024 41.6812 78.7176 41.6824 78.7245 41.6941C78.7386 41.7187 78.7281 41.7434 78.7339 41.768C78.7421 41.7926 78.7631 41.8114 78.7631 41.8395V44.132C78.7631 44.1391 78.7549 44.1438 78.7549 44.152L84.4032 47.4213L107.022 34.3158V24.6556L76.0918 42.5982L76.3299 42.7366ZM79.1727 41.2626C79.1727 41.2485 79.1867 41.2391 79.1879 41.2262C79.1937 41.1875 79.21 41.1594 79.2299 41.1254C79.2497 41.0926 79.2637 41.0632 79.294 41.041C79.3057 41.0316 79.3069 41.0163 79.3186 41.0093L82.781 38.9982L83.2747 38.7168C83.2992 38.7027 83.3249 38.7132 83.3494 38.7062C83.3739 38.6992 83.3914 38.6781 83.4194 38.6781C83.4334 38.6781 83.4427 38.6921 83.4556 38.6933C83.4941 38.6992 83.5221 38.7156 83.5548 38.7355C83.5886 38.7555 83.6178 38.7695 83.6399 38.8024C83.6493 38.8129 83.6645 38.8141 83.6715 38.827C83.6855 38.8516 83.675 38.8762 83.6808 38.9009C83.6878 38.9255 83.71 38.9443 83.71 38.9724V41.2649C83.71 41.2802 83.696 41.2884 83.6948 41.3013C83.6913 41.3271 83.6866 41.347 83.6761 41.3716C83.6715 41.3845 83.6785 41.3963 83.6715 41.4092C83.6621 41.4256 83.6458 41.4338 83.6341 41.4467C83.6224 41.4596 83.6131 41.4713 83.6003 41.4819C83.5874 41.4924 83.5793 41.5065 83.5664 41.5147C83.5653 41.5159 83.5653 41.517 83.5641 41.5182L79.6091 43.8107C79.5636 43.8365 79.5134 43.8494 79.4633 43.8494C79.3956 43.8494 79.3349 43.8178 79.2824 43.7744C79.2684 43.7627 79.2579 43.7533 79.2474 43.7404C79.2369 43.7275 79.2205 43.7193 79.2112 43.704C79.1972 43.6794 79.2077 43.6536 79.2019 43.6278C79.1937 43.6032 79.1727 43.5856 79.1727 43.5574V41.2626Z" fill="white"/>
<path d="M76.3999 62.3104C76.3567 62.335 76.3065 62.3491 76.2564 62.3491C76.2062 62.3491 76.156 62.335 76.1128 62.3104C76.1116 62.3104 76.1116 62.3104 76.1105 62.3104L71.1694 59.4409L70.8286 60.0331C70.852 60.0015 70.8847 59.9862 70.915 59.9663C70.9652 59.9334 71.013 59.9194 71.0737 59.9217C71.1204 59.9241 71.1659 59.9159 71.2079 59.9405L74.9902 62.1321C74.9902 62.1321 74.9902 62.1333 74.9913 62.1333L76.2564 62.8721L81.7879 59.659L83.1078 58.8863C83.109 58.8863 83.109 58.8851 83.109 58.8851L86.0708 57.1695C86.072 57.1695 86.0732 57.1683 86.0732 57.1683L86.5656 56.8893L87.2261 56.4964C87.2273 56.4964 87.2273 56.4964 87.2285 56.4964C87.2296 56.4953 87.2296 56.4941 87.2308 56.4929L87.7233 56.2138L90.5182 54.5827C90.5194 54.5827 90.5206 54.5815 90.5206 54.5815L92.3504 53.5285V53.0524L76.4022 62.3116C76.4011 62.3104 76.4011 62.3104 76.3999 62.3104Z" fill="white"/>
<path d="M30.6465 67.4782L31.4845 67.9696H31.4856L40.8811 73.4271L40.8823 73.4282L41.3724 73.7085L41.544 73.807L43.522 74.9456L49.182 78.2373V77.76L30.6465 67.0162V67.4782Z" fill="white"/>
<path d="M82.2267 60.08V63.4115L86.1257 61.1483L83.2548 59.4773L82.2267 60.08Z" fill="white"/>
<path d="M58.4538 52.0017C58.4503 51.9935 58.4561 51.9853 58.4538 51.977C58.4398 51.9419 58.4491 51.9067 58.4503 51.868C58.4526 51.8293 58.448 51.7953 58.4643 51.7601C58.4678 51.7519 58.4631 51.7437 58.4678 51.7355C58.4841 51.7073 58.5156 51.7015 58.5401 51.6804C58.5635 51.6593 58.5728 51.6276 58.6032 51.6135C58.6113 51.61 58.6195 51.6159 58.6277 51.6135C58.6638 51.5995 58.6989 51.6077 58.7374 51.61C58.7759 51.6123 58.8097 51.6077 58.8436 51.6241C58.8517 51.6276 58.8611 51.6229 58.8681 51.6276L76.2575 61.717L91.9046 52.6314L57.6112 42.6182L47.7419 48.3512L49.7316 77.1033L65.4873 67.9719L58.4538 52.0017Z" fill="white"/>
<path d="M88.1597 61.0498C88.1597 61.0639 88.1469 61.0733 88.1446 61.0862C88.1411 61.1108 88.1364 61.1319 88.1259 61.1565C88.1212 61.1694 88.1282 61.1811 88.1212 61.194C88.1119 61.2105 88.0956 61.2187 88.0839 61.2316C88.0722 61.2445 88.0617 61.2562 88.0489 61.2667C88.0372 61.2773 88.029 61.2914 88.0162 61.2996C88.015 61.3007 88.015 61.3019 88.0139 61.3031L82.0808 64.7495C82.0353 64.7753 81.9851 64.7882 81.935 64.7882C81.8673 64.7882 81.8066 64.7565 81.7541 64.7131C81.7401 64.7014 81.7296 64.692 81.7202 64.6791C81.7074 64.6651 81.6922 64.658 81.6829 64.6428C81.6689 64.6182 81.6794 64.5912 81.6724 64.5666C81.6654 64.5419 81.6444 64.5243 81.6444 64.4962V60.4201L76.4046 63.4643C76.4034 63.4643 76.4034 63.4643 76.4022 63.4643C76.359 63.4889 76.3089 63.503 76.2587 63.503C76.2073 63.503 76.1572 63.4889 76.114 63.4631C76.1128 63.4631 76.1116 63.4631 76.1116 63.4631L75.1384 62.8955V73.6499C75.1384 73.651 75.1407 73.6511 75.1407 73.6522C75.1524 73.6733 75.143 73.6944 75.1489 73.7167C75.157 73.7413 75.1734 73.7601 75.1734 73.7859C75.1745 73.7918 75.1792 73.7941 75.1792 73.8V73.8211L90.3747 65.0051V55.3461L88.1609 56.6383L88.1597 61.0498Z" fill="white"/>
<path d="M65.5853 71.4582V72.4972L69.8134 70.0381L68.9124 69.5186L65.5853 71.4582Z" fill="white"/>
<path d="M22.1531 66.7922C22.1403 66.7934 22.1286 66.8016 22.117 66.8016C22.0668 66.8016 22.0178 66.7876 21.9734 66.7629C21.9722 66.7629 21.9722 66.7629 21.9711 66.7629L12.8498 61.4766V69.3779C12.8498 69.3932 12.8358 69.4014 12.8335 69.4155C12.8288 69.4541 12.8113 69.4823 12.7926 69.5151C12.7728 69.5491 12.7576 69.5773 12.7273 69.5996C12.7156 69.6089 12.7144 69.6242 12.7028 69.6312L12.2115 69.9127C12.1858 69.9267 12.1555 69.9291 12.1274 69.9361L22.1158 75.7313L22.1648 75.702C22.1636 75.6926 22.1543 75.6868 22.1543 75.6774L22.1531 66.7922Z" fill="white"/>
<path d="M1.06664 65.7615L21.8252 77.8081V76.6225L1.06664 64.5771V65.7615Z" fill="white"/>
<path d="M1.27553 63.6402L1.4039 63.714C1.4004 63.7023 1.40973 63.6894 1.40857 63.6777C1.40623 63.6636 1.39223 63.6542 1.39223 63.6402V63.5722L1.27553 63.6402Z" fill="white"/>
<path d="M25.9529 62.8322V63.3939C25.9529 63.4209 25.9307 63.4385 25.9249 63.4643C25.9179 63.4901 25.9284 63.517 25.9144 63.5405C25.905 63.5569 25.8887 63.5639 25.877 63.5769C25.8665 63.5909 25.856 63.6003 25.8443 63.6109C25.7907 63.6542 25.7288 63.6859 25.6623 63.6859C25.6121 63.6859 25.5631 63.673 25.5164 63.6472L22.5464 61.9316C22.5452 61.9305 22.5452 61.9293 22.5441 61.9281C22.5301 61.9199 22.5219 61.9047 22.5114 61.8953C22.4974 61.8836 22.4869 61.873 22.4764 61.8601C22.4659 61.8472 22.4495 61.839 22.4402 61.8237C22.4332 61.8108 22.4402 61.7979 22.4355 61.7862C22.425 61.7616 22.4192 61.7417 22.4157 61.7147C22.4145 61.7006 22.4005 61.6924 22.4005 61.6783V57.2622L14.9096 52.9175V56.9936C14.9096 57.0206 14.8874 57.0382 14.8816 57.064C14.8757 57.0898 14.8851 57.1167 14.8711 57.1402C14.8617 57.1566 14.8466 57.1637 14.8349 57.1766C14.8232 57.1894 14.8127 57.2 14.7999 57.2106C14.7474 57.2539 14.6855 57.2856 14.619 57.2856C14.5688 57.2856 14.5186 57.2727 14.4731 57.2469L8.54126 53.8005C8.5401 53.7993 8.54009 53.7982 8.53893 53.797C8.52492 53.7888 8.51675 53.7735 8.50625 53.7642C8.49225 53.7524 8.48174 53.7419 8.47124 53.729C8.46074 53.7161 8.44323 53.7067 8.4339 53.6914C8.4269 53.6786 8.4339 53.6668 8.42923 53.6539C8.41873 53.6293 8.41406 53.6094 8.41056 53.5836C8.40822 53.5695 8.39539 53.5601 8.39539 53.5472V49.1334L1.97923 45.4137V53.1462L22.7576 65.1998C22.7705 65.2068 22.7716 65.2233 22.7821 65.2315C22.8043 65.2479 22.8172 65.2619 22.8335 65.2842C22.8428 65.296 22.8592 65.2971 22.8662 65.3088C22.8732 65.3206 22.8662 65.3346 22.8708 65.3475C22.8802 65.3722 22.886 65.3909 22.8895 65.4167C22.8907 65.4308 22.9047 65.439 22.9047 65.4531V66.2106C22.9047 66.2247 22.8918 66.2329 22.8895 66.2446C22.8848 66.2833 22.8673 66.3115 22.8487 66.3455C22.8288 66.3783 22.8148 66.4088 22.7845 66.4311C22.774 66.4404 22.7728 66.4557 22.7611 66.4616L22.739 66.4745V75.5097L22.7611 75.5226C22.7728 75.5296 22.774 75.5449 22.7845 75.5531C22.7926 75.5589 22.8055 75.5578 22.8125 75.5648V71.6517C22.8125 71.6247 22.8347 71.6071 22.8405 71.5813C22.8475 71.5555 22.8382 71.5274 22.8522 71.5028C22.8592 71.4899 22.8755 71.4887 22.8837 71.4781C22.907 71.45 22.9327 71.4347 22.9642 71.416C22.9992 71.3937 23.0284 71.3773 23.0692 71.3714C23.0821 71.3703 23.0902 71.3574 23.1031 71.3574C23.1299 71.3574 23.1474 71.3796 23.1731 71.3855C23.1988 71.3925 23.2268 71.382 23.2513 71.3972L23.7519 71.6927L26.876 73.5056C26.8853 73.5115 26.8853 73.5232 26.8946 73.5303C26.9087 73.5396 26.9285 73.5361 26.9402 73.5479C26.9507 73.5608 26.9495 73.5795 26.9588 73.5948C26.9647 73.603 26.9775 73.6041 26.9833 73.6135C26.9903 73.6264 26.9833 73.6405 26.9892 73.6534C26.9997 73.678 27.0055 73.6956 27.009 73.7214C27.0113 73.7366 27.0242 73.746 27.0242 73.7601V78.1657C27.0242 78.1927 27.002 78.2103 26.9962 78.2361C26.9892 78.2619 26.9997 78.2889 26.9857 78.3123C26.9763 78.3287 26.96 78.3358 26.9483 78.3487C26.9378 78.3627 26.9273 78.3721 26.9157 78.3827C26.862 78.4261 26.8001 78.4577 26.7336 78.4577C26.6834 78.4577 26.6344 78.4448 26.5877 78.419L22.9619 76.3235C22.9595 76.3223 22.9595 76.32 22.9584 76.3188C22.9444 76.3106 22.9362 76.2954 22.9257 76.2871C22.9128 76.2754 22.9035 76.266 22.893 76.2543C22.8872 76.2485 22.8802 76.2438 22.8755 76.2379C22.8732 76.2438 22.8685 76.2485 22.8662 76.2555V77.8796L27.0989 80.3293V59.9815L25.9587 59.3178V62.8322H25.9529Z" fill="white"/>
<path d="M23.8931 75.0852L26.1466 73.7648L23.8931 72.4585V75.0852Z" fill="white"/>
<path d="M0.98378 53.9072L1.83102 54.3997L2.32116 54.6776L2.32466 54.6812L2.32816 54.6823L2.8148 54.9767L11.719 60.1363L11.7202 60.1375L12.2103 60.4177L12.2115 60.4201H12.2138L12.7016 60.7132L21.8252 65.9995V65.9034L0.98378 53.824V53.9072Z" fill="white"/>
<path d="M26.436 74.2749L24.0273 75.6856L26.436 77.0822V74.2749Z" fill="white"/>
<path d="M1.27553 53.3162L1.40273 53.3889C1.4004 53.3772 1.40973 53.3643 1.4074 53.3526C1.40623 53.3385 1.39223 53.3303 1.39223 53.3162V53.247L1.27553 53.3162Z" fill="white"/>
<path d="M2.96184 61.9785L8.34637 58.8581L2.96184 55.7377V61.9785Z" fill="white"/>
<path d="M41.691 75.8451L42.7938 75.2025L41.691 74.5669V75.8451Z" fill="white"/>
<path d="M2.96184 63.6402C2.96184 63.6554 2.94784 63.6648 2.9455 63.6777C2.94084 63.7164 2.92333 63.7445 2.90466 63.7774C2.88482 63.8114 2.86965 63.8395 2.83814 63.8618C2.82647 63.8712 2.8253 63.8864 2.81363 63.8946L2.32116 64.1737C2.29549 64.189 2.26514 64.1901 2.23714 64.196L11.2919 69.4506C11.2895 69.4377 11.2989 69.426 11.2977 69.4143C11.2954 69.399 11.2814 69.3908 11.2814 69.3768V60.5585L8.93104 59.1958L2.96184 62.654V63.6402Z" fill="white"/>
<path d="M9.46903 49.7525V53.0981L14.3249 55.9101V52.5786L9.46903 49.7525Z" fill="white"/>
<path d="M30.1844 67.8687C30.1552 67.8441 30.1389 67.816 30.1191 67.7831C30.0992 67.7491 30.0841 67.721 30.0782 67.6835C30.0771 67.6694 30.0631 67.66 30.0631 67.6471V66.5085C30.0631 66.4815 30.0852 66.4639 30.0922 66.4381C30.0981 66.4123 30.0876 66.3853 30.1016 66.3619C30.1074 66.3513 30.1202 66.3513 30.1261 66.3419C30.1319 66.3326 30.1296 66.3208 30.1366 66.3138L44.2713 50.3553L38.5565 53.6692V55.7905C38.5565 55.8046 38.5436 55.8139 38.5413 55.8268C38.5378 55.8515 38.532 55.8714 38.5226 55.896C38.518 55.9089 38.525 55.9218 38.518 55.9347C38.5086 55.9511 38.4923 55.9593 38.4806 55.9722C38.4689 55.9851 38.4584 55.9969 38.4456 56.0074C38.4339 56.0168 38.4269 56.032 38.4141 56.0391L38.4118 56.0426L38.4094 56.0438L34.4556 58.3515C34.409 58.3785 34.3588 58.3914 34.3086 58.3914C34.2397 58.3914 34.1802 58.3598 34.1277 58.3164C34.1137 58.3046 34.1032 58.2953 34.0927 58.2824C34.0822 58.2695 34.067 58.2612 34.0577 58.2472C34.0437 58.2226 34.0542 58.1968 34.0472 58.1721C34.0402 58.1463 34.018 58.1276 34.018 58.0994V56.3006L32.3784 57.261V61.6783C32.3784 61.6936 32.3644 61.7018 32.3632 61.7147C32.3597 61.7405 32.3539 61.7604 32.3434 61.7862C32.3387 61.7979 32.3457 61.8108 32.3387 61.8237C32.3294 61.8402 32.3142 61.8472 32.3025 61.8601C32.2908 61.873 32.2803 61.8847 32.2675 61.8953C32.2558 61.9058 32.2477 61.9199 32.2348 61.9281L32.2325 61.9316L29.2625 63.6472C29.2158 63.673 29.1668 63.6859 29.1166 63.6859C29.0489 63.6859 28.9882 63.6542 28.9346 63.6109C28.9217 63.5991 28.9112 63.5897 28.9019 63.5769C28.8902 63.5628 28.8739 63.5557 28.8645 63.5405C28.8505 63.5159 28.861 63.4901 28.854 63.4643C28.847 63.4397 28.826 63.4221 28.826 63.3939V59.3166L27.6777 59.9827V80.3304L31.0503 78.3768V68.3917L30.2101 67.8992C30.1961 67.8922 30.1961 67.8769 30.1844 67.8687Z" fill="white"/>
<path d="M32.6246 69.6898V70.7265L35.5024 72.3987V71.3609L32.6246 69.6898Z" fill="white"/>
<path d="M41.5452 76.6073C41.537 76.612 41.5276 76.612 41.5195 76.6155V77.801L46.3754 80.6283V77.2816L43.3773 75.539L41.5452 76.6073Z" fill="white"/>
<path d="M46.9589 81.136V81.713C46.9589 81.74 46.9367 81.7575 46.9308 81.7833C46.925 81.8091 46.9343 81.8361 46.9203 81.8596C46.911 81.876 46.8958 81.883 46.883 81.8959C46.8725 81.91 46.862 81.9194 46.8492 81.9299C46.7966 81.9733 46.7348 82.005 46.6683 82.005C46.6181 82.005 46.5679 81.9921 46.5224 81.9663L40.5905 78.5199C40.587 78.5175 40.587 78.514 40.5847 78.5117C40.5719 78.5046 40.5649 78.4917 40.5555 78.4835C40.5415 78.4718 40.5322 78.4624 40.5217 78.4507C40.5112 78.4378 40.496 78.4319 40.4878 78.4178C40.4797 78.405 40.4867 78.3909 40.482 78.3768C40.4703 78.3522 40.4633 78.3311 40.4598 78.3041C40.4587 78.29 40.4447 78.2807 40.4447 78.2678V73.8516L36.0883 71.321V73.4857C36.0883 73.5127 36.0661 73.5303 36.0603 73.5561C36.0533 73.5819 36.0638 73.6088 36.0498 73.6323C36.0404 73.6487 36.0252 73.6557 36.0124 73.6686C36.0019 73.6827 35.9914 73.6921 35.9786 73.7026C35.9261 73.746 35.8642 73.7777 35.7977 73.7777C35.7475 73.7777 35.6973 73.7648 35.6518 73.739L31.6968 71.4465C31.6945 71.4453 31.6945 71.4418 31.6922 71.4394C31.6793 71.4324 31.6712 71.4183 31.6607 71.4101C31.6525 71.4031 31.642 71.4019 31.635 71.3937V78.3768L49.1855 88.5601V78.9151L46.9624 77.6205V81.136H46.9589Z" fill="white"/>
<path d="M23.8114 58.4583V61.411L25.3694 62.3221V59.3577L23.8114 58.4583Z" fill="white"/>
<path d="M36.324 21.7017L33.6026 23.2777L31.9863 24.217H31.9839L31.3222 24.5958L31.3211 24.5969L1.61513 41.829L27.2739 35.5612L36.324 30.3253V21.7017Z" fill="white"/>
<path d="M0 43.5833L1.82985 44.6515L8.83068 48.71L9.32082 48.988L9.32198 48.9891L14.7625 52.1541L22.837 56.8388L22.8382 56.84L23.3283 57.1203L23.3295 57.1214L23.6644 57.3173H23.6656L25.807 58.5532L25.8082 58.5544L27.0919 59.3037V58.8288L0 43.106V43.5833Z" fill="white"/>
<path d="M27.0919 58.151V36.2097L0.485472 42.7096L27.0919 58.151Z" fill="white"/>
<path d="M36.4699 20.9395C36.4815 20.9324 36.4944 20.9395 36.5072 20.9348C36.5317 20.923 36.5527 20.9184 36.5796 20.9148C36.5936 20.9125 36.6029 20.8996 36.6157 20.8996C36.6286 20.8996 36.6379 20.9125 36.6508 20.9148C36.6764 20.9184 36.6963 20.9242 36.7219 20.9336C36.7348 20.9395 36.7476 20.9324 36.7605 20.9395L37.9485 21.6231L68.6417 14.1229L71.4285 12.5164V0.560059L37.3591 20.3227L37.2716 20.3813C37.2681 20.3836 37.2658 20.3825 37.2623 20.3836C37.2599 20.3848 37.2599 20.3871 37.2576 20.3883L37.2553 20.3918L33.0926 22.811L33.3493 22.7477L36.4699 20.9395Z" fill="white"/>
<path d="M27.6754 58.151L63.5232 37.3682L36.6601 30.8073L27.6754 36.0056V58.151Z" fill="white"/>
<path d="M90.6244 6.20166L88.3558 10.8043L103.685 13.7805L90.6244 6.20166Z" fill="white"/>
<path d="M84.1686 12.8541L87.7023 10.8078L89.811 6.53234L86.275 8.59033L84.1686 12.8541Z" fill="white"/>
<path d="M103.213 18.6774L101.731 17.8062H101.73L100.784 17.2679L83.4206 13.8801C83.4124 13.879 83.4101 13.8696 83.4019 13.8684C83.3832 13.8625 83.3645 13.8637 83.3459 13.8543C83.3435 13.8532 83.3435 13.8508 83.3424 13.8496C83.3062 13.8309 83.2782 13.8004 83.2525 13.7687C83.2467 13.7605 83.2373 13.757 83.2315 13.7476C83.2292 13.7441 83.2245 13.7429 83.2222 13.7382C83.2163 13.7277 83.2222 13.7171 83.2187 13.7078C83.2035 13.6761 83.2058 13.6456 83.2035 13.6104C83.2012 13.5846 83.1837 13.5624 83.1883 13.5366C83.1895 13.533 83.193 13.5307 83.1942 13.5272C83.1977 13.5131 83.207 13.5049 83.2117 13.492C83.2152 13.4826 83.2093 13.4721 83.214 13.4627L85.6682 8.4977L72.0085 0.561232V12.4565L107.374 21.0849L103.213 18.6774Z" fill="white"/>
<path d="M103.067 17.1987L102.455 17.5529L103.067 17.9117V17.1987Z" fill="white"/>
<path d="M103.214 16.4365L105.044 15.3835V14.9074L101.475 16.9853L101.873 17.2128L103.214 16.4365Z" fill="white"/>
<path d="M71.7622 12.9983L68.8961 14.6517L68.8949 14.6529L47.4151 27.1146L64.4475 37.0024C64.4603 37.0094 64.4615 37.0258 64.472 37.034C64.4918 37.0493 64.5047 37.0622 64.521 37.0821C64.5292 37.0927 64.5443 37.0962 64.5502 37.1067L64.5537 37.1091C64.5607 37.122 64.5537 37.136 64.5584 37.1489C64.5689 37.1736 64.5747 37.1923 64.5782 37.2193C64.5794 37.2334 64.5934 37.2416 64.5934 37.2557V38.3919C64.5934 38.406 64.5805 38.4142 64.5782 38.4271C64.5735 38.4646 64.556 38.4928 64.5374 38.5268C64.5187 38.5608 64.5047 38.5901 64.4732 38.6124C64.4627 38.6218 64.4615 38.637 64.4498 38.6429L64.2794 38.7437L74.4767 41.7211L108.513 21.9644L71.7622 12.9983Z" fill="white"/>
<path d="M104.516 14.538L87.9765 11.3261L84.3005 13.4545L100.838 16.6804L104.516 14.538Z" fill="white"/>
<path d="M38.6802 22.0488L46.0253 26.316L66.5936 15.2263L38.6802 22.0488Z" fill="white"/>
<path d="M46.6239 26.6585L46.8305 26.7769L52.3842 23.5533L46.6239 26.6585Z" fill="white"/>
<path d="M29.6814 61.6994L29.6791 61.7006C29.6348 61.7252 29.5846 61.7393 29.5344 61.7393C29.4901 61.7393 29.448 61.7252 29.4084 61.7065V62.3245L30.929 61.445L30.5193 61.2081L29.6814 61.6994Z" fill="white"/>
<path d="M57.428 42.0471L58.0488 41.6847L58.05 41.6836L62.1777 39.2925L63.4054 38.5866L64.0087 38.2254V37.7646L27.6754 58.8288V59.3049L28.9707 58.5532H28.9754L28.9766 58.5521L29.3874 58.3246L31.4471 57.1214L31.4494 57.1203L31.9396 56.84L34.1627 55.536L34.1651 55.5348L37.624 53.5425L38.1165 53.247H38.1188L38.12 53.2447L45.5456 48.9387L47.2915 47.9349L47.2926 47.9338L57.428 42.0471Z" fill="white"/>
<path d="M45.8747 26.9059L37.7582 22.1907L37.7571 22.1895L36.9075 21.6993V30.2643L62.3947 36.4887L46.6858 27.3691L45.8759 26.9071L45.8747 26.9059Z" fill="white"/>
<path d="M31.188 60.8985C31.2009 60.8903 31.2137 60.8974 31.2265 60.8927C31.2522 60.8798 31.2732 60.8716 31.3012 60.868V57.8825L29.825 58.7432V60.9337L30.3711 60.6147C30.384 60.6065 30.398 60.6147 30.412 60.6089C30.447 60.5936 30.4785 60.5936 30.5158 60.5936C30.5555 60.5936 30.5882 60.5925 30.6255 60.6089C30.6384 60.6136 30.6524 60.6065 30.6641 60.6136L31.1717 60.9067L31.188 60.8985Z" fill="white"/>
<path d="M45.877 49.423L30.8111 66.4334L49.1458 77.0623L47.1794 48.6749L45.877 49.423Z" fill="white"/>
<path d="M37.4817 55.3402V54.3012L34.6015 55.9594V57.0124L37.4817 55.3402Z" fill="white"/>
<path d="M62.0318 40.0536L59.35 41.6073L62.0318 41.5229V40.0536Z" fill="white"/>
<path d="M65.5853 74.7897L71.2966 71.4746L70.3583 70.9364L65.5853 73.7038V74.7897Z" fill="white"/>
</svg>
