<svg width="22" height="32" viewBox="0 0 22 32" fill="none" xmlns="http://www.w3.org/2000/svg">
<g clip-path="url(#clip0_431_5)">
<path d="M11 1C5.4861 1 1 5.48611 1 11C1 12.6553 1.41385 14.2965 2.20058 15.7522L10.4531 30.6777C10.563 30.8767 10.7724 30.9999 11 30.9999C11.2276 30.9999 11.437 30.8767 11.5469 30.6777L19.8025 15.7473C20.5862 14.2965 21 12.6552 21 10.9999C21 5.4861 16.5139 1 11 1Z" stroke="white" stroke-width="2"/>
<path d="M15 11C15 13.2091 13.2091 15 11 15C8.79086 15 7 13.2091 7 11C7 8.79086 8.79086 7 11 7C13.2091 7 15 8.79086 15 11Z" stroke="white" stroke-width="2"/>
</g>
<defs>
<clipPath id="clip0_431_5">
<rect width="22" height="32" fill="white"/>
</clipPath>
</defs>
</svg>
