<svg width="26" height="31" viewBox="0 0 26 31" fill="none" xmlns="http://www.w3.org/2000/svg">
<path d="M22.9331 12.3101C22.5421 12.3112 22.1547 12.3879 21.7922 12.5356C21.5555 11.6151 20.9029 10.8589 20.0287 10.4922C19.1545 10.1255 18.1596 10.1908 17.3405 10.6688C16.976 10.0737 16.4172 9.62436 15.7592 9.39685C15.1015 9.16929 14.3853 9.17788 13.733 9.42118V3.07752C13.733 1.97811 13.1486 0.962019 12.1996 0.412168C11.2507 -0.137389 10.0818 -0.137389 9.13289 0.412168C8.18396 0.962011 7.59953 1.97811 7.59953 3.07752V16.5666L7.56387 16.5214C6.80201 15.5577 5.69448 14.9314 4.47831 14.7771C3.26213 14.6228 2.0339 14.9525 1.05708 15.6956C0.516582 16.1032 0.152028 16.7028 0.0379753 17.3714C-0.0761143 18.0403 0.0690653 18.7276 0.44385 19.2923L5.04394 26.2208C6.93297 29.0699 10.1184 30.7798 13.5286 30.7755H15.8603C17.856 30.7769 19.8078 30.1902 21.4738 29.0879C23.1398 27.9857 24.4464 26.4166 25.2313 24.5752C25.7396 23.3908 26.0012 22.1145 26 20.8248V15.3879C26 14.5715 25.6768 13.789 25.1018 13.2117C24.5265 12.6347 23.7467 12.3104 22.9333 12.3104L22.9331 12.3101ZM23.9553 20.8245C23.9565 21.8361 23.752 22.8373 23.3544 23.7667C22.7266 25.2387 21.6821 26.4933 20.3501 27.3742C19.0181 28.2555 17.4576 28.7247 15.8621 28.7235H13.5284C10.8028 28.7267 8.25657 27.3594 6.74687 25.0819L2.14677 18.1543C1.96993 17.8867 2.03126 17.5269 2.28682 17.3337C2.84015 16.9149 3.5344 16.7297 4.22178 16.8173C4.90917 16.9049 5.53551 17.2584 5.96675 17.8025L7.82329 20.1321C8.09453 20.4724 8.55032 20.6038 8.96017 20.4593C9.36975 20.315 9.64414 19.9269 9.64385 19.4909V3.07749C9.64385 2.51104 10.1016 2.05165 10.6661 2.05165C11.2306 2.05165 11.6883 2.51104 11.6883 3.07749V14.3617C11.6883 14.9282 12.1461 15.3876 12.7106 15.3876C13.275 15.3876 13.7328 14.9282 13.7328 14.3617V12.3101C13.7328 11.7436 14.1906 11.2842 14.7551 11.2842C15.3195 11.2842 15.7773 11.7436 15.7773 12.3101V15.3876C15.7773 15.954 16.2351 16.4134 16.7996 16.4134C17.364 16.4134 17.8218 15.954 17.8218 15.3876V13.3359C17.8218 12.7695 18.2796 12.3101 18.844 12.3101C19.4085 12.3101 19.8663 12.7695 19.8663 13.3359V16.4134C19.8663 16.9799 20.3241 17.4393 20.8885 17.4393C21.453 17.4393 21.9108 16.9799 21.9108 16.4134V15.3876C21.9108 14.8211 22.3686 14.3617 22.933 14.3617C23.4975 14.3617 23.9553 14.8211 23.9553 15.3876L23.9553 20.8245Z" fill="white"/>
</svg>
