<svg width="95" height="92" viewBox="0 0 95 92" fill="none" xmlns="http://www.w3.org/2000/svg">
<path fill-rule="evenodd" clip-rule="evenodd" d="M72.3479 84.57C78.7496 81.4618 81.6977 77.6405 81.6977 74.2025C81.6977 70.7646 78.7496 66.9434 72.3479 63.8352C66.116 60.8095 57.3339 58.8691 47.4999 58.8691C37.6659 58.8691 28.8839 60.8095 22.652 63.8352C16.2501 66.9434 13.3022 70.7646 13.3022 74.2025C13.3022 77.6405 16.2501 81.4618 22.652 84.57C28.8839 87.5955 37.6659 89.536 47.4999 89.536C57.3339 89.536 66.116 87.5955 72.3479 84.57ZM47.4999 92C67.7452 92 84.1573 84.0318 84.1573 74.2025C84.1573 64.3733 67.7452 56.4051 47.4999 56.4051C27.2547 56.4051 10.8426 64.3733 10.8426 74.2025C10.8426 84.0318 27.2547 92 47.4999 92Z" fill="white"/>
<path fill-rule="evenodd" clip-rule="evenodd" d="M5.5276 54.5027C3.2778 55.9413 2.45961 57.266 2.45961 58.3354C2.45961 59.0158 1.90902 59.5674 1.2298 59.5674C0.550583 59.5674 0 59.0158 0 58.3354C0 55.9491 1.77129 53.9816 4.20421 52.4258C6.69517 50.8329 10.2179 49.4447 14.4615 48.2969C22.9662 45.9966 34.6466 44.5889 47.4999 44.5889C60.3534 44.5889 72.0337 45.9966 80.5385 48.2969C84.7819 49.4447 88.3048 50.8329 90.7957 52.4258C93.2287 53.9816 95 55.9491 95 58.3354C95 59.0158 94.4493 59.5674 93.7702 59.5674C93.091 59.5674 92.5404 59.0158 92.5404 58.3354C92.5404 57.266 91.7221 55.9413 89.4723 54.5027C87.2804 53.1012 84.0272 51.7928 79.8974 50.6758C71.6556 48.4466 60.201 47.053 47.4999 47.053C34.799 47.053 23.3443 48.4466 15.1026 50.6758C10.9728 51.7928 7.71948 53.1012 5.5276 54.5027Z" fill="white"/>
<path fill-rule="evenodd" clip-rule="evenodd" d="M5.5276 15.8433C3.2778 14.4046 2.45961 13.08 2.45961 12.0105C2.45961 11.3301 1.90902 10.7784 1.2298 10.7784C0.550583 10.7784 0 11.3301 0 12.0105C0 14.3969 1.77129 16.3644 4.20421 17.9202C6.69517 19.5131 10.2179 20.9013 14.4615 22.0491C22.9662 24.3492 34.6466 25.7571 47.4999 25.7571C60.3534 25.7571 72.0337 24.3492 80.5385 22.0491C84.7819 20.9013 88.3048 19.5131 90.7957 17.9202C93.2287 16.3644 95 14.3969 95 12.0105C95 11.3301 94.4493 10.7784 93.7702 10.7784C93.091 10.7784 92.5404 11.3301 92.5404 12.0105C92.5404 13.08 91.7221 14.4046 89.4723 15.8433C87.2804 17.2448 84.0272 18.5532 79.8974 19.6702C71.6556 21.8992 60.201 23.293 47.4999 23.293C34.799 23.293 23.3443 21.8992 15.1026 19.6702C10.9728 18.5532 7.71948 17.2448 5.5276 15.8433Z" fill="white"/>
<path fill-rule="evenodd" clip-rule="evenodd" d="M2.45604 46.8488C2.40783 47.485 1.87717 47.9862 1.2298 47.9862C0.550583 47.9862 0 47.4346 0 46.7542C0 45.6668 0.798265 44.9237 1.49261 44.4647C2.24673 43.9664 3.27939 43.5326 4.49198 43.1449C6.93449 42.364 10.405 41.6784 14.6174 41.1087C23.0604 39.967 34.6855 39.265 47.4999 39.265C60.3144 39.265 71.9395 39.967 80.3824 41.1087C84.5949 41.6784 88.0654 42.364 90.5079 43.1449C91.7206 43.5326 92.7532 43.9664 93.5073 44.4647C94.2016 44.9237 95 45.6668 95 46.7542C95 47.4346 94.4493 47.9862 93.7702 47.9862C93.1227 47.9862 92.5922 47.485 92.544 46.8488C92.5095 46.8027 92.4095 46.6911 92.1529 46.5216C91.6744 46.2053 90.8888 45.8532 89.76 45.4922C87.5198 44.7761 84.2142 44.1132 80.0535 43.5506C71.7498 42.4277 60.2398 41.729 47.4999 41.729C34.76 41.729 23.2501 42.4277 14.9465 43.5506C10.7857 44.1132 7.48003 44.7761 5.23982 45.4922C4.11111 45.8532 3.32563 46.2053 2.847 46.5216C2.59046 46.6911 2.49035 46.8027 2.45604 46.8488Z" fill="white"/>
<path fill-rule="evenodd" clip-rule="evenodd" d="M2.45604 23.4972C2.40783 22.861 1.87717 22.3598 1.2298 22.3598C0.550583 22.3598 0 22.9113 0 23.5918C0 24.6792 0.798265 25.4223 1.49261 25.8812C2.24673 26.3796 3.27939 26.8133 4.49198 27.201C6.93449 27.982 10.405 28.6676 14.6174 29.2373C23.0604 30.379 34.6855 31.081 47.4999 31.081C60.3144 31.081 71.9395 30.379 80.3824 29.2373C84.5949 28.6676 88.0654 27.982 90.5079 27.201C91.7206 26.8133 92.7532 26.3796 93.5073 25.8812C94.2016 25.4223 95 24.6792 95 23.5918C95 22.9113 94.4493 22.3598 93.7702 22.3598C93.1227 22.3598 92.5922 22.861 92.544 23.4972C92.5095 23.5432 92.4095 23.6549 92.1529 23.8244C91.6744 24.1406 90.8888 24.4928 89.76 24.8536C87.5198 25.5699 84.2142 26.2326 80.0535 26.7953C71.7498 27.9183 60.2398 28.6169 47.4999 28.6169C34.76 28.6169 23.2501 27.9183 14.9465 26.7953C10.7857 26.2326 7.48003 25.5699 5.23982 24.8536C4.11111 24.4928 3.32563 24.1406 2.847 23.8244C2.59046 23.6549 2.49035 23.5432 2.45604 23.4972Z" fill="white"/>
<path fill-rule="evenodd" clip-rule="evenodd" d="M0 35.173C0 34.4925 0.550583 33.941 1.2298 33.941H93.7702C94.4493 33.941 95 34.4925 95 35.173C95 35.8534 94.4493 36.405 93.7702 36.405H1.2298C0.550583 36.405 0 35.8534 0 35.173Z" fill="white"/>
<path fill-rule="evenodd" clip-rule="evenodd" d="M92.5404 3.69804C89.428 8.46792 83.5853 12.4563 76.1817 15.3031C68.209 18.3687 58.262 20.1765 47.4999 20.1765C36.7379 20.1765 26.7909 18.3687 18.8182 15.3031C11.4145 12.4563 5.57187 8.46792 2.45961 3.69804V66.3914C5.57187 61.6214 11.4145 57.633 18.8182 54.7863C26.7909 51.7207 36.7379 49.913 47.4999 49.913C58.262 49.913 68.209 51.7207 76.1817 54.7863C83.5853 57.633 89.428 61.6214 92.5404 66.3914V3.69804ZM90.9664 1.51811C91.5953 -0.797709 95 -0.341986 95 2.05798V68.0315C95 70.4315 91.5953 70.8871 90.9664 68.5712L90.9478 68.5029C88.4091 64.047 82.9189 60.0161 75.3004 57.0867C67.6458 54.1435 58.003 52.377 47.4999 52.377C36.9969 52.377 27.354 54.1435 19.6996 57.0867C12.0811 60.0161 6.59076 64.047 4.05208 68.5029L4.03351 68.5712C3.40459 70.8871 0 70.4315 0 68.0315V2.05798C0 -0.342109 3.40459 -0.797709 4.03351 1.51811L4.05208 1.58649C6.59076 6.04232 12.0811 10.0734 19.6996 13.0027C27.354 15.9459 36.9969 17.7125 47.4999 17.7125C58.003 17.7125 67.6458 15.9459 75.3004 13.0027C82.9189 10.0734 88.4091 6.04232 90.9478 1.58649L90.9664 1.51811Z" fill="white"/>
<path fill-rule="evenodd" clip-rule="evenodd" d="M88.7679 5.87243C89.4471 5.87243 89.9977 6.424 89.9977 7.10445V63.2415C89.9977 63.922 89.4471 64.4735 88.7679 64.4735C88.0886 64.4735 87.538 63.922 87.538 63.2415V7.10445C87.538 6.424 88.0886 5.87243 88.7679 5.87243Z" fill="white"/>
<path fill-rule="evenodd" clip-rule="evenodd" d="M6.23203 5.87243C5.55281 5.87243 5.00223 6.424 5.00223 7.10445V63.2415C5.00223 63.922 5.55281 64.4735 6.23203 64.4735C6.91125 64.4735 7.46183 63.922 7.46183 63.2415V7.10445C7.46183 6.424 6.91125 5.87243 6.23203 5.87243Z" fill="white"/>
<path fill-rule="evenodd" clip-rule="evenodd" d="M81.7157 10.7784C82.3949 10.7784 82.9455 11.3301 82.9455 12.0105V58.3355C82.9455 59.016 82.3949 59.5675 81.7157 59.5675C81.0366 59.5675 80.4859 59.016 80.4859 58.3355V12.0105C80.4859 11.3301 81.0366 10.7784 81.7157 10.7784Z" fill="white"/>
<path fill-rule="evenodd" clip-rule="evenodd" d="M13.2842 10.7784C12.605 10.7784 12.0544 11.3301 12.0544 12.0105V58.3355C12.0544 59.016 12.605 59.5675 13.2842 59.5675C13.9633 59.5675 14.514 59.016 14.514 58.3355V12.0105C14.514 11.3301 13.9633 10.7784 13.2842 10.7784Z" fill="white"/>
<path fill-rule="evenodd" clip-rule="evenodd" d="M71.9921 15.0075C72.6713 15.0075 73.2219 15.559 73.2219 16.2395V54.1066C73.2219 54.7869 72.6713 55.3386 71.9921 55.3386C71.3129 55.3386 70.7623 54.7869 70.7623 54.1066V16.2395C70.7623 15.559 71.3129 15.0075 71.9921 15.0075Z" fill="white"/>
<path fill-rule="evenodd" clip-rule="evenodd" d="M23.0078 15.0075C22.3286 15.0075 21.778 15.559 21.778 16.2395V54.1066C21.778 54.7869 22.3286 55.3386 23.0078 55.3386C23.687 55.3386 24.2376 54.7869 24.2376 54.1066V16.2395C24.2376 15.559 23.687 15.0075 23.0078 15.0075Z" fill="white"/>
<path fill-rule="evenodd" clip-rule="evenodd" d="M60.4524 17.0357C61.1316 17.0357 61.6822 17.5873 61.6822 18.2677V52.0782C61.6822 52.7587 61.1316 53.3102 60.4524 53.3102C59.7731 53.3102 59.2225 52.7587 59.2225 52.0782V18.2677C59.2225 17.5873 59.7731 17.0357 60.4524 17.0357Z" fill="white"/>
<path fill-rule="evenodd" clip-rule="evenodd" d="M34.5475 17.0357C33.8683 17.0357 33.3177 17.5873 33.3177 18.2677V52.0782C33.3177 52.7587 33.8683 53.3102 34.5475 53.3102C35.2267 53.3102 35.7773 52.7587 35.7773 52.0782V18.2677C35.7773 17.5873 35.2267 17.0357 34.5475 17.0357Z" fill="white"/>
<path fill-rule="evenodd" clip-rule="evenodd" d="M47.4999 18.3569C48.1792 18.3569 48.7297 18.9085 48.7297 19.589V50.757C48.7297 51.4375 48.1792 51.989 47.4999 51.989C46.8207 51.989 46.2701 51.4375 46.2701 50.757V19.589C46.2701 18.9085 46.8207 18.3569 47.4999 18.3569Z" fill="white"/>
<path fill-rule="evenodd" clip-rule="evenodd" d="M47.4999 65.6403C48.1792 65.6403 48.7297 66.1918 48.7297 66.8723V70.583C48.7297 71.2634 48.1792 71.815 47.4999 71.815C46.8207 71.815 46.2701 71.2634 46.2701 70.583V66.8723C46.2701 66.1918 46.8207 65.6403 47.4999 65.6403Z" fill="white"/>
<path fill-rule="evenodd" clip-rule="evenodd" d="M47.4999 76.5901C48.1792 76.5901 48.7297 77.1416 48.7297 77.8221V81.5328C48.7297 82.2132 48.1792 82.7648 47.4999 82.7648C46.8207 82.7648 46.2701 82.2132 46.2701 81.5328V77.8221C46.2701 77.1416 46.8207 76.5901 47.4999 76.5901Z" fill="white"/>
<path fill-rule="evenodd" clip-rule="evenodd" d="M45.2541 74.2025C45.2541 74.883 44.7035 75.4346 44.0243 75.4346H34.975C34.2959 75.4346 33.7452 74.883 33.7452 74.2025C33.7452 73.5221 34.2959 72.9705 34.975 72.9705H44.0243C44.7035 72.9705 45.2541 73.5221 45.2541 74.2025Z" fill="white"/>
<path fill-rule="evenodd" clip-rule="evenodd" d="M61.2548 74.2025C61.2548 74.883 60.7042 75.4346 60.025 75.4346H50.9757C50.2965 75.4346 49.7459 74.883 49.7459 74.2025C49.7459 73.5221 50.2965 72.9705 50.9757 72.9705H60.025C60.7042 72.9705 61.2548 73.5221 61.2548 74.2025Z" fill="white"/>
</svg>
